%TF.GenerationSoftware,KiCad,Pcbnew,5.1.6-c6e7f7d~87~ubuntu20.04.1*%
%TF.CreationDate,2020-08-08T19:49:55+10:00*%
%TF.ProjectId,borscht-esp-pico-panel,626f7273-6368-4742-9d65-73702d706963,rev?*%
%TF.SameCoordinates,Original*%
%TF.FileFunction,Other,Comment*%
%FSLAX46Y46*%
G04 Gerber Fmt 4.6, Leading zero omitted, Abs format (unit mm)*
G04 Created by KiCad (PCBNEW 5.1.6-c6e7f7d~87~ubuntu20.04.1) date 2020-08-08 19:49:55*
%MOMM*%
%LPD*%
G01*
G04 APERTURE LIST*
%ADD10C,0.400000*%
G04 APERTURE END LIST*
D10*
X106054761Y-43261533D02*
X108054761Y-42594867D01*
X106054761Y-41928200D01*
X107292857Y-41261533D02*
X107292857Y-39737724D01*
X107864285Y-37642486D02*
X107959523Y-37737724D01*
X108054761Y-38023438D01*
X108054761Y-38213914D01*
X107959523Y-38499629D01*
X107769047Y-38690105D01*
X107578571Y-38785343D01*
X107197619Y-38880581D01*
X106911904Y-38880581D01*
X106530952Y-38785343D01*
X106340476Y-38690105D01*
X106150000Y-38499629D01*
X106054761Y-38213914D01*
X106054761Y-38023438D01*
X106150000Y-37737724D01*
X106245238Y-37642486D01*
X106054761Y-36785343D02*
X107673809Y-36785343D01*
X107864285Y-36690105D01*
X107959523Y-36594867D01*
X108054761Y-36404390D01*
X108054761Y-36023438D01*
X107959523Y-35832962D01*
X107864285Y-35737724D01*
X107673809Y-35642486D01*
X106054761Y-35642486D01*
X106054761Y-34975819D02*
X106054761Y-33832962D01*
X108054761Y-34404390D02*
X106054761Y-34404390D01*
X107150000Y-46712010D02*
X107150000Y-151712010D01*
X48904761Y-43261533D02*
X50904761Y-42594867D01*
X48904761Y-41928200D01*
X50142857Y-41261533D02*
X50142857Y-39737724D01*
X50714285Y-37642486D02*
X50809523Y-37737724D01*
X50904761Y-38023438D01*
X50904761Y-38213914D01*
X50809523Y-38499629D01*
X50619047Y-38690105D01*
X50428571Y-38785343D01*
X50047619Y-38880581D01*
X49761904Y-38880581D01*
X49380952Y-38785343D01*
X49190476Y-38690105D01*
X49000000Y-38499629D01*
X48904761Y-38213914D01*
X48904761Y-38023438D01*
X49000000Y-37737724D01*
X49095238Y-37642486D01*
X48904761Y-36785343D02*
X50523809Y-36785343D01*
X50714285Y-36690105D01*
X50809523Y-36594867D01*
X50904761Y-36404390D01*
X50904761Y-36023438D01*
X50809523Y-35832962D01*
X50714285Y-35737724D01*
X50523809Y-35642486D01*
X48904761Y-35642486D01*
X48904761Y-34975819D02*
X48904761Y-33832962D01*
X50904761Y-34404390D02*
X48904761Y-34404390D01*
X50000000Y-46712010D02*
X50000000Y-151712010D01*
X134525478Y-98114761D02*
X135192144Y-100114761D01*
X135858811Y-98114761D01*
X136525478Y-99352857D02*
X138049287Y-99352857D01*
X140144525Y-99924285D02*
X140049287Y-100019523D01*
X139763573Y-100114761D01*
X139573097Y-100114761D01*
X139287382Y-100019523D01*
X139096906Y-99829047D01*
X139001668Y-99638571D01*
X138906430Y-99257619D01*
X138906430Y-98971904D01*
X139001668Y-98590952D01*
X139096906Y-98400476D01*
X139287382Y-98210000D01*
X139573097Y-98114761D01*
X139763573Y-98114761D01*
X140049287Y-98210000D01*
X140144525Y-98305238D01*
X141001668Y-98114761D02*
X141001668Y-99733809D01*
X141096906Y-99924285D01*
X141192144Y-100019523D01*
X141382621Y-100114761D01*
X141763573Y-100114761D01*
X141954049Y-100019523D01*
X142049287Y-99924285D01*
X142144525Y-99733809D01*
X142144525Y-98114761D01*
X142811192Y-98114761D02*
X143954049Y-98114761D01*
X143382621Y-100114761D02*
X143382621Y-98114761D01*
X26075003Y-99210000D02*
X131075002Y-99210000D01*
X134525478Y-73514761D02*
X135192144Y-75514761D01*
X135858811Y-73514761D01*
X136525478Y-74752857D02*
X138049287Y-74752857D01*
X140144525Y-75324285D02*
X140049287Y-75419523D01*
X139763573Y-75514761D01*
X139573097Y-75514761D01*
X139287382Y-75419523D01*
X139096906Y-75229047D01*
X139001668Y-75038571D01*
X138906430Y-74657619D01*
X138906430Y-74371904D01*
X139001668Y-73990952D01*
X139096906Y-73800476D01*
X139287382Y-73610000D01*
X139573097Y-73514761D01*
X139763573Y-73514761D01*
X140049287Y-73610000D01*
X140144525Y-73705238D01*
X141001668Y-73514761D02*
X141001668Y-75133809D01*
X141096906Y-75324285D01*
X141192144Y-75419523D01*
X141382621Y-75514761D01*
X141763573Y-75514761D01*
X141954049Y-75419523D01*
X142049287Y-75324285D01*
X142144525Y-75133809D01*
X142144525Y-73514761D01*
X142811192Y-73514761D02*
X143954049Y-73514761D01*
X143382621Y-75514761D02*
X143382621Y-73514761D01*
X26075003Y-74610000D02*
X131075002Y-74610000D01*
X134525478Y-122724761D02*
X135192144Y-124724761D01*
X135858811Y-122724761D01*
X136525478Y-123962857D02*
X138049287Y-123962857D01*
X140144525Y-124534285D02*
X140049287Y-124629523D01*
X139763573Y-124724761D01*
X139573097Y-124724761D01*
X139287382Y-124629523D01*
X139096906Y-124439047D01*
X139001668Y-124248571D01*
X138906430Y-123867619D01*
X138906430Y-123581904D01*
X139001668Y-123200952D01*
X139096906Y-123010476D01*
X139287382Y-122820000D01*
X139573097Y-122724761D01*
X139763573Y-122724761D01*
X140049287Y-122820000D01*
X140144525Y-122915238D01*
X141001668Y-122724761D02*
X141001668Y-124343809D01*
X141096906Y-124534285D01*
X141192144Y-124629523D01*
X141382621Y-124724761D01*
X141763573Y-124724761D01*
X141954049Y-124629523D01*
X142049287Y-124534285D01*
X142144525Y-124343809D01*
X142144525Y-122724761D01*
X142811192Y-122724761D02*
X143954049Y-122724761D01*
X143382621Y-124724761D02*
X143382621Y-122724761D01*
X26075003Y-123820000D02*
X131075002Y-123820000D01*
X134525478Y-48904761D02*
X135192144Y-50904761D01*
X135858811Y-48904761D01*
X136525478Y-50142857D02*
X138049287Y-50142857D01*
X140144525Y-50714285D02*
X140049287Y-50809523D01*
X139763573Y-50904761D01*
X139573097Y-50904761D01*
X139287382Y-50809523D01*
X139096906Y-50619047D01*
X139001668Y-50428571D01*
X138906430Y-50047619D01*
X138906430Y-49761904D01*
X139001668Y-49380952D01*
X139096906Y-49190476D01*
X139287382Y-49000000D01*
X139573097Y-48904761D01*
X139763573Y-48904761D01*
X140049287Y-49000000D01*
X140144525Y-49095238D01*
X141001668Y-48904761D02*
X141001668Y-50523809D01*
X141096906Y-50714285D01*
X141192144Y-50809523D01*
X141382621Y-50904761D01*
X141763573Y-50904761D01*
X141954049Y-50809523D01*
X142049287Y-50714285D01*
X142144525Y-50523809D01*
X142144525Y-48904761D01*
X142811192Y-48904761D02*
X143954049Y-48904761D01*
X143382621Y-50904761D02*
X143382621Y-48904761D01*
X26075003Y-50000000D02*
X131075002Y-50000000D01*
X134525478Y-147324761D02*
X135192144Y-149324761D01*
X135858811Y-147324761D01*
X136525478Y-148562857D02*
X138049287Y-148562857D01*
X140144525Y-149134285D02*
X140049287Y-149229523D01*
X139763573Y-149324761D01*
X139573097Y-149324761D01*
X139287382Y-149229523D01*
X139096906Y-149039047D01*
X139001668Y-148848571D01*
X138906430Y-148467619D01*
X138906430Y-148181904D01*
X139001668Y-147800952D01*
X139096906Y-147610476D01*
X139287382Y-147420000D01*
X139573097Y-147324761D01*
X139763573Y-147324761D01*
X140049287Y-147420000D01*
X140144525Y-147515238D01*
X141001668Y-147324761D02*
X141001668Y-148943809D01*
X141096906Y-149134285D01*
X141192144Y-149229523D01*
X141382621Y-149324761D01*
X141763573Y-149324761D01*
X141954049Y-149229523D01*
X142049287Y-149134285D01*
X142144525Y-148943809D01*
X142144525Y-147324761D01*
X142811192Y-147324761D02*
X143954049Y-147324761D01*
X143382621Y-149324761D02*
X143382621Y-147324761D01*
X26075003Y-148420000D02*
X131075002Y-148420000D01*
M02*
