M48
; DRILL file {KiCad 5.1.6-c6e7f7d~87~ubuntu20.04.1} date Thu Aug 20 22:35:46 2020
; FORMAT={-:-/ absolute / inch / decimal}
; #@! TF.CreationDate,2020-08-20T22:35:46+10:00
; #@! TF.GenerationSoftware,Kicad,Pcbnew,5.1.6-c6e7f7d~87~ubuntu20.04.1
; #@! TF.FileFunction,Plated,1,2,PTH
FMAT,2
INCH
T1C0.0118
T2C0.0236
T3C0.0394
%
G90
G05
T1
X2.2553Y-2.1889
X2.2553Y-3.1576
X2.2553Y-4.1264
X2.2553Y-5.0951
X2.2557Y-2.5739
X2.2557Y-3.5427
X2.2557Y-4.5114
X2.2557Y-5.4802
X2.2561Y-2.144
X2.2561Y-2.2432
X2.2561Y-3.1128
X2.2561Y-3.212
X2.2561Y-4.0815
X2.2561Y-4.1807
X2.2561Y-5.0502
X2.2561Y-5.1494
X2.2576Y-2.2881
X2.2576Y-3.2569
X2.2576Y-4.2256
X2.2576Y-5.1943
X2.2585Y-2.3279
X2.2585Y-2.3779
X2.2585Y-2.4279
X2.2585Y-2.4679
X2.2585Y-2.5079
X2.2585Y-3.2966
X2.2585Y-3.3466
X2.2585Y-3.3966
X2.2585Y-3.4366
X2.2585Y-3.4766
X2.2585Y-4.2654
X2.2585Y-4.3154
X2.2585Y-4.3654
X2.2585Y-4.4054
X2.2585Y-4.4454
X2.2585Y-5.2341
X2.2585Y-5.2841
X2.2585Y-5.3341
X2.2585Y-5.3741
X2.2585Y-5.4141
X2.2769Y-2.6094
X2.2769Y-2.657
X2.2769Y-2.6924
X2.2769Y-3.5781
X2.2769Y-3.6257
X2.2769Y-3.6612
X2.2769Y-4.5469
X2.2769Y-4.5945
X2.2769Y-4.6299
X2.2769Y-5.5156
X2.2769Y-5.5632
X2.2769Y-5.5987
X2.2883Y-2.5747
X2.2883Y-3.5435
X2.2883Y-4.5122
X2.2883Y-5.4809
X2.2985Y-2.5179
X2.2985Y-3.4866
X2.2985Y-4.4554
X2.2985Y-5.4241
X2.3234Y-2.5743
X2.3234Y-3.5431
X2.3234Y-4.5118
X2.3234Y-5.4806
X2.3295Y-2.6179
X2.3295Y-3.5866
X2.3295Y-4.5554
X2.3295Y-5.5241
X2.3475Y-2.4089
X2.3475Y-3.3776
X2.3475Y-4.3464
X2.3475Y-5.3151
X2.3927Y-2.4936
X2.3927Y-3.4624
X2.3927Y-4.4311
X2.3927Y-5.3998
X2.4202Y-2.5275
X2.4202Y-3.4962
X2.4202Y-4.465
X2.4202Y-5.4337
X2.4506Y-2.5531
X2.4506Y-3.5218
X2.4506Y-4.4906
X2.4506Y-5.4593
X2.4545Y-2.7119
X2.4545Y-3.6806
X2.4545Y-4.6494
X2.4545Y-5.6181
X2.5021Y-2.2751
X2.5021Y-3.2439
X2.5021Y-4.2126
X2.5021Y-5.1813
X2.5155Y-2.3857
X2.5155Y-2.5039
X2.5155Y-2.622
X2.5155Y-3.3545
X2.5155Y-3.4726
X2.5155Y-3.5907
X2.5155Y-4.3232
X2.5155Y-4.4413
X2.5155Y-4.5594
X2.5155Y-5.292
X2.5155Y-5.4101
X2.5155Y-5.5282
X2.5301Y-2.705
X2.5301Y-3.6738
X2.5301Y-4.6425
X2.5301Y-5.6113
X2.5585Y-2.2579
X2.5585Y-3.2266
X2.5585Y-4.1954
X2.5585Y-5.1641
X2.5746Y-2.4645
X2.5746Y-2.5039
X2.5746Y-2.5432
X2.5746Y-3.4332
X2.5746Y-3.4726
X2.5746Y-3.512
X2.5746Y-4.402
X2.5746Y-4.4413
X2.5746Y-4.4807
X2.5746Y-5.3707
X2.5746Y-5.4101
X2.5746Y-5.4494
X2.6336Y-2.5039
X2.6336Y-3.4726
X2.6336Y-4.4413
X2.6336Y-5.4101
X2.6799Y-2.6146
X2.6799Y-3.5833
X2.6799Y-4.5521
X2.6799Y-5.5208
X2.6885Y-2.3979
X2.6885Y-3.3666
X2.6885Y-4.3354
X2.6885Y-5.3041
X2.8385Y-2.2179
X2.8385Y-3.1866
X2.8385Y-4.1554
X2.8385Y-5.1241
X2.9085Y-2.3179
X2.9085Y-2.3779
X2.9085Y-3.2866
X2.9085Y-3.3466
X2.9085Y-4.2554
X2.9085Y-4.3154
X2.9085Y-5.2241
X2.9085Y-5.2841
X2.9225Y-2.4759
X2.9225Y-3.4446
X2.9225Y-4.4134
X2.9225Y-5.3821
X2.9285Y-2.2279
X2.9285Y-3.1966
X2.9285Y-4.1654
X2.9285Y-5.1341
X3.0185Y-2.2379
X3.0185Y-3.2066
X3.0185Y-4.1754
X3.0185Y-5.1441
X3.0769Y-2.3188
X3.0769Y-3.2876
X3.0769Y-4.2563
X3.0769Y-5.225
X3.0785Y-2.3739
X3.0785Y-3.3427
X3.0785Y-4.3114
X3.0785Y-5.2802
X3.1365Y-2.2299
X3.1365Y-3.1986
X3.1365Y-4.1674
X3.1365Y-5.1361
X3.1683Y-2.535
X3.1683Y-3.5037
X3.1683Y-4.4724
X3.1683Y-5.4412
X3.2112Y-2.5361
X3.2112Y-3.5049
X3.2112Y-4.4736
X3.2112Y-5.4424
X3.2525Y-2.5373
X3.2525Y-3.5061
X3.2525Y-4.4748
X3.2525Y-5.4435
X3.2919Y-2.535
X3.2919Y-3.5037
X3.2919Y-4.4724
X3.2919Y-5.4412
X3.338Y-2.535
X3.338Y-3.5037
X3.338Y-4.4724
X3.338Y-5.4412
X3.3985Y-2.5239
X3.3985Y-3.4926
X3.3985Y-4.4614
X3.3985Y-5.4301
X3.4495Y-2.5209
X3.4495Y-3.4896
X3.4495Y-4.4584
X3.4495Y-5.4271
X3.4495Y-2.1959
X3.4495Y-3.1646
X3.4495Y-4.1334
X3.4495Y-5.1021
X3.5495Y-2.5219
X3.5495Y-3.4906
X3.5495Y-4.4594
X3.5495Y-5.4281
X3.5685Y-2.1279
X3.5685Y-3.0966
X3.5685Y-4.0654
X3.5685Y-5.0341
X3.6085Y-2.0779
X3.6085Y-3.0466
X3.6085Y-4.0154
X3.6085Y-4.9841
X3.611Y-2.4824
X3.611Y-3.4511
X3.611Y-4.4199
X3.611Y-5.3886
X3.6395Y-2.2739
X3.6395Y-3.2426
X3.6395Y-4.2114
X3.6395Y-5.1801
X3.6431Y-2.7546
X3.6431Y-3.7234
X3.6431Y-4.6921
X3.6431Y-5.6609
X3.7423Y-2.746
X3.7423Y-3.7147
X3.7423Y-4.6835
X3.7423Y-5.6522
X3.7446Y-2.4283
X3.7446Y-3.3971
X3.7446Y-4.3658
X3.7446Y-5.3345
X3.7541Y-2.3614
X3.7541Y-3.3302
X3.7541Y-4.2989
X3.7541Y-5.2676
X3.7628Y-2.5739
X3.7628Y-3.5427
X3.7628Y-4.5114
X3.7628Y-5.4802
X3.7785Y-2.1379
X3.7785Y-3.1066
X3.7785Y-4.0754
X3.7785Y-5.0441
X3.8185Y-2.5838
X3.8185Y-3.5526
X3.8185Y-4.5213
X3.8185Y-5.4901
X3.8495Y-2.3949
X3.8495Y-3.3636
X3.8495Y-4.3324
X3.8495Y-5.3011
X3.8793Y-2.7448
X3.8793Y-3.7135
X3.8793Y-4.6823
X3.8793Y-5.651
X3.8875Y-2.5849
X3.8875Y-3.5536
X3.8875Y-4.5224
X3.8875Y-5.4911
X3.9885Y-2.3879
X3.9885Y-3.3566
X3.9885Y-4.3254
X3.9885Y-5.2941
X4.0295Y-2.2879
X4.0295Y-3.2566
X4.0295Y-4.2254
X4.0295Y-5.1941
X4.1485Y-2.6479
X4.1485Y-3.6166
X4.1485Y-4.5854
X4.1485Y-5.5541
X4.1585Y-2.4779
X4.1585Y-3.4466
X4.1585Y-4.4154
X4.1585Y-5.3841
X4.1685Y-2.2679
X4.1685Y-2.3679
X4.1685Y-3.2366
X4.1685Y-3.3366
X4.1685Y-4.2054
X4.1685Y-4.3054
X4.1685Y-5.1741
X4.1685Y-5.2741
T3
X3.8885Y-4.0254
X3.9885Y-4.0254
X4.0885Y-4.0254
X2.3785Y-4.0654
X2.4785Y-4.0654
X2.5785Y-4.0654
X2.6785Y-4.0654
X2.7785Y-4.0654
X2.8785Y-4.0654
X2.9785Y-4.0654
X3.0785Y-4.0654
X3.1785Y-4.0654
X3.2785Y-4.0654
X2.3785Y-2.1279
X2.4785Y-2.1279
X2.5785Y-2.1279
X2.6785Y-2.1279
X2.7785Y-2.1279
X2.8785Y-2.1279
X2.9785Y-2.1279
X3.0785Y-2.1279
X3.1785Y-2.1279
X3.2785Y-2.1279
X2.1585Y-3.7866
X2.2585Y-3.7866
X2.3585Y-3.7866
X2.4585Y-3.7866
X2.5585Y-3.7866
X2.6585Y-3.7866
X2.7585Y-3.7866
X2.8585Y-3.7866
X2.9585Y-3.7866
X3.0585Y-3.7866
X3.1585Y-3.7866
X3.2585Y-3.7866
X3.3585Y-3.7866
X3.4585Y-3.7866
X3.5585Y-3.7866
X3.6585Y-3.7866
X3.7585Y-3.7866
X3.8585Y-3.7866
X3.9585Y-3.7866
X4.0585Y-3.7866
X3.8885Y-3.0566
X3.9885Y-3.0566
X4.0885Y-3.0566
X3.8885Y-4.9941
X3.9885Y-4.9941
X4.0885Y-4.9941
X2.1585Y-5.7241
X2.2585Y-5.7241
X2.3585Y-5.7241
X2.4585Y-5.7241
X2.5585Y-5.7241
X2.6585Y-5.7241
X2.7585Y-5.7241
X2.8585Y-5.7241
X2.9585Y-5.7241
X3.0585Y-5.7241
X3.1585Y-5.7241
X3.2585Y-5.7241
X3.3585Y-5.7241
X3.4585Y-5.7241
X3.5585Y-5.7241
X3.6585Y-5.7241
X3.7585Y-5.7241
X3.8585Y-5.7241
X3.9585Y-5.7241
X4.0585Y-5.7241
X2.3785Y-3.0966
X2.4785Y-3.0966
X2.5785Y-3.0966
X2.6785Y-3.0966
X2.7785Y-3.0966
X2.8785Y-3.0966
X2.9785Y-3.0966
X3.0785Y-3.0966
X3.1785Y-3.0966
X3.2785Y-3.0966
X2.1585Y-2.8179
X2.2585Y-2.8179
X2.3585Y-2.8179
X2.4585Y-2.8179
X2.5585Y-2.8179
X2.6585Y-2.8179
X2.7585Y-2.8179
X2.8585Y-2.8179
X2.9585Y-2.8179
X3.0585Y-2.8179
X3.1585Y-2.8179
X3.2585Y-2.8179
X3.3585Y-2.8179
X3.4585Y-2.8179
X3.5585Y-2.8179
X3.6585Y-2.8179
X3.7585Y-2.8179
X3.8585Y-2.8179
X3.9585Y-2.8179
X4.0585Y-2.8179
X2.3785Y-5.0341
X2.4785Y-5.0341
X2.5785Y-5.0341
X2.6785Y-5.0341
X2.7785Y-5.0341
X2.8785Y-5.0341
X2.9785Y-5.0341
X3.0785Y-5.0341
X3.1785Y-5.0341
X3.2785Y-5.0341
X3.8885Y-2.0879
X3.9885Y-2.0879
X4.0885Y-2.0879
X2.1585Y-4.7554
X2.2585Y-4.7554
X2.3585Y-4.7554
X2.4585Y-4.7554
X2.5585Y-4.7554
X2.6585Y-4.7554
X2.7585Y-4.7554
X2.8585Y-4.7554
X2.9585Y-4.7554
X3.0585Y-4.7554
X3.1585Y-4.7554
X3.2585Y-4.7554
X3.3585Y-4.7554
X3.4585Y-4.7554
X3.5585Y-4.7554
X3.6585Y-4.7554
X3.7585Y-4.7554
X3.8585Y-4.7554
X3.9585Y-4.7554
X4.0585Y-4.7554
T2
G00X3.9659Y-4.1403
M15
G01X3.9226Y-4.1403
M16
G05
G00X3.9659Y-4.4804
M15
G01X3.9226Y-4.4804
M16
G05
G00X4.1207Y-4.1403
M15
G01X4.097Y-4.1403
M16
G05
G00X4.1207Y-4.4804
M15
G01X4.097Y-4.4804
M16
G05
G00X3.9659Y-2.2028
M15
G01X3.9226Y-2.2028
M16
G05
G00X3.9659Y-2.543
M15
G01X3.9226Y-2.543
M16
G05
G00X4.1207Y-2.2028
M15
G01X4.097Y-2.2028
M16
G05
G00X4.1207Y-2.543
M15
G01X4.097Y-2.543
M16
G05
G00X3.9659Y-3.1715
M15
G01X3.9226Y-3.1715
M16
G05
G00X3.9659Y-3.5117
M15
G01X3.9226Y-3.5117
M16
G05
G00X4.1207Y-3.1715
M15
G01X4.097Y-3.1715
M16
G05
G00X4.1207Y-3.5117
M15
G01X4.097Y-3.5117
M16
G05
G00X3.9659Y-5.109
M15
G01X3.9226Y-5.109
M16
G05
G00X3.9659Y-5.4492
M15
G01X3.9226Y-5.4492
M16
G05
G00X4.1207Y-5.109
M15
G01X4.097Y-5.109
M16
G05
G00X4.1207Y-5.4492
M15
G01X4.097Y-5.4492
M16
G05
T0
M30
