G04 #@! TF.GenerationSoftware,KiCad,Pcbnew,5.1.6-c6e7f7d~87~ubuntu20.04.1*
G04 #@! TF.CreationDate,2020-08-20T22:35:19+10:00*
G04 #@! TF.ProjectId,jackco-esp32-pico-panel-v2,6a61636b-636f-42d6-9573-7033322d7069,rev?*
G04 #@! TF.SameCoordinates,Original*
G04 #@! TF.FileFunction,Legend,Bot*
G04 #@! TF.FilePolarity,Positive*
%FSLAX46Y46*%
G04 Gerber Fmt 4.6, Leading zero omitted, Abs format (unit mm)*
G04 Created by KiCad (PCBNEW 5.1.6-c6e7f7d~87~ubuntu20.04.1) date 2020-08-20 22:35:19*
%MOMM*%
%LPD*%
G01*
G04 APERTURE LIST*
%ADD10C,0.150000*%
%ADD11C,0.120000*%
G04 APERTURE END LIST*
D10*
X60408762Y-140160777D02*
X60456381Y-140303635D01*
X60456381Y-140541730D01*
X60408762Y-140636968D01*
X60361143Y-140684587D01*
X60265905Y-140732206D01*
X60170667Y-140732206D01*
X60075429Y-140684587D01*
X60027810Y-140636968D01*
X59980191Y-140541730D01*
X59932572Y-140351254D01*
X59884953Y-140256016D01*
X59837334Y-140208396D01*
X59742096Y-140160777D01*
X59646858Y-140160777D01*
X59551620Y-140208396D01*
X59504001Y-140256016D01*
X59456381Y-140351254D01*
X59456381Y-140589349D01*
X59504001Y-140732206D01*
X60551620Y-140922682D02*
X60551620Y-141684587D01*
X59456381Y-141779825D02*
X60456381Y-142113158D01*
X59456381Y-142446492D01*
X60456381Y-142779825D02*
X59456381Y-142779825D01*
X59456381Y-143160777D01*
X59504001Y-143256016D01*
X59551620Y-143303635D01*
X59646858Y-143351254D01*
X59789715Y-143351254D01*
X59884953Y-143303635D01*
X59932572Y-143256016D01*
X59980191Y-143160777D01*
X59980191Y-142779825D01*
X62978762Y-138300777D02*
X63026381Y-138443635D01*
X63026381Y-138681730D01*
X62978762Y-138776968D01*
X62931143Y-138824587D01*
X62835905Y-138872206D01*
X62740667Y-138872206D01*
X62645429Y-138824587D01*
X62597810Y-138776968D01*
X62550191Y-138681730D01*
X62502572Y-138491254D01*
X62454953Y-138396016D01*
X62407334Y-138348396D01*
X62312096Y-138300777D01*
X62216858Y-138300777D01*
X62121620Y-138348396D01*
X62074001Y-138396016D01*
X62026381Y-138491254D01*
X62026381Y-138729349D01*
X62074001Y-138872206D01*
X63121620Y-139062682D02*
X63121620Y-139824587D01*
X62931143Y-140634111D02*
X62978762Y-140586492D01*
X63026381Y-140443635D01*
X63026381Y-140348396D01*
X62978762Y-140205539D01*
X62883524Y-140110301D01*
X62788286Y-140062682D01*
X62597810Y-140015063D01*
X62454953Y-140015063D01*
X62264477Y-140062682D01*
X62169239Y-140110301D01*
X62074001Y-140205539D01*
X62026381Y-140348396D01*
X62026381Y-140443635D01*
X62074001Y-140586492D01*
X62121620Y-140634111D01*
X62740667Y-141015063D02*
X62740667Y-141491254D01*
X63026381Y-140919825D02*
X62026381Y-141253158D01*
X63026381Y-141586492D01*
X63026381Y-141919825D02*
X62026381Y-141919825D01*
X62026381Y-142300777D01*
X62074001Y-142396016D01*
X62121620Y-142443635D01*
X62216858Y-142491254D01*
X62359715Y-142491254D01*
X62454953Y-142443635D01*
X62502572Y-142396016D01*
X62550191Y-142300777D01*
X62550191Y-141919825D01*
X63026381Y-142919825D02*
X62026381Y-142919825D01*
X62026381Y-143300777D01*
X62074001Y-143396016D01*
X62121620Y-143443635D01*
X62216858Y-143491254D01*
X62359715Y-143491254D01*
X62454953Y-143443635D01*
X62502572Y-143396016D01*
X62550191Y-143300777D01*
X62550191Y-142919825D01*
X65428762Y-138246968D02*
X65476381Y-138389825D01*
X65476381Y-138627920D01*
X65428762Y-138723158D01*
X65381143Y-138770777D01*
X65285905Y-138818396D01*
X65190667Y-138818396D01*
X65095429Y-138770777D01*
X65047810Y-138723158D01*
X65000191Y-138627920D01*
X64952572Y-138437444D01*
X64904953Y-138342206D01*
X64857334Y-138294587D01*
X64762096Y-138246968D01*
X64666858Y-138246968D01*
X64571620Y-138294587D01*
X64524001Y-138342206D01*
X64476381Y-138437444D01*
X64476381Y-138675539D01*
X64524001Y-138818396D01*
X65571620Y-139008873D02*
X65571620Y-139770777D01*
X65381143Y-140580301D02*
X65428762Y-140532682D01*
X65476381Y-140389825D01*
X65476381Y-140294587D01*
X65428762Y-140151730D01*
X65333524Y-140056492D01*
X65238286Y-140008873D01*
X65047810Y-139961254D01*
X64904953Y-139961254D01*
X64714477Y-140008873D01*
X64619239Y-140056492D01*
X64524001Y-140151730D01*
X64476381Y-140294587D01*
X64476381Y-140389825D01*
X64524001Y-140532682D01*
X64571620Y-140580301D01*
X65190667Y-140961254D02*
X65190667Y-141437444D01*
X65476381Y-140866016D02*
X64476381Y-141199349D01*
X65476381Y-141532682D01*
X65476381Y-141866016D02*
X64476381Y-141866016D01*
X64476381Y-142246968D01*
X64524001Y-142342206D01*
X64571620Y-142389825D01*
X64666858Y-142437444D01*
X64809715Y-142437444D01*
X64904953Y-142389825D01*
X64952572Y-142342206D01*
X65000191Y-142246968D01*
X65000191Y-141866016D01*
X65476381Y-142866016D02*
X64476381Y-142866016D01*
X65476381Y-143437444D01*
X64476381Y-143437444D01*
X67898762Y-140136968D02*
X67946381Y-140279825D01*
X67946381Y-140517920D01*
X67898762Y-140613158D01*
X67851143Y-140660777D01*
X67755905Y-140708396D01*
X67660667Y-140708396D01*
X67565429Y-140660777D01*
X67517810Y-140613158D01*
X67470191Y-140517920D01*
X67422572Y-140327444D01*
X67374953Y-140232206D01*
X67327334Y-140184587D01*
X67232096Y-140136968D01*
X67136858Y-140136968D01*
X67041620Y-140184587D01*
X66994001Y-140232206D01*
X66946381Y-140327444D01*
X66946381Y-140565539D01*
X66994001Y-140708396D01*
X68041620Y-140898873D02*
X68041620Y-141660777D01*
X66946381Y-141756016D02*
X67946381Y-142089349D01*
X66946381Y-142422682D01*
X67946381Y-142756016D02*
X66946381Y-142756016D01*
X67946381Y-143327444D01*
X66946381Y-143327444D01*
X62831620Y-129454111D02*
X62784001Y-129501730D01*
X62736381Y-129596968D01*
X62736381Y-129835063D01*
X62784001Y-129930301D01*
X62831620Y-129977920D01*
X62926858Y-130025539D01*
X63022096Y-130025539D01*
X63164953Y-129977920D01*
X63736381Y-129406492D01*
X63736381Y-130025539D01*
X63736381Y-130977920D02*
X63736381Y-130406492D01*
X63736381Y-130692206D02*
X62736381Y-130692206D01*
X62879239Y-130596968D01*
X62974477Y-130501730D01*
X63022096Y-130406492D01*
X64896381Y-129055539D02*
X64896381Y-129626968D01*
X65896381Y-129341254D02*
X64896381Y-129341254D01*
X65896381Y-129865063D02*
X65229715Y-130388873D01*
X65229715Y-129865063D02*
X65896381Y-130388873D01*
X65896381Y-130769825D02*
X64896381Y-130769825D01*
X64896381Y-131007920D01*
X64944001Y-131150777D01*
X65039239Y-131246016D01*
X65134477Y-131293635D01*
X65324953Y-131341254D01*
X65467810Y-131341254D01*
X65658286Y-131293635D01*
X65753524Y-131246016D01*
X65848762Y-131150777D01*
X65896381Y-131007920D01*
X65896381Y-130769825D01*
X68516381Y-129850777D02*
X68040191Y-129517444D01*
X68516381Y-129279349D02*
X67516381Y-129279349D01*
X67516381Y-129660301D01*
X67564001Y-129755539D01*
X67611620Y-129803158D01*
X67706858Y-129850777D01*
X67849715Y-129850777D01*
X67944953Y-129803158D01*
X67992572Y-129755539D01*
X68040191Y-129660301D01*
X68040191Y-129279349D01*
X68516381Y-130184111D02*
X67849715Y-130707920D01*
X67849715Y-130184111D02*
X68516381Y-130707920D01*
X68516381Y-131088873D02*
X67516381Y-131088873D01*
X67516381Y-131326968D01*
X67564001Y-131469825D01*
X67659239Y-131565063D01*
X67754477Y-131612682D01*
X67944953Y-131660301D01*
X68087810Y-131660301D01*
X68278286Y-131612682D01*
X68373524Y-131565063D01*
X68468762Y-131469825D01*
X68516381Y-131326968D01*
X68516381Y-131088873D01*
X70031620Y-129394111D02*
X69984001Y-129441730D01*
X69936381Y-129536968D01*
X69936381Y-129775063D01*
X69984001Y-129870301D01*
X70031620Y-129917920D01*
X70126858Y-129965539D01*
X70222096Y-129965539D01*
X70364953Y-129917920D01*
X70936381Y-129346492D01*
X70936381Y-129965539D01*
X70031620Y-130346492D02*
X69984001Y-130394111D01*
X69936381Y-130489349D01*
X69936381Y-130727444D01*
X69984001Y-130822682D01*
X70031620Y-130870301D01*
X70126858Y-130917920D01*
X70222096Y-130917920D01*
X70364953Y-130870301D01*
X70936381Y-130298873D01*
X70936381Y-130917920D01*
X73436381Y-129965539D02*
X73436381Y-129394111D01*
X73436381Y-129679825D02*
X72436381Y-129679825D01*
X72579239Y-129584587D01*
X72674477Y-129489349D01*
X72722096Y-129394111D01*
X73436381Y-130441730D02*
X73436381Y-130632206D01*
X73388762Y-130727444D01*
X73341143Y-130775063D01*
X73198286Y-130870301D01*
X73007810Y-130917920D01*
X72626858Y-130917920D01*
X72531620Y-130870301D01*
X72484001Y-130822682D01*
X72436381Y-130727444D01*
X72436381Y-130536968D01*
X72484001Y-130441730D01*
X72531620Y-130394111D01*
X72626858Y-130346492D01*
X72864953Y-130346492D01*
X72960191Y-130394111D01*
X73007810Y-130441730D01*
X73055429Y-130536968D01*
X73055429Y-130727444D01*
X73007810Y-130822682D01*
X72960191Y-130870301D01*
X72864953Y-130917920D01*
X75011620Y-129334111D02*
X74964001Y-129381730D01*
X74916381Y-129476968D01*
X74916381Y-129715063D01*
X74964001Y-129810301D01*
X75011620Y-129857920D01*
X75106858Y-129905539D01*
X75202096Y-129905539D01*
X75344953Y-129857920D01*
X75916381Y-129286492D01*
X75916381Y-129905539D01*
X74916381Y-130238873D02*
X74916381Y-130857920D01*
X75297334Y-130524587D01*
X75297334Y-130667444D01*
X75344953Y-130762682D01*
X75392572Y-130810301D01*
X75487810Y-130857920D01*
X75725905Y-130857920D01*
X75821143Y-130810301D01*
X75868762Y-130762682D01*
X75916381Y-130667444D01*
X75916381Y-130381730D01*
X75868762Y-130286492D01*
X75821143Y-130238873D01*
X78566381Y-129995539D02*
X78566381Y-129424111D01*
X78566381Y-129709825D02*
X77566381Y-129709825D01*
X77709239Y-129614587D01*
X77804477Y-129519349D01*
X77852096Y-129424111D01*
X77994953Y-130566968D02*
X77947334Y-130471730D01*
X77899715Y-130424111D01*
X77804477Y-130376492D01*
X77756858Y-130376492D01*
X77661620Y-130424111D01*
X77614001Y-130471730D01*
X77566381Y-130566968D01*
X77566381Y-130757444D01*
X77614001Y-130852682D01*
X77661620Y-130900301D01*
X77756858Y-130947920D01*
X77804477Y-130947920D01*
X77899715Y-130900301D01*
X77947334Y-130852682D01*
X77994953Y-130757444D01*
X77994953Y-130566968D01*
X78042572Y-130471730D01*
X78090191Y-130424111D01*
X78185429Y-130376492D01*
X78375905Y-130376492D01*
X78471143Y-130424111D01*
X78518762Y-130471730D01*
X78566381Y-130566968D01*
X78566381Y-130757444D01*
X78518762Y-130852682D01*
X78471143Y-130900301D01*
X78375905Y-130947920D01*
X78185429Y-130947920D01*
X78090191Y-130900301D01*
X78042572Y-130852682D01*
X77994953Y-130757444D01*
X80046381Y-129964111D02*
X80046381Y-129487920D01*
X80522572Y-129440301D01*
X80474953Y-129487920D01*
X80427334Y-129583158D01*
X80427334Y-129821254D01*
X80474953Y-129916492D01*
X80522572Y-129964111D01*
X80617810Y-130011730D01*
X80855905Y-130011730D01*
X80951143Y-129964111D01*
X80998762Y-129916492D01*
X81046381Y-129821254D01*
X81046381Y-129583158D01*
X80998762Y-129487920D01*
X80951143Y-129440301D01*
X84984001Y-127124111D02*
X84936381Y-127028873D01*
X84936381Y-126886016D01*
X84984001Y-126743158D01*
X85079239Y-126647920D01*
X85174477Y-126600301D01*
X85364953Y-126552682D01*
X85507810Y-126552682D01*
X85698286Y-126600301D01*
X85793524Y-126647920D01*
X85888762Y-126743158D01*
X85936381Y-126886016D01*
X85936381Y-126981254D01*
X85888762Y-127124111D01*
X85841143Y-127171730D01*
X85507810Y-127171730D01*
X85507810Y-126981254D01*
X85936381Y-127600301D02*
X84936381Y-127600301D01*
X85936381Y-128171730D01*
X84936381Y-128171730D01*
X85936381Y-128647920D02*
X84936381Y-128647920D01*
X84936381Y-128886016D01*
X84984001Y-129028873D01*
X85079239Y-129124111D01*
X85174477Y-129171730D01*
X85364953Y-129219349D01*
X85507810Y-129219349D01*
X85698286Y-129171730D01*
X85793524Y-129124111D01*
X85888762Y-129028873D01*
X85936381Y-128886016D01*
X85936381Y-128647920D01*
X57746381Y-126635539D02*
X57746381Y-127254587D01*
X58127334Y-126921254D01*
X58127334Y-127064111D01*
X58174953Y-127159349D01*
X58222572Y-127206968D01*
X58317810Y-127254587D01*
X58555905Y-127254587D01*
X58651143Y-127206968D01*
X58698762Y-127159349D01*
X58746381Y-127064111D01*
X58746381Y-126778396D01*
X58698762Y-126683158D01*
X58651143Y-126635539D01*
X58079715Y-127587920D02*
X58746381Y-127826016D01*
X58079715Y-128064111D01*
X57746381Y-128349825D02*
X57746381Y-128968873D01*
X58127334Y-128635539D01*
X58127334Y-128778396D01*
X58174953Y-128873635D01*
X58222572Y-128921254D01*
X58317810Y-128968873D01*
X58555905Y-128968873D01*
X58651143Y-128921254D01*
X58698762Y-128873635D01*
X58746381Y-128778396D01*
X58746381Y-128492682D01*
X58698762Y-128397444D01*
X58651143Y-128349825D01*
X96006381Y-126633158D02*
X96006381Y-126156968D01*
X96482572Y-126109349D01*
X96434953Y-126156968D01*
X96387334Y-126252206D01*
X96387334Y-126490301D01*
X96434953Y-126585539D01*
X96482572Y-126633158D01*
X96577810Y-126680777D01*
X96815905Y-126680777D01*
X96911143Y-126633158D01*
X96958762Y-126585539D01*
X97006381Y-126490301D01*
X97006381Y-126252206D01*
X96958762Y-126156968D01*
X96911143Y-126109349D01*
X96339715Y-127014111D02*
X97006381Y-127252206D01*
X96339715Y-127490301D01*
X105494001Y-126114111D02*
X105446381Y-126018873D01*
X105446381Y-125876016D01*
X105494001Y-125733158D01*
X105589239Y-125637920D01*
X105684477Y-125590301D01*
X105874953Y-125542682D01*
X106017810Y-125542682D01*
X106208286Y-125590301D01*
X106303524Y-125637920D01*
X106398762Y-125733158D01*
X106446381Y-125876016D01*
X106446381Y-125971254D01*
X106398762Y-126114111D01*
X106351143Y-126161730D01*
X106017810Y-126161730D01*
X106017810Y-125971254D01*
X106446381Y-126590301D02*
X105446381Y-126590301D01*
X106446381Y-127161730D01*
X105446381Y-127161730D01*
X106446381Y-127637920D02*
X105446381Y-127637920D01*
X105446381Y-127876016D01*
X105494001Y-128018873D01*
X105589239Y-128114111D01*
X105684477Y-128161730D01*
X105874953Y-128209349D01*
X106017810Y-128209349D01*
X106208286Y-128161730D01*
X106303524Y-128114111D01*
X106398762Y-128018873D01*
X106446381Y-127876016D01*
X106446381Y-127637920D01*
X76990072Y-134040087D02*
X76990072Y-134856516D01*
X77044501Y-135019801D01*
X77153358Y-135128658D01*
X77316643Y-135183087D01*
X77425501Y-135183087D01*
X75955929Y-135183087D02*
X75955929Y-134584373D01*
X76010358Y-134475516D01*
X76119215Y-134421087D01*
X76336929Y-134421087D01*
X76445786Y-134475516D01*
X75955929Y-135128658D02*
X76064786Y-135183087D01*
X76336929Y-135183087D01*
X76445786Y-135128658D01*
X76500215Y-135019801D01*
X76500215Y-134910944D01*
X76445786Y-134802087D01*
X76336929Y-134747658D01*
X76064786Y-134747658D01*
X75955929Y-134693230D01*
X74921786Y-135128658D02*
X75030643Y-135183087D01*
X75248358Y-135183087D01*
X75357215Y-135128658D01*
X75411643Y-135074230D01*
X75466072Y-134965373D01*
X75466072Y-134638801D01*
X75411643Y-134529944D01*
X75357215Y-134475516D01*
X75248358Y-134421087D01*
X75030643Y-134421087D01*
X74921786Y-134475516D01*
X74431929Y-135183087D02*
X74431929Y-134040087D01*
X74323072Y-134747658D02*
X73996501Y-135183087D01*
X73996501Y-134421087D02*
X74431929Y-134856516D01*
X73016786Y-135128658D02*
X73125643Y-135183087D01*
X73343358Y-135183087D01*
X73452215Y-135128658D01*
X73506643Y-135074230D01*
X73561072Y-134965373D01*
X73561072Y-134638801D01*
X73506643Y-134529944D01*
X73452215Y-134475516D01*
X73343358Y-134421087D01*
X73125643Y-134421087D01*
X73016786Y-134475516D01*
X72363643Y-135183087D02*
X72472501Y-135128658D01*
X72526929Y-135074230D01*
X72581358Y-134965373D01*
X72581358Y-134638801D01*
X72526929Y-134529944D01*
X72472501Y-134475516D01*
X72363643Y-134421087D01*
X72200358Y-134421087D01*
X72091501Y-134475516D01*
X72037072Y-134529944D01*
X71982643Y-134638801D01*
X71982643Y-134965373D01*
X72037072Y-135074230D01*
X72091501Y-135128658D01*
X72200358Y-135183087D01*
X72363643Y-135183087D01*
X71492786Y-134584373D02*
X71111786Y-134584373D01*
X70948501Y-135183087D02*
X71492786Y-135183087D01*
X71492786Y-134040087D01*
X70948501Y-134040087D01*
X70513072Y-135128658D02*
X70349786Y-135183087D01*
X70077643Y-135183087D01*
X69968786Y-135128658D01*
X69914358Y-135074230D01*
X69859929Y-134965373D01*
X69859929Y-134856516D01*
X69914358Y-134747658D01*
X69968786Y-134693230D01*
X70077643Y-134638801D01*
X70295358Y-134584373D01*
X70404215Y-134529944D01*
X70458643Y-134475516D01*
X70513072Y-134366658D01*
X70513072Y-134257801D01*
X70458643Y-134148944D01*
X70404215Y-134094516D01*
X70295358Y-134040087D01*
X70023215Y-134040087D01*
X69859929Y-134094516D01*
X69370072Y-135183087D02*
X69370072Y-134040087D01*
X68934643Y-134040087D01*
X68825786Y-134094516D01*
X68771358Y-134148944D01*
X68716929Y-134257801D01*
X68716929Y-134421087D01*
X68771358Y-134529944D01*
X68825786Y-134584373D01*
X68934643Y-134638801D01*
X69370072Y-134638801D01*
X68335929Y-134040087D02*
X67628358Y-134040087D01*
X68009358Y-134475516D01*
X67846072Y-134475516D01*
X67737215Y-134529944D01*
X67682786Y-134584373D01*
X67628358Y-134693230D01*
X67628358Y-134965373D01*
X67682786Y-135074230D01*
X67737215Y-135128658D01*
X67846072Y-135183087D01*
X68172643Y-135183087D01*
X68281501Y-135128658D01*
X68335929Y-135074230D01*
X67192929Y-134148944D02*
X67138501Y-134094516D01*
X67029643Y-134040087D01*
X66757501Y-134040087D01*
X66648643Y-134094516D01*
X66594215Y-134148944D01*
X66539786Y-134257801D01*
X66539786Y-134366658D01*
X66594215Y-134529944D01*
X67247358Y-135183087D01*
X66539786Y-135183087D01*
X66049929Y-134747658D02*
X65179072Y-134747658D01*
X64634786Y-135183087D02*
X64634786Y-134040087D01*
X64199358Y-134040087D01*
X64090501Y-134094516D01*
X64036072Y-134148944D01*
X63981643Y-134257801D01*
X63981643Y-134421087D01*
X64036072Y-134529944D01*
X64090501Y-134584373D01*
X64199358Y-134638801D01*
X64634786Y-134638801D01*
X63491786Y-135183087D02*
X63491786Y-134040087D01*
X62294358Y-135074230D02*
X62348786Y-135128658D01*
X62512072Y-135183087D01*
X62620929Y-135183087D01*
X62784215Y-135128658D01*
X62893072Y-135019801D01*
X62947501Y-134910944D01*
X63001929Y-134693230D01*
X63001929Y-134529944D01*
X62947501Y-134312230D01*
X62893072Y-134203373D01*
X62784215Y-134094516D01*
X62620929Y-134040087D01*
X62512072Y-134040087D01*
X62348786Y-134094516D01*
X62294358Y-134148944D01*
X61586786Y-134040087D02*
X61369072Y-134040087D01*
X61260215Y-134094516D01*
X61151358Y-134203373D01*
X61096929Y-134421087D01*
X61096929Y-134802087D01*
X61151358Y-135019801D01*
X61260215Y-135128658D01*
X61369072Y-135183087D01*
X61586786Y-135183087D01*
X61695643Y-135128658D01*
X61804501Y-135019801D01*
X61858929Y-134802087D01*
X61858929Y-134421087D01*
X61804501Y-134203373D01*
X61695643Y-134094516D01*
X61586786Y-134040087D01*
X53462572Y-130121730D02*
X53510191Y-130264587D01*
X53557810Y-130312206D01*
X53653048Y-130359825D01*
X53795905Y-130359825D01*
X53891143Y-130312206D01*
X53938762Y-130264587D01*
X53986381Y-130169349D01*
X53986381Y-129788396D01*
X52986381Y-129788396D01*
X52986381Y-130121730D01*
X53034001Y-130216968D01*
X53081620Y-130264587D01*
X53176858Y-130312206D01*
X53272096Y-130312206D01*
X53367334Y-130264587D01*
X53414953Y-130216968D01*
X53462572Y-130121730D01*
X53462572Y-129788396D01*
X53319715Y-130693158D02*
X53986381Y-130931254D01*
X53319715Y-131169349D02*
X53986381Y-130931254D01*
X54224477Y-130836016D01*
X54272096Y-130788396D01*
X54319715Y-130693158D01*
X52986381Y-132597920D02*
X53700667Y-132597920D01*
X53843524Y-132550301D01*
X53938762Y-132455063D01*
X53986381Y-132312206D01*
X53986381Y-132216968D01*
X53986381Y-133502682D02*
X53462572Y-133502682D01*
X53367334Y-133455063D01*
X53319715Y-133359825D01*
X53319715Y-133169349D01*
X53367334Y-133074111D01*
X53938762Y-133502682D02*
X53986381Y-133407444D01*
X53986381Y-133169349D01*
X53938762Y-133074111D01*
X53843524Y-133026492D01*
X53748286Y-133026492D01*
X53653048Y-133074111D01*
X53605429Y-133169349D01*
X53605429Y-133407444D01*
X53557810Y-133502682D01*
X53938762Y-134407444D02*
X53986381Y-134312206D01*
X53986381Y-134121730D01*
X53938762Y-134026492D01*
X53891143Y-133978873D01*
X53795905Y-133931254D01*
X53510191Y-133931254D01*
X53414953Y-133978873D01*
X53367334Y-134026492D01*
X53319715Y-134121730D01*
X53319715Y-134312206D01*
X53367334Y-134407444D01*
X53986381Y-134836016D02*
X52986381Y-134836016D01*
X53605429Y-134931254D02*
X53986381Y-135216968D01*
X53319715Y-135216968D02*
X53700667Y-134836016D01*
X53938762Y-135597920D02*
X53986381Y-135693158D01*
X53986381Y-135883635D01*
X53938762Y-135978873D01*
X53843524Y-136026492D01*
X53795905Y-136026492D01*
X53700667Y-135978873D01*
X53653048Y-135883635D01*
X53653048Y-135740777D01*
X53605429Y-135645539D01*
X53510191Y-135597920D01*
X53462572Y-135597920D01*
X53367334Y-135645539D01*
X53319715Y-135740777D01*
X53319715Y-135883635D01*
X53367334Y-135978873D01*
X53986381Y-136597920D02*
X53938762Y-136502682D01*
X53891143Y-136455063D01*
X53795905Y-136407444D01*
X53510191Y-136407444D01*
X53414953Y-136455063D01*
X53367334Y-136502682D01*
X53319715Y-136597920D01*
X53319715Y-136740777D01*
X53367334Y-136836016D01*
X53414953Y-136883635D01*
X53510191Y-136931254D01*
X53795905Y-136931254D01*
X53891143Y-136883635D01*
X53938762Y-136836016D01*
X53986381Y-136740777D01*
X53986381Y-136597920D01*
X53319715Y-137359825D02*
X53986381Y-137359825D01*
X53414953Y-137359825D02*
X53367334Y-137407444D01*
X53319715Y-137502682D01*
X53319715Y-137645539D01*
X53367334Y-137740777D01*
X53462572Y-137788396D01*
X53986381Y-137788396D01*
X53986381Y-139026492D02*
X52986381Y-139026492D01*
X53700667Y-139359825D01*
X52986381Y-139693158D01*
X53986381Y-139693158D01*
X53891143Y-140169349D02*
X53938762Y-140216968D01*
X53986381Y-140169349D01*
X53938762Y-140121730D01*
X53891143Y-140169349D01*
X53986381Y-140169349D01*
X53986381Y-141407444D02*
X52986381Y-141407444D01*
X53462572Y-141407444D02*
X53462572Y-141978873D01*
X53986381Y-141978873D02*
X52986381Y-141978873D01*
X53319715Y-142883635D02*
X53986381Y-142883635D01*
X53319715Y-142455063D02*
X53843524Y-142455063D01*
X53938762Y-142502682D01*
X53986381Y-142597920D01*
X53986381Y-142740777D01*
X53938762Y-142836016D01*
X53891143Y-142883635D01*
X76709239Y-137098396D02*
X77042572Y-136622206D01*
X77280667Y-137098396D02*
X77280667Y-136098396D01*
X76899715Y-136098396D01*
X76804477Y-136146016D01*
X76756858Y-136193635D01*
X76709239Y-136288873D01*
X76709239Y-136431730D01*
X76756858Y-136526968D01*
X76804477Y-136574587D01*
X76899715Y-136622206D01*
X77280667Y-136622206D01*
X75899715Y-137050777D02*
X75994953Y-137098396D01*
X76185429Y-137098396D01*
X76280667Y-137050777D01*
X76328286Y-136955539D01*
X76328286Y-136574587D01*
X76280667Y-136479349D01*
X76185429Y-136431730D01*
X75994953Y-136431730D01*
X75899715Y-136479349D01*
X75852096Y-136574587D01*
X75852096Y-136669825D01*
X76328286Y-136765063D01*
X75518762Y-136431730D02*
X75280667Y-137098396D01*
X75042572Y-136431730D01*
X74661620Y-137003158D02*
X74614001Y-137050777D01*
X74661620Y-137098396D01*
X74709239Y-137050777D01*
X74661620Y-137003158D01*
X74661620Y-137098396D01*
X72899715Y-137098396D02*
X73471143Y-137098396D01*
X73185429Y-137098396D02*
X73185429Y-136098396D01*
X73280667Y-136241254D01*
X73375905Y-136336492D01*
X73471143Y-136384111D01*
X55471143Y-129128396D02*
X55518762Y-129080777D01*
X55566381Y-128937920D01*
X55566381Y-128842682D01*
X55518762Y-128699825D01*
X55423524Y-128604587D01*
X55328286Y-128556968D01*
X55137810Y-128509349D01*
X54994953Y-128509349D01*
X54804477Y-128556968D01*
X54709239Y-128604587D01*
X54614001Y-128699825D01*
X54566381Y-128842682D01*
X54566381Y-128937920D01*
X54614001Y-129080777D01*
X54661620Y-129128396D01*
X55566381Y-129699825D02*
X55518762Y-129604587D01*
X55471143Y-129556968D01*
X55375905Y-129509349D01*
X55090191Y-129509349D01*
X54994953Y-129556968D01*
X54947334Y-129604587D01*
X54899715Y-129699825D01*
X54899715Y-129842682D01*
X54947334Y-129937920D01*
X54994953Y-129985539D01*
X55090191Y-130033158D01*
X55375905Y-130033158D01*
X55471143Y-129985539D01*
X55518762Y-129937920D01*
X55566381Y-129842682D01*
X55566381Y-129699825D01*
X54899715Y-130461730D02*
X55899715Y-130461730D01*
X54947334Y-130461730D02*
X54899715Y-130556968D01*
X54899715Y-130747444D01*
X54947334Y-130842682D01*
X54994953Y-130890301D01*
X55090191Y-130937920D01*
X55375905Y-130937920D01*
X55471143Y-130890301D01*
X55518762Y-130842682D01*
X55566381Y-130747444D01*
X55566381Y-130556968D01*
X55518762Y-130461730D01*
X54899715Y-131271254D02*
X55566381Y-131509349D01*
X54899715Y-131747444D02*
X55566381Y-131509349D01*
X55804477Y-131414111D01*
X55852096Y-131366492D01*
X55899715Y-131271254D01*
X55566381Y-132128396D02*
X54899715Y-132128396D01*
X55090191Y-132128396D02*
X54994953Y-132176016D01*
X54947334Y-132223635D01*
X54899715Y-132318873D01*
X54899715Y-132414111D01*
X55566381Y-132747444D02*
X54899715Y-132747444D01*
X54566381Y-132747444D02*
X54614001Y-132699825D01*
X54661620Y-132747444D01*
X54614001Y-132795063D01*
X54566381Y-132747444D01*
X54661620Y-132747444D01*
X54899715Y-133652206D02*
X55709239Y-133652206D01*
X55804477Y-133604587D01*
X55852096Y-133556968D01*
X55899715Y-133461730D01*
X55899715Y-133318873D01*
X55852096Y-133223635D01*
X55518762Y-133652206D02*
X55566381Y-133556968D01*
X55566381Y-133366492D01*
X55518762Y-133271254D01*
X55471143Y-133223635D01*
X55375905Y-133176016D01*
X55090191Y-133176016D01*
X54994953Y-133223635D01*
X54947334Y-133271254D01*
X54899715Y-133366492D01*
X54899715Y-133556968D01*
X54947334Y-133652206D01*
X55566381Y-134128396D02*
X54566381Y-134128396D01*
X55566381Y-134556968D02*
X55042572Y-134556968D01*
X54947334Y-134509349D01*
X54899715Y-134414111D01*
X54899715Y-134271254D01*
X54947334Y-134176016D01*
X54994953Y-134128396D01*
X54899715Y-134890301D02*
X54899715Y-135271254D01*
X54566381Y-135033158D02*
X55423524Y-135033158D01*
X55518762Y-135080777D01*
X55566381Y-135176016D01*
X55566381Y-135271254D01*
X55947334Y-136652206D02*
X55899715Y-136604587D01*
X55756858Y-136509349D01*
X55661620Y-136461730D01*
X55518762Y-136414111D01*
X55280667Y-136366492D01*
X55090191Y-136366492D01*
X54852096Y-136414111D01*
X54709239Y-136461730D01*
X54614001Y-136509349D01*
X54471143Y-136604587D01*
X54423524Y-136652206D01*
X55471143Y-137604587D02*
X55518762Y-137556968D01*
X55566381Y-137414111D01*
X55566381Y-137318873D01*
X55518762Y-137176016D01*
X55423524Y-137080777D01*
X55328286Y-137033158D01*
X55137810Y-136985539D01*
X54994953Y-136985539D01*
X54804477Y-137033158D01*
X54709239Y-137080777D01*
X54614001Y-137176016D01*
X54566381Y-137318873D01*
X54566381Y-137414111D01*
X54614001Y-137556968D01*
X54661620Y-137604587D01*
X55947334Y-137937920D02*
X55899715Y-137985539D01*
X55756858Y-138080777D01*
X55661620Y-138128396D01*
X55518762Y-138176016D01*
X55280667Y-138223635D01*
X55090191Y-138223635D01*
X54852096Y-138176016D01*
X54709239Y-138128396D01*
X54614001Y-138080777D01*
X54471143Y-137985539D01*
X54423524Y-137937920D01*
X54661620Y-139414111D02*
X54614001Y-139461730D01*
X54566381Y-139556968D01*
X54566381Y-139795063D01*
X54614001Y-139890301D01*
X54661620Y-139937920D01*
X54756858Y-139985539D01*
X54852096Y-139985539D01*
X54994953Y-139937920D01*
X55566381Y-139366492D01*
X55566381Y-139985539D01*
X54566381Y-140604587D02*
X54566381Y-140699825D01*
X54614001Y-140795063D01*
X54661620Y-140842682D01*
X54756858Y-140890301D01*
X54947334Y-140937920D01*
X55185429Y-140937920D01*
X55375905Y-140890301D01*
X55471143Y-140842682D01*
X55518762Y-140795063D01*
X55566381Y-140699825D01*
X55566381Y-140604587D01*
X55518762Y-140509349D01*
X55471143Y-140461730D01*
X55375905Y-140414111D01*
X55185429Y-140366492D01*
X54947334Y-140366492D01*
X54756858Y-140414111D01*
X54661620Y-140461730D01*
X54614001Y-140509349D01*
X54566381Y-140604587D01*
X54661620Y-141318873D02*
X54614001Y-141366492D01*
X54566381Y-141461730D01*
X54566381Y-141699825D01*
X54614001Y-141795063D01*
X54661620Y-141842682D01*
X54756858Y-141890301D01*
X54852096Y-141890301D01*
X54994953Y-141842682D01*
X55566381Y-141271254D01*
X55566381Y-141890301D01*
X54566381Y-142509349D02*
X54566381Y-142604587D01*
X54614001Y-142699825D01*
X54661620Y-142747444D01*
X54756858Y-142795063D01*
X54947334Y-142842682D01*
X55185429Y-142842682D01*
X55375905Y-142795063D01*
X55471143Y-142747444D01*
X55518762Y-142699825D01*
X55566381Y-142604587D01*
X55566381Y-142509349D01*
X55518762Y-142414111D01*
X55471143Y-142366492D01*
X55375905Y-142318873D01*
X55185429Y-142271254D01*
X54947334Y-142271254D01*
X54756858Y-142318873D01*
X54661620Y-142366492D01*
X54614001Y-142414111D01*
X54566381Y-142509349D01*
X60408762Y-115554772D02*
X60456381Y-115697630D01*
X60456381Y-115935725D01*
X60408762Y-116030963D01*
X60361143Y-116078582D01*
X60265905Y-116126201D01*
X60170667Y-116126201D01*
X60075429Y-116078582D01*
X60027810Y-116030963D01*
X59980191Y-115935725D01*
X59932572Y-115745249D01*
X59884953Y-115650011D01*
X59837334Y-115602391D01*
X59742096Y-115554772D01*
X59646858Y-115554772D01*
X59551620Y-115602391D01*
X59504001Y-115650011D01*
X59456381Y-115745249D01*
X59456381Y-115983344D01*
X59504001Y-116126201D01*
X60551620Y-116316677D02*
X60551620Y-117078582D01*
X59456381Y-117173820D02*
X60456381Y-117507153D01*
X59456381Y-117840487D01*
X60456381Y-118173820D02*
X59456381Y-118173820D01*
X59456381Y-118554772D01*
X59504001Y-118650011D01*
X59551620Y-118697630D01*
X59646858Y-118745249D01*
X59789715Y-118745249D01*
X59884953Y-118697630D01*
X59932572Y-118650011D01*
X59980191Y-118554772D01*
X59980191Y-118173820D01*
X62978762Y-113694772D02*
X63026381Y-113837630D01*
X63026381Y-114075725D01*
X62978762Y-114170963D01*
X62931143Y-114218582D01*
X62835905Y-114266201D01*
X62740667Y-114266201D01*
X62645429Y-114218582D01*
X62597810Y-114170963D01*
X62550191Y-114075725D01*
X62502572Y-113885249D01*
X62454953Y-113790011D01*
X62407334Y-113742391D01*
X62312096Y-113694772D01*
X62216858Y-113694772D01*
X62121620Y-113742391D01*
X62074001Y-113790011D01*
X62026381Y-113885249D01*
X62026381Y-114123344D01*
X62074001Y-114266201D01*
X63121620Y-114456677D02*
X63121620Y-115218582D01*
X62931143Y-116028106D02*
X62978762Y-115980487D01*
X63026381Y-115837630D01*
X63026381Y-115742391D01*
X62978762Y-115599534D01*
X62883524Y-115504296D01*
X62788286Y-115456677D01*
X62597810Y-115409058D01*
X62454953Y-115409058D01*
X62264477Y-115456677D01*
X62169239Y-115504296D01*
X62074001Y-115599534D01*
X62026381Y-115742391D01*
X62026381Y-115837630D01*
X62074001Y-115980487D01*
X62121620Y-116028106D01*
X62740667Y-116409058D02*
X62740667Y-116885249D01*
X63026381Y-116313820D02*
X62026381Y-116647153D01*
X63026381Y-116980487D01*
X63026381Y-117313820D02*
X62026381Y-117313820D01*
X62026381Y-117694772D01*
X62074001Y-117790011D01*
X62121620Y-117837630D01*
X62216858Y-117885249D01*
X62359715Y-117885249D01*
X62454953Y-117837630D01*
X62502572Y-117790011D01*
X62550191Y-117694772D01*
X62550191Y-117313820D01*
X63026381Y-118313820D02*
X62026381Y-118313820D01*
X62026381Y-118694772D01*
X62074001Y-118790011D01*
X62121620Y-118837630D01*
X62216858Y-118885249D01*
X62359715Y-118885249D01*
X62454953Y-118837630D01*
X62502572Y-118790011D01*
X62550191Y-118694772D01*
X62550191Y-118313820D01*
X65428762Y-113640963D02*
X65476381Y-113783820D01*
X65476381Y-114021915D01*
X65428762Y-114117153D01*
X65381143Y-114164772D01*
X65285905Y-114212391D01*
X65190667Y-114212391D01*
X65095429Y-114164772D01*
X65047810Y-114117153D01*
X65000191Y-114021915D01*
X64952572Y-113831439D01*
X64904953Y-113736201D01*
X64857334Y-113688582D01*
X64762096Y-113640963D01*
X64666858Y-113640963D01*
X64571620Y-113688582D01*
X64524001Y-113736201D01*
X64476381Y-113831439D01*
X64476381Y-114069534D01*
X64524001Y-114212391D01*
X65571620Y-114402868D02*
X65571620Y-115164772D01*
X65381143Y-115974296D02*
X65428762Y-115926677D01*
X65476381Y-115783820D01*
X65476381Y-115688582D01*
X65428762Y-115545725D01*
X65333524Y-115450487D01*
X65238286Y-115402868D01*
X65047810Y-115355249D01*
X64904953Y-115355249D01*
X64714477Y-115402868D01*
X64619239Y-115450487D01*
X64524001Y-115545725D01*
X64476381Y-115688582D01*
X64476381Y-115783820D01*
X64524001Y-115926677D01*
X64571620Y-115974296D01*
X65190667Y-116355249D02*
X65190667Y-116831439D01*
X65476381Y-116260011D02*
X64476381Y-116593344D01*
X65476381Y-116926677D01*
X65476381Y-117260011D02*
X64476381Y-117260011D01*
X64476381Y-117640963D01*
X64524001Y-117736201D01*
X64571620Y-117783820D01*
X64666858Y-117831439D01*
X64809715Y-117831439D01*
X64904953Y-117783820D01*
X64952572Y-117736201D01*
X65000191Y-117640963D01*
X65000191Y-117260011D01*
X65476381Y-118260011D02*
X64476381Y-118260011D01*
X65476381Y-118831439D01*
X64476381Y-118831439D01*
X67898762Y-115530963D02*
X67946381Y-115673820D01*
X67946381Y-115911915D01*
X67898762Y-116007153D01*
X67851143Y-116054772D01*
X67755905Y-116102391D01*
X67660667Y-116102391D01*
X67565429Y-116054772D01*
X67517810Y-116007153D01*
X67470191Y-115911915D01*
X67422572Y-115721439D01*
X67374953Y-115626201D01*
X67327334Y-115578582D01*
X67232096Y-115530963D01*
X67136858Y-115530963D01*
X67041620Y-115578582D01*
X66994001Y-115626201D01*
X66946381Y-115721439D01*
X66946381Y-115959534D01*
X66994001Y-116102391D01*
X68041620Y-116292868D02*
X68041620Y-117054772D01*
X66946381Y-117150011D02*
X67946381Y-117483344D01*
X66946381Y-117816677D01*
X67946381Y-118150011D02*
X66946381Y-118150011D01*
X67946381Y-118721439D01*
X66946381Y-118721439D01*
X62831620Y-104848106D02*
X62784001Y-104895725D01*
X62736381Y-104990963D01*
X62736381Y-105229058D01*
X62784001Y-105324296D01*
X62831620Y-105371915D01*
X62926858Y-105419534D01*
X63022096Y-105419534D01*
X63164953Y-105371915D01*
X63736381Y-104800487D01*
X63736381Y-105419534D01*
X63736381Y-106371915D02*
X63736381Y-105800487D01*
X63736381Y-106086201D02*
X62736381Y-106086201D01*
X62879239Y-105990963D01*
X62974477Y-105895725D01*
X63022096Y-105800487D01*
X64896381Y-104449534D02*
X64896381Y-105020963D01*
X65896381Y-104735249D02*
X64896381Y-104735249D01*
X65896381Y-105259058D02*
X65229715Y-105782868D01*
X65229715Y-105259058D02*
X65896381Y-105782868D01*
X65896381Y-106163820D02*
X64896381Y-106163820D01*
X64896381Y-106401915D01*
X64944001Y-106544772D01*
X65039239Y-106640011D01*
X65134477Y-106687630D01*
X65324953Y-106735249D01*
X65467810Y-106735249D01*
X65658286Y-106687630D01*
X65753524Y-106640011D01*
X65848762Y-106544772D01*
X65896381Y-106401915D01*
X65896381Y-106163820D01*
X68516381Y-105244772D02*
X68040191Y-104911439D01*
X68516381Y-104673344D02*
X67516381Y-104673344D01*
X67516381Y-105054296D01*
X67564001Y-105149534D01*
X67611620Y-105197153D01*
X67706858Y-105244772D01*
X67849715Y-105244772D01*
X67944953Y-105197153D01*
X67992572Y-105149534D01*
X68040191Y-105054296D01*
X68040191Y-104673344D01*
X68516381Y-105578106D02*
X67849715Y-106101915D01*
X67849715Y-105578106D02*
X68516381Y-106101915D01*
X68516381Y-106482868D02*
X67516381Y-106482868D01*
X67516381Y-106720963D01*
X67564001Y-106863820D01*
X67659239Y-106959058D01*
X67754477Y-107006677D01*
X67944953Y-107054296D01*
X68087810Y-107054296D01*
X68278286Y-107006677D01*
X68373524Y-106959058D01*
X68468762Y-106863820D01*
X68516381Y-106720963D01*
X68516381Y-106482868D01*
X70031620Y-104788106D02*
X69984001Y-104835725D01*
X69936381Y-104930963D01*
X69936381Y-105169058D01*
X69984001Y-105264296D01*
X70031620Y-105311915D01*
X70126858Y-105359534D01*
X70222096Y-105359534D01*
X70364953Y-105311915D01*
X70936381Y-104740487D01*
X70936381Y-105359534D01*
X70031620Y-105740487D02*
X69984001Y-105788106D01*
X69936381Y-105883344D01*
X69936381Y-106121439D01*
X69984001Y-106216677D01*
X70031620Y-106264296D01*
X70126858Y-106311915D01*
X70222096Y-106311915D01*
X70364953Y-106264296D01*
X70936381Y-105692868D01*
X70936381Y-106311915D01*
X73436381Y-105359534D02*
X73436381Y-104788106D01*
X73436381Y-105073820D02*
X72436381Y-105073820D01*
X72579239Y-104978582D01*
X72674477Y-104883344D01*
X72722096Y-104788106D01*
X73436381Y-105835725D02*
X73436381Y-106026201D01*
X73388762Y-106121439D01*
X73341143Y-106169058D01*
X73198286Y-106264296D01*
X73007810Y-106311915D01*
X72626858Y-106311915D01*
X72531620Y-106264296D01*
X72484001Y-106216677D01*
X72436381Y-106121439D01*
X72436381Y-105930963D01*
X72484001Y-105835725D01*
X72531620Y-105788106D01*
X72626858Y-105740487D01*
X72864953Y-105740487D01*
X72960191Y-105788106D01*
X73007810Y-105835725D01*
X73055429Y-105930963D01*
X73055429Y-106121439D01*
X73007810Y-106216677D01*
X72960191Y-106264296D01*
X72864953Y-106311915D01*
X75011620Y-104728106D02*
X74964001Y-104775725D01*
X74916381Y-104870963D01*
X74916381Y-105109058D01*
X74964001Y-105204296D01*
X75011620Y-105251915D01*
X75106858Y-105299534D01*
X75202096Y-105299534D01*
X75344953Y-105251915D01*
X75916381Y-104680487D01*
X75916381Y-105299534D01*
X74916381Y-105632868D02*
X74916381Y-106251915D01*
X75297334Y-105918582D01*
X75297334Y-106061439D01*
X75344953Y-106156677D01*
X75392572Y-106204296D01*
X75487810Y-106251915D01*
X75725905Y-106251915D01*
X75821143Y-106204296D01*
X75868762Y-106156677D01*
X75916381Y-106061439D01*
X75916381Y-105775725D01*
X75868762Y-105680487D01*
X75821143Y-105632868D01*
X78566381Y-105389534D02*
X78566381Y-104818106D01*
X78566381Y-105103820D02*
X77566381Y-105103820D01*
X77709239Y-105008582D01*
X77804477Y-104913344D01*
X77852096Y-104818106D01*
X77994953Y-105960963D02*
X77947334Y-105865725D01*
X77899715Y-105818106D01*
X77804477Y-105770487D01*
X77756858Y-105770487D01*
X77661620Y-105818106D01*
X77614001Y-105865725D01*
X77566381Y-105960963D01*
X77566381Y-106151439D01*
X77614001Y-106246677D01*
X77661620Y-106294296D01*
X77756858Y-106341915D01*
X77804477Y-106341915D01*
X77899715Y-106294296D01*
X77947334Y-106246677D01*
X77994953Y-106151439D01*
X77994953Y-105960963D01*
X78042572Y-105865725D01*
X78090191Y-105818106D01*
X78185429Y-105770487D01*
X78375905Y-105770487D01*
X78471143Y-105818106D01*
X78518762Y-105865725D01*
X78566381Y-105960963D01*
X78566381Y-106151439D01*
X78518762Y-106246677D01*
X78471143Y-106294296D01*
X78375905Y-106341915D01*
X78185429Y-106341915D01*
X78090191Y-106294296D01*
X78042572Y-106246677D01*
X77994953Y-106151439D01*
X80046381Y-105358106D02*
X80046381Y-104881915D01*
X80522572Y-104834296D01*
X80474953Y-104881915D01*
X80427334Y-104977153D01*
X80427334Y-105215249D01*
X80474953Y-105310487D01*
X80522572Y-105358106D01*
X80617810Y-105405725D01*
X80855905Y-105405725D01*
X80951143Y-105358106D01*
X80998762Y-105310487D01*
X81046381Y-105215249D01*
X81046381Y-104977153D01*
X80998762Y-104881915D01*
X80951143Y-104834296D01*
X84984001Y-102518106D02*
X84936381Y-102422868D01*
X84936381Y-102280011D01*
X84984001Y-102137153D01*
X85079239Y-102041915D01*
X85174477Y-101994296D01*
X85364953Y-101946677D01*
X85507810Y-101946677D01*
X85698286Y-101994296D01*
X85793524Y-102041915D01*
X85888762Y-102137153D01*
X85936381Y-102280011D01*
X85936381Y-102375249D01*
X85888762Y-102518106D01*
X85841143Y-102565725D01*
X85507810Y-102565725D01*
X85507810Y-102375249D01*
X85936381Y-102994296D02*
X84936381Y-102994296D01*
X85936381Y-103565725D01*
X84936381Y-103565725D01*
X85936381Y-104041915D02*
X84936381Y-104041915D01*
X84936381Y-104280011D01*
X84984001Y-104422868D01*
X85079239Y-104518106D01*
X85174477Y-104565725D01*
X85364953Y-104613344D01*
X85507810Y-104613344D01*
X85698286Y-104565725D01*
X85793524Y-104518106D01*
X85888762Y-104422868D01*
X85936381Y-104280011D01*
X85936381Y-104041915D01*
X57746381Y-102029534D02*
X57746381Y-102648582D01*
X58127334Y-102315249D01*
X58127334Y-102458106D01*
X58174953Y-102553344D01*
X58222572Y-102600963D01*
X58317810Y-102648582D01*
X58555905Y-102648582D01*
X58651143Y-102600963D01*
X58698762Y-102553344D01*
X58746381Y-102458106D01*
X58746381Y-102172391D01*
X58698762Y-102077153D01*
X58651143Y-102029534D01*
X58079715Y-102981915D02*
X58746381Y-103220011D01*
X58079715Y-103458106D01*
X57746381Y-103743820D02*
X57746381Y-104362868D01*
X58127334Y-104029534D01*
X58127334Y-104172391D01*
X58174953Y-104267630D01*
X58222572Y-104315249D01*
X58317810Y-104362868D01*
X58555905Y-104362868D01*
X58651143Y-104315249D01*
X58698762Y-104267630D01*
X58746381Y-104172391D01*
X58746381Y-103886677D01*
X58698762Y-103791439D01*
X58651143Y-103743820D01*
X96006381Y-102027153D02*
X96006381Y-101550963D01*
X96482572Y-101503344D01*
X96434953Y-101550963D01*
X96387334Y-101646201D01*
X96387334Y-101884296D01*
X96434953Y-101979534D01*
X96482572Y-102027153D01*
X96577810Y-102074772D01*
X96815905Y-102074772D01*
X96911143Y-102027153D01*
X96958762Y-101979534D01*
X97006381Y-101884296D01*
X97006381Y-101646201D01*
X96958762Y-101550963D01*
X96911143Y-101503344D01*
X96339715Y-102408106D02*
X97006381Y-102646201D01*
X96339715Y-102884296D01*
X105494001Y-101508106D02*
X105446381Y-101412868D01*
X105446381Y-101270011D01*
X105494001Y-101127153D01*
X105589239Y-101031915D01*
X105684477Y-100984296D01*
X105874953Y-100936677D01*
X106017810Y-100936677D01*
X106208286Y-100984296D01*
X106303524Y-101031915D01*
X106398762Y-101127153D01*
X106446381Y-101270011D01*
X106446381Y-101365249D01*
X106398762Y-101508106D01*
X106351143Y-101555725D01*
X106017810Y-101555725D01*
X106017810Y-101365249D01*
X106446381Y-101984296D02*
X105446381Y-101984296D01*
X106446381Y-102555725D01*
X105446381Y-102555725D01*
X106446381Y-103031915D02*
X105446381Y-103031915D01*
X105446381Y-103270011D01*
X105494001Y-103412868D01*
X105589239Y-103508106D01*
X105684477Y-103555725D01*
X105874953Y-103603344D01*
X106017810Y-103603344D01*
X106208286Y-103555725D01*
X106303524Y-103508106D01*
X106398762Y-103412868D01*
X106446381Y-103270011D01*
X106446381Y-103031915D01*
X76990072Y-109434082D02*
X76990072Y-110250511D01*
X77044501Y-110413796D01*
X77153358Y-110522653D01*
X77316643Y-110577082D01*
X77425501Y-110577082D01*
X75955929Y-110577082D02*
X75955929Y-109978368D01*
X76010358Y-109869511D01*
X76119215Y-109815082D01*
X76336929Y-109815082D01*
X76445786Y-109869511D01*
X75955929Y-110522653D02*
X76064786Y-110577082D01*
X76336929Y-110577082D01*
X76445786Y-110522653D01*
X76500215Y-110413796D01*
X76500215Y-110304939D01*
X76445786Y-110196082D01*
X76336929Y-110141653D01*
X76064786Y-110141653D01*
X75955929Y-110087225D01*
X74921786Y-110522653D02*
X75030643Y-110577082D01*
X75248358Y-110577082D01*
X75357215Y-110522653D01*
X75411643Y-110468225D01*
X75466072Y-110359368D01*
X75466072Y-110032796D01*
X75411643Y-109923939D01*
X75357215Y-109869511D01*
X75248358Y-109815082D01*
X75030643Y-109815082D01*
X74921786Y-109869511D01*
X74431929Y-110577082D02*
X74431929Y-109434082D01*
X74323072Y-110141653D02*
X73996501Y-110577082D01*
X73996501Y-109815082D02*
X74431929Y-110250511D01*
X73016786Y-110522653D02*
X73125643Y-110577082D01*
X73343358Y-110577082D01*
X73452215Y-110522653D01*
X73506643Y-110468225D01*
X73561072Y-110359368D01*
X73561072Y-110032796D01*
X73506643Y-109923939D01*
X73452215Y-109869511D01*
X73343358Y-109815082D01*
X73125643Y-109815082D01*
X73016786Y-109869511D01*
X72363643Y-110577082D02*
X72472501Y-110522653D01*
X72526929Y-110468225D01*
X72581358Y-110359368D01*
X72581358Y-110032796D01*
X72526929Y-109923939D01*
X72472501Y-109869511D01*
X72363643Y-109815082D01*
X72200358Y-109815082D01*
X72091501Y-109869511D01*
X72037072Y-109923939D01*
X71982643Y-110032796D01*
X71982643Y-110359368D01*
X72037072Y-110468225D01*
X72091501Y-110522653D01*
X72200358Y-110577082D01*
X72363643Y-110577082D01*
X71492786Y-109978368D02*
X71111786Y-109978368D01*
X70948501Y-110577082D02*
X71492786Y-110577082D01*
X71492786Y-109434082D01*
X70948501Y-109434082D01*
X70513072Y-110522653D02*
X70349786Y-110577082D01*
X70077643Y-110577082D01*
X69968786Y-110522653D01*
X69914358Y-110468225D01*
X69859929Y-110359368D01*
X69859929Y-110250511D01*
X69914358Y-110141653D01*
X69968786Y-110087225D01*
X70077643Y-110032796D01*
X70295358Y-109978368D01*
X70404215Y-109923939D01*
X70458643Y-109869511D01*
X70513072Y-109760653D01*
X70513072Y-109651796D01*
X70458643Y-109542939D01*
X70404215Y-109488511D01*
X70295358Y-109434082D01*
X70023215Y-109434082D01*
X69859929Y-109488511D01*
X69370072Y-110577082D02*
X69370072Y-109434082D01*
X68934643Y-109434082D01*
X68825786Y-109488511D01*
X68771358Y-109542939D01*
X68716929Y-109651796D01*
X68716929Y-109815082D01*
X68771358Y-109923939D01*
X68825786Y-109978368D01*
X68934643Y-110032796D01*
X69370072Y-110032796D01*
X68335929Y-109434082D02*
X67628358Y-109434082D01*
X68009358Y-109869511D01*
X67846072Y-109869511D01*
X67737215Y-109923939D01*
X67682786Y-109978368D01*
X67628358Y-110087225D01*
X67628358Y-110359368D01*
X67682786Y-110468225D01*
X67737215Y-110522653D01*
X67846072Y-110577082D01*
X68172643Y-110577082D01*
X68281501Y-110522653D01*
X68335929Y-110468225D01*
X67192929Y-109542939D02*
X67138501Y-109488511D01*
X67029643Y-109434082D01*
X66757501Y-109434082D01*
X66648643Y-109488511D01*
X66594215Y-109542939D01*
X66539786Y-109651796D01*
X66539786Y-109760653D01*
X66594215Y-109923939D01*
X67247358Y-110577082D01*
X66539786Y-110577082D01*
X66049929Y-110141653D02*
X65179072Y-110141653D01*
X64634786Y-110577082D02*
X64634786Y-109434082D01*
X64199358Y-109434082D01*
X64090501Y-109488511D01*
X64036072Y-109542939D01*
X63981643Y-109651796D01*
X63981643Y-109815082D01*
X64036072Y-109923939D01*
X64090501Y-109978368D01*
X64199358Y-110032796D01*
X64634786Y-110032796D01*
X63491786Y-110577082D02*
X63491786Y-109434082D01*
X62294358Y-110468225D02*
X62348786Y-110522653D01*
X62512072Y-110577082D01*
X62620929Y-110577082D01*
X62784215Y-110522653D01*
X62893072Y-110413796D01*
X62947501Y-110304939D01*
X63001929Y-110087225D01*
X63001929Y-109923939D01*
X62947501Y-109706225D01*
X62893072Y-109597368D01*
X62784215Y-109488511D01*
X62620929Y-109434082D01*
X62512072Y-109434082D01*
X62348786Y-109488511D01*
X62294358Y-109542939D01*
X61586786Y-109434082D02*
X61369072Y-109434082D01*
X61260215Y-109488511D01*
X61151358Y-109597368D01*
X61096929Y-109815082D01*
X61096929Y-110196082D01*
X61151358Y-110413796D01*
X61260215Y-110522653D01*
X61369072Y-110577082D01*
X61586786Y-110577082D01*
X61695643Y-110522653D01*
X61804501Y-110413796D01*
X61858929Y-110196082D01*
X61858929Y-109815082D01*
X61804501Y-109597368D01*
X61695643Y-109488511D01*
X61586786Y-109434082D01*
X53462572Y-105515725D02*
X53510191Y-105658582D01*
X53557810Y-105706201D01*
X53653048Y-105753820D01*
X53795905Y-105753820D01*
X53891143Y-105706201D01*
X53938762Y-105658582D01*
X53986381Y-105563344D01*
X53986381Y-105182391D01*
X52986381Y-105182391D01*
X52986381Y-105515725D01*
X53034001Y-105610963D01*
X53081620Y-105658582D01*
X53176858Y-105706201D01*
X53272096Y-105706201D01*
X53367334Y-105658582D01*
X53414953Y-105610963D01*
X53462572Y-105515725D01*
X53462572Y-105182391D01*
X53319715Y-106087153D02*
X53986381Y-106325249D01*
X53319715Y-106563344D02*
X53986381Y-106325249D01*
X54224477Y-106230011D01*
X54272096Y-106182391D01*
X54319715Y-106087153D01*
X52986381Y-107991915D02*
X53700667Y-107991915D01*
X53843524Y-107944296D01*
X53938762Y-107849058D01*
X53986381Y-107706201D01*
X53986381Y-107610963D01*
X53986381Y-108896677D02*
X53462572Y-108896677D01*
X53367334Y-108849058D01*
X53319715Y-108753820D01*
X53319715Y-108563344D01*
X53367334Y-108468106D01*
X53938762Y-108896677D02*
X53986381Y-108801439D01*
X53986381Y-108563344D01*
X53938762Y-108468106D01*
X53843524Y-108420487D01*
X53748286Y-108420487D01*
X53653048Y-108468106D01*
X53605429Y-108563344D01*
X53605429Y-108801439D01*
X53557810Y-108896677D01*
X53938762Y-109801439D02*
X53986381Y-109706201D01*
X53986381Y-109515725D01*
X53938762Y-109420487D01*
X53891143Y-109372868D01*
X53795905Y-109325249D01*
X53510191Y-109325249D01*
X53414953Y-109372868D01*
X53367334Y-109420487D01*
X53319715Y-109515725D01*
X53319715Y-109706201D01*
X53367334Y-109801439D01*
X53986381Y-110230011D02*
X52986381Y-110230011D01*
X53605429Y-110325249D02*
X53986381Y-110610963D01*
X53319715Y-110610963D02*
X53700667Y-110230011D01*
X53938762Y-110991915D02*
X53986381Y-111087153D01*
X53986381Y-111277630D01*
X53938762Y-111372868D01*
X53843524Y-111420487D01*
X53795905Y-111420487D01*
X53700667Y-111372868D01*
X53653048Y-111277630D01*
X53653048Y-111134772D01*
X53605429Y-111039534D01*
X53510191Y-110991915D01*
X53462572Y-110991915D01*
X53367334Y-111039534D01*
X53319715Y-111134772D01*
X53319715Y-111277630D01*
X53367334Y-111372868D01*
X53986381Y-111991915D02*
X53938762Y-111896677D01*
X53891143Y-111849058D01*
X53795905Y-111801439D01*
X53510191Y-111801439D01*
X53414953Y-111849058D01*
X53367334Y-111896677D01*
X53319715Y-111991915D01*
X53319715Y-112134772D01*
X53367334Y-112230011D01*
X53414953Y-112277630D01*
X53510191Y-112325249D01*
X53795905Y-112325249D01*
X53891143Y-112277630D01*
X53938762Y-112230011D01*
X53986381Y-112134772D01*
X53986381Y-111991915D01*
X53319715Y-112753820D02*
X53986381Y-112753820D01*
X53414953Y-112753820D02*
X53367334Y-112801439D01*
X53319715Y-112896677D01*
X53319715Y-113039534D01*
X53367334Y-113134772D01*
X53462572Y-113182391D01*
X53986381Y-113182391D01*
X53986381Y-114420487D02*
X52986381Y-114420487D01*
X53700667Y-114753820D01*
X52986381Y-115087153D01*
X53986381Y-115087153D01*
X53891143Y-115563344D02*
X53938762Y-115610963D01*
X53986381Y-115563344D01*
X53938762Y-115515725D01*
X53891143Y-115563344D01*
X53986381Y-115563344D01*
X53986381Y-116801439D02*
X52986381Y-116801439D01*
X53462572Y-116801439D02*
X53462572Y-117372868D01*
X53986381Y-117372868D02*
X52986381Y-117372868D01*
X53319715Y-118277630D02*
X53986381Y-118277630D01*
X53319715Y-117849058D02*
X53843524Y-117849058D01*
X53938762Y-117896677D01*
X53986381Y-117991915D01*
X53986381Y-118134772D01*
X53938762Y-118230011D01*
X53891143Y-118277630D01*
X76709239Y-112492391D02*
X77042572Y-112016201D01*
X77280667Y-112492391D02*
X77280667Y-111492391D01*
X76899715Y-111492391D01*
X76804477Y-111540011D01*
X76756858Y-111587630D01*
X76709239Y-111682868D01*
X76709239Y-111825725D01*
X76756858Y-111920963D01*
X76804477Y-111968582D01*
X76899715Y-112016201D01*
X77280667Y-112016201D01*
X75899715Y-112444772D02*
X75994953Y-112492391D01*
X76185429Y-112492391D01*
X76280667Y-112444772D01*
X76328286Y-112349534D01*
X76328286Y-111968582D01*
X76280667Y-111873344D01*
X76185429Y-111825725D01*
X75994953Y-111825725D01*
X75899715Y-111873344D01*
X75852096Y-111968582D01*
X75852096Y-112063820D01*
X76328286Y-112159058D01*
X75518762Y-111825725D02*
X75280667Y-112492391D01*
X75042572Y-111825725D01*
X74661620Y-112397153D02*
X74614001Y-112444772D01*
X74661620Y-112492391D01*
X74709239Y-112444772D01*
X74661620Y-112397153D01*
X74661620Y-112492391D01*
X72899715Y-112492391D02*
X73471143Y-112492391D01*
X73185429Y-112492391D02*
X73185429Y-111492391D01*
X73280667Y-111635249D01*
X73375905Y-111730487D01*
X73471143Y-111778106D01*
X55471143Y-104522391D02*
X55518762Y-104474772D01*
X55566381Y-104331915D01*
X55566381Y-104236677D01*
X55518762Y-104093820D01*
X55423524Y-103998582D01*
X55328286Y-103950963D01*
X55137810Y-103903344D01*
X54994953Y-103903344D01*
X54804477Y-103950963D01*
X54709239Y-103998582D01*
X54614001Y-104093820D01*
X54566381Y-104236677D01*
X54566381Y-104331915D01*
X54614001Y-104474772D01*
X54661620Y-104522391D01*
X55566381Y-105093820D02*
X55518762Y-104998582D01*
X55471143Y-104950963D01*
X55375905Y-104903344D01*
X55090191Y-104903344D01*
X54994953Y-104950963D01*
X54947334Y-104998582D01*
X54899715Y-105093820D01*
X54899715Y-105236677D01*
X54947334Y-105331915D01*
X54994953Y-105379534D01*
X55090191Y-105427153D01*
X55375905Y-105427153D01*
X55471143Y-105379534D01*
X55518762Y-105331915D01*
X55566381Y-105236677D01*
X55566381Y-105093820D01*
X54899715Y-105855725D02*
X55899715Y-105855725D01*
X54947334Y-105855725D02*
X54899715Y-105950963D01*
X54899715Y-106141439D01*
X54947334Y-106236677D01*
X54994953Y-106284296D01*
X55090191Y-106331915D01*
X55375905Y-106331915D01*
X55471143Y-106284296D01*
X55518762Y-106236677D01*
X55566381Y-106141439D01*
X55566381Y-105950963D01*
X55518762Y-105855725D01*
X54899715Y-106665249D02*
X55566381Y-106903344D01*
X54899715Y-107141439D02*
X55566381Y-106903344D01*
X55804477Y-106808106D01*
X55852096Y-106760487D01*
X55899715Y-106665249D01*
X55566381Y-107522391D02*
X54899715Y-107522391D01*
X55090191Y-107522391D02*
X54994953Y-107570011D01*
X54947334Y-107617630D01*
X54899715Y-107712868D01*
X54899715Y-107808106D01*
X55566381Y-108141439D02*
X54899715Y-108141439D01*
X54566381Y-108141439D02*
X54614001Y-108093820D01*
X54661620Y-108141439D01*
X54614001Y-108189058D01*
X54566381Y-108141439D01*
X54661620Y-108141439D01*
X54899715Y-109046201D02*
X55709239Y-109046201D01*
X55804477Y-108998582D01*
X55852096Y-108950963D01*
X55899715Y-108855725D01*
X55899715Y-108712868D01*
X55852096Y-108617630D01*
X55518762Y-109046201D02*
X55566381Y-108950963D01*
X55566381Y-108760487D01*
X55518762Y-108665249D01*
X55471143Y-108617630D01*
X55375905Y-108570011D01*
X55090191Y-108570011D01*
X54994953Y-108617630D01*
X54947334Y-108665249D01*
X54899715Y-108760487D01*
X54899715Y-108950963D01*
X54947334Y-109046201D01*
X55566381Y-109522391D02*
X54566381Y-109522391D01*
X55566381Y-109950963D02*
X55042572Y-109950963D01*
X54947334Y-109903344D01*
X54899715Y-109808106D01*
X54899715Y-109665249D01*
X54947334Y-109570011D01*
X54994953Y-109522391D01*
X54899715Y-110284296D02*
X54899715Y-110665249D01*
X54566381Y-110427153D02*
X55423524Y-110427153D01*
X55518762Y-110474772D01*
X55566381Y-110570011D01*
X55566381Y-110665249D01*
X55947334Y-112046201D02*
X55899715Y-111998582D01*
X55756858Y-111903344D01*
X55661620Y-111855725D01*
X55518762Y-111808106D01*
X55280667Y-111760487D01*
X55090191Y-111760487D01*
X54852096Y-111808106D01*
X54709239Y-111855725D01*
X54614001Y-111903344D01*
X54471143Y-111998582D01*
X54423524Y-112046201D01*
X55471143Y-112998582D02*
X55518762Y-112950963D01*
X55566381Y-112808106D01*
X55566381Y-112712868D01*
X55518762Y-112570011D01*
X55423524Y-112474772D01*
X55328286Y-112427153D01*
X55137810Y-112379534D01*
X54994953Y-112379534D01*
X54804477Y-112427153D01*
X54709239Y-112474772D01*
X54614001Y-112570011D01*
X54566381Y-112712868D01*
X54566381Y-112808106D01*
X54614001Y-112950963D01*
X54661620Y-112998582D01*
X55947334Y-113331915D02*
X55899715Y-113379534D01*
X55756858Y-113474772D01*
X55661620Y-113522391D01*
X55518762Y-113570011D01*
X55280667Y-113617630D01*
X55090191Y-113617630D01*
X54852096Y-113570011D01*
X54709239Y-113522391D01*
X54614001Y-113474772D01*
X54471143Y-113379534D01*
X54423524Y-113331915D01*
X54661620Y-114808106D02*
X54614001Y-114855725D01*
X54566381Y-114950963D01*
X54566381Y-115189058D01*
X54614001Y-115284296D01*
X54661620Y-115331915D01*
X54756858Y-115379534D01*
X54852096Y-115379534D01*
X54994953Y-115331915D01*
X55566381Y-114760487D01*
X55566381Y-115379534D01*
X54566381Y-115998582D02*
X54566381Y-116093820D01*
X54614001Y-116189058D01*
X54661620Y-116236677D01*
X54756858Y-116284296D01*
X54947334Y-116331915D01*
X55185429Y-116331915D01*
X55375905Y-116284296D01*
X55471143Y-116236677D01*
X55518762Y-116189058D01*
X55566381Y-116093820D01*
X55566381Y-115998582D01*
X55518762Y-115903344D01*
X55471143Y-115855725D01*
X55375905Y-115808106D01*
X55185429Y-115760487D01*
X54947334Y-115760487D01*
X54756858Y-115808106D01*
X54661620Y-115855725D01*
X54614001Y-115903344D01*
X54566381Y-115998582D01*
X54661620Y-116712868D02*
X54614001Y-116760487D01*
X54566381Y-116855725D01*
X54566381Y-117093820D01*
X54614001Y-117189058D01*
X54661620Y-117236677D01*
X54756858Y-117284296D01*
X54852096Y-117284296D01*
X54994953Y-117236677D01*
X55566381Y-116665249D01*
X55566381Y-117284296D01*
X54566381Y-117903344D02*
X54566381Y-117998582D01*
X54614001Y-118093820D01*
X54661620Y-118141439D01*
X54756858Y-118189058D01*
X54947334Y-118236677D01*
X55185429Y-118236677D01*
X55375905Y-118189058D01*
X55471143Y-118141439D01*
X55518762Y-118093820D01*
X55566381Y-117998582D01*
X55566381Y-117903344D01*
X55518762Y-117808106D01*
X55471143Y-117760487D01*
X55375905Y-117712868D01*
X55185429Y-117665249D01*
X54947334Y-117665249D01*
X54756858Y-117712868D01*
X54661620Y-117760487D01*
X54614001Y-117808106D01*
X54566381Y-117903344D01*
X60408762Y-90948767D02*
X60456381Y-91091625D01*
X60456381Y-91329720D01*
X60408762Y-91424958D01*
X60361143Y-91472577D01*
X60265905Y-91520196D01*
X60170667Y-91520196D01*
X60075429Y-91472577D01*
X60027810Y-91424958D01*
X59980191Y-91329720D01*
X59932572Y-91139244D01*
X59884953Y-91044006D01*
X59837334Y-90996386D01*
X59742096Y-90948767D01*
X59646858Y-90948767D01*
X59551620Y-90996386D01*
X59504001Y-91044006D01*
X59456381Y-91139244D01*
X59456381Y-91377339D01*
X59504001Y-91520196D01*
X60551620Y-91710672D02*
X60551620Y-92472577D01*
X59456381Y-92567815D02*
X60456381Y-92901148D01*
X59456381Y-93234482D01*
X60456381Y-93567815D02*
X59456381Y-93567815D01*
X59456381Y-93948767D01*
X59504001Y-94044006D01*
X59551620Y-94091625D01*
X59646858Y-94139244D01*
X59789715Y-94139244D01*
X59884953Y-94091625D01*
X59932572Y-94044006D01*
X59980191Y-93948767D01*
X59980191Y-93567815D01*
X62978762Y-89088767D02*
X63026381Y-89231625D01*
X63026381Y-89469720D01*
X62978762Y-89564958D01*
X62931143Y-89612577D01*
X62835905Y-89660196D01*
X62740667Y-89660196D01*
X62645429Y-89612577D01*
X62597810Y-89564958D01*
X62550191Y-89469720D01*
X62502572Y-89279244D01*
X62454953Y-89184006D01*
X62407334Y-89136386D01*
X62312096Y-89088767D01*
X62216858Y-89088767D01*
X62121620Y-89136386D01*
X62074001Y-89184006D01*
X62026381Y-89279244D01*
X62026381Y-89517339D01*
X62074001Y-89660196D01*
X63121620Y-89850672D02*
X63121620Y-90612577D01*
X62931143Y-91422101D02*
X62978762Y-91374482D01*
X63026381Y-91231625D01*
X63026381Y-91136386D01*
X62978762Y-90993529D01*
X62883524Y-90898291D01*
X62788286Y-90850672D01*
X62597810Y-90803053D01*
X62454953Y-90803053D01*
X62264477Y-90850672D01*
X62169239Y-90898291D01*
X62074001Y-90993529D01*
X62026381Y-91136386D01*
X62026381Y-91231625D01*
X62074001Y-91374482D01*
X62121620Y-91422101D01*
X62740667Y-91803053D02*
X62740667Y-92279244D01*
X63026381Y-91707815D02*
X62026381Y-92041148D01*
X63026381Y-92374482D01*
X63026381Y-92707815D02*
X62026381Y-92707815D01*
X62026381Y-93088767D01*
X62074001Y-93184006D01*
X62121620Y-93231625D01*
X62216858Y-93279244D01*
X62359715Y-93279244D01*
X62454953Y-93231625D01*
X62502572Y-93184006D01*
X62550191Y-93088767D01*
X62550191Y-92707815D01*
X63026381Y-93707815D02*
X62026381Y-93707815D01*
X62026381Y-94088767D01*
X62074001Y-94184006D01*
X62121620Y-94231625D01*
X62216858Y-94279244D01*
X62359715Y-94279244D01*
X62454953Y-94231625D01*
X62502572Y-94184006D01*
X62550191Y-94088767D01*
X62550191Y-93707815D01*
X65428762Y-89034958D02*
X65476381Y-89177815D01*
X65476381Y-89415910D01*
X65428762Y-89511148D01*
X65381143Y-89558767D01*
X65285905Y-89606386D01*
X65190667Y-89606386D01*
X65095429Y-89558767D01*
X65047810Y-89511148D01*
X65000191Y-89415910D01*
X64952572Y-89225434D01*
X64904953Y-89130196D01*
X64857334Y-89082577D01*
X64762096Y-89034958D01*
X64666858Y-89034958D01*
X64571620Y-89082577D01*
X64524001Y-89130196D01*
X64476381Y-89225434D01*
X64476381Y-89463529D01*
X64524001Y-89606386D01*
X65571620Y-89796863D02*
X65571620Y-90558767D01*
X65381143Y-91368291D02*
X65428762Y-91320672D01*
X65476381Y-91177815D01*
X65476381Y-91082577D01*
X65428762Y-90939720D01*
X65333524Y-90844482D01*
X65238286Y-90796863D01*
X65047810Y-90749244D01*
X64904953Y-90749244D01*
X64714477Y-90796863D01*
X64619239Y-90844482D01*
X64524001Y-90939720D01*
X64476381Y-91082577D01*
X64476381Y-91177815D01*
X64524001Y-91320672D01*
X64571620Y-91368291D01*
X65190667Y-91749244D02*
X65190667Y-92225434D01*
X65476381Y-91654006D02*
X64476381Y-91987339D01*
X65476381Y-92320672D01*
X65476381Y-92654006D02*
X64476381Y-92654006D01*
X64476381Y-93034958D01*
X64524001Y-93130196D01*
X64571620Y-93177815D01*
X64666858Y-93225434D01*
X64809715Y-93225434D01*
X64904953Y-93177815D01*
X64952572Y-93130196D01*
X65000191Y-93034958D01*
X65000191Y-92654006D01*
X65476381Y-93654006D02*
X64476381Y-93654006D01*
X65476381Y-94225434D01*
X64476381Y-94225434D01*
X67898762Y-90924958D02*
X67946381Y-91067815D01*
X67946381Y-91305910D01*
X67898762Y-91401148D01*
X67851143Y-91448767D01*
X67755905Y-91496386D01*
X67660667Y-91496386D01*
X67565429Y-91448767D01*
X67517810Y-91401148D01*
X67470191Y-91305910D01*
X67422572Y-91115434D01*
X67374953Y-91020196D01*
X67327334Y-90972577D01*
X67232096Y-90924958D01*
X67136858Y-90924958D01*
X67041620Y-90972577D01*
X66994001Y-91020196D01*
X66946381Y-91115434D01*
X66946381Y-91353529D01*
X66994001Y-91496386D01*
X68041620Y-91686863D02*
X68041620Y-92448767D01*
X66946381Y-92544006D02*
X67946381Y-92877339D01*
X66946381Y-93210672D01*
X67946381Y-93544006D02*
X66946381Y-93544006D01*
X67946381Y-94115434D01*
X66946381Y-94115434D01*
X62831620Y-80242101D02*
X62784001Y-80289720D01*
X62736381Y-80384958D01*
X62736381Y-80623053D01*
X62784001Y-80718291D01*
X62831620Y-80765910D01*
X62926858Y-80813529D01*
X63022096Y-80813529D01*
X63164953Y-80765910D01*
X63736381Y-80194482D01*
X63736381Y-80813529D01*
X63736381Y-81765910D02*
X63736381Y-81194482D01*
X63736381Y-81480196D02*
X62736381Y-81480196D01*
X62879239Y-81384958D01*
X62974477Y-81289720D01*
X63022096Y-81194482D01*
X64896381Y-79843529D02*
X64896381Y-80414958D01*
X65896381Y-80129244D02*
X64896381Y-80129244D01*
X65896381Y-80653053D02*
X65229715Y-81176863D01*
X65229715Y-80653053D02*
X65896381Y-81176863D01*
X65896381Y-81557815D02*
X64896381Y-81557815D01*
X64896381Y-81795910D01*
X64944001Y-81938767D01*
X65039239Y-82034006D01*
X65134477Y-82081625D01*
X65324953Y-82129244D01*
X65467810Y-82129244D01*
X65658286Y-82081625D01*
X65753524Y-82034006D01*
X65848762Y-81938767D01*
X65896381Y-81795910D01*
X65896381Y-81557815D01*
X68516381Y-80638767D02*
X68040191Y-80305434D01*
X68516381Y-80067339D02*
X67516381Y-80067339D01*
X67516381Y-80448291D01*
X67564001Y-80543529D01*
X67611620Y-80591148D01*
X67706858Y-80638767D01*
X67849715Y-80638767D01*
X67944953Y-80591148D01*
X67992572Y-80543529D01*
X68040191Y-80448291D01*
X68040191Y-80067339D01*
X68516381Y-80972101D02*
X67849715Y-81495910D01*
X67849715Y-80972101D02*
X68516381Y-81495910D01*
X68516381Y-81876863D02*
X67516381Y-81876863D01*
X67516381Y-82114958D01*
X67564001Y-82257815D01*
X67659239Y-82353053D01*
X67754477Y-82400672D01*
X67944953Y-82448291D01*
X68087810Y-82448291D01*
X68278286Y-82400672D01*
X68373524Y-82353053D01*
X68468762Y-82257815D01*
X68516381Y-82114958D01*
X68516381Y-81876863D01*
X70031620Y-80182101D02*
X69984001Y-80229720D01*
X69936381Y-80324958D01*
X69936381Y-80563053D01*
X69984001Y-80658291D01*
X70031620Y-80705910D01*
X70126858Y-80753529D01*
X70222096Y-80753529D01*
X70364953Y-80705910D01*
X70936381Y-80134482D01*
X70936381Y-80753529D01*
X70031620Y-81134482D02*
X69984001Y-81182101D01*
X69936381Y-81277339D01*
X69936381Y-81515434D01*
X69984001Y-81610672D01*
X70031620Y-81658291D01*
X70126858Y-81705910D01*
X70222096Y-81705910D01*
X70364953Y-81658291D01*
X70936381Y-81086863D01*
X70936381Y-81705910D01*
X73436381Y-80753529D02*
X73436381Y-80182101D01*
X73436381Y-80467815D02*
X72436381Y-80467815D01*
X72579239Y-80372577D01*
X72674477Y-80277339D01*
X72722096Y-80182101D01*
X73436381Y-81229720D02*
X73436381Y-81420196D01*
X73388762Y-81515434D01*
X73341143Y-81563053D01*
X73198286Y-81658291D01*
X73007810Y-81705910D01*
X72626858Y-81705910D01*
X72531620Y-81658291D01*
X72484001Y-81610672D01*
X72436381Y-81515434D01*
X72436381Y-81324958D01*
X72484001Y-81229720D01*
X72531620Y-81182101D01*
X72626858Y-81134482D01*
X72864953Y-81134482D01*
X72960191Y-81182101D01*
X73007810Y-81229720D01*
X73055429Y-81324958D01*
X73055429Y-81515434D01*
X73007810Y-81610672D01*
X72960191Y-81658291D01*
X72864953Y-81705910D01*
X75011620Y-80122101D02*
X74964001Y-80169720D01*
X74916381Y-80264958D01*
X74916381Y-80503053D01*
X74964001Y-80598291D01*
X75011620Y-80645910D01*
X75106858Y-80693529D01*
X75202096Y-80693529D01*
X75344953Y-80645910D01*
X75916381Y-80074482D01*
X75916381Y-80693529D01*
X74916381Y-81026863D02*
X74916381Y-81645910D01*
X75297334Y-81312577D01*
X75297334Y-81455434D01*
X75344953Y-81550672D01*
X75392572Y-81598291D01*
X75487810Y-81645910D01*
X75725905Y-81645910D01*
X75821143Y-81598291D01*
X75868762Y-81550672D01*
X75916381Y-81455434D01*
X75916381Y-81169720D01*
X75868762Y-81074482D01*
X75821143Y-81026863D01*
X78566381Y-80783529D02*
X78566381Y-80212101D01*
X78566381Y-80497815D02*
X77566381Y-80497815D01*
X77709239Y-80402577D01*
X77804477Y-80307339D01*
X77852096Y-80212101D01*
X77994953Y-81354958D02*
X77947334Y-81259720D01*
X77899715Y-81212101D01*
X77804477Y-81164482D01*
X77756858Y-81164482D01*
X77661620Y-81212101D01*
X77614001Y-81259720D01*
X77566381Y-81354958D01*
X77566381Y-81545434D01*
X77614001Y-81640672D01*
X77661620Y-81688291D01*
X77756858Y-81735910D01*
X77804477Y-81735910D01*
X77899715Y-81688291D01*
X77947334Y-81640672D01*
X77994953Y-81545434D01*
X77994953Y-81354958D01*
X78042572Y-81259720D01*
X78090191Y-81212101D01*
X78185429Y-81164482D01*
X78375905Y-81164482D01*
X78471143Y-81212101D01*
X78518762Y-81259720D01*
X78566381Y-81354958D01*
X78566381Y-81545434D01*
X78518762Y-81640672D01*
X78471143Y-81688291D01*
X78375905Y-81735910D01*
X78185429Y-81735910D01*
X78090191Y-81688291D01*
X78042572Y-81640672D01*
X77994953Y-81545434D01*
X80046381Y-80752101D02*
X80046381Y-80275910D01*
X80522572Y-80228291D01*
X80474953Y-80275910D01*
X80427334Y-80371148D01*
X80427334Y-80609244D01*
X80474953Y-80704482D01*
X80522572Y-80752101D01*
X80617810Y-80799720D01*
X80855905Y-80799720D01*
X80951143Y-80752101D01*
X80998762Y-80704482D01*
X81046381Y-80609244D01*
X81046381Y-80371148D01*
X80998762Y-80275910D01*
X80951143Y-80228291D01*
X84984001Y-77912101D02*
X84936381Y-77816863D01*
X84936381Y-77674006D01*
X84984001Y-77531148D01*
X85079239Y-77435910D01*
X85174477Y-77388291D01*
X85364953Y-77340672D01*
X85507810Y-77340672D01*
X85698286Y-77388291D01*
X85793524Y-77435910D01*
X85888762Y-77531148D01*
X85936381Y-77674006D01*
X85936381Y-77769244D01*
X85888762Y-77912101D01*
X85841143Y-77959720D01*
X85507810Y-77959720D01*
X85507810Y-77769244D01*
X85936381Y-78388291D02*
X84936381Y-78388291D01*
X85936381Y-78959720D01*
X84936381Y-78959720D01*
X85936381Y-79435910D02*
X84936381Y-79435910D01*
X84936381Y-79674006D01*
X84984001Y-79816863D01*
X85079239Y-79912101D01*
X85174477Y-79959720D01*
X85364953Y-80007339D01*
X85507810Y-80007339D01*
X85698286Y-79959720D01*
X85793524Y-79912101D01*
X85888762Y-79816863D01*
X85936381Y-79674006D01*
X85936381Y-79435910D01*
X57746381Y-77423529D02*
X57746381Y-78042577D01*
X58127334Y-77709244D01*
X58127334Y-77852101D01*
X58174953Y-77947339D01*
X58222572Y-77994958D01*
X58317810Y-78042577D01*
X58555905Y-78042577D01*
X58651143Y-77994958D01*
X58698762Y-77947339D01*
X58746381Y-77852101D01*
X58746381Y-77566386D01*
X58698762Y-77471148D01*
X58651143Y-77423529D01*
X58079715Y-78375910D02*
X58746381Y-78614006D01*
X58079715Y-78852101D01*
X57746381Y-79137815D02*
X57746381Y-79756863D01*
X58127334Y-79423529D01*
X58127334Y-79566386D01*
X58174953Y-79661625D01*
X58222572Y-79709244D01*
X58317810Y-79756863D01*
X58555905Y-79756863D01*
X58651143Y-79709244D01*
X58698762Y-79661625D01*
X58746381Y-79566386D01*
X58746381Y-79280672D01*
X58698762Y-79185434D01*
X58651143Y-79137815D01*
X96006381Y-77421148D02*
X96006381Y-76944958D01*
X96482572Y-76897339D01*
X96434953Y-76944958D01*
X96387334Y-77040196D01*
X96387334Y-77278291D01*
X96434953Y-77373529D01*
X96482572Y-77421148D01*
X96577810Y-77468767D01*
X96815905Y-77468767D01*
X96911143Y-77421148D01*
X96958762Y-77373529D01*
X97006381Y-77278291D01*
X97006381Y-77040196D01*
X96958762Y-76944958D01*
X96911143Y-76897339D01*
X96339715Y-77802101D02*
X97006381Y-78040196D01*
X96339715Y-78278291D01*
X105494001Y-76902101D02*
X105446381Y-76806863D01*
X105446381Y-76664006D01*
X105494001Y-76521148D01*
X105589239Y-76425910D01*
X105684477Y-76378291D01*
X105874953Y-76330672D01*
X106017810Y-76330672D01*
X106208286Y-76378291D01*
X106303524Y-76425910D01*
X106398762Y-76521148D01*
X106446381Y-76664006D01*
X106446381Y-76759244D01*
X106398762Y-76902101D01*
X106351143Y-76949720D01*
X106017810Y-76949720D01*
X106017810Y-76759244D01*
X106446381Y-77378291D02*
X105446381Y-77378291D01*
X106446381Y-77949720D01*
X105446381Y-77949720D01*
X106446381Y-78425910D02*
X105446381Y-78425910D01*
X105446381Y-78664006D01*
X105494001Y-78806863D01*
X105589239Y-78902101D01*
X105684477Y-78949720D01*
X105874953Y-78997339D01*
X106017810Y-78997339D01*
X106208286Y-78949720D01*
X106303524Y-78902101D01*
X106398762Y-78806863D01*
X106446381Y-78664006D01*
X106446381Y-78425910D01*
X76990072Y-84828077D02*
X76990072Y-85644506D01*
X77044501Y-85807791D01*
X77153358Y-85916648D01*
X77316643Y-85971077D01*
X77425501Y-85971077D01*
X75955929Y-85971077D02*
X75955929Y-85372363D01*
X76010358Y-85263506D01*
X76119215Y-85209077D01*
X76336929Y-85209077D01*
X76445786Y-85263506D01*
X75955929Y-85916648D02*
X76064786Y-85971077D01*
X76336929Y-85971077D01*
X76445786Y-85916648D01*
X76500215Y-85807791D01*
X76500215Y-85698934D01*
X76445786Y-85590077D01*
X76336929Y-85535648D01*
X76064786Y-85535648D01*
X75955929Y-85481220D01*
X74921786Y-85916648D02*
X75030643Y-85971077D01*
X75248358Y-85971077D01*
X75357215Y-85916648D01*
X75411643Y-85862220D01*
X75466072Y-85753363D01*
X75466072Y-85426791D01*
X75411643Y-85317934D01*
X75357215Y-85263506D01*
X75248358Y-85209077D01*
X75030643Y-85209077D01*
X74921786Y-85263506D01*
X74431929Y-85971077D02*
X74431929Y-84828077D01*
X74323072Y-85535648D02*
X73996501Y-85971077D01*
X73996501Y-85209077D02*
X74431929Y-85644506D01*
X73016786Y-85916648D02*
X73125643Y-85971077D01*
X73343358Y-85971077D01*
X73452215Y-85916648D01*
X73506643Y-85862220D01*
X73561072Y-85753363D01*
X73561072Y-85426791D01*
X73506643Y-85317934D01*
X73452215Y-85263506D01*
X73343358Y-85209077D01*
X73125643Y-85209077D01*
X73016786Y-85263506D01*
X72363643Y-85971077D02*
X72472501Y-85916648D01*
X72526929Y-85862220D01*
X72581358Y-85753363D01*
X72581358Y-85426791D01*
X72526929Y-85317934D01*
X72472501Y-85263506D01*
X72363643Y-85209077D01*
X72200358Y-85209077D01*
X72091501Y-85263506D01*
X72037072Y-85317934D01*
X71982643Y-85426791D01*
X71982643Y-85753363D01*
X72037072Y-85862220D01*
X72091501Y-85916648D01*
X72200358Y-85971077D01*
X72363643Y-85971077D01*
X71492786Y-85372363D02*
X71111786Y-85372363D01*
X70948501Y-85971077D02*
X71492786Y-85971077D01*
X71492786Y-84828077D01*
X70948501Y-84828077D01*
X70513072Y-85916648D02*
X70349786Y-85971077D01*
X70077643Y-85971077D01*
X69968786Y-85916648D01*
X69914358Y-85862220D01*
X69859929Y-85753363D01*
X69859929Y-85644506D01*
X69914358Y-85535648D01*
X69968786Y-85481220D01*
X70077643Y-85426791D01*
X70295358Y-85372363D01*
X70404215Y-85317934D01*
X70458643Y-85263506D01*
X70513072Y-85154648D01*
X70513072Y-85045791D01*
X70458643Y-84936934D01*
X70404215Y-84882506D01*
X70295358Y-84828077D01*
X70023215Y-84828077D01*
X69859929Y-84882506D01*
X69370072Y-85971077D02*
X69370072Y-84828077D01*
X68934643Y-84828077D01*
X68825786Y-84882506D01*
X68771358Y-84936934D01*
X68716929Y-85045791D01*
X68716929Y-85209077D01*
X68771358Y-85317934D01*
X68825786Y-85372363D01*
X68934643Y-85426791D01*
X69370072Y-85426791D01*
X68335929Y-84828077D02*
X67628358Y-84828077D01*
X68009358Y-85263506D01*
X67846072Y-85263506D01*
X67737215Y-85317934D01*
X67682786Y-85372363D01*
X67628358Y-85481220D01*
X67628358Y-85753363D01*
X67682786Y-85862220D01*
X67737215Y-85916648D01*
X67846072Y-85971077D01*
X68172643Y-85971077D01*
X68281501Y-85916648D01*
X68335929Y-85862220D01*
X67192929Y-84936934D02*
X67138501Y-84882506D01*
X67029643Y-84828077D01*
X66757501Y-84828077D01*
X66648643Y-84882506D01*
X66594215Y-84936934D01*
X66539786Y-85045791D01*
X66539786Y-85154648D01*
X66594215Y-85317934D01*
X67247358Y-85971077D01*
X66539786Y-85971077D01*
X66049929Y-85535648D02*
X65179072Y-85535648D01*
X64634786Y-85971077D02*
X64634786Y-84828077D01*
X64199358Y-84828077D01*
X64090501Y-84882506D01*
X64036072Y-84936934D01*
X63981643Y-85045791D01*
X63981643Y-85209077D01*
X64036072Y-85317934D01*
X64090501Y-85372363D01*
X64199358Y-85426791D01*
X64634786Y-85426791D01*
X63491786Y-85971077D02*
X63491786Y-84828077D01*
X62294358Y-85862220D02*
X62348786Y-85916648D01*
X62512072Y-85971077D01*
X62620929Y-85971077D01*
X62784215Y-85916648D01*
X62893072Y-85807791D01*
X62947501Y-85698934D01*
X63001929Y-85481220D01*
X63001929Y-85317934D01*
X62947501Y-85100220D01*
X62893072Y-84991363D01*
X62784215Y-84882506D01*
X62620929Y-84828077D01*
X62512072Y-84828077D01*
X62348786Y-84882506D01*
X62294358Y-84936934D01*
X61586786Y-84828077D02*
X61369072Y-84828077D01*
X61260215Y-84882506D01*
X61151358Y-84991363D01*
X61096929Y-85209077D01*
X61096929Y-85590077D01*
X61151358Y-85807791D01*
X61260215Y-85916648D01*
X61369072Y-85971077D01*
X61586786Y-85971077D01*
X61695643Y-85916648D01*
X61804501Y-85807791D01*
X61858929Y-85590077D01*
X61858929Y-85209077D01*
X61804501Y-84991363D01*
X61695643Y-84882506D01*
X61586786Y-84828077D01*
X53462572Y-80909720D02*
X53510191Y-81052577D01*
X53557810Y-81100196D01*
X53653048Y-81147815D01*
X53795905Y-81147815D01*
X53891143Y-81100196D01*
X53938762Y-81052577D01*
X53986381Y-80957339D01*
X53986381Y-80576386D01*
X52986381Y-80576386D01*
X52986381Y-80909720D01*
X53034001Y-81004958D01*
X53081620Y-81052577D01*
X53176858Y-81100196D01*
X53272096Y-81100196D01*
X53367334Y-81052577D01*
X53414953Y-81004958D01*
X53462572Y-80909720D01*
X53462572Y-80576386D01*
X53319715Y-81481148D02*
X53986381Y-81719244D01*
X53319715Y-81957339D02*
X53986381Y-81719244D01*
X54224477Y-81624006D01*
X54272096Y-81576386D01*
X54319715Y-81481148D01*
X52986381Y-83385910D02*
X53700667Y-83385910D01*
X53843524Y-83338291D01*
X53938762Y-83243053D01*
X53986381Y-83100196D01*
X53986381Y-83004958D01*
X53986381Y-84290672D02*
X53462572Y-84290672D01*
X53367334Y-84243053D01*
X53319715Y-84147815D01*
X53319715Y-83957339D01*
X53367334Y-83862101D01*
X53938762Y-84290672D02*
X53986381Y-84195434D01*
X53986381Y-83957339D01*
X53938762Y-83862101D01*
X53843524Y-83814482D01*
X53748286Y-83814482D01*
X53653048Y-83862101D01*
X53605429Y-83957339D01*
X53605429Y-84195434D01*
X53557810Y-84290672D01*
X53938762Y-85195434D02*
X53986381Y-85100196D01*
X53986381Y-84909720D01*
X53938762Y-84814482D01*
X53891143Y-84766863D01*
X53795905Y-84719244D01*
X53510191Y-84719244D01*
X53414953Y-84766863D01*
X53367334Y-84814482D01*
X53319715Y-84909720D01*
X53319715Y-85100196D01*
X53367334Y-85195434D01*
X53986381Y-85624006D02*
X52986381Y-85624006D01*
X53605429Y-85719244D02*
X53986381Y-86004958D01*
X53319715Y-86004958D02*
X53700667Y-85624006D01*
X53938762Y-86385910D02*
X53986381Y-86481148D01*
X53986381Y-86671625D01*
X53938762Y-86766863D01*
X53843524Y-86814482D01*
X53795905Y-86814482D01*
X53700667Y-86766863D01*
X53653048Y-86671625D01*
X53653048Y-86528767D01*
X53605429Y-86433529D01*
X53510191Y-86385910D01*
X53462572Y-86385910D01*
X53367334Y-86433529D01*
X53319715Y-86528767D01*
X53319715Y-86671625D01*
X53367334Y-86766863D01*
X53986381Y-87385910D02*
X53938762Y-87290672D01*
X53891143Y-87243053D01*
X53795905Y-87195434D01*
X53510191Y-87195434D01*
X53414953Y-87243053D01*
X53367334Y-87290672D01*
X53319715Y-87385910D01*
X53319715Y-87528767D01*
X53367334Y-87624006D01*
X53414953Y-87671625D01*
X53510191Y-87719244D01*
X53795905Y-87719244D01*
X53891143Y-87671625D01*
X53938762Y-87624006D01*
X53986381Y-87528767D01*
X53986381Y-87385910D01*
X53319715Y-88147815D02*
X53986381Y-88147815D01*
X53414953Y-88147815D02*
X53367334Y-88195434D01*
X53319715Y-88290672D01*
X53319715Y-88433529D01*
X53367334Y-88528767D01*
X53462572Y-88576386D01*
X53986381Y-88576386D01*
X53986381Y-89814482D02*
X52986381Y-89814482D01*
X53700667Y-90147815D01*
X52986381Y-90481148D01*
X53986381Y-90481148D01*
X53891143Y-90957339D02*
X53938762Y-91004958D01*
X53986381Y-90957339D01*
X53938762Y-90909720D01*
X53891143Y-90957339D01*
X53986381Y-90957339D01*
X53986381Y-92195434D02*
X52986381Y-92195434D01*
X53462572Y-92195434D02*
X53462572Y-92766863D01*
X53986381Y-92766863D02*
X52986381Y-92766863D01*
X53319715Y-93671625D02*
X53986381Y-93671625D01*
X53319715Y-93243053D02*
X53843524Y-93243053D01*
X53938762Y-93290672D01*
X53986381Y-93385910D01*
X53986381Y-93528767D01*
X53938762Y-93624006D01*
X53891143Y-93671625D01*
X76709239Y-87886386D02*
X77042572Y-87410196D01*
X77280667Y-87886386D02*
X77280667Y-86886386D01*
X76899715Y-86886386D01*
X76804477Y-86934006D01*
X76756858Y-86981625D01*
X76709239Y-87076863D01*
X76709239Y-87219720D01*
X76756858Y-87314958D01*
X76804477Y-87362577D01*
X76899715Y-87410196D01*
X77280667Y-87410196D01*
X75899715Y-87838767D02*
X75994953Y-87886386D01*
X76185429Y-87886386D01*
X76280667Y-87838767D01*
X76328286Y-87743529D01*
X76328286Y-87362577D01*
X76280667Y-87267339D01*
X76185429Y-87219720D01*
X75994953Y-87219720D01*
X75899715Y-87267339D01*
X75852096Y-87362577D01*
X75852096Y-87457815D01*
X76328286Y-87553053D01*
X75518762Y-87219720D02*
X75280667Y-87886386D01*
X75042572Y-87219720D01*
X74661620Y-87791148D02*
X74614001Y-87838767D01*
X74661620Y-87886386D01*
X74709239Y-87838767D01*
X74661620Y-87791148D01*
X74661620Y-87886386D01*
X72899715Y-87886386D02*
X73471143Y-87886386D01*
X73185429Y-87886386D02*
X73185429Y-86886386D01*
X73280667Y-87029244D01*
X73375905Y-87124482D01*
X73471143Y-87172101D01*
X55471143Y-79916386D02*
X55518762Y-79868767D01*
X55566381Y-79725910D01*
X55566381Y-79630672D01*
X55518762Y-79487815D01*
X55423524Y-79392577D01*
X55328286Y-79344958D01*
X55137810Y-79297339D01*
X54994953Y-79297339D01*
X54804477Y-79344958D01*
X54709239Y-79392577D01*
X54614001Y-79487815D01*
X54566381Y-79630672D01*
X54566381Y-79725910D01*
X54614001Y-79868767D01*
X54661620Y-79916386D01*
X55566381Y-80487815D02*
X55518762Y-80392577D01*
X55471143Y-80344958D01*
X55375905Y-80297339D01*
X55090191Y-80297339D01*
X54994953Y-80344958D01*
X54947334Y-80392577D01*
X54899715Y-80487815D01*
X54899715Y-80630672D01*
X54947334Y-80725910D01*
X54994953Y-80773529D01*
X55090191Y-80821148D01*
X55375905Y-80821148D01*
X55471143Y-80773529D01*
X55518762Y-80725910D01*
X55566381Y-80630672D01*
X55566381Y-80487815D01*
X54899715Y-81249720D02*
X55899715Y-81249720D01*
X54947334Y-81249720D02*
X54899715Y-81344958D01*
X54899715Y-81535434D01*
X54947334Y-81630672D01*
X54994953Y-81678291D01*
X55090191Y-81725910D01*
X55375905Y-81725910D01*
X55471143Y-81678291D01*
X55518762Y-81630672D01*
X55566381Y-81535434D01*
X55566381Y-81344958D01*
X55518762Y-81249720D01*
X54899715Y-82059244D02*
X55566381Y-82297339D01*
X54899715Y-82535434D02*
X55566381Y-82297339D01*
X55804477Y-82202101D01*
X55852096Y-82154482D01*
X55899715Y-82059244D01*
X55566381Y-82916386D02*
X54899715Y-82916386D01*
X55090191Y-82916386D02*
X54994953Y-82964006D01*
X54947334Y-83011625D01*
X54899715Y-83106863D01*
X54899715Y-83202101D01*
X55566381Y-83535434D02*
X54899715Y-83535434D01*
X54566381Y-83535434D02*
X54614001Y-83487815D01*
X54661620Y-83535434D01*
X54614001Y-83583053D01*
X54566381Y-83535434D01*
X54661620Y-83535434D01*
X54899715Y-84440196D02*
X55709239Y-84440196D01*
X55804477Y-84392577D01*
X55852096Y-84344958D01*
X55899715Y-84249720D01*
X55899715Y-84106863D01*
X55852096Y-84011625D01*
X55518762Y-84440196D02*
X55566381Y-84344958D01*
X55566381Y-84154482D01*
X55518762Y-84059244D01*
X55471143Y-84011625D01*
X55375905Y-83964006D01*
X55090191Y-83964006D01*
X54994953Y-84011625D01*
X54947334Y-84059244D01*
X54899715Y-84154482D01*
X54899715Y-84344958D01*
X54947334Y-84440196D01*
X55566381Y-84916386D02*
X54566381Y-84916386D01*
X55566381Y-85344958D02*
X55042572Y-85344958D01*
X54947334Y-85297339D01*
X54899715Y-85202101D01*
X54899715Y-85059244D01*
X54947334Y-84964006D01*
X54994953Y-84916386D01*
X54899715Y-85678291D02*
X54899715Y-86059244D01*
X54566381Y-85821148D02*
X55423524Y-85821148D01*
X55518762Y-85868767D01*
X55566381Y-85964006D01*
X55566381Y-86059244D01*
X55947334Y-87440196D02*
X55899715Y-87392577D01*
X55756858Y-87297339D01*
X55661620Y-87249720D01*
X55518762Y-87202101D01*
X55280667Y-87154482D01*
X55090191Y-87154482D01*
X54852096Y-87202101D01*
X54709239Y-87249720D01*
X54614001Y-87297339D01*
X54471143Y-87392577D01*
X54423524Y-87440196D01*
X55471143Y-88392577D02*
X55518762Y-88344958D01*
X55566381Y-88202101D01*
X55566381Y-88106863D01*
X55518762Y-87964006D01*
X55423524Y-87868767D01*
X55328286Y-87821148D01*
X55137810Y-87773529D01*
X54994953Y-87773529D01*
X54804477Y-87821148D01*
X54709239Y-87868767D01*
X54614001Y-87964006D01*
X54566381Y-88106863D01*
X54566381Y-88202101D01*
X54614001Y-88344958D01*
X54661620Y-88392577D01*
X55947334Y-88725910D02*
X55899715Y-88773529D01*
X55756858Y-88868767D01*
X55661620Y-88916386D01*
X55518762Y-88964006D01*
X55280667Y-89011625D01*
X55090191Y-89011625D01*
X54852096Y-88964006D01*
X54709239Y-88916386D01*
X54614001Y-88868767D01*
X54471143Y-88773529D01*
X54423524Y-88725910D01*
X54661620Y-90202101D02*
X54614001Y-90249720D01*
X54566381Y-90344958D01*
X54566381Y-90583053D01*
X54614001Y-90678291D01*
X54661620Y-90725910D01*
X54756858Y-90773529D01*
X54852096Y-90773529D01*
X54994953Y-90725910D01*
X55566381Y-90154482D01*
X55566381Y-90773529D01*
X54566381Y-91392577D02*
X54566381Y-91487815D01*
X54614001Y-91583053D01*
X54661620Y-91630672D01*
X54756858Y-91678291D01*
X54947334Y-91725910D01*
X55185429Y-91725910D01*
X55375905Y-91678291D01*
X55471143Y-91630672D01*
X55518762Y-91583053D01*
X55566381Y-91487815D01*
X55566381Y-91392577D01*
X55518762Y-91297339D01*
X55471143Y-91249720D01*
X55375905Y-91202101D01*
X55185429Y-91154482D01*
X54947334Y-91154482D01*
X54756858Y-91202101D01*
X54661620Y-91249720D01*
X54614001Y-91297339D01*
X54566381Y-91392577D01*
X54661620Y-92106863D02*
X54614001Y-92154482D01*
X54566381Y-92249720D01*
X54566381Y-92487815D01*
X54614001Y-92583053D01*
X54661620Y-92630672D01*
X54756858Y-92678291D01*
X54852096Y-92678291D01*
X54994953Y-92630672D01*
X55566381Y-92059244D01*
X55566381Y-92678291D01*
X54566381Y-93297339D02*
X54566381Y-93392577D01*
X54614001Y-93487815D01*
X54661620Y-93535434D01*
X54756858Y-93583053D01*
X54947334Y-93630672D01*
X55185429Y-93630672D01*
X55375905Y-93583053D01*
X55471143Y-93535434D01*
X55518762Y-93487815D01*
X55566381Y-93392577D01*
X55566381Y-93297339D01*
X55518762Y-93202101D01*
X55471143Y-93154482D01*
X55375905Y-93106863D01*
X55185429Y-93059244D01*
X54947334Y-93059244D01*
X54756858Y-93106863D01*
X54661620Y-93154482D01*
X54614001Y-93202101D01*
X54566381Y-93297339D01*
X60408762Y-66342762D02*
X60456381Y-66485620D01*
X60456381Y-66723715D01*
X60408762Y-66818953D01*
X60361143Y-66866572D01*
X60265905Y-66914191D01*
X60170667Y-66914191D01*
X60075429Y-66866572D01*
X60027810Y-66818953D01*
X59980191Y-66723715D01*
X59932572Y-66533239D01*
X59884953Y-66438001D01*
X59837334Y-66390381D01*
X59742096Y-66342762D01*
X59646858Y-66342762D01*
X59551620Y-66390381D01*
X59504001Y-66438001D01*
X59456381Y-66533239D01*
X59456381Y-66771334D01*
X59504001Y-66914191D01*
X60551620Y-67104667D02*
X60551620Y-67866572D01*
X59456381Y-67961810D02*
X60456381Y-68295143D01*
X59456381Y-68628477D01*
X60456381Y-68961810D02*
X59456381Y-68961810D01*
X59456381Y-69342762D01*
X59504001Y-69438001D01*
X59551620Y-69485620D01*
X59646858Y-69533239D01*
X59789715Y-69533239D01*
X59884953Y-69485620D01*
X59932572Y-69438001D01*
X59980191Y-69342762D01*
X59980191Y-68961810D01*
X62978762Y-64482762D02*
X63026381Y-64625620D01*
X63026381Y-64863715D01*
X62978762Y-64958953D01*
X62931143Y-65006572D01*
X62835905Y-65054191D01*
X62740667Y-65054191D01*
X62645429Y-65006572D01*
X62597810Y-64958953D01*
X62550191Y-64863715D01*
X62502572Y-64673239D01*
X62454953Y-64578001D01*
X62407334Y-64530381D01*
X62312096Y-64482762D01*
X62216858Y-64482762D01*
X62121620Y-64530381D01*
X62074001Y-64578001D01*
X62026381Y-64673239D01*
X62026381Y-64911334D01*
X62074001Y-65054191D01*
X63121620Y-65244667D02*
X63121620Y-66006572D01*
X62931143Y-66816096D02*
X62978762Y-66768477D01*
X63026381Y-66625620D01*
X63026381Y-66530381D01*
X62978762Y-66387524D01*
X62883524Y-66292286D01*
X62788286Y-66244667D01*
X62597810Y-66197048D01*
X62454953Y-66197048D01*
X62264477Y-66244667D01*
X62169239Y-66292286D01*
X62074001Y-66387524D01*
X62026381Y-66530381D01*
X62026381Y-66625620D01*
X62074001Y-66768477D01*
X62121620Y-66816096D01*
X62740667Y-67197048D02*
X62740667Y-67673239D01*
X63026381Y-67101810D02*
X62026381Y-67435143D01*
X63026381Y-67768477D01*
X63026381Y-68101810D02*
X62026381Y-68101810D01*
X62026381Y-68482762D01*
X62074001Y-68578001D01*
X62121620Y-68625620D01*
X62216858Y-68673239D01*
X62359715Y-68673239D01*
X62454953Y-68625620D01*
X62502572Y-68578001D01*
X62550191Y-68482762D01*
X62550191Y-68101810D01*
X63026381Y-69101810D02*
X62026381Y-69101810D01*
X62026381Y-69482762D01*
X62074001Y-69578001D01*
X62121620Y-69625620D01*
X62216858Y-69673239D01*
X62359715Y-69673239D01*
X62454953Y-69625620D01*
X62502572Y-69578001D01*
X62550191Y-69482762D01*
X62550191Y-69101810D01*
X65428762Y-64428953D02*
X65476381Y-64571810D01*
X65476381Y-64809905D01*
X65428762Y-64905143D01*
X65381143Y-64952762D01*
X65285905Y-65000381D01*
X65190667Y-65000381D01*
X65095429Y-64952762D01*
X65047810Y-64905143D01*
X65000191Y-64809905D01*
X64952572Y-64619429D01*
X64904953Y-64524191D01*
X64857334Y-64476572D01*
X64762096Y-64428953D01*
X64666858Y-64428953D01*
X64571620Y-64476572D01*
X64524001Y-64524191D01*
X64476381Y-64619429D01*
X64476381Y-64857524D01*
X64524001Y-65000381D01*
X65571620Y-65190858D02*
X65571620Y-65952762D01*
X65381143Y-66762286D02*
X65428762Y-66714667D01*
X65476381Y-66571810D01*
X65476381Y-66476572D01*
X65428762Y-66333715D01*
X65333524Y-66238477D01*
X65238286Y-66190858D01*
X65047810Y-66143239D01*
X64904953Y-66143239D01*
X64714477Y-66190858D01*
X64619239Y-66238477D01*
X64524001Y-66333715D01*
X64476381Y-66476572D01*
X64476381Y-66571810D01*
X64524001Y-66714667D01*
X64571620Y-66762286D01*
X65190667Y-67143239D02*
X65190667Y-67619429D01*
X65476381Y-67048001D02*
X64476381Y-67381334D01*
X65476381Y-67714667D01*
X65476381Y-68048001D02*
X64476381Y-68048001D01*
X64476381Y-68428953D01*
X64524001Y-68524191D01*
X64571620Y-68571810D01*
X64666858Y-68619429D01*
X64809715Y-68619429D01*
X64904953Y-68571810D01*
X64952572Y-68524191D01*
X65000191Y-68428953D01*
X65000191Y-68048001D01*
X65476381Y-69048001D02*
X64476381Y-69048001D01*
X65476381Y-69619429D01*
X64476381Y-69619429D01*
X67898762Y-66318953D02*
X67946381Y-66461810D01*
X67946381Y-66699905D01*
X67898762Y-66795143D01*
X67851143Y-66842762D01*
X67755905Y-66890381D01*
X67660667Y-66890381D01*
X67565429Y-66842762D01*
X67517810Y-66795143D01*
X67470191Y-66699905D01*
X67422572Y-66509429D01*
X67374953Y-66414191D01*
X67327334Y-66366572D01*
X67232096Y-66318953D01*
X67136858Y-66318953D01*
X67041620Y-66366572D01*
X66994001Y-66414191D01*
X66946381Y-66509429D01*
X66946381Y-66747524D01*
X66994001Y-66890381D01*
X68041620Y-67080858D02*
X68041620Y-67842762D01*
X66946381Y-67938001D02*
X67946381Y-68271334D01*
X66946381Y-68604667D01*
X67946381Y-68938001D02*
X66946381Y-68938001D01*
X67946381Y-69509429D01*
X66946381Y-69509429D01*
X62831620Y-55636096D02*
X62784001Y-55683715D01*
X62736381Y-55778953D01*
X62736381Y-56017048D01*
X62784001Y-56112286D01*
X62831620Y-56159905D01*
X62926858Y-56207524D01*
X63022096Y-56207524D01*
X63164953Y-56159905D01*
X63736381Y-55588477D01*
X63736381Y-56207524D01*
X63736381Y-57159905D02*
X63736381Y-56588477D01*
X63736381Y-56874191D02*
X62736381Y-56874191D01*
X62879239Y-56778953D01*
X62974477Y-56683715D01*
X63022096Y-56588477D01*
X64896381Y-55237524D02*
X64896381Y-55808953D01*
X65896381Y-55523239D02*
X64896381Y-55523239D01*
X65896381Y-56047048D02*
X65229715Y-56570858D01*
X65229715Y-56047048D02*
X65896381Y-56570858D01*
X65896381Y-56951810D02*
X64896381Y-56951810D01*
X64896381Y-57189905D01*
X64944001Y-57332762D01*
X65039239Y-57428001D01*
X65134477Y-57475620D01*
X65324953Y-57523239D01*
X65467810Y-57523239D01*
X65658286Y-57475620D01*
X65753524Y-57428001D01*
X65848762Y-57332762D01*
X65896381Y-57189905D01*
X65896381Y-56951810D01*
X68516381Y-56032762D02*
X68040191Y-55699429D01*
X68516381Y-55461334D02*
X67516381Y-55461334D01*
X67516381Y-55842286D01*
X67564001Y-55937524D01*
X67611620Y-55985143D01*
X67706858Y-56032762D01*
X67849715Y-56032762D01*
X67944953Y-55985143D01*
X67992572Y-55937524D01*
X68040191Y-55842286D01*
X68040191Y-55461334D01*
X68516381Y-56366096D02*
X67849715Y-56889905D01*
X67849715Y-56366096D02*
X68516381Y-56889905D01*
X68516381Y-57270858D02*
X67516381Y-57270858D01*
X67516381Y-57508953D01*
X67564001Y-57651810D01*
X67659239Y-57747048D01*
X67754477Y-57794667D01*
X67944953Y-57842286D01*
X68087810Y-57842286D01*
X68278286Y-57794667D01*
X68373524Y-57747048D01*
X68468762Y-57651810D01*
X68516381Y-57508953D01*
X68516381Y-57270858D01*
X70031620Y-55576096D02*
X69984001Y-55623715D01*
X69936381Y-55718953D01*
X69936381Y-55957048D01*
X69984001Y-56052286D01*
X70031620Y-56099905D01*
X70126858Y-56147524D01*
X70222096Y-56147524D01*
X70364953Y-56099905D01*
X70936381Y-55528477D01*
X70936381Y-56147524D01*
X70031620Y-56528477D02*
X69984001Y-56576096D01*
X69936381Y-56671334D01*
X69936381Y-56909429D01*
X69984001Y-57004667D01*
X70031620Y-57052286D01*
X70126858Y-57099905D01*
X70222096Y-57099905D01*
X70364953Y-57052286D01*
X70936381Y-56480858D01*
X70936381Y-57099905D01*
X73436381Y-56147524D02*
X73436381Y-55576096D01*
X73436381Y-55861810D02*
X72436381Y-55861810D01*
X72579239Y-55766572D01*
X72674477Y-55671334D01*
X72722096Y-55576096D01*
X73436381Y-56623715D02*
X73436381Y-56814191D01*
X73388762Y-56909429D01*
X73341143Y-56957048D01*
X73198286Y-57052286D01*
X73007810Y-57099905D01*
X72626858Y-57099905D01*
X72531620Y-57052286D01*
X72484001Y-57004667D01*
X72436381Y-56909429D01*
X72436381Y-56718953D01*
X72484001Y-56623715D01*
X72531620Y-56576096D01*
X72626858Y-56528477D01*
X72864953Y-56528477D01*
X72960191Y-56576096D01*
X73007810Y-56623715D01*
X73055429Y-56718953D01*
X73055429Y-56909429D01*
X73007810Y-57004667D01*
X72960191Y-57052286D01*
X72864953Y-57099905D01*
X75011620Y-55516096D02*
X74964001Y-55563715D01*
X74916381Y-55658953D01*
X74916381Y-55897048D01*
X74964001Y-55992286D01*
X75011620Y-56039905D01*
X75106858Y-56087524D01*
X75202096Y-56087524D01*
X75344953Y-56039905D01*
X75916381Y-55468477D01*
X75916381Y-56087524D01*
X74916381Y-56420858D02*
X74916381Y-57039905D01*
X75297334Y-56706572D01*
X75297334Y-56849429D01*
X75344953Y-56944667D01*
X75392572Y-56992286D01*
X75487810Y-57039905D01*
X75725905Y-57039905D01*
X75821143Y-56992286D01*
X75868762Y-56944667D01*
X75916381Y-56849429D01*
X75916381Y-56563715D01*
X75868762Y-56468477D01*
X75821143Y-56420858D01*
X78566381Y-56177524D02*
X78566381Y-55606096D01*
X78566381Y-55891810D02*
X77566381Y-55891810D01*
X77709239Y-55796572D01*
X77804477Y-55701334D01*
X77852096Y-55606096D01*
X77994953Y-56748953D02*
X77947334Y-56653715D01*
X77899715Y-56606096D01*
X77804477Y-56558477D01*
X77756858Y-56558477D01*
X77661620Y-56606096D01*
X77614001Y-56653715D01*
X77566381Y-56748953D01*
X77566381Y-56939429D01*
X77614001Y-57034667D01*
X77661620Y-57082286D01*
X77756858Y-57129905D01*
X77804477Y-57129905D01*
X77899715Y-57082286D01*
X77947334Y-57034667D01*
X77994953Y-56939429D01*
X77994953Y-56748953D01*
X78042572Y-56653715D01*
X78090191Y-56606096D01*
X78185429Y-56558477D01*
X78375905Y-56558477D01*
X78471143Y-56606096D01*
X78518762Y-56653715D01*
X78566381Y-56748953D01*
X78566381Y-56939429D01*
X78518762Y-57034667D01*
X78471143Y-57082286D01*
X78375905Y-57129905D01*
X78185429Y-57129905D01*
X78090191Y-57082286D01*
X78042572Y-57034667D01*
X77994953Y-56939429D01*
X80046381Y-56146096D02*
X80046381Y-55669905D01*
X80522572Y-55622286D01*
X80474953Y-55669905D01*
X80427334Y-55765143D01*
X80427334Y-56003239D01*
X80474953Y-56098477D01*
X80522572Y-56146096D01*
X80617810Y-56193715D01*
X80855905Y-56193715D01*
X80951143Y-56146096D01*
X80998762Y-56098477D01*
X81046381Y-56003239D01*
X81046381Y-55765143D01*
X80998762Y-55669905D01*
X80951143Y-55622286D01*
X84984001Y-53306096D02*
X84936381Y-53210858D01*
X84936381Y-53068001D01*
X84984001Y-52925143D01*
X85079239Y-52829905D01*
X85174477Y-52782286D01*
X85364953Y-52734667D01*
X85507810Y-52734667D01*
X85698286Y-52782286D01*
X85793524Y-52829905D01*
X85888762Y-52925143D01*
X85936381Y-53068001D01*
X85936381Y-53163239D01*
X85888762Y-53306096D01*
X85841143Y-53353715D01*
X85507810Y-53353715D01*
X85507810Y-53163239D01*
X85936381Y-53782286D02*
X84936381Y-53782286D01*
X85936381Y-54353715D01*
X84936381Y-54353715D01*
X85936381Y-54829905D02*
X84936381Y-54829905D01*
X84936381Y-55068001D01*
X84984001Y-55210858D01*
X85079239Y-55306096D01*
X85174477Y-55353715D01*
X85364953Y-55401334D01*
X85507810Y-55401334D01*
X85698286Y-55353715D01*
X85793524Y-55306096D01*
X85888762Y-55210858D01*
X85936381Y-55068001D01*
X85936381Y-54829905D01*
X57746381Y-52817524D02*
X57746381Y-53436572D01*
X58127334Y-53103239D01*
X58127334Y-53246096D01*
X58174953Y-53341334D01*
X58222572Y-53388953D01*
X58317810Y-53436572D01*
X58555905Y-53436572D01*
X58651143Y-53388953D01*
X58698762Y-53341334D01*
X58746381Y-53246096D01*
X58746381Y-52960381D01*
X58698762Y-52865143D01*
X58651143Y-52817524D01*
X58079715Y-53769905D02*
X58746381Y-54008001D01*
X58079715Y-54246096D01*
X57746381Y-54531810D02*
X57746381Y-55150858D01*
X58127334Y-54817524D01*
X58127334Y-54960381D01*
X58174953Y-55055620D01*
X58222572Y-55103239D01*
X58317810Y-55150858D01*
X58555905Y-55150858D01*
X58651143Y-55103239D01*
X58698762Y-55055620D01*
X58746381Y-54960381D01*
X58746381Y-54674667D01*
X58698762Y-54579429D01*
X58651143Y-54531810D01*
X96006381Y-52815143D02*
X96006381Y-52338953D01*
X96482572Y-52291334D01*
X96434953Y-52338953D01*
X96387334Y-52434191D01*
X96387334Y-52672286D01*
X96434953Y-52767524D01*
X96482572Y-52815143D01*
X96577810Y-52862762D01*
X96815905Y-52862762D01*
X96911143Y-52815143D01*
X96958762Y-52767524D01*
X97006381Y-52672286D01*
X97006381Y-52434191D01*
X96958762Y-52338953D01*
X96911143Y-52291334D01*
X96339715Y-53196096D02*
X97006381Y-53434191D01*
X96339715Y-53672286D01*
X105494001Y-52296096D02*
X105446381Y-52200858D01*
X105446381Y-52058001D01*
X105494001Y-51915143D01*
X105589239Y-51819905D01*
X105684477Y-51772286D01*
X105874953Y-51724667D01*
X106017810Y-51724667D01*
X106208286Y-51772286D01*
X106303524Y-51819905D01*
X106398762Y-51915143D01*
X106446381Y-52058001D01*
X106446381Y-52153239D01*
X106398762Y-52296096D01*
X106351143Y-52343715D01*
X106017810Y-52343715D01*
X106017810Y-52153239D01*
X106446381Y-52772286D02*
X105446381Y-52772286D01*
X106446381Y-53343715D01*
X105446381Y-53343715D01*
X106446381Y-53819905D02*
X105446381Y-53819905D01*
X105446381Y-54058001D01*
X105494001Y-54200858D01*
X105589239Y-54296096D01*
X105684477Y-54343715D01*
X105874953Y-54391334D01*
X106017810Y-54391334D01*
X106208286Y-54343715D01*
X106303524Y-54296096D01*
X106398762Y-54200858D01*
X106446381Y-54058001D01*
X106446381Y-53819905D01*
X76990072Y-60222072D02*
X76990072Y-61038501D01*
X77044501Y-61201786D01*
X77153358Y-61310643D01*
X77316643Y-61365072D01*
X77425501Y-61365072D01*
X75955929Y-61365072D02*
X75955929Y-60766358D01*
X76010358Y-60657501D01*
X76119215Y-60603072D01*
X76336929Y-60603072D01*
X76445786Y-60657501D01*
X75955929Y-61310643D02*
X76064786Y-61365072D01*
X76336929Y-61365072D01*
X76445786Y-61310643D01*
X76500215Y-61201786D01*
X76500215Y-61092929D01*
X76445786Y-60984072D01*
X76336929Y-60929643D01*
X76064786Y-60929643D01*
X75955929Y-60875215D01*
X74921786Y-61310643D02*
X75030643Y-61365072D01*
X75248358Y-61365072D01*
X75357215Y-61310643D01*
X75411643Y-61256215D01*
X75466072Y-61147358D01*
X75466072Y-60820786D01*
X75411643Y-60711929D01*
X75357215Y-60657501D01*
X75248358Y-60603072D01*
X75030643Y-60603072D01*
X74921786Y-60657501D01*
X74431929Y-61365072D02*
X74431929Y-60222072D01*
X74323072Y-60929643D02*
X73996501Y-61365072D01*
X73996501Y-60603072D02*
X74431929Y-61038501D01*
X73016786Y-61310643D02*
X73125643Y-61365072D01*
X73343358Y-61365072D01*
X73452215Y-61310643D01*
X73506643Y-61256215D01*
X73561072Y-61147358D01*
X73561072Y-60820786D01*
X73506643Y-60711929D01*
X73452215Y-60657501D01*
X73343358Y-60603072D01*
X73125643Y-60603072D01*
X73016786Y-60657501D01*
X72363643Y-61365072D02*
X72472501Y-61310643D01*
X72526929Y-61256215D01*
X72581358Y-61147358D01*
X72581358Y-60820786D01*
X72526929Y-60711929D01*
X72472501Y-60657501D01*
X72363643Y-60603072D01*
X72200358Y-60603072D01*
X72091501Y-60657501D01*
X72037072Y-60711929D01*
X71982643Y-60820786D01*
X71982643Y-61147358D01*
X72037072Y-61256215D01*
X72091501Y-61310643D01*
X72200358Y-61365072D01*
X72363643Y-61365072D01*
X71492786Y-60766358D02*
X71111786Y-60766358D01*
X70948501Y-61365072D02*
X71492786Y-61365072D01*
X71492786Y-60222072D01*
X70948501Y-60222072D01*
X70513072Y-61310643D02*
X70349786Y-61365072D01*
X70077643Y-61365072D01*
X69968786Y-61310643D01*
X69914358Y-61256215D01*
X69859929Y-61147358D01*
X69859929Y-61038501D01*
X69914358Y-60929643D01*
X69968786Y-60875215D01*
X70077643Y-60820786D01*
X70295358Y-60766358D01*
X70404215Y-60711929D01*
X70458643Y-60657501D01*
X70513072Y-60548643D01*
X70513072Y-60439786D01*
X70458643Y-60330929D01*
X70404215Y-60276501D01*
X70295358Y-60222072D01*
X70023215Y-60222072D01*
X69859929Y-60276501D01*
X69370072Y-61365072D02*
X69370072Y-60222072D01*
X68934643Y-60222072D01*
X68825786Y-60276501D01*
X68771358Y-60330929D01*
X68716929Y-60439786D01*
X68716929Y-60603072D01*
X68771358Y-60711929D01*
X68825786Y-60766358D01*
X68934643Y-60820786D01*
X69370072Y-60820786D01*
X68335929Y-60222072D02*
X67628358Y-60222072D01*
X68009358Y-60657501D01*
X67846072Y-60657501D01*
X67737215Y-60711929D01*
X67682786Y-60766358D01*
X67628358Y-60875215D01*
X67628358Y-61147358D01*
X67682786Y-61256215D01*
X67737215Y-61310643D01*
X67846072Y-61365072D01*
X68172643Y-61365072D01*
X68281501Y-61310643D01*
X68335929Y-61256215D01*
X67192929Y-60330929D02*
X67138501Y-60276501D01*
X67029643Y-60222072D01*
X66757501Y-60222072D01*
X66648643Y-60276501D01*
X66594215Y-60330929D01*
X66539786Y-60439786D01*
X66539786Y-60548643D01*
X66594215Y-60711929D01*
X67247358Y-61365072D01*
X66539786Y-61365072D01*
X66049929Y-60929643D02*
X65179072Y-60929643D01*
X64634786Y-61365072D02*
X64634786Y-60222072D01*
X64199358Y-60222072D01*
X64090501Y-60276501D01*
X64036072Y-60330929D01*
X63981643Y-60439786D01*
X63981643Y-60603072D01*
X64036072Y-60711929D01*
X64090501Y-60766358D01*
X64199358Y-60820786D01*
X64634786Y-60820786D01*
X63491786Y-61365072D02*
X63491786Y-60222072D01*
X62294358Y-61256215D02*
X62348786Y-61310643D01*
X62512072Y-61365072D01*
X62620929Y-61365072D01*
X62784215Y-61310643D01*
X62893072Y-61201786D01*
X62947501Y-61092929D01*
X63001929Y-60875215D01*
X63001929Y-60711929D01*
X62947501Y-60494215D01*
X62893072Y-60385358D01*
X62784215Y-60276501D01*
X62620929Y-60222072D01*
X62512072Y-60222072D01*
X62348786Y-60276501D01*
X62294358Y-60330929D01*
X61586786Y-60222072D02*
X61369072Y-60222072D01*
X61260215Y-60276501D01*
X61151358Y-60385358D01*
X61096929Y-60603072D01*
X61096929Y-60984072D01*
X61151358Y-61201786D01*
X61260215Y-61310643D01*
X61369072Y-61365072D01*
X61586786Y-61365072D01*
X61695643Y-61310643D01*
X61804501Y-61201786D01*
X61858929Y-60984072D01*
X61858929Y-60603072D01*
X61804501Y-60385358D01*
X61695643Y-60276501D01*
X61586786Y-60222072D01*
X53462572Y-56303715D02*
X53510191Y-56446572D01*
X53557810Y-56494191D01*
X53653048Y-56541810D01*
X53795905Y-56541810D01*
X53891143Y-56494191D01*
X53938762Y-56446572D01*
X53986381Y-56351334D01*
X53986381Y-55970381D01*
X52986381Y-55970381D01*
X52986381Y-56303715D01*
X53034001Y-56398953D01*
X53081620Y-56446572D01*
X53176858Y-56494191D01*
X53272096Y-56494191D01*
X53367334Y-56446572D01*
X53414953Y-56398953D01*
X53462572Y-56303715D01*
X53462572Y-55970381D01*
X53319715Y-56875143D02*
X53986381Y-57113239D01*
X53319715Y-57351334D02*
X53986381Y-57113239D01*
X54224477Y-57018001D01*
X54272096Y-56970381D01*
X54319715Y-56875143D01*
X52986381Y-58779905D02*
X53700667Y-58779905D01*
X53843524Y-58732286D01*
X53938762Y-58637048D01*
X53986381Y-58494191D01*
X53986381Y-58398953D01*
X53986381Y-59684667D02*
X53462572Y-59684667D01*
X53367334Y-59637048D01*
X53319715Y-59541810D01*
X53319715Y-59351334D01*
X53367334Y-59256096D01*
X53938762Y-59684667D02*
X53986381Y-59589429D01*
X53986381Y-59351334D01*
X53938762Y-59256096D01*
X53843524Y-59208477D01*
X53748286Y-59208477D01*
X53653048Y-59256096D01*
X53605429Y-59351334D01*
X53605429Y-59589429D01*
X53557810Y-59684667D01*
X53938762Y-60589429D02*
X53986381Y-60494191D01*
X53986381Y-60303715D01*
X53938762Y-60208477D01*
X53891143Y-60160858D01*
X53795905Y-60113239D01*
X53510191Y-60113239D01*
X53414953Y-60160858D01*
X53367334Y-60208477D01*
X53319715Y-60303715D01*
X53319715Y-60494191D01*
X53367334Y-60589429D01*
X53986381Y-61018001D02*
X52986381Y-61018001D01*
X53605429Y-61113239D02*
X53986381Y-61398953D01*
X53319715Y-61398953D02*
X53700667Y-61018001D01*
X53938762Y-61779905D02*
X53986381Y-61875143D01*
X53986381Y-62065620D01*
X53938762Y-62160858D01*
X53843524Y-62208477D01*
X53795905Y-62208477D01*
X53700667Y-62160858D01*
X53653048Y-62065620D01*
X53653048Y-61922762D01*
X53605429Y-61827524D01*
X53510191Y-61779905D01*
X53462572Y-61779905D01*
X53367334Y-61827524D01*
X53319715Y-61922762D01*
X53319715Y-62065620D01*
X53367334Y-62160858D01*
X53986381Y-62779905D02*
X53938762Y-62684667D01*
X53891143Y-62637048D01*
X53795905Y-62589429D01*
X53510191Y-62589429D01*
X53414953Y-62637048D01*
X53367334Y-62684667D01*
X53319715Y-62779905D01*
X53319715Y-62922762D01*
X53367334Y-63018001D01*
X53414953Y-63065620D01*
X53510191Y-63113239D01*
X53795905Y-63113239D01*
X53891143Y-63065620D01*
X53938762Y-63018001D01*
X53986381Y-62922762D01*
X53986381Y-62779905D01*
X53319715Y-63541810D02*
X53986381Y-63541810D01*
X53414953Y-63541810D02*
X53367334Y-63589429D01*
X53319715Y-63684667D01*
X53319715Y-63827524D01*
X53367334Y-63922762D01*
X53462572Y-63970381D01*
X53986381Y-63970381D01*
X53986381Y-65208477D02*
X52986381Y-65208477D01*
X53700667Y-65541810D01*
X52986381Y-65875143D01*
X53986381Y-65875143D01*
X53891143Y-66351334D02*
X53938762Y-66398953D01*
X53986381Y-66351334D01*
X53938762Y-66303715D01*
X53891143Y-66351334D01*
X53986381Y-66351334D01*
X53986381Y-67589429D02*
X52986381Y-67589429D01*
X53462572Y-67589429D02*
X53462572Y-68160858D01*
X53986381Y-68160858D02*
X52986381Y-68160858D01*
X53319715Y-69065620D02*
X53986381Y-69065620D01*
X53319715Y-68637048D02*
X53843524Y-68637048D01*
X53938762Y-68684667D01*
X53986381Y-68779905D01*
X53986381Y-68922762D01*
X53938762Y-69018001D01*
X53891143Y-69065620D01*
X76709239Y-63280381D02*
X77042572Y-62804191D01*
X77280667Y-63280381D02*
X77280667Y-62280381D01*
X76899715Y-62280381D01*
X76804477Y-62328001D01*
X76756858Y-62375620D01*
X76709239Y-62470858D01*
X76709239Y-62613715D01*
X76756858Y-62708953D01*
X76804477Y-62756572D01*
X76899715Y-62804191D01*
X77280667Y-62804191D01*
X75899715Y-63232762D02*
X75994953Y-63280381D01*
X76185429Y-63280381D01*
X76280667Y-63232762D01*
X76328286Y-63137524D01*
X76328286Y-62756572D01*
X76280667Y-62661334D01*
X76185429Y-62613715D01*
X75994953Y-62613715D01*
X75899715Y-62661334D01*
X75852096Y-62756572D01*
X75852096Y-62851810D01*
X76328286Y-62947048D01*
X75518762Y-62613715D02*
X75280667Y-63280381D01*
X75042572Y-62613715D01*
X74661620Y-63185143D02*
X74614001Y-63232762D01*
X74661620Y-63280381D01*
X74709239Y-63232762D01*
X74661620Y-63185143D01*
X74661620Y-63280381D01*
X72899715Y-63280381D02*
X73471143Y-63280381D01*
X73185429Y-63280381D02*
X73185429Y-62280381D01*
X73280667Y-62423239D01*
X73375905Y-62518477D01*
X73471143Y-62566096D01*
X55471143Y-55310381D02*
X55518762Y-55262762D01*
X55566381Y-55119905D01*
X55566381Y-55024667D01*
X55518762Y-54881810D01*
X55423524Y-54786572D01*
X55328286Y-54738953D01*
X55137810Y-54691334D01*
X54994953Y-54691334D01*
X54804477Y-54738953D01*
X54709239Y-54786572D01*
X54614001Y-54881810D01*
X54566381Y-55024667D01*
X54566381Y-55119905D01*
X54614001Y-55262762D01*
X54661620Y-55310381D01*
X55566381Y-55881810D02*
X55518762Y-55786572D01*
X55471143Y-55738953D01*
X55375905Y-55691334D01*
X55090191Y-55691334D01*
X54994953Y-55738953D01*
X54947334Y-55786572D01*
X54899715Y-55881810D01*
X54899715Y-56024667D01*
X54947334Y-56119905D01*
X54994953Y-56167524D01*
X55090191Y-56215143D01*
X55375905Y-56215143D01*
X55471143Y-56167524D01*
X55518762Y-56119905D01*
X55566381Y-56024667D01*
X55566381Y-55881810D01*
X54899715Y-56643715D02*
X55899715Y-56643715D01*
X54947334Y-56643715D02*
X54899715Y-56738953D01*
X54899715Y-56929429D01*
X54947334Y-57024667D01*
X54994953Y-57072286D01*
X55090191Y-57119905D01*
X55375905Y-57119905D01*
X55471143Y-57072286D01*
X55518762Y-57024667D01*
X55566381Y-56929429D01*
X55566381Y-56738953D01*
X55518762Y-56643715D01*
X54899715Y-57453239D02*
X55566381Y-57691334D01*
X54899715Y-57929429D02*
X55566381Y-57691334D01*
X55804477Y-57596096D01*
X55852096Y-57548477D01*
X55899715Y-57453239D01*
X55566381Y-58310381D02*
X54899715Y-58310381D01*
X55090191Y-58310381D02*
X54994953Y-58358001D01*
X54947334Y-58405620D01*
X54899715Y-58500858D01*
X54899715Y-58596096D01*
X55566381Y-58929429D02*
X54899715Y-58929429D01*
X54566381Y-58929429D02*
X54614001Y-58881810D01*
X54661620Y-58929429D01*
X54614001Y-58977048D01*
X54566381Y-58929429D01*
X54661620Y-58929429D01*
X54899715Y-59834191D02*
X55709239Y-59834191D01*
X55804477Y-59786572D01*
X55852096Y-59738953D01*
X55899715Y-59643715D01*
X55899715Y-59500858D01*
X55852096Y-59405620D01*
X55518762Y-59834191D02*
X55566381Y-59738953D01*
X55566381Y-59548477D01*
X55518762Y-59453239D01*
X55471143Y-59405620D01*
X55375905Y-59358001D01*
X55090191Y-59358001D01*
X54994953Y-59405620D01*
X54947334Y-59453239D01*
X54899715Y-59548477D01*
X54899715Y-59738953D01*
X54947334Y-59834191D01*
X55566381Y-60310381D02*
X54566381Y-60310381D01*
X55566381Y-60738953D02*
X55042572Y-60738953D01*
X54947334Y-60691334D01*
X54899715Y-60596096D01*
X54899715Y-60453239D01*
X54947334Y-60358001D01*
X54994953Y-60310381D01*
X54899715Y-61072286D02*
X54899715Y-61453239D01*
X54566381Y-61215143D02*
X55423524Y-61215143D01*
X55518762Y-61262762D01*
X55566381Y-61358001D01*
X55566381Y-61453239D01*
X55947334Y-62834191D02*
X55899715Y-62786572D01*
X55756858Y-62691334D01*
X55661620Y-62643715D01*
X55518762Y-62596096D01*
X55280667Y-62548477D01*
X55090191Y-62548477D01*
X54852096Y-62596096D01*
X54709239Y-62643715D01*
X54614001Y-62691334D01*
X54471143Y-62786572D01*
X54423524Y-62834191D01*
X55471143Y-63786572D02*
X55518762Y-63738953D01*
X55566381Y-63596096D01*
X55566381Y-63500858D01*
X55518762Y-63358001D01*
X55423524Y-63262762D01*
X55328286Y-63215143D01*
X55137810Y-63167524D01*
X54994953Y-63167524D01*
X54804477Y-63215143D01*
X54709239Y-63262762D01*
X54614001Y-63358001D01*
X54566381Y-63500858D01*
X54566381Y-63596096D01*
X54614001Y-63738953D01*
X54661620Y-63786572D01*
X55947334Y-64119905D02*
X55899715Y-64167524D01*
X55756858Y-64262762D01*
X55661620Y-64310381D01*
X55518762Y-64358001D01*
X55280667Y-64405620D01*
X55090191Y-64405620D01*
X54852096Y-64358001D01*
X54709239Y-64310381D01*
X54614001Y-64262762D01*
X54471143Y-64167524D01*
X54423524Y-64119905D01*
X54661620Y-65596096D02*
X54614001Y-65643715D01*
X54566381Y-65738953D01*
X54566381Y-65977048D01*
X54614001Y-66072286D01*
X54661620Y-66119905D01*
X54756858Y-66167524D01*
X54852096Y-66167524D01*
X54994953Y-66119905D01*
X55566381Y-65548477D01*
X55566381Y-66167524D01*
X54566381Y-66786572D02*
X54566381Y-66881810D01*
X54614001Y-66977048D01*
X54661620Y-67024667D01*
X54756858Y-67072286D01*
X54947334Y-67119905D01*
X55185429Y-67119905D01*
X55375905Y-67072286D01*
X55471143Y-67024667D01*
X55518762Y-66977048D01*
X55566381Y-66881810D01*
X55566381Y-66786572D01*
X55518762Y-66691334D01*
X55471143Y-66643715D01*
X55375905Y-66596096D01*
X55185429Y-66548477D01*
X54947334Y-66548477D01*
X54756858Y-66596096D01*
X54661620Y-66643715D01*
X54614001Y-66691334D01*
X54566381Y-66786572D01*
X54661620Y-67500858D02*
X54614001Y-67548477D01*
X54566381Y-67643715D01*
X54566381Y-67881810D01*
X54614001Y-67977048D01*
X54661620Y-68024667D01*
X54756858Y-68072286D01*
X54852096Y-68072286D01*
X54994953Y-68024667D01*
X55566381Y-67453239D01*
X55566381Y-68072286D01*
X54566381Y-68691334D02*
X54566381Y-68786572D01*
X54614001Y-68881810D01*
X54661620Y-68929429D01*
X54756858Y-68977048D01*
X54947334Y-69024667D01*
X55185429Y-69024667D01*
X55375905Y-68977048D01*
X55471143Y-68929429D01*
X55518762Y-68881810D01*
X55566381Y-68786572D01*
X55566381Y-68691334D01*
X55518762Y-68596096D01*
X55471143Y-68548477D01*
X55375905Y-68500858D01*
X55185429Y-68453239D01*
X54947334Y-68453239D01*
X54756858Y-68500858D01*
X54661620Y-68548477D01*
X54614001Y-68596096D01*
X54566381Y-68691334D01*
D11*
X92843268Y-138227216D02*
X92500734Y-138227216D01*
X92843268Y-139247216D02*
X92500734Y-139247216D01*
X79843801Y-136788668D02*
X79843801Y-136266164D01*
X78423801Y-136788668D02*
X78423801Y-136266164D01*
X61118668Y-131470816D02*
X60776134Y-131470816D01*
X61118668Y-132490816D02*
X60776134Y-132490816D01*
X105314601Y-129389016D02*
X107214601Y-129389016D01*
X101414601Y-129389016D02*
X103414601Y-129389016D01*
X105314601Y-138789016D02*
X107214601Y-138789016D01*
X101414601Y-138789016D02*
X103414601Y-138789016D01*
X107214601Y-129389016D02*
X107214601Y-138789016D01*
X86276401Y-142342016D02*
X85346401Y-142342016D01*
X83116401Y-142342016D02*
X84046401Y-142342016D01*
X83116401Y-142342016D02*
X83116401Y-140182016D01*
X86276401Y-142342016D02*
X86276401Y-140882016D01*
X93617001Y-142367416D02*
X92687001Y-142367416D01*
X90457001Y-142367416D02*
X91387001Y-142367416D01*
X90457001Y-142367416D02*
X90457001Y-140207416D01*
X93617001Y-142367416D02*
X93617001Y-140907416D01*
X88219534Y-141152216D02*
X88562068Y-141152216D01*
X88219534Y-140132216D02*
X88562068Y-140132216D01*
X88601468Y-142138816D02*
X88258934Y-142138816D01*
X88601468Y-143158816D02*
X88258934Y-143158816D01*
X96175201Y-134501949D02*
X96175201Y-134844483D01*
X97195201Y-134501949D02*
X97195201Y-134844483D01*
X82084401Y-142433616D02*
X82084401Y-142933616D01*
X82084401Y-142933616D02*
X73084401Y-142933616D01*
X73084401Y-142933616D02*
X73084401Y-142433616D01*
X73084401Y-140933616D02*
X73084401Y-140433616D01*
X73084401Y-140433616D02*
X82084401Y-140433616D01*
X82084401Y-140433616D02*
X82084401Y-140933616D01*
X95004601Y-140679616D02*
X95004601Y-140179616D01*
X95004601Y-140179616D02*
X104004601Y-140179616D01*
X104004601Y-140179616D02*
X104004601Y-140679616D01*
X104004601Y-142179616D02*
X104004601Y-142679616D01*
X104004601Y-142679616D02*
X95004601Y-142679616D01*
X95004601Y-142679616D02*
X95004601Y-142179616D01*
X88384401Y-130501216D02*
X88384401Y-131761216D01*
X88384401Y-137321216D02*
X88384401Y-136061216D01*
X84624401Y-130501216D02*
X88384401Y-130501216D01*
X82374401Y-137321216D02*
X88384401Y-137321216D01*
X92843268Y-113621211D02*
X92500734Y-113621211D01*
X92843268Y-114641211D02*
X92500734Y-114641211D01*
X79843801Y-112182663D02*
X79843801Y-111660159D01*
X78423801Y-112182663D02*
X78423801Y-111660159D01*
X61118668Y-106864811D02*
X60776134Y-106864811D01*
X61118668Y-107884811D02*
X60776134Y-107884811D01*
X105314601Y-104783011D02*
X107214601Y-104783011D01*
X101414601Y-104783011D02*
X103414601Y-104783011D01*
X105314601Y-114183011D02*
X107214601Y-114183011D01*
X101414601Y-114183011D02*
X103414601Y-114183011D01*
X107214601Y-104783011D02*
X107214601Y-114183011D01*
X86276401Y-117736011D02*
X85346401Y-117736011D01*
X83116401Y-117736011D02*
X84046401Y-117736011D01*
X83116401Y-117736011D02*
X83116401Y-115576011D01*
X86276401Y-117736011D02*
X86276401Y-116276011D01*
X93617001Y-117761411D02*
X92687001Y-117761411D01*
X90457001Y-117761411D02*
X91387001Y-117761411D01*
X90457001Y-117761411D02*
X90457001Y-115601411D01*
X93617001Y-117761411D02*
X93617001Y-116301411D01*
X88219534Y-116546211D02*
X88562068Y-116546211D01*
X88219534Y-115526211D02*
X88562068Y-115526211D01*
X88601468Y-117532811D02*
X88258934Y-117532811D01*
X88601468Y-118552811D02*
X88258934Y-118552811D01*
X96175201Y-109895944D02*
X96175201Y-110238478D01*
X97195201Y-109895944D02*
X97195201Y-110238478D01*
X82084401Y-117827611D02*
X82084401Y-118327611D01*
X82084401Y-118327611D02*
X73084401Y-118327611D01*
X73084401Y-118327611D02*
X73084401Y-117827611D01*
X73084401Y-116327611D02*
X73084401Y-115827611D01*
X73084401Y-115827611D02*
X82084401Y-115827611D01*
X82084401Y-115827611D02*
X82084401Y-116327611D01*
X95004601Y-116073611D02*
X95004601Y-115573611D01*
X95004601Y-115573611D02*
X104004601Y-115573611D01*
X104004601Y-115573611D02*
X104004601Y-116073611D01*
X104004601Y-117573611D02*
X104004601Y-118073611D01*
X104004601Y-118073611D02*
X95004601Y-118073611D01*
X95004601Y-118073611D02*
X95004601Y-117573611D01*
X88384401Y-105895211D02*
X88384401Y-107155211D01*
X88384401Y-112715211D02*
X88384401Y-111455211D01*
X84624401Y-105895211D02*
X88384401Y-105895211D01*
X82374401Y-112715211D02*
X88384401Y-112715211D01*
X92843268Y-89015206D02*
X92500734Y-89015206D01*
X92843268Y-90035206D02*
X92500734Y-90035206D01*
X79843801Y-87576658D02*
X79843801Y-87054154D01*
X78423801Y-87576658D02*
X78423801Y-87054154D01*
X61118668Y-82258806D02*
X60776134Y-82258806D01*
X61118668Y-83278806D02*
X60776134Y-83278806D01*
X105314601Y-80177006D02*
X107214601Y-80177006D01*
X101414601Y-80177006D02*
X103414601Y-80177006D01*
X105314601Y-89577006D02*
X107214601Y-89577006D01*
X101414601Y-89577006D02*
X103414601Y-89577006D01*
X107214601Y-80177006D02*
X107214601Y-89577006D01*
X86276401Y-93130006D02*
X85346401Y-93130006D01*
X83116401Y-93130006D02*
X84046401Y-93130006D01*
X83116401Y-93130006D02*
X83116401Y-90970006D01*
X86276401Y-93130006D02*
X86276401Y-91670006D01*
X93617001Y-93155406D02*
X92687001Y-93155406D01*
X90457001Y-93155406D02*
X91387001Y-93155406D01*
X90457001Y-93155406D02*
X90457001Y-90995406D01*
X93617001Y-93155406D02*
X93617001Y-91695406D01*
X88219534Y-91940206D02*
X88562068Y-91940206D01*
X88219534Y-90920206D02*
X88562068Y-90920206D01*
X88601468Y-92926806D02*
X88258934Y-92926806D01*
X88601468Y-93946806D02*
X88258934Y-93946806D01*
X96175201Y-85289939D02*
X96175201Y-85632473D01*
X97195201Y-85289939D02*
X97195201Y-85632473D01*
X82084401Y-93221606D02*
X82084401Y-93721606D01*
X82084401Y-93721606D02*
X73084401Y-93721606D01*
X73084401Y-93721606D02*
X73084401Y-93221606D01*
X73084401Y-91721606D02*
X73084401Y-91221606D01*
X73084401Y-91221606D02*
X82084401Y-91221606D01*
X82084401Y-91221606D02*
X82084401Y-91721606D01*
X95004601Y-91467606D02*
X95004601Y-90967606D01*
X95004601Y-90967606D02*
X104004601Y-90967606D01*
X104004601Y-90967606D02*
X104004601Y-91467606D01*
X104004601Y-92967606D02*
X104004601Y-93467606D01*
X104004601Y-93467606D02*
X95004601Y-93467606D01*
X95004601Y-93467606D02*
X95004601Y-92967606D01*
X88384401Y-81289206D02*
X88384401Y-82549206D01*
X88384401Y-88109206D02*
X88384401Y-86849206D01*
X84624401Y-81289206D02*
X88384401Y-81289206D01*
X82374401Y-88109206D02*
X88384401Y-88109206D01*
X92843268Y-64409201D02*
X92500734Y-64409201D01*
X92843268Y-65429201D02*
X92500734Y-65429201D01*
X79843801Y-62970653D02*
X79843801Y-62448149D01*
X78423801Y-62970653D02*
X78423801Y-62448149D01*
X61118668Y-57652801D02*
X60776134Y-57652801D01*
X61118668Y-58672801D02*
X60776134Y-58672801D01*
X105314601Y-55571001D02*
X107214601Y-55571001D01*
X101414601Y-55571001D02*
X103414601Y-55571001D01*
X105314601Y-64971001D02*
X107214601Y-64971001D01*
X101414601Y-64971001D02*
X103414601Y-64971001D01*
X107214601Y-55571001D02*
X107214601Y-64971001D01*
X86276401Y-68524001D02*
X85346401Y-68524001D01*
X83116401Y-68524001D02*
X84046401Y-68524001D01*
X83116401Y-68524001D02*
X83116401Y-66364001D01*
X86276401Y-68524001D02*
X86276401Y-67064001D01*
X93617001Y-68549401D02*
X92687001Y-68549401D01*
X90457001Y-68549401D02*
X91387001Y-68549401D01*
X90457001Y-68549401D02*
X90457001Y-66389401D01*
X93617001Y-68549401D02*
X93617001Y-67089401D01*
X88219534Y-67334201D02*
X88562068Y-67334201D01*
X88219534Y-66314201D02*
X88562068Y-66314201D01*
X88601468Y-68320801D02*
X88258934Y-68320801D01*
X88601468Y-69340801D02*
X88258934Y-69340801D01*
X96175201Y-60683934D02*
X96175201Y-61026468D01*
X97195201Y-60683934D02*
X97195201Y-61026468D01*
X82084401Y-68615601D02*
X82084401Y-69115601D01*
X82084401Y-69115601D02*
X73084401Y-69115601D01*
X73084401Y-69115601D02*
X73084401Y-68615601D01*
X73084401Y-67115601D02*
X73084401Y-66615601D01*
X73084401Y-66615601D02*
X82084401Y-66615601D01*
X82084401Y-66615601D02*
X82084401Y-67115601D01*
X95004601Y-66861601D02*
X95004601Y-66361601D01*
X95004601Y-66361601D02*
X104004601Y-66361601D01*
X104004601Y-66361601D02*
X104004601Y-66861601D01*
X104004601Y-68361601D02*
X104004601Y-68861601D01*
X104004601Y-68861601D02*
X95004601Y-68861601D01*
X95004601Y-68861601D02*
X95004601Y-68361601D01*
X88384401Y-56683201D02*
X88384401Y-57943201D01*
X88384401Y-63503201D02*
X88384401Y-62243201D01*
X84624401Y-56683201D02*
X88384401Y-56683201D01*
X82374401Y-63503201D02*
X88384401Y-63503201D01*
D10*
X92838667Y-137664358D02*
X92886286Y-137711977D01*
X93029143Y-137759596D01*
X93124381Y-137759596D01*
X93267239Y-137711977D01*
X93362477Y-137616739D01*
X93410096Y-137521501D01*
X93457715Y-137331025D01*
X93457715Y-137188168D01*
X93410096Y-136997692D01*
X93362477Y-136902454D01*
X93267239Y-136807216D01*
X93124381Y-136759596D01*
X93029143Y-136759596D01*
X92886286Y-136807216D01*
X92838667Y-136854835D01*
X92457715Y-136854835D02*
X92410096Y-136807216D01*
X92314858Y-136759596D01*
X92076762Y-136759596D01*
X91981524Y-136807216D01*
X91933905Y-136854835D01*
X91886286Y-136950073D01*
X91886286Y-137045311D01*
X91933905Y-137188168D01*
X92505334Y-137759596D01*
X91886286Y-137759596D01*
X81121143Y-136369349D02*
X81168762Y-136321730D01*
X81216381Y-136178873D01*
X81216381Y-136083635D01*
X81168762Y-135940777D01*
X81073524Y-135845539D01*
X80978286Y-135797920D01*
X80787810Y-135750301D01*
X80644953Y-135750301D01*
X80454477Y-135797920D01*
X80359239Y-135845539D01*
X80264001Y-135940777D01*
X80216381Y-136083635D01*
X80216381Y-136178873D01*
X80264001Y-136321730D01*
X80311620Y-136369349D01*
X80216381Y-136702682D02*
X80216381Y-137321730D01*
X80597334Y-136988396D01*
X80597334Y-137131254D01*
X80644953Y-137226492D01*
X80692572Y-137274111D01*
X80787810Y-137321730D01*
X81025905Y-137321730D01*
X81121143Y-137274111D01*
X81168762Y-137226492D01*
X81216381Y-137131254D01*
X81216381Y-136845539D01*
X81168762Y-136750301D01*
X81121143Y-136702682D01*
X58490667Y-132483158D02*
X58538286Y-132530777D01*
X58681143Y-132578396D01*
X58776381Y-132578396D01*
X58919239Y-132530777D01*
X59014477Y-132435539D01*
X59062096Y-132340301D01*
X59109715Y-132149825D01*
X59109715Y-132006968D01*
X59062096Y-131816492D01*
X59014477Y-131721254D01*
X58919239Y-131626016D01*
X58776381Y-131578396D01*
X58681143Y-131578396D01*
X58538286Y-131626016D01*
X58490667Y-131673635D01*
X57633524Y-131911730D02*
X57633524Y-132578396D01*
X57871620Y-131530777D02*
X58109715Y-132245063D01*
X57490667Y-132245063D01*
X101293781Y-133704882D02*
X102008067Y-133704882D01*
X102150924Y-133657263D01*
X102246162Y-133562025D01*
X102293781Y-133419168D01*
X102293781Y-133323930D01*
X102293781Y-134704882D02*
X102293781Y-134133454D01*
X102293781Y-134419168D02*
X101293781Y-134419168D01*
X101436639Y-134323930D01*
X101531877Y-134228692D01*
X101579496Y-134133454D01*
X84613839Y-139843635D02*
X84709077Y-139796016D01*
X84804315Y-139700777D01*
X84947172Y-139557920D01*
X85042410Y-139510301D01*
X85137648Y-139510301D01*
X85090029Y-139748396D02*
X85185267Y-139700777D01*
X85280505Y-139605539D01*
X85328124Y-139415063D01*
X85328124Y-139081730D01*
X85280505Y-138891254D01*
X85185267Y-138796016D01*
X85090029Y-138748396D01*
X84899553Y-138748396D01*
X84804315Y-138796016D01*
X84709077Y-138891254D01*
X84661458Y-139081730D01*
X84661458Y-139415063D01*
X84709077Y-139605539D01*
X84804315Y-139700777D01*
X84899553Y-139748396D01*
X85090029Y-139748396D01*
X83709077Y-139748396D02*
X84280505Y-139748396D01*
X83994791Y-139748396D02*
X83994791Y-138748396D01*
X84090029Y-138891254D01*
X84185267Y-138986492D01*
X84280505Y-139034111D01*
X92183039Y-139691235D02*
X92278277Y-139643616D01*
X92373515Y-139548377D01*
X92516372Y-139405520D01*
X92611610Y-139357901D01*
X92706848Y-139357901D01*
X92659229Y-139595996D02*
X92754467Y-139548377D01*
X92849705Y-139453139D01*
X92897324Y-139262663D01*
X92897324Y-138929330D01*
X92849705Y-138738854D01*
X92754467Y-138643616D01*
X92659229Y-138595996D01*
X92468753Y-138595996D01*
X92373515Y-138643616D01*
X92278277Y-138738854D01*
X92230658Y-138929330D01*
X92230658Y-139262663D01*
X92278277Y-139453139D01*
X92373515Y-139548377D01*
X92468753Y-139595996D01*
X92659229Y-139595996D01*
X91849705Y-138691235D02*
X91802086Y-138643616D01*
X91706848Y-138595996D01*
X91468753Y-138595996D01*
X91373515Y-138643616D01*
X91325896Y-138691235D01*
X91278277Y-138786473D01*
X91278277Y-138881711D01*
X91325896Y-139024568D01*
X91897324Y-139595996D01*
X91278277Y-139595996D01*
X88419067Y-144396596D02*
X88752401Y-143920406D01*
X88990496Y-144396596D02*
X88990496Y-143396596D01*
X88609543Y-143396596D01*
X88514305Y-143444216D01*
X88466686Y-143491835D01*
X88419067Y-143587073D01*
X88419067Y-143729930D01*
X88466686Y-143825168D01*
X88514305Y-143872787D01*
X88609543Y-143920406D01*
X88990496Y-143920406D01*
X88038115Y-143491835D02*
X87990496Y-143444216D01*
X87895258Y-143396596D01*
X87657162Y-143396596D01*
X87561924Y-143444216D01*
X87514305Y-143491835D01*
X87466686Y-143587073D01*
X87466686Y-143682311D01*
X87514305Y-143825168D01*
X88085734Y-144396596D01*
X87466686Y-144396596D01*
X88495267Y-139646796D02*
X88828601Y-139170606D01*
X89066696Y-139646796D02*
X89066696Y-138646796D01*
X88685743Y-138646796D01*
X88590505Y-138694416D01*
X88542886Y-138742035D01*
X88495267Y-138837273D01*
X88495267Y-138980130D01*
X88542886Y-139075368D01*
X88590505Y-139122987D01*
X88685743Y-139170606D01*
X89066696Y-139170606D01*
X88161934Y-138646796D02*
X87542886Y-138646796D01*
X87876220Y-139027749D01*
X87733362Y-139027749D01*
X87638124Y-139075368D01*
X87590505Y-139122987D01*
X87542886Y-139218225D01*
X87542886Y-139456320D01*
X87590505Y-139551558D01*
X87638124Y-139599177D01*
X87733362Y-139646796D01*
X88019077Y-139646796D01*
X88114315Y-139599177D01*
X88161934Y-139551558D01*
X95707581Y-134506549D02*
X95231391Y-134173216D01*
X95707581Y-133935120D02*
X94707581Y-133935120D01*
X94707581Y-134316073D01*
X94755201Y-134411311D01*
X94802820Y-134458930D01*
X94898058Y-134506549D01*
X95040915Y-134506549D01*
X95136153Y-134458930D01*
X95183772Y-134411311D01*
X95231391Y-134316073D01*
X95231391Y-133935120D01*
X94707581Y-135363692D02*
X94707581Y-135173216D01*
X94755201Y-135077977D01*
X94802820Y-135030358D01*
X94945677Y-134935120D01*
X95136153Y-134887501D01*
X95517105Y-134887501D01*
X95612343Y-134935120D01*
X95659962Y-134982739D01*
X95707581Y-135077977D01*
X95707581Y-135268454D01*
X95659962Y-135363692D01*
X95612343Y-135411311D01*
X95517105Y-135458930D01*
X95279010Y-135458930D01*
X95183772Y-135411311D01*
X95136153Y-135363692D01*
X95088534Y-135268454D01*
X95088534Y-135077977D01*
X95136153Y-134982739D01*
X95183772Y-134935120D01*
X95279010Y-134887501D01*
X78816134Y-142215377D02*
X78673277Y-142262996D01*
X78435181Y-142262996D01*
X78339943Y-142215377D01*
X78292324Y-142167758D01*
X78244705Y-142072520D01*
X78244705Y-141977282D01*
X78292324Y-141882044D01*
X78339943Y-141834425D01*
X78435181Y-141786806D01*
X78625658Y-141739187D01*
X78720896Y-141691568D01*
X78768515Y-141643949D01*
X78816134Y-141548711D01*
X78816134Y-141453473D01*
X78768515Y-141358235D01*
X78720896Y-141310616D01*
X78625658Y-141262996D01*
X78387562Y-141262996D01*
X78244705Y-141310616D01*
X77911372Y-141262996D02*
X77673277Y-142262996D01*
X77482801Y-141548711D01*
X77292324Y-142262996D01*
X77054229Y-141262996D01*
X76149467Y-142262996D02*
X76720896Y-142262996D01*
X76435181Y-142262996D02*
X76435181Y-141262996D01*
X76530420Y-141405854D01*
X76625658Y-141501092D01*
X76720896Y-141548711D01*
X100787134Y-141859777D02*
X100644277Y-141907396D01*
X100406181Y-141907396D01*
X100310943Y-141859777D01*
X100263324Y-141812158D01*
X100215705Y-141716920D01*
X100215705Y-141621682D01*
X100263324Y-141526444D01*
X100310943Y-141478825D01*
X100406181Y-141431206D01*
X100596658Y-141383587D01*
X100691896Y-141335968D01*
X100739515Y-141288349D01*
X100787134Y-141193111D01*
X100787134Y-141097873D01*
X100739515Y-141002635D01*
X100691896Y-140955016D01*
X100596658Y-140907396D01*
X100358562Y-140907396D01*
X100215705Y-140955016D01*
X99882372Y-140907396D02*
X99644277Y-141907396D01*
X99453801Y-141193111D01*
X99263324Y-141907396D01*
X99025229Y-140907396D01*
X98691896Y-141002635D02*
X98644277Y-140955016D01*
X98549039Y-140907396D01*
X98310943Y-140907396D01*
X98215705Y-140955016D01*
X98168086Y-141002635D01*
X98120467Y-141097873D01*
X98120467Y-141193111D01*
X98168086Y-141335968D01*
X98739515Y-141907396D01*
X98120467Y-141907396D01*
X86955905Y-133448396D02*
X86955905Y-134257920D01*
X86908286Y-134353158D01*
X86860667Y-134400777D01*
X86765429Y-134448396D01*
X86574953Y-134448396D01*
X86479715Y-134400777D01*
X86432096Y-134353158D01*
X86384477Y-134257920D01*
X86384477Y-133448396D01*
X85479715Y-133781730D02*
X85479715Y-134448396D01*
X85717810Y-133400777D02*
X85955905Y-134115063D01*
X85336858Y-134115063D01*
X92838667Y-113058353D02*
X92886286Y-113105972D01*
X93029143Y-113153591D01*
X93124381Y-113153591D01*
X93267239Y-113105972D01*
X93362477Y-113010734D01*
X93410096Y-112915496D01*
X93457715Y-112725020D01*
X93457715Y-112582163D01*
X93410096Y-112391687D01*
X93362477Y-112296449D01*
X93267239Y-112201211D01*
X93124381Y-112153591D01*
X93029143Y-112153591D01*
X92886286Y-112201211D01*
X92838667Y-112248830D01*
X92457715Y-112248830D02*
X92410096Y-112201211D01*
X92314858Y-112153591D01*
X92076762Y-112153591D01*
X91981524Y-112201211D01*
X91933905Y-112248830D01*
X91886286Y-112344068D01*
X91886286Y-112439306D01*
X91933905Y-112582163D01*
X92505334Y-113153591D01*
X91886286Y-113153591D01*
X81121143Y-111763344D02*
X81168762Y-111715725D01*
X81216381Y-111572868D01*
X81216381Y-111477630D01*
X81168762Y-111334772D01*
X81073524Y-111239534D01*
X80978286Y-111191915D01*
X80787810Y-111144296D01*
X80644953Y-111144296D01*
X80454477Y-111191915D01*
X80359239Y-111239534D01*
X80264001Y-111334772D01*
X80216381Y-111477630D01*
X80216381Y-111572868D01*
X80264001Y-111715725D01*
X80311620Y-111763344D01*
X80216381Y-112096677D02*
X80216381Y-112715725D01*
X80597334Y-112382391D01*
X80597334Y-112525249D01*
X80644953Y-112620487D01*
X80692572Y-112668106D01*
X80787810Y-112715725D01*
X81025905Y-112715725D01*
X81121143Y-112668106D01*
X81168762Y-112620487D01*
X81216381Y-112525249D01*
X81216381Y-112239534D01*
X81168762Y-112144296D01*
X81121143Y-112096677D01*
X58490667Y-107877153D02*
X58538286Y-107924772D01*
X58681143Y-107972391D01*
X58776381Y-107972391D01*
X58919239Y-107924772D01*
X59014477Y-107829534D01*
X59062096Y-107734296D01*
X59109715Y-107543820D01*
X59109715Y-107400963D01*
X59062096Y-107210487D01*
X59014477Y-107115249D01*
X58919239Y-107020011D01*
X58776381Y-106972391D01*
X58681143Y-106972391D01*
X58538286Y-107020011D01*
X58490667Y-107067630D01*
X57633524Y-107305725D02*
X57633524Y-107972391D01*
X57871620Y-106924772D02*
X58109715Y-107639058D01*
X57490667Y-107639058D01*
X101293781Y-109098877D02*
X102008067Y-109098877D01*
X102150924Y-109051258D01*
X102246162Y-108956020D01*
X102293781Y-108813163D01*
X102293781Y-108717925D01*
X102293781Y-110098877D02*
X102293781Y-109527449D01*
X102293781Y-109813163D02*
X101293781Y-109813163D01*
X101436639Y-109717925D01*
X101531877Y-109622687D01*
X101579496Y-109527449D01*
X84613839Y-115237630D02*
X84709077Y-115190011D01*
X84804315Y-115094772D01*
X84947172Y-114951915D01*
X85042410Y-114904296D01*
X85137648Y-114904296D01*
X85090029Y-115142391D02*
X85185267Y-115094772D01*
X85280505Y-114999534D01*
X85328124Y-114809058D01*
X85328124Y-114475725D01*
X85280505Y-114285249D01*
X85185267Y-114190011D01*
X85090029Y-114142391D01*
X84899553Y-114142391D01*
X84804315Y-114190011D01*
X84709077Y-114285249D01*
X84661458Y-114475725D01*
X84661458Y-114809058D01*
X84709077Y-114999534D01*
X84804315Y-115094772D01*
X84899553Y-115142391D01*
X85090029Y-115142391D01*
X83709077Y-115142391D02*
X84280505Y-115142391D01*
X83994791Y-115142391D02*
X83994791Y-114142391D01*
X84090029Y-114285249D01*
X84185267Y-114380487D01*
X84280505Y-114428106D01*
X92183039Y-115085230D02*
X92278277Y-115037611D01*
X92373515Y-114942372D01*
X92516372Y-114799515D01*
X92611610Y-114751896D01*
X92706848Y-114751896D01*
X92659229Y-114989991D02*
X92754467Y-114942372D01*
X92849705Y-114847134D01*
X92897324Y-114656658D01*
X92897324Y-114323325D01*
X92849705Y-114132849D01*
X92754467Y-114037611D01*
X92659229Y-113989991D01*
X92468753Y-113989991D01*
X92373515Y-114037611D01*
X92278277Y-114132849D01*
X92230658Y-114323325D01*
X92230658Y-114656658D01*
X92278277Y-114847134D01*
X92373515Y-114942372D01*
X92468753Y-114989991D01*
X92659229Y-114989991D01*
X91849705Y-114085230D02*
X91802086Y-114037611D01*
X91706848Y-113989991D01*
X91468753Y-113989991D01*
X91373515Y-114037611D01*
X91325896Y-114085230D01*
X91278277Y-114180468D01*
X91278277Y-114275706D01*
X91325896Y-114418563D01*
X91897324Y-114989991D01*
X91278277Y-114989991D01*
X88419067Y-119790591D02*
X88752401Y-119314401D01*
X88990496Y-119790591D02*
X88990496Y-118790591D01*
X88609543Y-118790591D01*
X88514305Y-118838211D01*
X88466686Y-118885830D01*
X88419067Y-118981068D01*
X88419067Y-119123925D01*
X88466686Y-119219163D01*
X88514305Y-119266782D01*
X88609543Y-119314401D01*
X88990496Y-119314401D01*
X88038115Y-118885830D02*
X87990496Y-118838211D01*
X87895258Y-118790591D01*
X87657162Y-118790591D01*
X87561924Y-118838211D01*
X87514305Y-118885830D01*
X87466686Y-118981068D01*
X87466686Y-119076306D01*
X87514305Y-119219163D01*
X88085734Y-119790591D01*
X87466686Y-119790591D01*
X88495267Y-115040791D02*
X88828601Y-114564601D01*
X89066696Y-115040791D02*
X89066696Y-114040791D01*
X88685743Y-114040791D01*
X88590505Y-114088411D01*
X88542886Y-114136030D01*
X88495267Y-114231268D01*
X88495267Y-114374125D01*
X88542886Y-114469363D01*
X88590505Y-114516982D01*
X88685743Y-114564601D01*
X89066696Y-114564601D01*
X88161934Y-114040791D02*
X87542886Y-114040791D01*
X87876220Y-114421744D01*
X87733362Y-114421744D01*
X87638124Y-114469363D01*
X87590505Y-114516982D01*
X87542886Y-114612220D01*
X87542886Y-114850315D01*
X87590505Y-114945553D01*
X87638124Y-114993172D01*
X87733362Y-115040791D01*
X88019077Y-115040791D01*
X88114315Y-114993172D01*
X88161934Y-114945553D01*
X95707581Y-109900544D02*
X95231391Y-109567211D01*
X95707581Y-109329115D02*
X94707581Y-109329115D01*
X94707581Y-109710068D01*
X94755201Y-109805306D01*
X94802820Y-109852925D01*
X94898058Y-109900544D01*
X95040915Y-109900544D01*
X95136153Y-109852925D01*
X95183772Y-109805306D01*
X95231391Y-109710068D01*
X95231391Y-109329115D01*
X94707581Y-110757687D02*
X94707581Y-110567211D01*
X94755201Y-110471972D01*
X94802820Y-110424353D01*
X94945677Y-110329115D01*
X95136153Y-110281496D01*
X95517105Y-110281496D01*
X95612343Y-110329115D01*
X95659962Y-110376734D01*
X95707581Y-110471972D01*
X95707581Y-110662449D01*
X95659962Y-110757687D01*
X95612343Y-110805306D01*
X95517105Y-110852925D01*
X95279010Y-110852925D01*
X95183772Y-110805306D01*
X95136153Y-110757687D01*
X95088534Y-110662449D01*
X95088534Y-110471972D01*
X95136153Y-110376734D01*
X95183772Y-110329115D01*
X95279010Y-110281496D01*
X78816134Y-117609372D02*
X78673277Y-117656991D01*
X78435181Y-117656991D01*
X78339943Y-117609372D01*
X78292324Y-117561753D01*
X78244705Y-117466515D01*
X78244705Y-117371277D01*
X78292324Y-117276039D01*
X78339943Y-117228420D01*
X78435181Y-117180801D01*
X78625658Y-117133182D01*
X78720896Y-117085563D01*
X78768515Y-117037944D01*
X78816134Y-116942706D01*
X78816134Y-116847468D01*
X78768515Y-116752230D01*
X78720896Y-116704611D01*
X78625658Y-116656991D01*
X78387562Y-116656991D01*
X78244705Y-116704611D01*
X77911372Y-116656991D02*
X77673277Y-117656991D01*
X77482801Y-116942706D01*
X77292324Y-117656991D01*
X77054229Y-116656991D01*
X76149467Y-117656991D02*
X76720896Y-117656991D01*
X76435181Y-117656991D02*
X76435181Y-116656991D01*
X76530420Y-116799849D01*
X76625658Y-116895087D01*
X76720896Y-116942706D01*
X100787134Y-117253772D02*
X100644277Y-117301391D01*
X100406181Y-117301391D01*
X100310943Y-117253772D01*
X100263324Y-117206153D01*
X100215705Y-117110915D01*
X100215705Y-117015677D01*
X100263324Y-116920439D01*
X100310943Y-116872820D01*
X100406181Y-116825201D01*
X100596658Y-116777582D01*
X100691896Y-116729963D01*
X100739515Y-116682344D01*
X100787134Y-116587106D01*
X100787134Y-116491868D01*
X100739515Y-116396630D01*
X100691896Y-116349011D01*
X100596658Y-116301391D01*
X100358562Y-116301391D01*
X100215705Y-116349011D01*
X99882372Y-116301391D02*
X99644277Y-117301391D01*
X99453801Y-116587106D01*
X99263324Y-117301391D01*
X99025229Y-116301391D01*
X98691896Y-116396630D02*
X98644277Y-116349011D01*
X98549039Y-116301391D01*
X98310943Y-116301391D01*
X98215705Y-116349011D01*
X98168086Y-116396630D01*
X98120467Y-116491868D01*
X98120467Y-116587106D01*
X98168086Y-116729963D01*
X98739515Y-117301391D01*
X98120467Y-117301391D01*
X86955905Y-108842391D02*
X86955905Y-109651915D01*
X86908286Y-109747153D01*
X86860667Y-109794772D01*
X86765429Y-109842391D01*
X86574953Y-109842391D01*
X86479715Y-109794772D01*
X86432096Y-109747153D01*
X86384477Y-109651915D01*
X86384477Y-108842391D01*
X85479715Y-109175725D02*
X85479715Y-109842391D01*
X85717810Y-108794772D02*
X85955905Y-109509058D01*
X85336858Y-109509058D01*
X92838667Y-88452348D02*
X92886286Y-88499967D01*
X93029143Y-88547586D01*
X93124381Y-88547586D01*
X93267239Y-88499967D01*
X93362477Y-88404729D01*
X93410096Y-88309491D01*
X93457715Y-88119015D01*
X93457715Y-87976158D01*
X93410096Y-87785682D01*
X93362477Y-87690444D01*
X93267239Y-87595206D01*
X93124381Y-87547586D01*
X93029143Y-87547586D01*
X92886286Y-87595206D01*
X92838667Y-87642825D01*
X92457715Y-87642825D02*
X92410096Y-87595206D01*
X92314858Y-87547586D01*
X92076762Y-87547586D01*
X91981524Y-87595206D01*
X91933905Y-87642825D01*
X91886286Y-87738063D01*
X91886286Y-87833301D01*
X91933905Y-87976158D01*
X92505334Y-88547586D01*
X91886286Y-88547586D01*
X81121143Y-87157339D02*
X81168762Y-87109720D01*
X81216381Y-86966863D01*
X81216381Y-86871625D01*
X81168762Y-86728767D01*
X81073524Y-86633529D01*
X80978286Y-86585910D01*
X80787810Y-86538291D01*
X80644953Y-86538291D01*
X80454477Y-86585910D01*
X80359239Y-86633529D01*
X80264001Y-86728767D01*
X80216381Y-86871625D01*
X80216381Y-86966863D01*
X80264001Y-87109720D01*
X80311620Y-87157339D01*
X80216381Y-87490672D02*
X80216381Y-88109720D01*
X80597334Y-87776386D01*
X80597334Y-87919244D01*
X80644953Y-88014482D01*
X80692572Y-88062101D01*
X80787810Y-88109720D01*
X81025905Y-88109720D01*
X81121143Y-88062101D01*
X81168762Y-88014482D01*
X81216381Y-87919244D01*
X81216381Y-87633529D01*
X81168762Y-87538291D01*
X81121143Y-87490672D01*
X58490667Y-83271148D02*
X58538286Y-83318767D01*
X58681143Y-83366386D01*
X58776381Y-83366386D01*
X58919239Y-83318767D01*
X59014477Y-83223529D01*
X59062096Y-83128291D01*
X59109715Y-82937815D01*
X59109715Y-82794958D01*
X59062096Y-82604482D01*
X59014477Y-82509244D01*
X58919239Y-82414006D01*
X58776381Y-82366386D01*
X58681143Y-82366386D01*
X58538286Y-82414006D01*
X58490667Y-82461625D01*
X57633524Y-82699720D02*
X57633524Y-83366386D01*
X57871620Y-82318767D02*
X58109715Y-83033053D01*
X57490667Y-83033053D01*
X101293781Y-84492872D02*
X102008067Y-84492872D01*
X102150924Y-84445253D01*
X102246162Y-84350015D01*
X102293781Y-84207158D01*
X102293781Y-84111920D01*
X102293781Y-85492872D02*
X102293781Y-84921444D01*
X102293781Y-85207158D02*
X101293781Y-85207158D01*
X101436639Y-85111920D01*
X101531877Y-85016682D01*
X101579496Y-84921444D01*
X84613839Y-90631625D02*
X84709077Y-90584006D01*
X84804315Y-90488767D01*
X84947172Y-90345910D01*
X85042410Y-90298291D01*
X85137648Y-90298291D01*
X85090029Y-90536386D02*
X85185267Y-90488767D01*
X85280505Y-90393529D01*
X85328124Y-90203053D01*
X85328124Y-89869720D01*
X85280505Y-89679244D01*
X85185267Y-89584006D01*
X85090029Y-89536386D01*
X84899553Y-89536386D01*
X84804315Y-89584006D01*
X84709077Y-89679244D01*
X84661458Y-89869720D01*
X84661458Y-90203053D01*
X84709077Y-90393529D01*
X84804315Y-90488767D01*
X84899553Y-90536386D01*
X85090029Y-90536386D01*
X83709077Y-90536386D02*
X84280505Y-90536386D01*
X83994791Y-90536386D02*
X83994791Y-89536386D01*
X84090029Y-89679244D01*
X84185267Y-89774482D01*
X84280505Y-89822101D01*
X92183039Y-90479225D02*
X92278277Y-90431606D01*
X92373515Y-90336367D01*
X92516372Y-90193510D01*
X92611610Y-90145891D01*
X92706848Y-90145891D01*
X92659229Y-90383986D02*
X92754467Y-90336367D01*
X92849705Y-90241129D01*
X92897324Y-90050653D01*
X92897324Y-89717320D01*
X92849705Y-89526844D01*
X92754467Y-89431606D01*
X92659229Y-89383986D01*
X92468753Y-89383986D01*
X92373515Y-89431606D01*
X92278277Y-89526844D01*
X92230658Y-89717320D01*
X92230658Y-90050653D01*
X92278277Y-90241129D01*
X92373515Y-90336367D01*
X92468753Y-90383986D01*
X92659229Y-90383986D01*
X91849705Y-89479225D02*
X91802086Y-89431606D01*
X91706848Y-89383986D01*
X91468753Y-89383986D01*
X91373515Y-89431606D01*
X91325896Y-89479225D01*
X91278277Y-89574463D01*
X91278277Y-89669701D01*
X91325896Y-89812558D01*
X91897324Y-90383986D01*
X91278277Y-90383986D01*
X88419067Y-95184586D02*
X88752401Y-94708396D01*
X88990496Y-95184586D02*
X88990496Y-94184586D01*
X88609543Y-94184586D01*
X88514305Y-94232206D01*
X88466686Y-94279825D01*
X88419067Y-94375063D01*
X88419067Y-94517920D01*
X88466686Y-94613158D01*
X88514305Y-94660777D01*
X88609543Y-94708396D01*
X88990496Y-94708396D01*
X88038115Y-94279825D02*
X87990496Y-94232206D01*
X87895258Y-94184586D01*
X87657162Y-94184586D01*
X87561924Y-94232206D01*
X87514305Y-94279825D01*
X87466686Y-94375063D01*
X87466686Y-94470301D01*
X87514305Y-94613158D01*
X88085734Y-95184586D01*
X87466686Y-95184586D01*
X88495267Y-90434786D02*
X88828601Y-89958596D01*
X89066696Y-90434786D02*
X89066696Y-89434786D01*
X88685743Y-89434786D01*
X88590505Y-89482406D01*
X88542886Y-89530025D01*
X88495267Y-89625263D01*
X88495267Y-89768120D01*
X88542886Y-89863358D01*
X88590505Y-89910977D01*
X88685743Y-89958596D01*
X89066696Y-89958596D01*
X88161934Y-89434786D02*
X87542886Y-89434786D01*
X87876220Y-89815739D01*
X87733362Y-89815739D01*
X87638124Y-89863358D01*
X87590505Y-89910977D01*
X87542886Y-90006215D01*
X87542886Y-90244310D01*
X87590505Y-90339548D01*
X87638124Y-90387167D01*
X87733362Y-90434786D01*
X88019077Y-90434786D01*
X88114315Y-90387167D01*
X88161934Y-90339548D01*
X95707581Y-85294539D02*
X95231391Y-84961206D01*
X95707581Y-84723110D02*
X94707581Y-84723110D01*
X94707581Y-85104063D01*
X94755201Y-85199301D01*
X94802820Y-85246920D01*
X94898058Y-85294539D01*
X95040915Y-85294539D01*
X95136153Y-85246920D01*
X95183772Y-85199301D01*
X95231391Y-85104063D01*
X95231391Y-84723110D01*
X94707581Y-86151682D02*
X94707581Y-85961206D01*
X94755201Y-85865967D01*
X94802820Y-85818348D01*
X94945677Y-85723110D01*
X95136153Y-85675491D01*
X95517105Y-85675491D01*
X95612343Y-85723110D01*
X95659962Y-85770729D01*
X95707581Y-85865967D01*
X95707581Y-86056444D01*
X95659962Y-86151682D01*
X95612343Y-86199301D01*
X95517105Y-86246920D01*
X95279010Y-86246920D01*
X95183772Y-86199301D01*
X95136153Y-86151682D01*
X95088534Y-86056444D01*
X95088534Y-85865967D01*
X95136153Y-85770729D01*
X95183772Y-85723110D01*
X95279010Y-85675491D01*
X78816134Y-93003367D02*
X78673277Y-93050986D01*
X78435181Y-93050986D01*
X78339943Y-93003367D01*
X78292324Y-92955748D01*
X78244705Y-92860510D01*
X78244705Y-92765272D01*
X78292324Y-92670034D01*
X78339943Y-92622415D01*
X78435181Y-92574796D01*
X78625658Y-92527177D01*
X78720896Y-92479558D01*
X78768515Y-92431939D01*
X78816134Y-92336701D01*
X78816134Y-92241463D01*
X78768515Y-92146225D01*
X78720896Y-92098606D01*
X78625658Y-92050986D01*
X78387562Y-92050986D01*
X78244705Y-92098606D01*
X77911372Y-92050986D02*
X77673277Y-93050986D01*
X77482801Y-92336701D01*
X77292324Y-93050986D01*
X77054229Y-92050986D01*
X76149467Y-93050986D02*
X76720896Y-93050986D01*
X76435181Y-93050986D02*
X76435181Y-92050986D01*
X76530420Y-92193844D01*
X76625658Y-92289082D01*
X76720896Y-92336701D01*
X100787134Y-92647767D02*
X100644277Y-92695386D01*
X100406181Y-92695386D01*
X100310943Y-92647767D01*
X100263324Y-92600148D01*
X100215705Y-92504910D01*
X100215705Y-92409672D01*
X100263324Y-92314434D01*
X100310943Y-92266815D01*
X100406181Y-92219196D01*
X100596658Y-92171577D01*
X100691896Y-92123958D01*
X100739515Y-92076339D01*
X100787134Y-91981101D01*
X100787134Y-91885863D01*
X100739515Y-91790625D01*
X100691896Y-91743006D01*
X100596658Y-91695386D01*
X100358562Y-91695386D01*
X100215705Y-91743006D01*
X99882372Y-91695386D02*
X99644277Y-92695386D01*
X99453801Y-91981101D01*
X99263324Y-92695386D01*
X99025229Y-91695386D01*
X98691896Y-91790625D02*
X98644277Y-91743006D01*
X98549039Y-91695386D01*
X98310943Y-91695386D01*
X98215705Y-91743006D01*
X98168086Y-91790625D01*
X98120467Y-91885863D01*
X98120467Y-91981101D01*
X98168086Y-92123958D01*
X98739515Y-92695386D01*
X98120467Y-92695386D01*
X86955905Y-84236386D02*
X86955905Y-85045910D01*
X86908286Y-85141148D01*
X86860667Y-85188767D01*
X86765429Y-85236386D01*
X86574953Y-85236386D01*
X86479715Y-85188767D01*
X86432096Y-85141148D01*
X86384477Y-85045910D01*
X86384477Y-84236386D01*
X85479715Y-84569720D02*
X85479715Y-85236386D01*
X85717810Y-84188767D02*
X85955905Y-84903053D01*
X85336858Y-84903053D01*
X92838667Y-63846343D02*
X92886286Y-63893962D01*
X93029143Y-63941581D01*
X93124381Y-63941581D01*
X93267239Y-63893962D01*
X93362477Y-63798724D01*
X93410096Y-63703486D01*
X93457715Y-63513010D01*
X93457715Y-63370153D01*
X93410096Y-63179677D01*
X93362477Y-63084439D01*
X93267239Y-62989201D01*
X93124381Y-62941581D01*
X93029143Y-62941581D01*
X92886286Y-62989201D01*
X92838667Y-63036820D01*
X92457715Y-63036820D02*
X92410096Y-62989201D01*
X92314858Y-62941581D01*
X92076762Y-62941581D01*
X91981524Y-62989201D01*
X91933905Y-63036820D01*
X91886286Y-63132058D01*
X91886286Y-63227296D01*
X91933905Y-63370153D01*
X92505334Y-63941581D01*
X91886286Y-63941581D01*
X81121143Y-62551334D02*
X81168762Y-62503715D01*
X81216381Y-62360858D01*
X81216381Y-62265620D01*
X81168762Y-62122762D01*
X81073524Y-62027524D01*
X80978286Y-61979905D01*
X80787810Y-61932286D01*
X80644953Y-61932286D01*
X80454477Y-61979905D01*
X80359239Y-62027524D01*
X80264001Y-62122762D01*
X80216381Y-62265620D01*
X80216381Y-62360858D01*
X80264001Y-62503715D01*
X80311620Y-62551334D01*
X80216381Y-62884667D02*
X80216381Y-63503715D01*
X80597334Y-63170381D01*
X80597334Y-63313239D01*
X80644953Y-63408477D01*
X80692572Y-63456096D01*
X80787810Y-63503715D01*
X81025905Y-63503715D01*
X81121143Y-63456096D01*
X81168762Y-63408477D01*
X81216381Y-63313239D01*
X81216381Y-63027524D01*
X81168762Y-62932286D01*
X81121143Y-62884667D01*
X58490667Y-58665143D02*
X58538286Y-58712762D01*
X58681143Y-58760381D01*
X58776381Y-58760381D01*
X58919239Y-58712762D01*
X59014477Y-58617524D01*
X59062096Y-58522286D01*
X59109715Y-58331810D01*
X59109715Y-58188953D01*
X59062096Y-57998477D01*
X59014477Y-57903239D01*
X58919239Y-57808001D01*
X58776381Y-57760381D01*
X58681143Y-57760381D01*
X58538286Y-57808001D01*
X58490667Y-57855620D01*
X57633524Y-58093715D02*
X57633524Y-58760381D01*
X57871620Y-57712762D02*
X58109715Y-58427048D01*
X57490667Y-58427048D01*
X101293781Y-59886867D02*
X102008067Y-59886867D01*
X102150924Y-59839248D01*
X102246162Y-59744010D01*
X102293781Y-59601153D01*
X102293781Y-59505915D01*
X102293781Y-60886867D02*
X102293781Y-60315439D01*
X102293781Y-60601153D02*
X101293781Y-60601153D01*
X101436639Y-60505915D01*
X101531877Y-60410677D01*
X101579496Y-60315439D01*
X84613839Y-66025620D02*
X84709077Y-65978001D01*
X84804315Y-65882762D01*
X84947172Y-65739905D01*
X85042410Y-65692286D01*
X85137648Y-65692286D01*
X85090029Y-65930381D02*
X85185267Y-65882762D01*
X85280505Y-65787524D01*
X85328124Y-65597048D01*
X85328124Y-65263715D01*
X85280505Y-65073239D01*
X85185267Y-64978001D01*
X85090029Y-64930381D01*
X84899553Y-64930381D01*
X84804315Y-64978001D01*
X84709077Y-65073239D01*
X84661458Y-65263715D01*
X84661458Y-65597048D01*
X84709077Y-65787524D01*
X84804315Y-65882762D01*
X84899553Y-65930381D01*
X85090029Y-65930381D01*
X83709077Y-65930381D02*
X84280505Y-65930381D01*
X83994791Y-65930381D02*
X83994791Y-64930381D01*
X84090029Y-65073239D01*
X84185267Y-65168477D01*
X84280505Y-65216096D01*
X92183039Y-65873220D02*
X92278277Y-65825601D01*
X92373515Y-65730362D01*
X92516372Y-65587505D01*
X92611610Y-65539886D01*
X92706848Y-65539886D01*
X92659229Y-65777981D02*
X92754467Y-65730362D01*
X92849705Y-65635124D01*
X92897324Y-65444648D01*
X92897324Y-65111315D01*
X92849705Y-64920839D01*
X92754467Y-64825601D01*
X92659229Y-64777981D01*
X92468753Y-64777981D01*
X92373515Y-64825601D01*
X92278277Y-64920839D01*
X92230658Y-65111315D01*
X92230658Y-65444648D01*
X92278277Y-65635124D01*
X92373515Y-65730362D01*
X92468753Y-65777981D01*
X92659229Y-65777981D01*
X91849705Y-64873220D02*
X91802086Y-64825601D01*
X91706848Y-64777981D01*
X91468753Y-64777981D01*
X91373515Y-64825601D01*
X91325896Y-64873220D01*
X91278277Y-64968458D01*
X91278277Y-65063696D01*
X91325896Y-65206553D01*
X91897324Y-65777981D01*
X91278277Y-65777981D01*
X88419067Y-70578581D02*
X88752401Y-70102391D01*
X88990496Y-70578581D02*
X88990496Y-69578581D01*
X88609543Y-69578581D01*
X88514305Y-69626201D01*
X88466686Y-69673820D01*
X88419067Y-69769058D01*
X88419067Y-69911915D01*
X88466686Y-70007153D01*
X88514305Y-70054772D01*
X88609543Y-70102391D01*
X88990496Y-70102391D01*
X88038115Y-69673820D02*
X87990496Y-69626201D01*
X87895258Y-69578581D01*
X87657162Y-69578581D01*
X87561924Y-69626201D01*
X87514305Y-69673820D01*
X87466686Y-69769058D01*
X87466686Y-69864296D01*
X87514305Y-70007153D01*
X88085734Y-70578581D01*
X87466686Y-70578581D01*
X88495267Y-65828781D02*
X88828601Y-65352591D01*
X89066696Y-65828781D02*
X89066696Y-64828781D01*
X88685743Y-64828781D01*
X88590505Y-64876401D01*
X88542886Y-64924020D01*
X88495267Y-65019258D01*
X88495267Y-65162115D01*
X88542886Y-65257353D01*
X88590505Y-65304972D01*
X88685743Y-65352591D01*
X89066696Y-65352591D01*
X88161934Y-64828781D02*
X87542886Y-64828781D01*
X87876220Y-65209734D01*
X87733362Y-65209734D01*
X87638124Y-65257353D01*
X87590505Y-65304972D01*
X87542886Y-65400210D01*
X87542886Y-65638305D01*
X87590505Y-65733543D01*
X87638124Y-65781162D01*
X87733362Y-65828781D01*
X88019077Y-65828781D01*
X88114315Y-65781162D01*
X88161934Y-65733543D01*
X95707581Y-60688534D02*
X95231391Y-60355201D01*
X95707581Y-60117105D02*
X94707581Y-60117105D01*
X94707581Y-60498058D01*
X94755201Y-60593296D01*
X94802820Y-60640915D01*
X94898058Y-60688534D01*
X95040915Y-60688534D01*
X95136153Y-60640915D01*
X95183772Y-60593296D01*
X95231391Y-60498058D01*
X95231391Y-60117105D01*
X94707581Y-61545677D02*
X94707581Y-61355201D01*
X94755201Y-61259962D01*
X94802820Y-61212343D01*
X94945677Y-61117105D01*
X95136153Y-61069486D01*
X95517105Y-61069486D01*
X95612343Y-61117105D01*
X95659962Y-61164724D01*
X95707581Y-61259962D01*
X95707581Y-61450439D01*
X95659962Y-61545677D01*
X95612343Y-61593296D01*
X95517105Y-61640915D01*
X95279010Y-61640915D01*
X95183772Y-61593296D01*
X95136153Y-61545677D01*
X95088534Y-61450439D01*
X95088534Y-61259962D01*
X95136153Y-61164724D01*
X95183772Y-61117105D01*
X95279010Y-61069486D01*
X78816134Y-68397362D02*
X78673277Y-68444981D01*
X78435181Y-68444981D01*
X78339943Y-68397362D01*
X78292324Y-68349743D01*
X78244705Y-68254505D01*
X78244705Y-68159267D01*
X78292324Y-68064029D01*
X78339943Y-68016410D01*
X78435181Y-67968791D01*
X78625658Y-67921172D01*
X78720896Y-67873553D01*
X78768515Y-67825934D01*
X78816134Y-67730696D01*
X78816134Y-67635458D01*
X78768515Y-67540220D01*
X78720896Y-67492601D01*
X78625658Y-67444981D01*
X78387562Y-67444981D01*
X78244705Y-67492601D01*
X77911372Y-67444981D02*
X77673277Y-68444981D01*
X77482801Y-67730696D01*
X77292324Y-68444981D01*
X77054229Y-67444981D01*
X76149467Y-68444981D02*
X76720896Y-68444981D01*
X76435181Y-68444981D02*
X76435181Y-67444981D01*
X76530420Y-67587839D01*
X76625658Y-67683077D01*
X76720896Y-67730696D01*
X100787134Y-68041762D02*
X100644277Y-68089381D01*
X100406181Y-68089381D01*
X100310943Y-68041762D01*
X100263324Y-67994143D01*
X100215705Y-67898905D01*
X100215705Y-67803667D01*
X100263324Y-67708429D01*
X100310943Y-67660810D01*
X100406181Y-67613191D01*
X100596658Y-67565572D01*
X100691896Y-67517953D01*
X100739515Y-67470334D01*
X100787134Y-67375096D01*
X100787134Y-67279858D01*
X100739515Y-67184620D01*
X100691896Y-67137001D01*
X100596658Y-67089381D01*
X100358562Y-67089381D01*
X100215705Y-67137001D01*
X99882372Y-67089381D02*
X99644277Y-68089381D01*
X99453801Y-67375096D01*
X99263324Y-68089381D01*
X99025229Y-67089381D01*
X98691896Y-67184620D02*
X98644277Y-67137001D01*
X98549039Y-67089381D01*
X98310943Y-67089381D01*
X98215705Y-67137001D01*
X98168086Y-67184620D01*
X98120467Y-67279858D01*
X98120467Y-67375096D01*
X98168086Y-67517953D01*
X98739515Y-68089381D01*
X98120467Y-68089381D01*
X86955905Y-59630381D02*
X86955905Y-60439905D01*
X86908286Y-60535143D01*
X86860667Y-60582762D01*
X86765429Y-60630381D01*
X86574953Y-60630381D01*
X86479715Y-60582762D01*
X86432096Y-60535143D01*
X86384477Y-60439905D01*
X86384477Y-59630381D01*
X85479715Y-59963715D02*
X85479715Y-60630381D01*
X85717810Y-59582762D02*
X85955905Y-60297048D01*
X85336858Y-60297048D01*
M02*
