M48
; DRILL file {KiCad 5.1.7-a382d34a8~87~ubuntu20.04.1} date Fri Nov 13 11:14:32 2020
; FORMAT={-:-/ absolute / inch / decimal}
; #@! TF.CreationDate,2020-11-13T11:14:32+11:00
; #@! TF.GenerationSoftware,Kicad,Pcbnew,5.1.7-a382d34a8~87~ubuntu20.04.1
; #@! TF.FileFunction,Plated,1,2,PTH
FMAT,2
INCH
T1C0.0118
T2C0.0236
T3C0.0394
%
G90
G05
T1
X2.2553Y-2.1889
X2.2553Y-3.1576
X2.2553Y-4.1264
X2.2553Y-5.0951
X2.2557Y-2.5739
X2.2557Y-3.5427
X2.2557Y-4.5114
X2.2557Y-5.4802
X2.2561Y-2.144
X2.2561Y-2.2432
X2.2561Y-3.1128
X2.2561Y-3.212
X2.2561Y-4.0815
X2.2561Y-4.1807
X2.2561Y-5.0502
X2.2561Y-5.1494
X2.2576Y-2.2881
X2.2576Y-3.2569
X2.2576Y-4.2256
X2.2576Y-5.1943
X2.2585Y-2.3279
X2.2585Y-2.3779
X2.2585Y-2.4279
X2.2585Y-2.4679
X2.2585Y-2.5079
X2.2585Y-3.2966
X2.2585Y-3.3466
X2.2585Y-3.3966
X2.2585Y-3.4366
X2.2585Y-3.4766
X2.2585Y-4.2654
X2.2585Y-4.3154
X2.2585Y-4.3654
X2.2585Y-4.4054
X2.2585Y-4.4454
X2.2585Y-5.2341
X2.2585Y-5.2841
X2.2585Y-5.3341
X2.2585Y-5.3741
X2.2585Y-5.4141
X2.2763Y-2.6771
X2.2763Y-3.6458
X2.2763Y-4.6146
X2.2763Y-5.5833
X2.2769Y-2.6094
X2.2769Y-3.5781
X2.2769Y-4.5469
X2.2769Y-5.5156
X2.2813Y-2.7204
X2.2813Y-3.6891
X2.2813Y-4.6579
X2.2813Y-5.6266
X2.2883Y-2.5747
X2.2883Y-3.5435
X2.2883Y-4.5122
X2.2883Y-5.4809
X2.2985Y-2.5179
X2.2985Y-3.4866
X2.2985Y-4.4554
X2.2985Y-5.4241
X2.299Y-2.0294
X2.299Y-2.9982
X2.299Y-3.9669
X2.299Y-4.9357
X2.3177Y-2.8926
X2.3177Y-3.8614
X2.3177Y-4.8301
X2.3177Y-5.7989
X2.3475Y-2.4089
X2.3475Y-3.3776
X2.3475Y-4.3464
X2.3475Y-5.3151
X2.3927Y-2.4936
X2.3927Y-3.4624
X2.3927Y-4.4311
X2.3927Y-5.3998
X2.3984Y-2.0216
X2.3984Y-2.9903
X2.3984Y-3.9591
X2.3984Y-4.9278
X2.4112Y-2.8897
X2.4112Y-3.8584
X2.4112Y-4.8272
X2.4112Y-5.7959
X2.4202Y-2.5275
X2.4202Y-3.4962
X2.4202Y-4.465
X2.4202Y-5.4337
X2.4407Y-2.4694
X2.4407Y-3.4381
X2.4407Y-4.4069
X2.4407Y-5.3756
X2.4506Y-2.5531
X2.4506Y-3.5218
X2.4506Y-4.4906
X2.4506Y-5.4593
X2.5021Y-2.2751
X2.5021Y-3.2439
X2.5021Y-4.2126
X2.5021Y-5.1813
X2.5155Y-2.3857
X2.5155Y-2.5039
X2.5155Y-2.622
X2.5155Y-3.3545
X2.5155Y-3.4726
X2.5155Y-3.5907
X2.5155Y-4.3232
X2.5155Y-4.4413
X2.5155Y-4.5594
X2.5155Y-5.292
X2.5155Y-5.4101
X2.5155Y-5.5282
X2.5165Y-2.0196
X2.5165Y-2.9883
X2.5165Y-3.9571
X2.5165Y-4.9258
X2.5301Y-2.705
X2.5301Y-3.6738
X2.5301Y-4.6425
X2.5301Y-5.6113
X2.5381Y-2.8976
X2.5381Y-3.8663
X2.5381Y-4.835
X2.5381Y-5.8038
X2.5746Y-2.4645
X2.5746Y-2.5039
X2.5746Y-2.5432
X2.5746Y-3.4332
X2.5746Y-3.4726
X2.5746Y-3.512
X2.5746Y-4.402
X2.5746Y-4.4413
X2.5746Y-4.4807
X2.5746Y-5.3707
X2.5746Y-5.4101
X2.5746Y-5.4494
X2.5785Y-2.0107
X2.5785Y-2.9795
X2.5785Y-3.9482
X2.5785Y-4.917
X2.6277Y-2.0767
X2.6277Y-3.0454
X2.6277Y-4.0142
X2.6277Y-4.9829
X2.6336Y-2.5039
X2.6336Y-3.4726
X2.6336Y-4.4413
X2.6336Y-5.4101
X2.675Y-2.0137
X2.675Y-2.9824
X2.675Y-3.9512
X2.675Y-4.9199
X2.6769Y-2.8995
X2.6769Y-3.8683
X2.6769Y-4.837
X2.6769Y-5.8057
X2.6799Y-2.6196
X2.6799Y-3.5883
X2.6799Y-4.557
X2.6799Y-5.5258
X2.6885Y-2.3979
X2.6885Y-3.3666
X2.6885Y-4.3354
X2.6885Y-5.3041
X2.6937Y-2.7607
X2.6937Y-3.7295
X2.6937Y-4.6982
X2.6937Y-5.667
X2.7261Y-2.4901
X2.7261Y-3.4588
X2.7261Y-4.4276
X2.7261Y-5.3963
X2.7852Y-2.5206
X2.7852Y-3.4893
X2.7852Y-4.4581
X2.7852Y-5.4268
X2.8385Y-2.2179
X2.8385Y-3.1866
X2.8385Y-4.1554
X2.8385Y-5.1241
X2.8551Y-2.8976
X2.8551Y-3.8663
X2.8551Y-4.835
X2.8551Y-5.8038
X2.8649Y-2.0019
X2.8649Y-2.9706
X2.8649Y-3.9394
X2.8649Y-4.9081
X2.8738Y-2.4724
X2.8738Y-3.4411
X2.8738Y-4.4098
X2.8738Y-5.3786
X2.9004Y-2.3188
X2.9004Y-3.2876
X2.9004Y-4.2563
X2.9004Y-5.225
X2.9085Y-2.3779
X2.9085Y-3.3466
X2.9085Y-4.3154
X2.9085Y-5.2841
X2.9225Y-2.4759
X2.9225Y-3.4446
X2.9225Y-4.4134
X2.9225Y-5.3821
X2.9285Y-2.2279
X2.9285Y-3.1966
X2.9285Y-4.1654
X2.9285Y-5.1341
X2.9289Y-2.0767
X2.9289Y-3.0454
X2.9289Y-4.0142
X2.9289Y-4.9829
X3.0155Y-2.0019
X3.0155Y-2.8956
X3.0155Y-2.9706
X3.0155Y-3.8643
X3.0155Y-3.9394
X3.0155Y-4.8331
X3.0155Y-4.9081
X3.0155Y-5.8018
X3.0185Y-2.2379
X3.0185Y-3.2066
X3.0185Y-4.1754
X3.0185Y-5.1441
X3.0303Y-2.0767
X3.0303Y-3.0454
X3.0303Y-4.0142
X3.0303Y-4.9829
X3.0696Y-2.4684
X3.0696Y-3.4372
X3.0696Y-4.4059
X3.0696Y-5.3746
X3.0785Y-2.3739
X3.0785Y-3.3427
X3.0785Y-4.3114
X3.0785Y-5.2802
X3.0972Y-2.2499
X3.0972Y-3.2187
X3.0972Y-4.1874
X3.0972Y-5.1561
X3.1021Y-2.7027
X3.1021Y-3.6714
X3.1021Y-4.6402
X3.1021Y-5.6089
X3.1159Y-2.3218
X3.1159Y-3.2905
X3.1159Y-4.2593
X3.1159Y-5.228
X3.1257Y-2.0767
X3.1257Y-3.0454
X3.1257Y-4.0142
X3.1257Y-4.9829
X3.1365Y-2.2299
X3.1365Y-3.1986
X3.1365Y-4.1674
X3.1365Y-5.1361
X3.1395Y-2.3592
X3.1395Y-3.3279
X3.1395Y-4.2967
X3.1395Y-5.2654
X3.1563Y-2.7529
X3.1563Y-3.7216
X3.1563Y-4.6904
X3.1563Y-5.6591
X3.1602Y-2.0009
X3.1602Y-2.9696
X3.1602Y-3.9384
X3.1602Y-4.9071
X3.1759Y-2.3316
X3.1759Y-3.3004
X3.1759Y-4.2691
X3.1759Y-5.2378
X3.2094Y-2.367
X3.2094Y-3.3358
X3.2094Y-4.3045
X3.2094Y-5.2733
X3.2222Y-2.5294
X3.2222Y-3.4982
X3.2222Y-4.4669
X3.2222Y-5.4357
X3.2291Y-2.8946
X3.2291Y-3.8633
X3.2291Y-4.8321
X3.2291Y-5.8008
X3.2507Y-2.7548
X3.2507Y-3.7236
X3.2507Y-4.6923
X3.2507Y-5.6611
X3.3196Y-2.5294
X3.3196Y-3.4982
X3.3196Y-4.4669
X3.3196Y-5.4357
X3.3226Y-2.7273
X3.3226Y-3.696
X3.3226Y-4.6648
X3.3226Y-5.6335
X3.3423Y-2.6623
X3.3423Y-3.6311
X3.3423Y-4.5998
X3.3423Y-5.5685
X3.3901Y-2.0279
X3.3901Y-2.9966
X3.3901Y-3.9654
X3.3901Y-4.9341
X3.3964Y-2.8917
X3.3964Y-3.8604
X3.3964Y-4.8291
X3.3964Y-5.7979
X3.3988Y-2.5363
X3.3988Y-3.5051
X3.3988Y-4.4738
X3.3988Y-5.4425
X3.4231Y-2.1879
X3.4231Y-3.1567
X3.4231Y-4.1254
X3.4231Y-5.0941
X3.4289Y-2.746
X3.4289Y-3.7147
X3.4289Y-4.6835
X3.4289Y-5.6522
X3.4456Y-2.5708
X3.4456Y-3.5395
X3.4456Y-4.5083
X3.4456Y-5.477
X3.4515Y-2.3237
X3.4515Y-3.2925
X3.4515Y-4.2612
X3.4515Y-5.23
X3.4856Y-2.0279
X3.4856Y-2.9966
X3.4856Y-3.9654
X3.4856Y-4.9341
X3.5372Y-2.8946
X3.5372Y-3.8633
X3.5372Y-4.8321
X3.5372Y-5.8008
X3.545Y-2.0698
X3.545Y-3.0385
X3.545Y-4.0073
X3.545Y-4.976
X3.5685Y-2.1279
X3.5685Y-3.0966
X3.5685Y-4.0654
X3.5685Y-5.0341
X3.5736Y-2.557
X3.5736Y-3.5257
X3.5736Y-4.4945
X3.5736Y-5.4632
X3.5982Y-2.6613
X3.5982Y-3.6301
X3.5982Y-4.5988
X3.5982Y-5.5676
X3.6085Y-2.0779
X3.6085Y-3.0466
X3.6085Y-4.0154
X3.6085Y-4.9841
X3.6116Y-2.3576
X3.6116Y-3.3263
X3.6116Y-4.295
X3.6116Y-5.2638
X3.6159Y-2.6121
X3.6159Y-3.5809
X3.6159Y-4.5496
X3.6159Y-5.5183
X3.6179Y-2.4832
X3.6179Y-3.4519
X3.6179Y-4.4207
X3.6179Y-5.3894
X3.6385Y-2.3109
X3.6385Y-3.2797
X3.6385Y-4.2484
X3.6385Y-5.2172
X3.6431Y-2.7546
X3.6431Y-3.7234
X3.6431Y-4.6921
X3.6431Y-5.6609
X3.6598Y-2.0279
X3.6598Y-2.9966
X3.6598Y-3.9654
X3.6598Y-4.9341
X3.6651Y-2.8926
X3.6651Y-3.8614
X3.6651Y-4.8301
X3.6651Y-5.7989
X3.6976Y-2.5472
X3.6976Y-3.5159
X3.6976Y-4.4846
X3.6976Y-5.4534
X3.7143Y-2.2657
X3.7143Y-3.2344
X3.7143Y-4.2032
X3.7143Y-5.1719
X3.7183Y-2.4832
X3.7183Y-3.4519
X3.7183Y-4.4207
X3.7183Y-5.3894
X3.7193Y-2.057
X3.7193Y-3.0257
X3.7193Y-3.9945
X3.7193Y-4.9632
X3.7423Y-2.746
X3.7423Y-3.7147
X3.7423Y-4.6835
X3.7423Y-5.6522
X3.7446Y-2.4283
X3.7446Y-3.3971
X3.7446Y-4.3658
X3.7446Y-5.3345
X3.7541Y-2.3614
X3.7541Y-3.3302
X3.7541Y-4.2989
X3.7541Y-5.2676
X3.7785Y-2.1379
X3.7785Y-3.1066
X3.7785Y-4.0754
X3.7785Y-5.0441
X3.7842Y-2.5629
X3.7842Y-3.5317
X3.7842Y-4.5004
X3.7842Y-5.4691
X3.8049Y-2.8936
X3.8049Y-3.8624
X3.8049Y-4.8311
X3.8049Y-5.7998
X3.8433Y-2.4773
X3.8433Y-3.446
X3.8433Y-4.4148
X3.8433Y-5.3835
X3.8495Y-2.3949
X3.8495Y-3.3636
X3.8495Y-4.3324
X3.8495Y-5.3011
X3.8529Y-2.2369
X3.8529Y-3.2056
X3.8529Y-4.1744
X3.8529Y-5.1431
X3.8793Y-2.7448
X3.8793Y-3.7135
X3.8793Y-4.6823
X3.8793Y-5.651
X3.8875Y-2.5849
X3.8875Y-3.5536
X3.8875Y-4.5224
X3.8875Y-5.4911
X3.9043Y-2.8985
X3.9043Y-3.8673
X3.9043Y-4.836
X3.9043Y-5.8048
X3.9633Y-2.4182
X3.9633Y-3.387
X3.9633Y-4.3557
X3.9633Y-5.3244
X3.9663Y-2.3257
X3.9663Y-3.2944
X3.9663Y-4.2632
X3.9663Y-5.2319
X4.0204Y-2.8985
X4.0204Y-3.8673
X4.0204Y-4.836
X4.0204Y-5.8048
X4.0746Y-2.3759
X4.0746Y-3.3446
X4.0746Y-4.3134
X4.0746Y-5.2821
X4.1061Y-2.6987
X4.1061Y-3.6675
X4.1061Y-4.6362
X4.1061Y-5.605
X4.1454Y-2.8897
X4.1454Y-3.8584
X4.1454Y-4.8272
X4.1454Y-5.7959
X4.1485Y-2.6479
X4.1485Y-3.6166
X4.1485Y-4.5854
X4.1485Y-5.5541
X4.1523Y-2.7627
X4.1523Y-3.7315
X4.1523Y-4.7002
X4.1523Y-5.6689
X4.1685Y-2.2679
X4.1685Y-2.3679
X4.1685Y-3.2366
X4.1685Y-3.3366
X4.1685Y-4.2054
X4.1685Y-4.3054
X4.1685Y-5.1741
X4.1685Y-5.2741
T3
X2.1585Y-3.7866
X2.2585Y-3.7866
X2.3585Y-3.7866
X2.4585Y-3.7866
X2.5585Y-3.7866
X2.6585Y-3.7866
X2.7585Y-3.7866
X2.8585Y-3.7866
X2.9585Y-3.7866
X3.0585Y-3.7866
X3.1585Y-3.7866
X3.2585Y-3.7866
X3.3585Y-3.7866
X3.4585Y-3.7866
X3.5585Y-3.7866
X3.6585Y-3.7866
X3.7585Y-3.7866
X3.8585Y-3.7866
X3.9585Y-3.7866
X4.0585Y-3.7866
X3.8885Y-3.0566
X3.9885Y-3.0566
X4.0885Y-3.0566
X2.3785Y-5.0341
X2.4785Y-5.0341
X2.5785Y-5.0341
X2.6785Y-5.0341
X2.7785Y-5.0341
X2.8785Y-5.0341
X2.9785Y-5.0341
X3.0785Y-5.0341
X3.1785Y-5.0341
X3.2785Y-5.0341
X2.1585Y-4.7554
X2.2585Y-4.7554
X2.3585Y-4.7554
X2.4585Y-4.7554
X2.5585Y-4.7554
X2.6585Y-4.7554
X2.7585Y-4.7554
X2.8585Y-4.7554
X2.9585Y-4.7554
X3.0585Y-4.7554
X3.1585Y-4.7554
X3.2585Y-4.7554
X3.3585Y-4.7554
X3.4585Y-4.7554
X3.5585Y-4.7554
X3.6585Y-4.7554
X3.7585Y-4.7554
X3.8585Y-4.7554
X3.9585Y-4.7554
X4.0585Y-4.7554
X2.3785Y-2.1279
X2.4785Y-2.1279
X2.5785Y-2.1279
X2.6785Y-2.1279
X2.7785Y-2.1279
X2.8785Y-2.1279
X2.9785Y-2.1279
X3.0785Y-2.1279
X3.1785Y-2.1279
X3.2785Y-2.1279
X2.3785Y-3.0966
X2.4785Y-3.0966
X2.5785Y-3.0966
X2.6785Y-3.0966
X2.7785Y-3.0966
X2.8785Y-3.0966
X2.9785Y-3.0966
X3.0785Y-3.0966
X3.1785Y-3.0966
X3.2785Y-3.0966
X2.1585Y-2.8179
X2.2585Y-2.8179
X2.3585Y-2.8179
X2.4585Y-2.8179
X2.5585Y-2.8179
X2.6585Y-2.8179
X2.7585Y-2.8179
X2.8585Y-2.8179
X2.9585Y-2.8179
X3.0585Y-2.8179
X3.1585Y-2.8179
X3.2585Y-2.8179
X3.3585Y-2.8179
X3.4585Y-2.8179
X3.5585Y-2.8179
X3.6585Y-2.8179
X3.7585Y-2.8179
X3.8585Y-2.8179
X3.9585Y-2.8179
X4.0585Y-2.8179
X2.1585Y-5.7241
X2.2585Y-5.7241
X2.3585Y-5.7241
X2.4585Y-5.7241
X2.5585Y-5.7241
X2.6585Y-5.7241
X2.7585Y-5.7241
X2.8585Y-5.7241
X2.9585Y-5.7241
X3.0585Y-5.7241
X3.1585Y-5.7241
X3.2585Y-5.7241
X3.3585Y-5.7241
X3.4585Y-5.7241
X3.5585Y-5.7241
X3.6585Y-5.7241
X3.7585Y-5.7241
X3.8585Y-5.7241
X3.9585Y-5.7241
X4.0585Y-5.7241
X3.8885Y-4.9941
X3.9885Y-4.9941
X4.0885Y-4.9941
X3.8885Y-2.0879
X3.9885Y-2.0879
X4.0885Y-2.0879
X3.8885Y-4.0254
X3.9885Y-4.0254
X4.0885Y-4.0254
X2.3785Y-4.0654
X2.4785Y-4.0654
X2.5785Y-4.0654
X2.6785Y-4.0654
X2.7785Y-4.0654
X2.8785Y-4.0654
X2.9785Y-4.0654
X3.0785Y-4.0654
X3.1785Y-4.0654
X3.2785Y-4.0654
T2
G00X3.9659Y-2.2028
M15
G01X3.9226Y-2.2028
M16
G05
G00X3.9659Y-2.543
M15
G01X3.9226Y-2.543
M16
G05
G00X4.1207Y-2.2028
M15
G01X4.097Y-2.2028
M16
G05
G00X4.1207Y-2.543
M15
G01X4.097Y-2.543
M16
G05
G00X3.9659Y-4.1403
M15
G01X3.9226Y-4.1403
M16
G05
G00X3.9659Y-4.4804
M15
G01X3.9226Y-4.4804
M16
G05
G00X4.1207Y-4.1403
M15
G01X4.097Y-4.1403
M16
G05
G00X4.1207Y-4.4804
M15
G01X4.097Y-4.4804
M16
G05
G00X3.9659Y-3.1715
M15
G01X3.9226Y-3.1715
M16
G05
G00X3.9659Y-3.5117
M15
G01X3.9226Y-3.5117
M16
G05
G00X4.1207Y-3.1715
M15
G01X4.097Y-3.1715
M16
G05
G00X4.1207Y-3.5117
M15
G01X4.097Y-3.5117
M16
G05
G00X3.9659Y-5.109
M15
G01X3.9226Y-5.109
M16
G05
G00X3.9659Y-5.4492
M15
G01X3.9226Y-5.4492
M16
G05
G00X4.1207Y-5.109
M15
G01X4.097Y-5.109
M16
G05
G00X4.1207Y-5.4492
M15
G01X4.097Y-5.4492
M16
G05
T0
M30
