G04 #@! TF.GenerationSoftware,KiCad,Pcbnew,5.1.6-c6e7f7d~87~ubuntu20.04.1*
G04 #@! TF.CreationDate,2020-08-20T22:35:19+10:00*
G04 #@! TF.ProjectId,jackco-esp32-pico-panel-v2,6a61636b-636f-42d6-9573-7033322d7069,rev?*
G04 #@! TF.SameCoordinates,Original*
G04 #@! TF.FileFunction,Soldermask,Top*
G04 #@! TF.FilePolarity,Negative*
%FSLAX46Y46*%
G04 Gerber Fmt 4.6, Leading zero omitted, Abs format (unit mm)*
G04 Created by KiCad (PCBNEW 5.1.6-c6e7f7d~87~ubuntu20.04.1) date 2020-08-20 22:35:19*
%MOMM*%
%LPD*%
G01*
G04 APERTURE LIST*
%ADD10C,1.600000*%
%ADD11C,2.000000*%
%ADD12R,2.600000X2.100000*%
%ADD13O,1.700000X1.100000*%
%ADD14C,0.750000*%
%ADD15O,2.200000X1.100000*%
%ADD16R,1.800000X1.800000*%
%ADD17O,1.800000X1.800000*%
%ADD18C,0.100000*%
G04 APERTURE END LIST*
D10*
X34075003Y-146212010D03*
X123075002Y-52212010D03*
X34075003Y-52212010D03*
D11*
X39075003Y-146212010D03*
X118075002Y-52212010D03*
X39075003Y-52212010D03*
D12*
X51778001Y-137442016D03*
X51778001Y-127942016D03*
G36*
G01*
X73093401Y-137966716D02*
X73093401Y-138491716D01*
G75*
G02*
X72830901Y-138754216I-262500J0D01*
G01*
X72205901Y-138754216D01*
G75*
G02*
X71943401Y-138491716I0J262500D01*
G01*
X71943401Y-137966716D01*
G75*
G02*
X72205901Y-137704216I262500J0D01*
G01*
X72830901Y-137704216D01*
G75*
G02*
X73093401Y-137966716I0J-262500D01*
G01*
G37*
G36*
G01*
X74843401Y-137966716D02*
X74843401Y-138491716D01*
G75*
G02*
X74580901Y-138754216I-262500J0D01*
G01*
X73955901Y-138754216D01*
G75*
G02*
X73693401Y-138491716I0J262500D01*
G01*
X73693401Y-137966716D01*
G75*
G02*
X73955901Y-137704216I262500J0D01*
G01*
X74580901Y-137704216D01*
G75*
G02*
X74843401Y-137966716I0J-262500D01*
G01*
G37*
G36*
G01*
X93645701Y-136072416D02*
X93120701Y-136072416D01*
G75*
G02*
X92858201Y-135809916I0J262500D01*
G01*
X92858201Y-135184916D01*
G75*
G02*
X93120701Y-134922416I262500J0D01*
G01*
X93645701Y-134922416D01*
G75*
G02*
X93908201Y-135184916I0J-262500D01*
G01*
X93908201Y-135809916D01*
G75*
G02*
X93645701Y-136072416I-262500J0D01*
G01*
G37*
G36*
G01*
X93645701Y-134322416D02*
X93120701Y-134322416D01*
G75*
G02*
X92858201Y-134059916I0J262500D01*
G01*
X92858201Y-133434916D01*
G75*
G02*
X93120701Y-133172416I262500J0D01*
G01*
X93645701Y-133172416D01*
G75*
G02*
X93908201Y-133434916I0J-262500D01*
G01*
X93908201Y-134059916D01*
G75*
G02*
X93645701Y-134322416I-262500J0D01*
G01*
G37*
G36*
G01*
X86929401Y-128153916D02*
X86929401Y-127628916D01*
G75*
G02*
X87191901Y-127366416I262500J0D01*
G01*
X87816901Y-127366416D01*
G75*
G02*
X88079401Y-127628916I0J-262500D01*
G01*
X88079401Y-128153916D01*
G75*
G02*
X87816901Y-128416416I-262500J0D01*
G01*
X87191901Y-128416416D01*
G75*
G02*
X86929401Y-128153916I0J262500D01*
G01*
G37*
G36*
G01*
X88679401Y-128153916D02*
X88679401Y-127628916D01*
G75*
G02*
X88941901Y-127366416I262500J0D01*
G01*
X89566901Y-127366416D01*
G75*
G02*
X89829401Y-127628916I0J-262500D01*
G01*
X89829401Y-128153916D01*
G75*
G02*
X89566901Y-128416416I-262500J0D01*
G01*
X88941901Y-128416416D01*
G75*
G02*
X88679401Y-128153916I0J262500D01*
G01*
G37*
G36*
G01*
X96934863Y-132665616D02*
X95978339Y-132665616D01*
G75*
G02*
X95706601Y-132393878I0J271738D01*
G01*
X95706601Y-131687354D01*
G75*
G02*
X95978339Y-131415616I271738J0D01*
G01*
X96934863Y-131415616D01*
G75*
G02*
X97206601Y-131687354I0J-271738D01*
G01*
X97206601Y-132393878D01*
G75*
G02*
X96934863Y-132665616I-271738J0D01*
G01*
G37*
G36*
G01*
X96934863Y-130615616D02*
X95978339Y-130615616D01*
G75*
G02*
X95706601Y-130343878I0J271738D01*
G01*
X95706601Y-129637354D01*
G75*
G02*
X95978339Y-129365616I271738J0D01*
G01*
X96934863Y-129365616D01*
G75*
G02*
X97206601Y-129637354I0J-271738D01*
G01*
X97206601Y-130343878D01*
G75*
G02*
X96934863Y-130615616I-271738J0D01*
G01*
G37*
G36*
G01*
X91809401Y-129588878D02*
X91809401Y-128632354D01*
G75*
G02*
X92081139Y-128360616I271738J0D01*
G01*
X92787663Y-128360616D01*
G75*
G02*
X93059401Y-128632354I0J-271738D01*
G01*
X93059401Y-129588878D01*
G75*
G02*
X92787663Y-129860616I-271738J0D01*
G01*
X92081139Y-129860616D01*
G75*
G02*
X91809401Y-129588878I0J271738D01*
G01*
G37*
G36*
G01*
X93859401Y-129588878D02*
X93859401Y-128632354D01*
G75*
G02*
X94131139Y-128360616I271738J0D01*
G01*
X94837663Y-128360616D01*
G75*
G02*
X95109401Y-128632354I0J-271738D01*
G01*
X95109401Y-129588878D01*
G75*
G02*
X94837663Y-129860616I-271738J0D01*
G01*
X94131139Y-129860616D01*
G75*
G02*
X93859401Y-129588878I0J271738D01*
G01*
G37*
G36*
G01*
X94792001Y-141209516D02*
X94792001Y-140684516D01*
G75*
G02*
X95054501Y-140422016I262500J0D01*
G01*
X95679501Y-140422016D01*
G75*
G02*
X95942001Y-140684516I0J-262500D01*
G01*
X95942001Y-141209516D01*
G75*
G02*
X95679501Y-141472016I-262500J0D01*
G01*
X95054501Y-141472016D01*
G75*
G02*
X94792001Y-141209516I0J262500D01*
G01*
G37*
G36*
G01*
X96542001Y-141209516D02*
X96542001Y-140684516D01*
G75*
G02*
X96804501Y-140422016I262500J0D01*
G01*
X97429501Y-140422016D01*
G75*
G02*
X97692001Y-140684516I0J-262500D01*
G01*
X97692001Y-141209516D01*
G75*
G02*
X97429501Y-141472016I-262500J0D01*
G01*
X96804501Y-141472016D01*
G75*
G02*
X96542001Y-141209516I0J262500D01*
G01*
G37*
G36*
G01*
X101450401Y-140875154D02*
X101450401Y-141831678D01*
G75*
G02*
X101178663Y-142103416I-271738J0D01*
G01*
X100472139Y-142103416D01*
G75*
G02*
X100200401Y-141831678I0J271738D01*
G01*
X100200401Y-140875154D01*
G75*
G02*
X100472139Y-140603416I271738J0D01*
G01*
X101178663Y-140603416D01*
G75*
G02*
X101450401Y-140875154I0J-271738D01*
G01*
G37*
G36*
G01*
X99400401Y-140875154D02*
X99400401Y-141831678D01*
G75*
G02*
X99128663Y-142103416I-271738J0D01*
G01*
X98422139Y-142103416D01*
G75*
G02*
X98150401Y-141831678I0J271738D01*
G01*
X98150401Y-140875154D01*
G75*
G02*
X98422139Y-140603416I271738J0D01*
G01*
X99128663Y-140603416D01*
G75*
G02*
X99400401Y-140875154I0J-271738D01*
G01*
G37*
D13*
X104364601Y-138409016D03*
D14*
X100714601Y-136979016D03*
D13*
X104364601Y-129769016D03*
D14*
X100714601Y-131199016D03*
D15*
X100184601Y-129769016D03*
X100184601Y-138409016D03*
D16*
X60414001Y-127866016D03*
D17*
X62954001Y-127866016D03*
X65494001Y-127866016D03*
X68034001Y-127866016D03*
X70574001Y-127866016D03*
X73114001Y-127866016D03*
X75654001Y-127866016D03*
X78194001Y-127866016D03*
X80734001Y-127866016D03*
X83274001Y-127866016D03*
G36*
G01*
X94905001Y-138059916D02*
X94905001Y-137534916D01*
G75*
G02*
X95167501Y-137272416I262500J0D01*
G01*
X95792501Y-137272416D01*
G75*
G02*
X96055001Y-137534916I0J-262500D01*
G01*
X96055001Y-138059916D01*
G75*
G02*
X95792501Y-138322416I-262500J0D01*
G01*
X95167501Y-138322416D01*
G75*
G02*
X94905001Y-138059916I0J262500D01*
G01*
G37*
G36*
G01*
X96655001Y-138059916D02*
X96655001Y-137534916D01*
G75*
G02*
X96917501Y-137272416I262500J0D01*
G01*
X97542501Y-137272416D01*
G75*
G02*
X97805001Y-137534916I0J-262500D01*
G01*
X97805001Y-138059916D01*
G75*
G02*
X97542501Y-138322416I-262500J0D01*
G01*
X96917501Y-138322416D01*
G75*
G02*
X96655001Y-138059916I0J262500D01*
G01*
G37*
G36*
G01*
X104002601Y-132658116D02*
X104002601Y-133183116D01*
G75*
G02*
X103740101Y-133445616I-262500J0D01*
G01*
X103115101Y-133445616D01*
G75*
G02*
X102852601Y-133183116I0J262500D01*
G01*
X102852601Y-132658116D01*
G75*
G02*
X103115101Y-132395616I262500J0D01*
G01*
X103740101Y-132395616D01*
G75*
G02*
X104002601Y-132658116I0J-262500D01*
G01*
G37*
G36*
G01*
X102252601Y-132658116D02*
X102252601Y-133183116D01*
G75*
G02*
X101990101Y-133445616I-262500J0D01*
G01*
X101365101Y-133445616D01*
G75*
G02*
X101102601Y-133183116I0J262500D01*
G01*
X101102601Y-132658116D01*
G75*
G02*
X101365101Y-132395616I262500J0D01*
G01*
X101990101Y-132395616D01*
G75*
G02*
X102252601Y-132658116I0J-262500D01*
G01*
G37*
G36*
G01*
X104002601Y-135528316D02*
X104002601Y-136053316D01*
G75*
G02*
X103740101Y-136315816I-262500J0D01*
G01*
X103115101Y-136315816D01*
G75*
G02*
X102852601Y-136053316I0J262500D01*
G01*
X102852601Y-135528316D01*
G75*
G02*
X103115101Y-135265816I262500J0D01*
G01*
X103740101Y-135265816D01*
G75*
G02*
X104002601Y-135528316I0J-262500D01*
G01*
G37*
G36*
G01*
X102252601Y-135528316D02*
X102252601Y-136053316D01*
G75*
G02*
X101990101Y-136315816I-262500J0D01*
G01*
X101365101Y-136315816D01*
G75*
G02*
X101102601Y-136053316I0J262500D01*
G01*
X101102601Y-135528316D01*
G75*
G02*
X101365101Y-135265816I262500J0D01*
G01*
X101990101Y-135265816D01*
G75*
G02*
X102252601Y-135528316I0J-262500D01*
G01*
G37*
G36*
G01*
X59246994Y-138227823D02*
X59123250Y-138104079D01*
G75*
G02*
X59123250Y-137980335I61872J61872D01*
G01*
X59635902Y-137467683D01*
G75*
G02*
X59759646Y-137467683I61872J-61872D01*
G01*
X59883390Y-137591427D01*
G75*
G02*
X59883390Y-137715171I-61872J-61872D01*
G01*
X59370738Y-138227823D01*
G75*
G02*
X59246994Y-138227823I-61872J61872D01*
G01*
G37*
G36*
G01*
X59600547Y-138581376D02*
X59476803Y-138457632D01*
G75*
G02*
X59476803Y-138333888I61872J61872D01*
G01*
X59989455Y-137821236D01*
G75*
G02*
X60113199Y-137821236I61872J-61872D01*
G01*
X60236943Y-137944980D01*
G75*
G02*
X60236943Y-138068724I-61872J-61872D01*
G01*
X59724291Y-138581376D01*
G75*
G02*
X59600547Y-138581376I-61872J61872D01*
G01*
G37*
G36*
G01*
X59954101Y-138934930D02*
X59830357Y-138811186D01*
G75*
G02*
X59830357Y-138687442I61872J61872D01*
G01*
X60343009Y-138174790D01*
G75*
G02*
X60466753Y-138174790I61872J-61872D01*
G01*
X60590497Y-138298534D01*
G75*
G02*
X60590497Y-138422278I-61872J-61872D01*
G01*
X60077845Y-138934930D01*
G75*
G02*
X59954101Y-138934930I-61872J61872D01*
G01*
G37*
G36*
G01*
X60307654Y-139288483D02*
X60183910Y-139164739D01*
G75*
G02*
X60183910Y-139040995I61872J61872D01*
G01*
X60696562Y-138528343D01*
G75*
G02*
X60820306Y-138528343I61872J-61872D01*
G01*
X60944050Y-138652087D01*
G75*
G02*
X60944050Y-138775831I-61872J-61872D01*
G01*
X60431398Y-139288483D01*
G75*
G02*
X60307654Y-139288483I-61872J61872D01*
G01*
G37*
G36*
G01*
X60661208Y-139642036D02*
X60537464Y-139518292D01*
G75*
G02*
X60537464Y-139394548I61872J61872D01*
G01*
X61050116Y-138881896D01*
G75*
G02*
X61173860Y-138881896I61872J-61872D01*
G01*
X61297604Y-139005640D01*
G75*
G02*
X61297604Y-139129384I-61872J-61872D01*
G01*
X60784952Y-139642036D01*
G75*
G02*
X60661208Y-139642036I-61872J61872D01*
G01*
G37*
G36*
G01*
X61014761Y-139995590D02*
X60891017Y-139871846D01*
G75*
G02*
X60891017Y-139748102I61872J61872D01*
G01*
X61403669Y-139235450D01*
G75*
G02*
X61527413Y-139235450I61872J-61872D01*
G01*
X61651157Y-139359194D01*
G75*
G02*
X61651157Y-139482938I-61872J-61872D01*
G01*
X61138505Y-139995590D01*
G75*
G02*
X61014761Y-139995590I-61872J61872D01*
G01*
G37*
G36*
G01*
X61368314Y-140349143D02*
X61244570Y-140225399D01*
G75*
G02*
X61244570Y-140101655I61872J61872D01*
G01*
X61757222Y-139589003D01*
G75*
G02*
X61880966Y-139589003I61872J-61872D01*
G01*
X62004710Y-139712747D01*
G75*
G02*
X62004710Y-139836491I-61872J-61872D01*
G01*
X61492058Y-140349143D01*
G75*
G02*
X61368314Y-140349143I-61872J61872D01*
G01*
G37*
G36*
G01*
X61721868Y-140702696D02*
X61598124Y-140578952D01*
G75*
G02*
X61598124Y-140455208I61872J61872D01*
G01*
X62110776Y-139942556D01*
G75*
G02*
X62234520Y-139942556I61872J-61872D01*
G01*
X62358264Y-140066300D01*
G75*
G02*
X62358264Y-140190044I-61872J-61872D01*
G01*
X61845612Y-140702696D01*
G75*
G02*
X61721868Y-140702696I-61872J61872D01*
G01*
G37*
G36*
G01*
X62075421Y-141056250D02*
X61951677Y-140932506D01*
G75*
G02*
X61951677Y-140808762I61872J61872D01*
G01*
X62464329Y-140296110D01*
G75*
G02*
X62588073Y-140296110I61872J-61872D01*
G01*
X62711817Y-140419854D01*
G75*
G02*
X62711817Y-140543598I-61872J-61872D01*
G01*
X62199165Y-141056250D01*
G75*
G02*
X62075421Y-141056250I-61872J61872D01*
G01*
G37*
G36*
G01*
X62428974Y-141409803D02*
X62305230Y-141286059D01*
G75*
G02*
X62305230Y-141162315I61872J61872D01*
G01*
X62817882Y-140649663D01*
G75*
G02*
X62941626Y-140649663I61872J-61872D01*
G01*
X63065370Y-140773407D01*
G75*
G02*
X63065370Y-140897151I-61872J-61872D01*
G01*
X62552718Y-141409803D01*
G75*
G02*
X62428974Y-141409803I-61872J61872D01*
G01*
G37*
G36*
G01*
X62782528Y-141763357D02*
X62658784Y-141639613D01*
G75*
G02*
X62658784Y-141515869I61872J61872D01*
G01*
X63171436Y-141003217D01*
G75*
G02*
X63295180Y-141003217I61872J-61872D01*
G01*
X63418924Y-141126961D01*
G75*
G02*
X63418924Y-141250705I-61872J-61872D01*
G01*
X62906272Y-141763357D01*
G75*
G02*
X62782528Y-141763357I-61872J61872D01*
G01*
G37*
G36*
G01*
X63136081Y-142116910D02*
X63012337Y-141993166D01*
G75*
G02*
X63012337Y-141869422I61872J61872D01*
G01*
X63524989Y-141356770D01*
G75*
G02*
X63648733Y-141356770I61872J-61872D01*
G01*
X63772477Y-141480514D01*
G75*
G02*
X63772477Y-141604258I-61872J-61872D01*
G01*
X63259825Y-142116910D01*
G75*
G02*
X63136081Y-142116910I-61872J61872D01*
G01*
G37*
G36*
G01*
X64514940Y-142116910D02*
X64002287Y-141604258D01*
G75*
G02*
X64002287Y-141480514I61872J61872D01*
G01*
X64126031Y-141356770D01*
G75*
G02*
X64249775Y-141356770I61872J-61872D01*
G01*
X64762427Y-141869422D01*
G75*
G02*
X64762427Y-141993166I-61872J-61872D01*
G01*
X64638683Y-142116910D01*
G75*
G02*
X64514939Y-142116910I-61872J61872D01*
G01*
G37*
G36*
G01*
X64868493Y-141763357D02*
X64355840Y-141250705D01*
G75*
G02*
X64355840Y-141126961I61872J61872D01*
G01*
X64479584Y-141003217D01*
G75*
G02*
X64603328Y-141003217I61872J-61872D01*
G01*
X65115980Y-141515869D01*
G75*
G02*
X65115980Y-141639613I-61872J-61872D01*
G01*
X64992236Y-141763357D01*
G75*
G02*
X64868492Y-141763357I-61872J61872D01*
G01*
G37*
G36*
G01*
X65222047Y-141409803D02*
X64709394Y-140897151D01*
G75*
G02*
X64709394Y-140773407I61872J61872D01*
G01*
X64833138Y-140649663D01*
G75*
G02*
X64956882Y-140649663I61872J-61872D01*
G01*
X65469534Y-141162315D01*
G75*
G02*
X65469534Y-141286059I-61872J-61872D01*
G01*
X65345790Y-141409803D01*
G75*
G02*
X65222046Y-141409803I-61872J61872D01*
G01*
G37*
G36*
G01*
X65575600Y-141056250D02*
X65062947Y-140543598D01*
G75*
G02*
X65062947Y-140419854I61872J61872D01*
G01*
X65186691Y-140296110D01*
G75*
G02*
X65310435Y-140296110I61872J-61872D01*
G01*
X65823087Y-140808762D01*
G75*
G02*
X65823087Y-140932506I-61872J-61872D01*
G01*
X65699343Y-141056250D01*
G75*
G02*
X65575599Y-141056250I-61872J61872D01*
G01*
G37*
G36*
G01*
X65929153Y-140702696D02*
X65416500Y-140190044D01*
G75*
G02*
X65416500Y-140066300I61872J61872D01*
G01*
X65540244Y-139942556D01*
G75*
G02*
X65663988Y-139942556I61872J-61872D01*
G01*
X66176640Y-140455208D01*
G75*
G02*
X66176640Y-140578952I-61872J-61872D01*
G01*
X66052896Y-140702696D01*
G75*
G02*
X65929152Y-140702696I-61872J61872D01*
G01*
G37*
G36*
G01*
X66282707Y-140349143D02*
X65770054Y-139836491D01*
G75*
G02*
X65770054Y-139712747I61872J61872D01*
G01*
X65893798Y-139589003D01*
G75*
G02*
X66017542Y-139589003I61872J-61872D01*
G01*
X66530194Y-140101655D01*
G75*
G02*
X66530194Y-140225399I-61872J-61872D01*
G01*
X66406450Y-140349143D01*
G75*
G02*
X66282706Y-140349143I-61872J61872D01*
G01*
G37*
G36*
G01*
X66636260Y-139995590D02*
X66123607Y-139482938D01*
G75*
G02*
X66123607Y-139359194I61872J61872D01*
G01*
X66247351Y-139235450D01*
G75*
G02*
X66371095Y-139235450I61872J-61872D01*
G01*
X66883747Y-139748102D01*
G75*
G02*
X66883747Y-139871846I-61872J-61872D01*
G01*
X66760003Y-139995590D01*
G75*
G02*
X66636259Y-139995590I-61872J61872D01*
G01*
G37*
G36*
G01*
X66989813Y-139642036D02*
X66477160Y-139129384D01*
G75*
G02*
X66477160Y-139005640I61872J61872D01*
G01*
X66600904Y-138881896D01*
G75*
G02*
X66724648Y-138881896I61872J-61872D01*
G01*
X67237300Y-139394548D01*
G75*
G02*
X67237300Y-139518292I-61872J-61872D01*
G01*
X67113556Y-139642036D01*
G75*
G02*
X66989812Y-139642036I-61872J61872D01*
G01*
G37*
G36*
G01*
X67343367Y-139288483D02*
X66830714Y-138775831D01*
G75*
G02*
X66830714Y-138652087I61872J61872D01*
G01*
X66954458Y-138528343D01*
G75*
G02*
X67078202Y-138528343I61872J-61872D01*
G01*
X67590854Y-139040995D01*
G75*
G02*
X67590854Y-139164739I-61872J-61872D01*
G01*
X67467110Y-139288483D01*
G75*
G02*
X67343366Y-139288483I-61872J61872D01*
G01*
G37*
G36*
G01*
X67696920Y-138934930D02*
X67184267Y-138422278D01*
G75*
G02*
X67184267Y-138298534I61872J61872D01*
G01*
X67308011Y-138174790D01*
G75*
G02*
X67431755Y-138174790I61872J-61872D01*
G01*
X67944407Y-138687442D01*
G75*
G02*
X67944407Y-138811186I-61872J-61872D01*
G01*
X67820663Y-138934930D01*
G75*
G02*
X67696919Y-138934930I-61872J61872D01*
G01*
G37*
G36*
G01*
X68050474Y-138581376D02*
X67537821Y-138068724D01*
G75*
G02*
X67537821Y-137944980I61872J61872D01*
G01*
X67661565Y-137821236D01*
G75*
G02*
X67785309Y-137821236I61872J-61872D01*
G01*
X68297961Y-138333888D01*
G75*
G02*
X68297961Y-138457632I-61872J-61872D01*
G01*
X68174217Y-138581376D01*
G75*
G02*
X68050473Y-138581376I-61872J61872D01*
G01*
G37*
G36*
G01*
X68404027Y-138227823D02*
X67891374Y-137715171D01*
G75*
G02*
X67891374Y-137591427I61872J61872D01*
G01*
X68015118Y-137467683D01*
G75*
G02*
X68138862Y-137467683I61872J-61872D01*
G01*
X68651514Y-137980335D01*
G75*
G02*
X68651514Y-138104079I-61872J-61872D01*
G01*
X68527770Y-138227823D01*
G75*
G02*
X68404026Y-138227823I-61872J61872D01*
G01*
G37*
G36*
G01*
X68015118Y-137237873D02*
X67891374Y-137114129D01*
G75*
G02*
X67891374Y-136990385I61872J61872D01*
G01*
X68404026Y-136477733D01*
G75*
G02*
X68527770Y-136477733I61872J-61872D01*
G01*
X68651514Y-136601477D01*
G75*
G02*
X68651514Y-136725221I-61872J-61872D01*
G01*
X68138862Y-137237873D01*
G75*
G02*
X68015118Y-137237873I-61872J61872D01*
G01*
G37*
G36*
G01*
X67661565Y-136884320D02*
X67537821Y-136760576D01*
G75*
G02*
X67537821Y-136636832I61872J61872D01*
G01*
X68050473Y-136124180D01*
G75*
G02*
X68174217Y-136124180I61872J-61872D01*
G01*
X68297961Y-136247924D01*
G75*
G02*
X68297961Y-136371668I-61872J-61872D01*
G01*
X67785309Y-136884320D01*
G75*
G02*
X67661565Y-136884320I-61872J61872D01*
G01*
G37*
G36*
G01*
X67308011Y-136530766D02*
X67184267Y-136407022D01*
G75*
G02*
X67184267Y-136283278I61872J61872D01*
G01*
X67696919Y-135770626D01*
G75*
G02*
X67820663Y-135770626I61872J-61872D01*
G01*
X67944407Y-135894370D01*
G75*
G02*
X67944407Y-136018114I-61872J-61872D01*
G01*
X67431755Y-136530766D01*
G75*
G02*
X67308011Y-136530766I-61872J61872D01*
G01*
G37*
G36*
G01*
X66954458Y-136177213D02*
X66830714Y-136053469D01*
G75*
G02*
X66830714Y-135929725I61872J61872D01*
G01*
X67343366Y-135417073D01*
G75*
G02*
X67467110Y-135417073I61872J-61872D01*
G01*
X67590854Y-135540817D01*
G75*
G02*
X67590854Y-135664561I-61872J-61872D01*
G01*
X67078202Y-136177213D01*
G75*
G02*
X66954458Y-136177213I-61872J61872D01*
G01*
G37*
G36*
G01*
X66600904Y-135823660D02*
X66477160Y-135699916D01*
G75*
G02*
X66477160Y-135576172I61872J61872D01*
G01*
X66989812Y-135063520D01*
G75*
G02*
X67113556Y-135063520I61872J-61872D01*
G01*
X67237300Y-135187264D01*
G75*
G02*
X67237300Y-135311008I-61872J-61872D01*
G01*
X66724648Y-135823660D01*
G75*
G02*
X66600904Y-135823660I-61872J61872D01*
G01*
G37*
G36*
G01*
X66247351Y-135470106D02*
X66123607Y-135346362D01*
G75*
G02*
X66123607Y-135222618I61872J61872D01*
G01*
X66636259Y-134709966D01*
G75*
G02*
X66760003Y-134709966I61872J-61872D01*
G01*
X66883747Y-134833710D01*
G75*
G02*
X66883747Y-134957454I-61872J-61872D01*
G01*
X66371095Y-135470106D01*
G75*
G02*
X66247351Y-135470106I-61872J61872D01*
G01*
G37*
G36*
G01*
X65893798Y-135116553D02*
X65770054Y-134992809D01*
G75*
G02*
X65770054Y-134869065I61872J61872D01*
G01*
X66282706Y-134356413D01*
G75*
G02*
X66406450Y-134356413I61872J-61872D01*
G01*
X66530194Y-134480157D01*
G75*
G02*
X66530194Y-134603901I-61872J-61872D01*
G01*
X66017542Y-135116553D01*
G75*
G02*
X65893798Y-135116553I-61872J61872D01*
G01*
G37*
G36*
G01*
X65540244Y-134763000D02*
X65416500Y-134639256D01*
G75*
G02*
X65416500Y-134515512I61872J61872D01*
G01*
X65929152Y-134002860D01*
G75*
G02*
X66052896Y-134002860I61872J-61872D01*
G01*
X66176640Y-134126604D01*
G75*
G02*
X66176640Y-134250348I-61872J-61872D01*
G01*
X65663988Y-134763000D01*
G75*
G02*
X65540244Y-134763000I-61872J61872D01*
G01*
G37*
G36*
G01*
X65186691Y-134409446D02*
X65062947Y-134285702D01*
G75*
G02*
X65062947Y-134161958I61872J61872D01*
G01*
X65575599Y-133649306D01*
G75*
G02*
X65699343Y-133649306I61872J-61872D01*
G01*
X65823087Y-133773050D01*
G75*
G02*
X65823087Y-133896794I-61872J-61872D01*
G01*
X65310435Y-134409446D01*
G75*
G02*
X65186691Y-134409446I-61872J61872D01*
G01*
G37*
G36*
G01*
X64833138Y-134055893D02*
X64709394Y-133932149D01*
G75*
G02*
X64709394Y-133808405I61872J61872D01*
G01*
X65222046Y-133295753D01*
G75*
G02*
X65345790Y-133295753I61872J-61872D01*
G01*
X65469534Y-133419497D01*
G75*
G02*
X65469534Y-133543241I-61872J-61872D01*
G01*
X64956882Y-134055893D01*
G75*
G02*
X64833138Y-134055893I-61872J61872D01*
G01*
G37*
G36*
G01*
X64479584Y-133702339D02*
X64355840Y-133578595D01*
G75*
G02*
X64355840Y-133454851I61872J61872D01*
G01*
X64868492Y-132942199D01*
G75*
G02*
X64992236Y-132942199I61872J-61872D01*
G01*
X65115980Y-133065943D01*
G75*
G02*
X65115980Y-133189687I-61872J-61872D01*
G01*
X64603328Y-133702339D01*
G75*
G02*
X64479584Y-133702339I-61872J61872D01*
G01*
G37*
G36*
G01*
X64126031Y-133348786D02*
X64002287Y-133225042D01*
G75*
G02*
X64002287Y-133101298I61872J61872D01*
G01*
X64514939Y-132588646D01*
G75*
G02*
X64638683Y-132588646I61872J-61872D01*
G01*
X64762427Y-132712390D01*
G75*
G02*
X64762427Y-132836134I-61872J-61872D01*
G01*
X64249775Y-133348786D01*
G75*
G02*
X64126031Y-133348786I-61872J61872D01*
G01*
G37*
G36*
G01*
X63524990Y-133348786D02*
X63012337Y-132836134D01*
G75*
G02*
X63012337Y-132712390I61872J61872D01*
G01*
X63136081Y-132588646D01*
G75*
G02*
X63259825Y-132588646I61872J-61872D01*
G01*
X63772477Y-133101298D01*
G75*
G02*
X63772477Y-133225042I-61872J-61872D01*
G01*
X63648733Y-133348786D01*
G75*
G02*
X63524989Y-133348786I-61872J61872D01*
G01*
G37*
G36*
G01*
X63171437Y-133702339D02*
X62658784Y-133189687D01*
G75*
G02*
X62658784Y-133065943I61872J61872D01*
G01*
X62782528Y-132942199D01*
G75*
G02*
X62906272Y-132942199I61872J-61872D01*
G01*
X63418924Y-133454851D01*
G75*
G02*
X63418924Y-133578595I-61872J-61872D01*
G01*
X63295180Y-133702339D01*
G75*
G02*
X63171436Y-133702339I-61872J61872D01*
G01*
G37*
G36*
G01*
X62817883Y-134055893D02*
X62305230Y-133543241D01*
G75*
G02*
X62305230Y-133419497I61872J61872D01*
G01*
X62428974Y-133295753D01*
G75*
G02*
X62552718Y-133295753I61872J-61872D01*
G01*
X63065370Y-133808405D01*
G75*
G02*
X63065370Y-133932149I-61872J-61872D01*
G01*
X62941626Y-134055893D01*
G75*
G02*
X62817882Y-134055893I-61872J61872D01*
G01*
G37*
G36*
G01*
X62464330Y-134409446D02*
X61951677Y-133896794D01*
G75*
G02*
X61951677Y-133773050I61872J61872D01*
G01*
X62075421Y-133649306D01*
G75*
G02*
X62199165Y-133649306I61872J-61872D01*
G01*
X62711817Y-134161958D01*
G75*
G02*
X62711817Y-134285702I-61872J-61872D01*
G01*
X62588073Y-134409446D01*
G75*
G02*
X62464329Y-134409446I-61872J61872D01*
G01*
G37*
G36*
G01*
X62110777Y-134763000D02*
X61598124Y-134250348D01*
G75*
G02*
X61598124Y-134126604I61872J61872D01*
G01*
X61721868Y-134002860D01*
G75*
G02*
X61845612Y-134002860I61872J-61872D01*
G01*
X62358264Y-134515512D01*
G75*
G02*
X62358264Y-134639256I-61872J-61872D01*
G01*
X62234520Y-134763000D01*
G75*
G02*
X62110776Y-134763000I-61872J61872D01*
G01*
G37*
G36*
G01*
X61757223Y-135116553D02*
X61244570Y-134603901D01*
G75*
G02*
X61244570Y-134480157I61872J61872D01*
G01*
X61368314Y-134356413D01*
G75*
G02*
X61492058Y-134356413I61872J-61872D01*
G01*
X62004710Y-134869065D01*
G75*
G02*
X62004710Y-134992809I-61872J-61872D01*
G01*
X61880966Y-135116553D01*
G75*
G02*
X61757222Y-135116553I-61872J61872D01*
G01*
G37*
G36*
G01*
X61403670Y-135470106D02*
X60891017Y-134957454D01*
G75*
G02*
X60891017Y-134833710I61872J61872D01*
G01*
X61014761Y-134709966D01*
G75*
G02*
X61138505Y-134709966I61872J-61872D01*
G01*
X61651157Y-135222618D01*
G75*
G02*
X61651157Y-135346362I-61872J-61872D01*
G01*
X61527413Y-135470106D01*
G75*
G02*
X61403669Y-135470106I-61872J61872D01*
G01*
G37*
G36*
G01*
X61050117Y-135823660D02*
X60537464Y-135311008D01*
G75*
G02*
X60537464Y-135187264I61872J61872D01*
G01*
X60661208Y-135063520D01*
G75*
G02*
X60784952Y-135063520I61872J-61872D01*
G01*
X61297604Y-135576172D01*
G75*
G02*
X61297604Y-135699916I-61872J-61872D01*
G01*
X61173860Y-135823660D01*
G75*
G02*
X61050116Y-135823660I-61872J61872D01*
G01*
G37*
G36*
G01*
X60696563Y-136177213D02*
X60183910Y-135664561D01*
G75*
G02*
X60183910Y-135540817I61872J61872D01*
G01*
X60307654Y-135417073D01*
G75*
G02*
X60431398Y-135417073I61872J-61872D01*
G01*
X60944050Y-135929725D01*
G75*
G02*
X60944050Y-136053469I-61872J-61872D01*
G01*
X60820306Y-136177213D01*
G75*
G02*
X60696562Y-136177213I-61872J61872D01*
G01*
G37*
G36*
G01*
X60343010Y-136530766D02*
X59830357Y-136018114D01*
G75*
G02*
X59830357Y-135894370I61872J61872D01*
G01*
X59954101Y-135770626D01*
G75*
G02*
X60077845Y-135770626I61872J-61872D01*
G01*
X60590497Y-136283278D01*
G75*
G02*
X60590497Y-136407022I-61872J-61872D01*
G01*
X60466753Y-136530766D01*
G75*
G02*
X60343009Y-136530766I-61872J61872D01*
G01*
G37*
G36*
G01*
X59989456Y-136884320D02*
X59476803Y-136371668D01*
G75*
G02*
X59476803Y-136247924I61872J61872D01*
G01*
X59600547Y-136124180D01*
G75*
G02*
X59724291Y-136124180I61872J-61872D01*
G01*
X60236943Y-136636832D01*
G75*
G02*
X60236943Y-136760576I-61872J-61872D01*
G01*
X60113199Y-136884320D01*
G75*
G02*
X59989455Y-136884320I-61872J61872D01*
G01*
G37*
G36*
G01*
X59635903Y-137237873D02*
X59123250Y-136725221D01*
G75*
G02*
X59123250Y-136601477I61872J61872D01*
G01*
X59246994Y-136477733D01*
G75*
G02*
X59370738Y-136477733I61872J-61872D01*
G01*
X59883390Y-136990385D01*
G75*
G02*
X59883390Y-137114129I-61872J-61872D01*
G01*
X59759646Y-137237873D01*
G75*
G02*
X59635902Y-137237873I-61872J61872D01*
G01*
G37*
D18*
G36*
X63887382Y-141171155D02*
G01*
X60069005Y-137352778D01*
X63887382Y-133534401D01*
X67705759Y-137352778D01*
X63887382Y-141171155D01*
G37*
G36*
G01*
X77122001Y-136428616D02*
X77122001Y-136778616D01*
G75*
G02*
X76947001Y-136953616I-175000J0D01*
G01*
X75247001Y-136953616D01*
G75*
G02*
X75072001Y-136778616I0J175000D01*
G01*
X75072001Y-136428616D01*
G75*
G02*
X75247001Y-136253616I175000J0D01*
G01*
X76947001Y-136253616D01*
G75*
G02*
X77122001Y-136428616I0J-175000D01*
G01*
G37*
G36*
G01*
X77122001Y-135158616D02*
X77122001Y-135508616D01*
G75*
G02*
X76947001Y-135683616I-175000J0D01*
G01*
X75247001Y-135683616D01*
G75*
G02*
X75072001Y-135508616I0J175000D01*
G01*
X75072001Y-135158616D01*
G75*
G02*
X75247001Y-134983616I175000J0D01*
G01*
X76947001Y-134983616D01*
G75*
G02*
X77122001Y-135158616I0J-175000D01*
G01*
G37*
G36*
G01*
X77122001Y-133888616D02*
X77122001Y-134238616D01*
G75*
G02*
X76947001Y-134413616I-175000J0D01*
G01*
X75247001Y-134413616D01*
G75*
G02*
X75072001Y-134238616I0J175000D01*
G01*
X75072001Y-133888616D01*
G75*
G02*
X75247001Y-133713616I175000J0D01*
G01*
X76947001Y-133713616D01*
G75*
G02*
X77122001Y-133888616I0J-175000D01*
G01*
G37*
G36*
G01*
X77122001Y-132618616D02*
X77122001Y-132968616D01*
G75*
G02*
X76947001Y-133143616I-175000J0D01*
G01*
X75247001Y-133143616D01*
G75*
G02*
X75072001Y-132968616I0J175000D01*
G01*
X75072001Y-132618616D01*
G75*
G02*
X75247001Y-132443616I175000J0D01*
G01*
X76947001Y-132443616D01*
G75*
G02*
X77122001Y-132618616I0J-175000D01*
G01*
G37*
G36*
G01*
X72172001Y-132618616D02*
X72172001Y-132968616D01*
G75*
G02*
X71997001Y-133143616I-175000J0D01*
G01*
X70297001Y-133143616D01*
G75*
G02*
X70122001Y-132968616I0J175000D01*
G01*
X70122001Y-132618616D01*
G75*
G02*
X70297001Y-132443616I175000J0D01*
G01*
X71997001Y-132443616D01*
G75*
G02*
X72172001Y-132618616I0J-175000D01*
G01*
G37*
G36*
G01*
X72172001Y-133888616D02*
X72172001Y-134238616D01*
G75*
G02*
X71997001Y-134413616I-175000J0D01*
G01*
X70297001Y-134413616D01*
G75*
G02*
X70122001Y-134238616I0J175000D01*
G01*
X70122001Y-133888616D01*
G75*
G02*
X70297001Y-133713616I175000J0D01*
G01*
X71997001Y-133713616D01*
G75*
G02*
X72172001Y-133888616I0J-175000D01*
G01*
G37*
G36*
G01*
X72172001Y-135158616D02*
X72172001Y-135508616D01*
G75*
G02*
X71997001Y-135683616I-175000J0D01*
G01*
X70297001Y-135683616D01*
G75*
G02*
X70122001Y-135508616I0J175000D01*
G01*
X70122001Y-135158616D01*
G75*
G02*
X70297001Y-134983616I175000J0D01*
G01*
X71997001Y-134983616D01*
G75*
G02*
X72172001Y-135158616I0J-175000D01*
G01*
G37*
G36*
G01*
X72172001Y-136428616D02*
X72172001Y-136778616D01*
G75*
G02*
X71997001Y-136953616I-175000J0D01*
G01*
X70297001Y-136953616D01*
G75*
G02*
X70122001Y-136778616I0J175000D01*
G01*
X70122001Y-136428616D01*
G75*
G02*
X70297001Y-136253616I175000J0D01*
G01*
X71997001Y-136253616D01*
G75*
G02*
X72172001Y-136428616I0J-175000D01*
G01*
G37*
G36*
G01*
X89982401Y-130208016D02*
X90332401Y-130208016D01*
G75*
G02*
X90507401Y-130383016I0J-175000D01*
G01*
X90507401Y-132083016D01*
G75*
G02*
X90332401Y-132258016I-175000J0D01*
G01*
X89982401Y-132258016D01*
G75*
G02*
X89807401Y-132083016I0J175000D01*
G01*
X89807401Y-130383016D01*
G75*
G02*
X89982401Y-130208016I175000J0D01*
G01*
G37*
G36*
G01*
X88712401Y-130208016D02*
X89062401Y-130208016D01*
G75*
G02*
X89237401Y-130383016I0J-175000D01*
G01*
X89237401Y-132083016D01*
G75*
G02*
X89062401Y-132258016I-175000J0D01*
G01*
X88712401Y-132258016D01*
G75*
G02*
X88537401Y-132083016I0J175000D01*
G01*
X88537401Y-130383016D01*
G75*
G02*
X88712401Y-130208016I175000J0D01*
G01*
G37*
G36*
G01*
X87442401Y-130208016D02*
X87792401Y-130208016D01*
G75*
G02*
X87967401Y-130383016I0J-175000D01*
G01*
X87967401Y-132083016D01*
G75*
G02*
X87792401Y-132258016I-175000J0D01*
G01*
X87442401Y-132258016D01*
G75*
G02*
X87267401Y-132083016I0J175000D01*
G01*
X87267401Y-130383016D01*
G75*
G02*
X87442401Y-130208016I175000J0D01*
G01*
G37*
G36*
G01*
X86172401Y-130208016D02*
X86522401Y-130208016D01*
G75*
G02*
X86697401Y-130383016I0J-175000D01*
G01*
X86697401Y-132083016D01*
G75*
G02*
X86522401Y-132258016I-175000J0D01*
G01*
X86172401Y-132258016D01*
G75*
G02*
X85997401Y-132083016I0J175000D01*
G01*
X85997401Y-130383016D01*
G75*
G02*
X86172401Y-130208016I175000J0D01*
G01*
G37*
G36*
G01*
X84902401Y-130208016D02*
X85252401Y-130208016D01*
G75*
G02*
X85427401Y-130383016I0J-175000D01*
G01*
X85427401Y-132083016D01*
G75*
G02*
X85252401Y-132258016I-175000J0D01*
G01*
X84902401Y-132258016D01*
G75*
G02*
X84727401Y-132083016I0J175000D01*
G01*
X84727401Y-130383016D01*
G75*
G02*
X84902401Y-130208016I175000J0D01*
G01*
G37*
G36*
G01*
X83632401Y-130208016D02*
X83982401Y-130208016D01*
G75*
G02*
X84157401Y-130383016I0J-175000D01*
G01*
X84157401Y-132083016D01*
G75*
G02*
X83982401Y-132258016I-175000J0D01*
G01*
X83632401Y-132258016D01*
G75*
G02*
X83457401Y-132083016I0J175000D01*
G01*
X83457401Y-130383016D01*
G75*
G02*
X83632401Y-130208016I175000J0D01*
G01*
G37*
G36*
G01*
X82362401Y-130208016D02*
X82712401Y-130208016D01*
G75*
G02*
X82887401Y-130383016I0J-175000D01*
G01*
X82887401Y-132083016D01*
G75*
G02*
X82712401Y-132258016I-175000J0D01*
G01*
X82362401Y-132258016D01*
G75*
G02*
X82187401Y-132083016I0J175000D01*
G01*
X82187401Y-130383016D01*
G75*
G02*
X82362401Y-130208016I175000J0D01*
G01*
G37*
G36*
G01*
X81092401Y-130208016D02*
X81442401Y-130208016D01*
G75*
G02*
X81617401Y-130383016I0J-175000D01*
G01*
X81617401Y-132083016D01*
G75*
G02*
X81442401Y-132258016I-175000J0D01*
G01*
X81092401Y-132258016D01*
G75*
G02*
X80917401Y-132083016I0J175000D01*
G01*
X80917401Y-130383016D01*
G75*
G02*
X81092401Y-130208016I175000J0D01*
G01*
G37*
G36*
G01*
X81092401Y-135158016D02*
X81442401Y-135158016D01*
G75*
G02*
X81617401Y-135333016I0J-175000D01*
G01*
X81617401Y-137033016D01*
G75*
G02*
X81442401Y-137208016I-175000J0D01*
G01*
X81092401Y-137208016D01*
G75*
G02*
X80917401Y-137033016I0J175000D01*
G01*
X80917401Y-135333016D01*
G75*
G02*
X81092401Y-135158016I175000J0D01*
G01*
G37*
G36*
G01*
X82362401Y-135158016D02*
X82712401Y-135158016D01*
G75*
G02*
X82887401Y-135333016I0J-175000D01*
G01*
X82887401Y-137033016D01*
G75*
G02*
X82712401Y-137208016I-175000J0D01*
G01*
X82362401Y-137208016D01*
G75*
G02*
X82187401Y-137033016I0J175000D01*
G01*
X82187401Y-135333016D01*
G75*
G02*
X82362401Y-135158016I175000J0D01*
G01*
G37*
G36*
G01*
X83632401Y-135158016D02*
X83982401Y-135158016D01*
G75*
G02*
X84157401Y-135333016I0J-175000D01*
G01*
X84157401Y-137033016D01*
G75*
G02*
X83982401Y-137208016I-175000J0D01*
G01*
X83632401Y-137208016D01*
G75*
G02*
X83457401Y-137033016I0J175000D01*
G01*
X83457401Y-135333016D01*
G75*
G02*
X83632401Y-135158016I175000J0D01*
G01*
G37*
G36*
G01*
X84902401Y-135158016D02*
X85252401Y-135158016D01*
G75*
G02*
X85427401Y-135333016I0J-175000D01*
G01*
X85427401Y-137033016D01*
G75*
G02*
X85252401Y-137208016I-175000J0D01*
G01*
X84902401Y-137208016D01*
G75*
G02*
X84727401Y-137033016I0J175000D01*
G01*
X84727401Y-135333016D01*
G75*
G02*
X84902401Y-135158016I175000J0D01*
G01*
G37*
G36*
G01*
X86172401Y-135158016D02*
X86522401Y-135158016D01*
G75*
G02*
X86697401Y-135333016I0J-175000D01*
G01*
X86697401Y-137033016D01*
G75*
G02*
X86522401Y-137208016I-175000J0D01*
G01*
X86172401Y-137208016D01*
G75*
G02*
X85997401Y-137033016I0J175000D01*
G01*
X85997401Y-135333016D01*
G75*
G02*
X86172401Y-135158016I175000J0D01*
G01*
G37*
G36*
G01*
X87442401Y-135158016D02*
X87792401Y-135158016D01*
G75*
G02*
X87967401Y-135333016I0J-175000D01*
G01*
X87967401Y-137033016D01*
G75*
G02*
X87792401Y-137208016I-175000J0D01*
G01*
X87442401Y-137208016D01*
G75*
G02*
X87267401Y-137033016I0J175000D01*
G01*
X87267401Y-135333016D01*
G75*
G02*
X87442401Y-135158016I175000J0D01*
G01*
G37*
G36*
G01*
X88712401Y-135158016D02*
X89062401Y-135158016D01*
G75*
G02*
X89237401Y-135333016I0J-175000D01*
G01*
X89237401Y-137033016D01*
G75*
G02*
X89062401Y-137208016I-175000J0D01*
G01*
X88712401Y-137208016D01*
G75*
G02*
X88537401Y-137033016I0J175000D01*
G01*
X88537401Y-135333016D01*
G75*
G02*
X88712401Y-135158016I175000J0D01*
G01*
G37*
G36*
G01*
X89982401Y-135158016D02*
X90332401Y-135158016D01*
G75*
G02*
X90507401Y-135333016I0J-175000D01*
G01*
X90507401Y-137033016D01*
G75*
G02*
X90332401Y-137208016I-175000J0D01*
G01*
X89982401Y-137208016D01*
G75*
G02*
X89807401Y-137033016I0J175000D01*
G01*
X89807401Y-135333016D01*
G75*
G02*
X89982401Y-135158016I175000J0D01*
G01*
G37*
D16*
X54826001Y-145392016D03*
D17*
X57366001Y-145392016D03*
X59906001Y-145392016D03*
X62446001Y-145392016D03*
X64986001Y-145392016D03*
X67526001Y-145392016D03*
X70066001Y-145392016D03*
X72606001Y-145392016D03*
X75146001Y-145392016D03*
X77686001Y-145392016D03*
X80226001Y-145392016D03*
X82766001Y-145392016D03*
X85306001Y-145392016D03*
X87846001Y-145392016D03*
X90386001Y-145392016D03*
X92926001Y-145392016D03*
X95466001Y-145392016D03*
X98006001Y-145392016D03*
X100546001Y-145392016D03*
X103086001Y-145392016D03*
D16*
X98768001Y-126850016D03*
D17*
X101308001Y-126850016D03*
X103848001Y-126850016D03*
D12*
X51778001Y-112836011D03*
X51778001Y-103336011D03*
G36*
G01*
X73093401Y-113360711D02*
X73093401Y-113885711D01*
G75*
G02*
X72830901Y-114148211I-262500J0D01*
G01*
X72205901Y-114148211D01*
G75*
G02*
X71943401Y-113885711I0J262500D01*
G01*
X71943401Y-113360711D01*
G75*
G02*
X72205901Y-113098211I262500J0D01*
G01*
X72830901Y-113098211D01*
G75*
G02*
X73093401Y-113360711I0J-262500D01*
G01*
G37*
G36*
G01*
X74843401Y-113360711D02*
X74843401Y-113885711D01*
G75*
G02*
X74580901Y-114148211I-262500J0D01*
G01*
X73955901Y-114148211D01*
G75*
G02*
X73693401Y-113885711I0J262500D01*
G01*
X73693401Y-113360711D01*
G75*
G02*
X73955901Y-113098211I262500J0D01*
G01*
X74580901Y-113098211D01*
G75*
G02*
X74843401Y-113360711I0J-262500D01*
G01*
G37*
G36*
G01*
X93645701Y-111466411D02*
X93120701Y-111466411D01*
G75*
G02*
X92858201Y-111203911I0J262500D01*
G01*
X92858201Y-110578911D01*
G75*
G02*
X93120701Y-110316411I262500J0D01*
G01*
X93645701Y-110316411D01*
G75*
G02*
X93908201Y-110578911I0J-262500D01*
G01*
X93908201Y-111203911D01*
G75*
G02*
X93645701Y-111466411I-262500J0D01*
G01*
G37*
G36*
G01*
X93645701Y-109716411D02*
X93120701Y-109716411D01*
G75*
G02*
X92858201Y-109453911I0J262500D01*
G01*
X92858201Y-108828911D01*
G75*
G02*
X93120701Y-108566411I262500J0D01*
G01*
X93645701Y-108566411D01*
G75*
G02*
X93908201Y-108828911I0J-262500D01*
G01*
X93908201Y-109453911D01*
G75*
G02*
X93645701Y-109716411I-262500J0D01*
G01*
G37*
G36*
G01*
X86929401Y-103547911D02*
X86929401Y-103022911D01*
G75*
G02*
X87191901Y-102760411I262500J0D01*
G01*
X87816901Y-102760411D01*
G75*
G02*
X88079401Y-103022911I0J-262500D01*
G01*
X88079401Y-103547911D01*
G75*
G02*
X87816901Y-103810411I-262500J0D01*
G01*
X87191901Y-103810411D01*
G75*
G02*
X86929401Y-103547911I0J262500D01*
G01*
G37*
G36*
G01*
X88679401Y-103547911D02*
X88679401Y-103022911D01*
G75*
G02*
X88941901Y-102760411I262500J0D01*
G01*
X89566901Y-102760411D01*
G75*
G02*
X89829401Y-103022911I0J-262500D01*
G01*
X89829401Y-103547911D01*
G75*
G02*
X89566901Y-103810411I-262500J0D01*
G01*
X88941901Y-103810411D01*
G75*
G02*
X88679401Y-103547911I0J262500D01*
G01*
G37*
G36*
G01*
X96934863Y-108059611D02*
X95978339Y-108059611D01*
G75*
G02*
X95706601Y-107787873I0J271738D01*
G01*
X95706601Y-107081349D01*
G75*
G02*
X95978339Y-106809611I271738J0D01*
G01*
X96934863Y-106809611D01*
G75*
G02*
X97206601Y-107081349I0J-271738D01*
G01*
X97206601Y-107787873D01*
G75*
G02*
X96934863Y-108059611I-271738J0D01*
G01*
G37*
G36*
G01*
X96934863Y-106009611D02*
X95978339Y-106009611D01*
G75*
G02*
X95706601Y-105737873I0J271738D01*
G01*
X95706601Y-105031349D01*
G75*
G02*
X95978339Y-104759611I271738J0D01*
G01*
X96934863Y-104759611D01*
G75*
G02*
X97206601Y-105031349I0J-271738D01*
G01*
X97206601Y-105737873D01*
G75*
G02*
X96934863Y-106009611I-271738J0D01*
G01*
G37*
G36*
G01*
X91809401Y-104982873D02*
X91809401Y-104026349D01*
G75*
G02*
X92081139Y-103754611I271738J0D01*
G01*
X92787663Y-103754611D01*
G75*
G02*
X93059401Y-104026349I0J-271738D01*
G01*
X93059401Y-104982873D01*
G75*
G02*
X92787663Y-105254611I-271738J0D01*
G01*
X92081139Y-105254611D01*
G75*
G02*
X91809401Y-104982873I0J271738D01*
G01*
G37*
G36*
G01*
X93859401Y-104982873D02*
X93859401Y-104026349D01*
G75*
G02*
X94131139Y-103754611I271738J0D01*
G01*
X94837663Y-103754611D01*
G75*
G02*
X95109401Y-104026349I0J-271738D01*
G01*
X95109401Y-104982873D01*
G75*
G02*
X94837663Y-105254611I-271738J0D01*
G01*
X94131139Y-105254611D01*
G75*
G02*
X93859401Y-104982873I0J271738D01*
G01*
G37*
G36*
G01*
X94792001Y-116603511D02*
X94792001Y-116078511D01*
G75*
G02*
X95054501Y-115816011I262500J0D01*
G01*
X95679501Y-115816011D01*
G75*
G02*
X95942001Y-116078511I0J-262500D01*
G01*
X95942001Y-116603511D01*
G75*
G02*
X95679501Y-116866011I-262500J0D01*
G01*
X95054501Y-116866011D01*
G75*
G02*
X94792001Y-116603511I0J262500D01*
G01*
G37*
G36*
G01*
X96542001Y-116603511D02*
X96542001Y-116078511D01*
G75*
G02*
X96804501Y-115816011I262500J0D01*
G01*
X97429501Y-115816011D01*
G75*
G02*
X97692001Y-116078511I0J-262500D01*
G01*
X97692001Y-116603511D01*
G75*
G02*
X97429501Y-116866011I-262500J0D01*
G01*
X96804501Y-116866011D01*
G75*
G02*
X96542001Y-116603511I0J262500D01*
G01*
G37*
G36*
G01*
X101450401Y-116269149D02*
X101450401Y-117225673D01*
G75*
G02*
X101178663Y-117497411I-271738J0D01*
G01*
X100472139Y-117497411D01*
G75*
G02*
X100200401Y-117225673I0J271738D01*
G01*
X100200401Y-116269149D01*
G75*
G02*
X100472139Y-115997411I271738J0D01*
G01*
X101178663Y-115997411D01*
G75*
G02*
X101450401Y-116269149I0J-271738D01*
G01*
G37*
G36*
G01*
X99400401Y-116269149D02*
X99400401Y-117225673D01*
G75*
G02*
X99128663Y-117497411I-271738J0D01*
G01*
X98422139Y-117497411D01*
G75*
G02*
X98150401Y-117225673I0J271738D01*
G01*
X98150401Y-116269149D01*
G75*
G02*
X98422139Y-115997411I271738J0D01*
G01*
X99128663Y-115997411D01*
G75*
G02*
X99400401Y-116269149I0J-271738D01*
G01*
G37*
D13*
X104364601Y-113803011D03*
D14*
X100714601Y-112373011D03*
D13*
X104364601Y-105163011D03*
D14*
X100714601Y-106593011D03*
D15*
X100184601Y-105163011D03*
X100184601Y-113803011D03*
D16*
X60414001Y-103260011D03*
D17*
X62954001Y-103260011D03*
X65494001Y-103260011D03*
X68034001Y-103260011D03*
X70574001Y-103260011D03*
X73114001Y-103260011D03*
X75654001Y-103260011D03*
X78194001Y-103260011D03*
X80734001Y-103260011D03*
X83274001Y-103260011D03*
G36*
G01*
X94905001Y-113453911D02*
X94905001Y-112928911D01*
G75*
G02*
X95167501Y-112666411I262500J0D01*
G01*
X95792501Y-112666411D01*
G75*
G02*
X96055001Y-112928911I0J-262500D01*
G01*
X96055001Y-113453911D01*
G75*
G02*
X95792501Y-113716411I-262500J0D01*
G01*
X95167501Y-113716411D01*
G75*
G02*
X94905001Y-113453911I0J262500D01*
G01*
G37*
G36*
G01*
X96655001Y-113453911D02*
X96655001Y-112928911D01*
G75*
G02*
X96917501Y-112666411I262500J0D01*
G01*
X97542501Y-112666411D01*
G75*
G02*
X97805001Y-112928911I0J-262500D01*
G01*
X97805001Y-113453911D01*
G75*
G02*
X97542501Y-113716411I-262500J0D01*
G01*
X96917501Y-113716411D01*
G75*
G02*
X96655001Y-113453911I0J262500D01*
G01*
G37*
G36*
G01*
X104002601Y-108052111D02*
X104002601Y-108577111D01*
G75*
G02*
X103740101Y-108839611I-262500J0D01*
G01*
X103115101Y-108839611D01*
G75*
G02*
X102852601Y-108577111I0J262500D01*
G01*
X102852601Y-108052111D01*
G75*
G02*
X103115101Y-107789611I262500J0D01*
G01*
X103740101Y-107789611D01*
G75*
G02*
X104002601Y-108052111I0J-262500D01*
G01*
G37*
G36*
G01*
X102252601Y-108052111D02*
X102252601Y-108577111D01*
G75*
G02*
X101990101Y-108839611I-262500J0D01*
G01*
X101365101Y-108839611D01*
G75*
G02*
X101102601Y-108577111I0J262500D01*
G01*
X101102601Y-108052111D01*
G75*
G02*
X101365101Y-107789611I262500J0D01*
G01*
X101990101Y-107789611D01*
G75*
G02*
X102252601Y-108052111I0J-262500D01*
G01*
G37*
G36*
G01*
X104002601Y-110922311D02*
X104002601Y-111447311D01*
G75*
G02*
X103740101Y-111709811I-262500J0D01*
G01*
X103115101Y-111709811D01*
G75*
G02*
X102852601Y-111447311I0J262500D01*
G01*
X102852601Y-110922311D01*
G75*
G02*
X103115101Y-110659811I262500J0D01*
G01*
X103740101Y-110659811D01*
G75*
G02*
X104002601Y-110922311I0J-262500D01*
G01*
G37*
G36*
G01*
X102252601Y-110922311D02*
X102252601Y-111447311D01*
G75*
G02*
X101990101Y-111709811I-262500J0D01*
G01*
X101365101Y-111709811D01*
G75*
G02*
X101102601Y-111447311I0J262500D01*
G01*
X101102601Y-110922311D01*
G75*
G02*
X101365101Y-110659811I262500J0D01*
G01*
X101990101Y-110659811D01*
G75*
G02*
X102252601Y-110922311I0J-262500D01*
G01*
G37*
G36*
G01*
X59246994Y-113621818D02*
X59123250Y-113498074D01*
G75*
G02*
X59123250Y-113374330I61872J61872D01*
G01*
X59635902Y-112861678D01*
G75*
G02*
X59759646Y-112861678I61872J-61872D01*
G01*
X59883390Y-112985422D01*
G75*
G02*
X59883390Y-113109166I-61872J-61872D01*
G01*
X59370738Y-113621818D01*
G75*
G02*
X59246994Y-113621818I-61872J61872D01*
G01*
G37*
G36*
G01*
X59600547Y-113975371D02*
X59476803Y-113851627D01*
G75*
G02*
X59476803Y-113727883I61872J61872D01*
G01*
X59989455Y-113215231D01*
G75*
G02*
X60113199Y-113215231I61872J-61872D01*
G01*
X60236943Y-113338975D01*
G75*
G02*
X60236943Y-113462719I-61872J-61872D01*
G01*
X59724291Y-113975371D01*
G75*
G02*
X59600547Y-113975371I-61872J61872D01*
G01*
G37*
G36*
G01*
X59954101Y-114328925D02*
X59830357Y-114205181D01*
G75*
G02*
X59830357Y-114081437I61872J61872D01*
G01*
X60343009Y-113568785D01*
G75*
G02*
X60466753Y-113568785I61872J-61872D01*
G01*
X60590497Y-113692529D01*
G75*
G02*
X60590497Y-113816273I-61872J-61872D01*
G01*
X60077845Y-114328925D01*
G75*
G02*
X59954101Y-114328925I-61872J61872D01*
G01*
G37*
G36*
G01*
X60307654Y-114682478D02*
X60183910Y-114558734D01*
G75*
G02*
X60183910Y-114434990I61872J61872D01*
G01*
X60696562Y-113922338D01*
G75*
G02*
X60820306Y-113922338I61872J-61872D01*
G01*
X60944050Y-114046082D01*
G75*
G02*
X60944050Y-114169826I-61872J-61872D01*
G01*
X60431398Y-114682478D01*
G75*
G02*
X60307654Y-114682478I-61872J61872D01*
G01*
G37*
G36*
G01*
X60661208Y-115036031D02*
X60537464Y-114912287D01*
G75*
G02*
X60537464Y-114788543I61872J61872D01*
G01*
X61050116Y-114275891D01*
G75*
G02*
X61173860Y-114275891I61872J-61872D01*
G01*
X61297604Y-114399635D01*
G75*
G02*
X61297604Y-114523379I-61872J-61872D01*
G01*
X60784952Y-115036031D01*
G75*
G02*
X60661208Y-115036031I-61872J61872D01*
G01*
G37*
G36*
G01*
X61014761Y-115389585D02*
X60891017Y-115265841D01*
G75*
G02*
X60891017Y-115142097I61872J61872D01*
G01*
X61403669Y-114629445D01*
G75*
G02*
X61527413Y-114629445I61872J-61872D01*
G01*
X61651157Y-114753189D01*
G75*
G02*
X61651157Y-114876933I-61872J-61872D01*
G01*
X61138505Y-115389585D01*
G75*
G02*
X61014761Y-115389585I-61872J61872D01*
G01*
G37*
G36*
G01*
X61368314Y-115743138D02*
X61244570Y-115619394D01*
G75*
G02*
X61244570Y-115495650I61872J61872D01*
G01*
X61757222Y-114982998D01*
G75*
G02*
X61880966Y-114982998I61872J-61872D01*
G01*
X62004710Y-115106742D01*
G75*
G02*
X62004710Y-115230486I-61872J-61872D01*
G01*
X61492058Y-115743138D01*
G75*
G02*
X61368314Y-115743138I-61872J61872D01*
G01*
G37*
G36*
G01*
X61721868Y-116096691D02*
X61598124Y-115972947D01*
G75*
G02*
X61598124Y-115849203I61872J61872D01*
G01*
X62110776Y-115336551D01*
G75*
G02*
X62234520Y-115336551I61872J-61872D01*
G01*
X62358264Y-115460295D01*
G75*
G02*
X62358264Y-115584039I-61872J-61872D01*
G01*
X61845612Y-116096691D01*
G75*
G02*
X61721868Y-116096691I-61872J61872D01*
G01*
G37*
G36*
G01*
X62075421Y-116450245D02*
X61951677Y-116326501D01*
G75*
G02*
X61951677Y-116202757I61872J61872D01*
G01*
X62464329Y-115690105D01*
G75*
G02*
X62588073Y-115690105I61872J-61872D01*
G01*
X62711817Y-115813849D01*
G75*
G02*
X62711817Y-115937593I-61872J-61872D01*
G01*
X62199165Y-116450245D01*
G75*
G02*
X62075421Y-116450245I-61872J61872D01*
G01*
G37*
G36*
G01*
X62428974Y-116803798D02*
X62305230Y-116680054D01*
G75*
G02*
X62305230Y-116556310I61872J61872D01*
G01*
X62817882Y-116043658D01*
G75*
G02*
X62941626Y-116043658I61872J-61872D01*
G01*
X63065370Y-116167402D01*
G75*
G02*
X63065370Y-116291146I-61872J-61872D01*
G01*
X62552718Y-116803798D01*
G75*
G02*
X62428974Y-116803798I-61872J61872D01*
G01*
G37*
G36*
G01*
X62782528Y-117157352D02*
X62658784Y-117033608D01*
G75*
G02*
X62658784Y-116909864I61872J61872D01*
G01*
X63171436Y-116397212D01*
G75*
G02*
X63295180Y-116397212I61872J-61872D01*
G01*
X63418924Y-116520956D01*
G75*
G02*
X63418924Y-116644700I-61872J-61872D01*
G01*
X62906272Y-117157352D01*
G75*
G02*
X62782528Y-117157352I-61872J61872D01*
G01*
G37*
G36*
G01*
X63136081Y-117510905D02*
X63012337Y-117387161D01*
G75*
G02*
X63012337Y-117263417I61872J61872D01*
G01*
X63524989Y-116750765D01*
G75*
G02*
X63648733Y-116750765I61872J-61872D01*
G01*
X63772477Y-116874509D01*
G75*
G02*
X63772477Y-116998253I-61872J-61872D01*
G01*
X63259825Y-117510905D01*
G75*
G02*
X63136081Y-117510905I-61872J61872D01*
G01*
G37*
G36*
G01*
X64514940Y-117510905D02*
X64002287Y-116998253D01*
G75*
G02*
X64002287Y-116874509I61872J61872D01*
G01*
X64126031Y-116750765D01*
G75*
G02*
X64249775Y-116750765I61872J-61872D01*
G01*
X64762427Y-117263417D01*
G75*
G02*
X64762427Y-117387161I-61872J-61872D01*
G01*
X64638683Y-117510905D01*
G75*
G02*
X64514939Y-117510905I-61872J61872D01*
G01*
G37*
G36*
G01*
X64868493Y-117157352D02*
X64355840Y-116644700D01*
G75*
G02*
X64355840Y-116520956I61872J61872D01*
G01*
X64479584Y-116397212D01*
G75*
G02*
X64603328Y-116397212I61872J-61872D01*
G01*
X65115980Y-116909864D01*
G75*
G02*
X65115980Y-117033608I-61872J-61872D01*
G01*
X64992236Y-117157352D01*
G75*
G02*
X64868492Y-117157352I-61872J61872D01*
G01*
G37*
G36*
G01*
X65222047Y-116803798D02*
X64709394Y-116291146D01*
G75*
G02*
X64709394Y-116167402I61872J61872D01*
G01*
X64833138Y-116043658D01*
G75*
G02*
X64956882Y-116043658I61872J-61872D01*
G01*
X65469534Y-116556310D01*
G75*
G02*
X65469534Y-116680054I-61872J-61872D01*
G01*
X65345790Y-116803798D01*
G75*
G02*
X65222046Y-116803798I-61872J61872D01*
G01*
G37*
G36*
G01*
X65575600Y-116450245D02*
X65062947Y-115937593D01*
G75*
G02*
X65062947Y-115813849I61872J61872D01*
G01*
X65186691Y-115690105D01*
G75*
G02*
X65310435Y-115690105I61872J-61872D01*
G01*
X65823087Y-116202757D01*
G75*
G02*
X65823087Y-116326501I-61872J-61872D01*
G01*
X65699343Y-116450245D01*
G75*
G02*
X65575599Y-116450245I-61872J61872D01*
G01*
G37*
G36*
G01*
X65929153Y-116096691D02*
X65416500Y-115584039D01*
G75*
G02*
X65416500Y-115460295I61872J61872D01*
G01*
X65540244Y-115336551D01*
G75*
G02*
X65663988Y-115336551I61872J-61872D01*
G01*
X66176640Y-115849203D01*
G75*
G02*
X66176640Y-115972947I-61872J-61872D01*
G01*
X66052896Y-116096691D01*
G75*
G02*
X65929152Y-116096691I-61872J61872D01*
G01*
G37*
G36*
G01*
X66282707Y-115743138D02*
X65770054Y-115230486D01*
G75*
G02*
X65770054Y-115106742I61872J61872D01*
G01*
X65893798Y-114982998D01*
G75*
G02*
X66017542Y-114982998I61872J-61872D01*
G01*
X66530194Y-115495650D01*
G75*
G02*
X66530194Y-115619394I-61872J-61872D01*
G01*
X66406450Y-115743138D01*
G75*
G02*
X66282706Y-115743138I-61872J61872D01*
G01*
G37*
G36*
G01*
X66636260Y-115389585D02*
X66123607Y-114876933D01*
G75*
G02*
X66123607Y-114753189I61872J61872D01*
G01*
X66247351Y-114629445D01*
G75*
G02*
X66371095Y-114629445I61872J-61872D01*
G01*
X66883747Y-115142097D01*
G75*
G02*
X66883747Y-115265841I-61872J-61872D01*
G01*
X66760003Y-115389585D01*
G75*
G02*
X66636259Y-115389585I-61872J61872D01*
G01*
G37*
G36*
G01*
X66989813Y-115036031D02*
X66477160Y-114523379D01*
G75*
G02*
X66477160Y-114399635I61872J61872D01*
G01*
X66600904Y-114275891D01*
G75*
G02*
X66724648Y-114275891I61872J-61872D01*
G01*
X67237300Y-114788543D01*
G75*
G02*
X67237300Y-114912287I-61872J-61872D01*
G01*
X67113556Y-115036031D01*
G75*
G02*
X66989812Y-115036031I-61872J61872D01*
G01*
G37*
G36*
G01*
X67343367Y-114682478D02*
X66830714Y-114169826D01*
G75*
G02*
X66830714Y-114046082I61872J61872D01*
G01*
X66954458Y-113922338D01*
G75*
G02*
X67078202Y-113922338I61872J-61872D01*
G01*
X67590854Y-114434990D01*
G75*
G02*
X67590854Y-114558734I-61872J-61872D01*
G01*
X67467110Y-114682478D01*
G75*
G02*
X67343366Y-114682478I-61872J61872D01*
G01*
G37*
G36*
G01*
X67696920Y-114328925D02*
X67184267Y-113816273D01*
G75*
G02*
X67184267Y-113692529I61872J61872D01*
G01*
X67308011Y-113568785D01*
G75*
G02*
X67431755Y-113568785I61872J-61872D01*
G01*
X67944407Y-114081437D01*
G75*
G02*
X67944407Y-114205181I-61872J-61872D01*
G01*
X67820663Y-114328925D01*
G75*
G02*
X67696919Y-114328925I-61872J61872D01*
G01*
G37*
G36*
G01*
X68050474Y-113975371D02*
X67537821Y-113462719D01*
G75*
G02*
X67537821Y-113338975I61872J61872D01*
G01*
X67661565Y-113215231D01*
G75*
G02*
X67785309Y-113215231I61872J-61872D01*
G01*
X68297961Y-113727883D01*
G75*
G02*
X68297961Y-113851627I-61872J-61872D01*
G01*
X68174217Y-113975371D01*
G75*
G02*
X68050473Y-113975371I-61872J61872D01*
G01*
G37*
G36*
G01*
X68404027Y-113621818D02*
X67891374Y-113109166D01*
G75*
G02*
X67891374Y-112985422I61872J61872D01*
G01*
X68015118Y-112861678D01*
G75*
G02*
X68138862Y-112861678I61872J-61872D01*
G01*
X68651514Y-113374330D01*
G75*
G02*
X68651514Y-113498074I-61872J-61872D01*
G01*
X68527770Y-113621818D01*
G75*
G02*
X68404026Y-113621818I-61872J61872D01*
G01*
G37*
G36*
G01*
X68015118Y-112631868D02*
X67891374Y-112508124D01*
G75*
G02*
X67891374Y-112384380I61872J61872D01*
G01*
X68404026Y-111871728D01*
G75*
G02*
X68527770Y-111871728I61872J-61872D01*
G01*
X68651514Y-111995472D01*
G75*
G02*
X68651514Y-112119216I-61872J-61872D01*
G01*
X68138862Y-112631868D01*
G75*
G02*
X68015118Y-112631868I-61872J61872D01*
G01*
G37*
G36*
G01*
X67661565Y-112278315D02*
X67537821Y-112154571D01*
G75*
G02*
X67537821Y-112030827I61872J61872D01*
G01*
X68050473Y-111518175D01*
G75*
G02*
X68174217Y-111518175I61872J-61872D01*
G01*
X68297961Y-111641919D01*
G75*
G02*
X68297961Y-111765663I-61872J-61872D01*
G01*
X67785309Y-112278315D01*
G75*
G02*
X67661565Y-112278315I-61872J61872D01*
G01*
G37*
G36*
G01*
X67308011Y-111924761D02*
X67184267Y-111801017D01*
G75*
G02*
X67184267Y-111677273I61872J61872D01*
G01*
X67696919Y-111164621D01*
G75*
G02*
X67820663Y-111164621I61872J-61872D01*
G01*
X67944407Y-111288365D01*
G75*
G02*
X67944407Y-111412109I-61872J-61872D01*
G01*
X67431755Y-111924761D01*
G75*
G02*
X67308011Y-111924761I-61872J61872D01*
G01*
G37*
G36*
G01*
X66954458Y-111571208D02*
X66830714Y-111447464D01*
G75*
G02*
X66830714Y-111323720I61872J61872D01*
G01*
X67343366Y-110811068D01*
G75*
G02*
X67467110Y-110811068I61872J-61872D01*
G01*
X67590854Y-110934812D01*
G75*
G02*
X67590854Y-111058556I-61872J-61872D01*
G01*
X67078202Y-111571208D01*
G75*
G02*
X66954458Y-111571208I-61872J61872D01*
G01*
G37*
G36*
G01*
X66600904Y-111217655D02*
X66477160Y-111093911D01*
G75*
G02*
X66477160Y-110970167I61872J61872D01*
G01*
X66989812Y-110457515D01*
G75*
G02*
X67113556Y-110457515I61872J-61872D01*
G01*
X67237300Y-110581259D01*
G75*
G02*
X67237300Y-110705003I-61872J-61872D01*
G01*
X66724648Y-111217655D01*
G75*
G02*
X66600904Y-111217655I-61872J61872D01*
G01*
G37*
G36*
G01*
X66247351Y-110864101D02*
X66123607Y-110740357D01*
G75*
G02*
X66123607Y-110616613I61872J61872D01*
G01*
X66636259Y-110103961D01*
G75*
G02*
X66760003Y-110103961I61872J-61872D01*
G01*
X66883747Y-110227705D01*
G75*
G02*
X66883747Y-110351449I-61872J-61872D01*
G01*
X66371095Y-110864101D01*
G75*
G02*
X66247351Y-110864101I-61872J61872D01*
G01*
G37*
G36*
G01*
X65893798Y-110510548D02*
X65770054Y-110386804D01*
G75*
G02*
X65770054Y-110263060I61872J61872D01*
G01*
X66282706Y-109750408D01*
G75*
G02*
X66406450Y-109750408I61872J-61872D01*
G01*
X66530194Y-109874152D01*
G75*
G02*
X66530194Y-109997896I-61872J-61872D01*
G01*
X66017542Y-110510548D01*
G75*
G02*
X65893798Y-110510548I-61872J61872D01*
G01*
G37*
G36*
G01*
X65540244Y-110156995D02*
X65416500Y-110033251D01*
G75*
G02*
X65416500Y-109909507I61872J61872D01*
G01*
X65929152Y-109396855D01*
G75*
G02*
X66052896Y-109396855I61872J-61872D01*
G01*
X66176640Y-109520599D01*
G75*
G02*
X66176640Y-109644343I-61872J-61872D01*
G01*
X65663988Y-110156995D01*
G75*
G02*
X65540244Y-110156995I-61872J61872D01*
G01*
G37*
G36*
G01*
X65186691Y-109803441D02*
X65062947Y-109679697D01*
G75*
G02*
X65062947Y-109555953I61872J61872D01*
G01*
X65575599Y-109043301D01*
G75*
G02*
X65699343Y-109043301I61872J-61872D01*
G01*
X65823087Y-109167045D01*
G75*
G02*
X65823087Y-109290789I-61872J-61872D01*
G01*
X65310435Y-109803441D01*
G75*
G02*
X65186691Y-109803441I-61872J61872D01*
G01*
G37*
G36*
G01*
X64833138Y-109449888D02*
X64709394Y-109326144D01*
G75*
G02*
X64709394Y-109202400I61872J61872D01*
G01*
X65222046Y-108689748D01*
G75*
G02*
X65345790Y-108689748I61872J-61872D01*
G01*
X65469534Y-108813492D01*
G75*
G02*
X65469534Y-108937236I-61872J-61872D01*
G01*
X64956882Y-109449888D01*
G75*
G02*
X64833138Y-109449888I-61872J61872D01*
G01*
G37*
G36*
G01*
X64479584Y-109096334D02*
X64355840Y-108972590D01*
G75*
G02*
X64355840Y-108848846I61872J61872D01*
G01*
X64868492Y-108336194D01*
G75*
G02*
X64992236Y-108336194I61872J-61872D01*
G01*
X65115980Y-108459938D01*
G75*
G02*
X65115980Y-108583682I-61872J-61872D01*
G01*
X64603328Y-109096334D01*
G75*
G02*
X64479584Y-109096334I-61872J61872D01*
G01*
G37*
G36*
G01*
X64126031Y-108742781D02*
X64002287Y-108619037D01*
G75*
G02*
X64002287Y-108495293I61872J61872D01*
G01*
X64514939Y-107982641D01*
G75*
G02*
X64638683Y-107982641I61872J-61872D01*
G01*
X64762427Y-108106385D01*
G75*
G02*
X64762427Y-108230129I-61872J-61872D01*
G01*
X64249775Y-108742781D01*
G75*
G02*
X64126031Y-108742781I-61872J61872D01*
G01*
G37*
G36*
G01*
X63524990Y-108742781D02*
X63012337Y-108230129D01*
G75*
G02*
X63012337Y-108106385I61872J61872D01*
G01*
X63136081Y-107982641D01*
G75*
G02*
X63259825Y-107982641I61872J-61872D01*
G01*
X63772477Y-108495293D01*
G75*
G02*
X63772477Y-108619037I-61872J-61872D01*
G01*
X63648733Y-108742781D01*
G75*
G02*
X63524989Y-108742781I-61872J61872D01*
G01*
G37*
G36*
G01*
X63171437Y-109096334D02*
X62658784Y-108583682D01*
G75*
G02*
X62658784Y-108459938I61872J61872D01*
G01*
X62782528Y-108336194D01*
G75*
G02*
X62906272Y-108336194I61872J-61872D01*
G01*
X63418924Y-108848846D01*
G75*
G02*
X63418924Y-108972590I-61872J-61872D01*
G01*
X63295180Y-109096334D01*
G75*
G02*
X63171436Y-109096334I-61872J61872D01*
G01*
G37*
G36*
G01*
X62817883Y-109449888D02*
X62305230Y-108937236D01*
G75*
G02*
X62305230Y-108813492I61872J61872D01*
G01*
X62428974Y-108689748D01*
G75*
G02*
X62552718Y-108689748I61872J-61872D01*
G01*
X63065370Y-109202400D01*
G75*
G02*
X63065370Y-109326144I-61872J-61872D01*
G01*
X62941626Y-109449888D01*
G75*
G02*
X62817882Y-109449888I-61872J61872D01*
G01*
G37*
G36*
G01*
X62464330Y-109803441D02*
X61951677Y-109290789D01*
G75*
G02*
X61951677Y-109167045I61872J61872D01*
G01*
X62075421Y-109043301D01*
G75*
G02*
X62199165Y-109043301I61872J-61872D01*
G01*
X62711817Y-109555953D01*
G75*
G02*
X62711817Y-109679697I-61872J-61872D01*
G01*
X62588073Y-109803441D01*
G75*
G02*
X62464329Y-109803441I-61872J61872D01*
G01*
G37*
G36*
G01*
X62110777Y-110156995D02*
X61598124Y-109644343D01*
G75*
G02*
X61598124Y-109520599I61872J61872D01*
G01*
X61721868Y-109396855D01*
G75*
G02*
X61845612Y-109396855I61872J-61872D01*
G01*
X62358264Y-109909507D01*
G75*
G02*
X62358264Y-110033251I-61872J-61872D01*
G01*
X62234520Y-110156995D01*
G75*
G02*
X62110776Y-110156995I-61872J61872D01*
G01*
G37*
G36*
G01*
X61757223Y-110510548D02*
X61244570Y-109997896D01*
G75*
G02*
X61244570Y-109874152I61872J61872D01*
G01*
X61368314Y-109750408D01*
G75*
G02*
X61492058Y-109750408I61872J-61872D01*
G01*
X62004710Y-110263060D01*
G75*
G02*
X62004710Y-110386804I-61872J-61872D01*
G01*
X61880966Y-110510548D01*
G75*
G02*
X61757222Y-110510548I-61872J61872D01*
G01*
G37*
G36*
G01*
X61403670Y-110864101D02*
X60891017Y-110351449D01*
G75*
G02*
X60891017Y-110227705I61872J61872D01*
G01*
X61014761Y-110103961D01*
G75*
G02*
X61138505Y-110103961I61872J-61872D01*
G01*
X61651157Y-110616613D01*
G75*
G02*
X61651157Y-110740357I-61872J-61872D01*
G01*
X61527413Y-110864101D01*
G75*
G02*
X61403669Y-110864101I-61872J61872D01*
G01*
G37*
G36*
G01*
X61050117Y-111217655D02*
X60537464Y-110705003D01*
G75*
G02*
X60537464Y-110581259I61872J61872D01*
G01*
X60661208Y-110457515D01*
G75*
G02*
X60784952Y-110457515I61872J-61872D01*
G01*
X61297604Y-110970167D01*
G75*
G02*
X61297604Y-111093911I-61872J-61872D01*
G01*
X61173860Y-111217655D01*
G75*
G02*
X61050116Y-111217655I-61872J61872D01*
G01*
G37*
G36*
G01*
X60696563Y-111571208D02*
X60183910Y-111058556D01*
G75*
G02*
X60183910Y-110934812I61872J61872D01*
G01*
X60307654Y-110811068D01*
G75*
G02*
X60431398Y-110811068I61872J-61872D01*
G01*
X60944050Y-111323720D01*
G75*
G02*
X60944050Y-111447464I-61872J-61872D01*
G01*
X60820306Y-111571208D01*
G75*
G02*
X60696562Y-111571208I-61872J61872D01*
G01*
G37*
G36*
G01*
X60343010Y-111924761D02*
X59830357Y-111412109D01*
G75*
G02*
X59830357Y-111288365I61872J61872D01*
G01*
X59954101Y-111164621D01*
G75*
G02*
X60077845Y-111164621I61872J-61872D01*
G01*
X60590497Y-111677273D01*
G75*
G02*
X60590497Y-111801017I-61872J-61872D01*
G01*
X60466753Y-111924761D01*
G75*
G02*
X60343009Y-111924761I-61872J61872D01*
G01*
G37*
G36*
G01*
X59989456Y-112278315D02*
X59476803Y-111765663D01*
G75*
G02*
X59476803Y-111641919I61872J61872D01*
G01*
X59600547Y-111518175D01*
G75*
G02*
X59724291Y-111518175I61872J-61872D01*
G01*
X60236943Y-112030827D01*
G75*
G02*
X60236943Y-112154571I-61872J-61872D01*
G01*
X60113199Y-112278315D01*
G75*
G02*
X59989455Y-112278315I-61872J61872D01*
G01*
G37*
G36*
G01*
X59635903Y-112631868D02*
X59123250Y-112119216D01*
G75*
G02*
X59123250Y-111995472I61872J61872D01*
G01*
X59246994Y-111871728D01*
G75*
G02*
X59370738Y-111871728I61872J-61872D01*
G01*
X59883390Y-112384380D01*
G75*
G02*
X59883390Y-112508124I-61872J-61872D01*
G01*
X59759646Y-112631868D01*
G75*
G02*
X59635902Y-112631868I-61872J61872D01*
G01*
G37*
D18*
G36*
X63887382Y-116565150D02*
G01*
X60069005Y-112746773D01*
X63887382Y-108928396D01*
X67705759Y-112746773D01*
X63887382Y-116565150D01*
G37*
G36*
G01*
X77122001Y-111822611D02*
X77122001Y-112172611D01*
G75*
G02*
X76947001Y-112347611I-175000J0D01*
G01*
X75247001Y-112347611D01*
G75*
G02*
X75072001Y-112172611I0J175000D01*
G01*
X75072001Y-111822611D01*
G75*
G02*
X75247001Y-111647611I175000J0D01*
G01*
X76947001Y-111647611D01*
G75*
G02*
X77122001Y-111822611I0J-175000D01*
G01*
G37*
G36*
G01*
X77122001Y-110552611D02*
X77122001Y-110902611D01*
G75*
G02*
X76947001Y-111077611I-175000J0D01*
G01*
X75247001Y-111077611D01*
G75*
G02*
X75072001Y-110902611I0J175000D01*
G01*
X75072001Y-110552611D01*
G75*
G02*
X75247001Y-110377611I175000J0D01*
G01*
X76947001Y-110377611D01*
G75*
G02*
X77122001Y-110552611I0J-175000D01*
G01*
G37*
G36*
G01*
X77122001Y-109282611D02*
X77122001Y-109632611D01*
G75*
G02*
X76947001Y-109807611I-175000J0D01*
G01*
X75247001Y-109807611D01*
G75*
G02*
X75072001Y-109632611I0J175000D01*
G01*
X75072001Y-109282611D01*
G75*
G02*
X75247001Y-109107611I175000J0D01*
G01*
X76947001Y-109107611D01*
G75*
G02*
X77122001Y-109282611I0J-175000D01*
G01*
G37*
G36*
G01*
X77122001Y-108012611D02*
X77122001Y-108362611D01*
G75*
G02*
X76947001Y-108537611I-175000J0D01*
G01*
X75247001Y-108537611D01*
G75*
G02*
X75072001Y-108362611I0J175000D01*
G01*
X75072001Y-108012611D01*
G75*
G02*
X75247001Y-107837611I175000J0D01*
G01*
X76947001Y-107837611D01*
G75*
G02*
X77122001Y-108012611I0J-175000D01*
G01*
G37*
G36*
G01*
X72172001Y-108012611D02*
X72172001Y-108362611D01*
G75*
G02*
X71997001Y-108537611I-175000J0D01*
G01*
X70297001Y-108537611D01*
G75*
G02*
X70122001Y-108362611I0J175000D01*
G01*
X70122001Y-108012611D01*
G75*
G02*
X70297001Y-107837611I175000J0D01*
G01*
X71997001Y-107837611D01*
G75*
G02*
X72172001Y-108012611I0J-175000D01*
G01*
G37*
G36*
G01*
X72172001Y-109282611D02*
X72172001Y-109632611D01*
G75*
G02*
X71997001Y-109807611I-175000J0D01*
G01*
X70297001Y-109807611D01*
G75*
G02*
X70122001Y-109632611I0J175000D01*
G01*
X70122001Y-109282611D01*
G75*
G02*
X70297001Y-109107611I175000J0D01*
G01*
X71997001Y-109107611D01*
G75*
G02*
X72172001Y-109282611I0J-175000D01*
G01*
G37*
G36*
G01*
X72172001Y-110552611D02*
X72172001Y-110902611D01*
G75*
G02*
X71997001Y-111077611I-175000J0D01*
G01*
X70297001Y-111077611D01*
G75*
G02*
X70122001Y-110902611I0J175000D01*
G01*
X70122001Y-110552611D01*
G75*
G02*
X70297001Y-110377611I175000J0D01*
G01*
X71997001Y-110377611D01*
G75*
G02*
X72172001Y-110552611I0J-175000D01*
G01*
G37*
G36*
G01*
X72172001Y-111822611D02*
X72172001Y-112172611D01*
G75*
G02*
X71997001Y-112347611I-175000J0D01*
G01*
X70297001Y-112347611D01*
G75*
G02*
X70122001Y-112172611I0J175000D01*
G01*
X70122001Y-111822611D01*
G75*
G02*
X70297001Y-111647611I175000J0D01*
G01*
X71997001Y-111647611D01*
G75*
G02*
X72172001Y-111822611I0J-175000D01*
G01*
G37*
G36*
G01*
X89982401Y-105602011D02*
X90332401Y-105602011D01*
G75*
G02*
X90507401Y-105777011I0J-175000D01*
G01*
X90507401Y-107477011D01*
G75*
G02*
X90332401Y-107652011I-175000J0D01*
G01*
X89982401Y-107652011D01*
G75*
G02*
X89807401Y-107477011I0J175000D01*
G01*
X89807401Y-105777011D01*
G75*
G02*
X89982401Y-105602011I175000J0D01*
G01*
G37*
G36*
G01*
X88712401Y-105602011D02*
X89062401Y-105602011D01*
G75*
G02*
X89237401Y-105777011I0J-175000D01*
G01*
X89237401Y-107477011D01*
G75*
G02*
X89062401Y-107652011I-175000J0D01*
G01*
X88712401Y-107652011D01*
G75*
G02*
X88537401Y-107477011I0J175000D01*
G01*
X88537401Y-105777011D01*
G75*
G02*
X88712401Y-105602011I175000J0D01*
G01*
G37*
G36*
G01*
X87442401Y-105602011D02*
X87792401Y-105602011D01*
G75*
G02*
X87967401Y-105777011I0J-175000D01*
G01*
X87967401Y-107477011D01*
G75*
G02*
X87792401Y-107652011I-175000J0D01*
G01*
X87442401Y-107652011D01*
G75*
G02*
X87267401Y-107477011I0J175000D01*
G01*
X87267401Y-105777011D01*
G75*
G02*
X87442401Y-105602011I175000J0D01*
G01*
G37*
G36*
G01*
X86172401Y-105602011D02*
X86522401Y-105602011D01*
G75*
G02*
X86697401Y-105777011I0J-175000D01*
G01*
X86697401Y-107477011D01*
G75*
G02*
X86522401Y-107652011I-175000J0D01*
G01*
X86172401Y-107652011D01*
G75*
G02*
X85997401Y-107477011I0J175000D01*
G01*
X85997401Y-105777011D01*
G75*
G02*
X86172401Y-105602011I175000J0D01*
G01*
G37*
G36*
G01*
X84902401Y-105602011D02*
X85252401Y-105602011D01*
G75*
G02*
X85427401Y-105777011I0J-175000D01*
G01*
X85427401Y-107477011D01*
G75*
G02*
X85252401Y-107652011I-175000J0D01*
G01*
X84902401Y-107652011D01*
G75*
G02*
X84727401Y-107477011I0J175000D01*
G01*
X84727401Y-105777011D01*
G75*
G02*
X84902401Y-105602011I175000J0D01*
G01*
G37*
G36*
G01*
X83632401Y-105602011D02*
X83982401Y-105602011D01*
G75*
G02*
X84157401Y-105777011I0J-175000D01*
G01*
X84157401Y-107477011D01*
G75*
G02*
X83982401Y-107652011I-175000J0D01*
G01*
X83632401Y-107652011D01*
G75*
G02*
X83457401Y-107477011I0J175000D01*
G01*
X83457401Y-105777011D01*
G75*
G02*
X83632401Y-105602011I175000J0D01*
G01*
G37*
G36*
G01*
X82362401Y-105602011D02*
X82712401Y-105602011D01*
G75*
G02*
X82887401Y-105777011I0J-175000D01*
G01*
X82887401Y-107477011D01*
G75*
G02*
X82712401Y-107652011I-175000J0D01*
G01*
X82362401Y-107652011D01*
G75*
G02*
X82187401Y-107477011I0J175000D01*
G01*
X82187401Y-105777011D01*
G75*
G02*
X82362401Y-105602011I175000J0D01*
G01*
G37*
G36*
G01*
X81092401Y-105602011D02*
X81442401Y-105602011D01*
G75*
G02*
X81617401Y-105777011I0J-175000D01*
G01*
X81617401Y-107477011D01*
G75*
G02*
X81442401Y-107652011I-175000J0D01*
G01*
X81092401Y-107652011D01*
G75*
G02*
X80917401Y-107477011I0J175000D01*
G01*
X80917401Y-105777011D01*
G75*
G02*
X81092401Y-105602011I175000J0D01*
G01*
G37*
G36*
G01*
X81092401Y-110552011D02*
X81442401Y-110552011D01*
G75*
G02*
X81617401Y-110727011I0J-175000D01*
G01*
X81617401Y-112427011D01*
G75*
G02*
X81442401Y-112602011I-175000J0D01*
G01*
X81092401Y-112602011D01*
G75*
G02*
X80917401Y-112427011I0J175000D01*
G01*
X80917401Y-110727011D01*
G75*
G02*
X81092401Y-110552011I175000J0D01*
G01*
G37*
G36*
G01*
X82362401Y-110552011D02*
X82712401Y-110552011D01*
G75*
G02*
X82887401Y-110727011I0J-175000D01*
G01*
X82887401Y-112427011D01*
G75*
G02*
X82712401Y-112602011I-175000J0D01*
G01*
X82362401Y-112602011D01*
G75*
G02*
X82187401Y-112427011I0J175000D01*
G01*
X82187401Y-110727011D01*
G75*
G02*
X82362401Y-110552011I175000J0D01*
G01*
G37*
G36*
G01*
X83632401Y-110552011D02*
X83982401Y-110552011D01*
G75*
G02*
X84157401Y-110727011I0J-175000D01*
G01*
X84157401Y-112427011D01*
G75*
G02*
X83982401Y-112602011I-175000J0D01*
G01*
X83632401Y-112602011D01*
G75*
G02*
X83457401Y-112427011I0J175000D01*
G01*
X83457401Y-110727011D01*
G75*
G02*
X83632401Y-110552011I175000J0D01*
G01*
G37*
G36*
G01*
X84902401Y-110552011D02*
X85252401Y-110552011D01*
G75*
G02*
X85427401Y-110727011I0J-175000D01*
G01*
X85427401Y-112427011D01*
G75*
G02*
X85252401Y-112602011I-175000J0D01*
G01*
X84902401Y-112602011D01*
G75*
G02*
X84727401Y-112427011I0J175000D01*
G01*
X84727401Y-110727011D01*
G75*
G02*
X84902401Y-110552011I175000J0D01*
G01*
G37*
G36*
G01*
X86172401Y-110552011D02*
X86522401Y-110552011D01*
G75*
G02*
X86697401Y-110727011I0J-175000D01*
G01*
X86697401Y-112427011D01*
G75*
G02*
X86522401Y-112602011I-175000J0D01*
G01*
X86172401Y-112602011D01*
G75*
G02*
X85997401Y-112427011I0J175000D01*
G01*
X85997401Y-110727011D01*
G75*
G02*
X86172401Y-110552011I175000J0D01*
G01*
G37*
G36*
G01*
X87442401Y-110552011D02*
X87792401Y-110552011D01*
G75*
G02*
X87967401Y-110727011I0J-175000D01*
G01*
X87967401Y-112427011D01*
G75*
G02*
X87792401Y-112602011I-175000J0D01*
G01*
X87442401Y-112602011D01*
G75*
G02*
X87267401Y-112427011I0J175000D01*
G01*
X87267401Y-110727011D01*
G75*
G02*
X87442401Y-110552011I175000J0D01*
G01*
G37*
G36*
G01*
X88712401Y-110552011D02*
X89062401Y-110552011D01*
G75*
G02*
X89237401Y-110727011I0J-175000D01*
G01*
X89237401Y-112427011D01*
G75*
G02*
X89062401Y-112602011I-175000J0D01*
G01*
X88712401Y-112602011D01*
G75*
G02*
X88537401Y-112427011I0J175000D01*
G01*
X88537401Y-110727011D01*
G75*
G02*
X88712401Y-110552011I175000J0D01*
G01*
G37*
G36*
G01*
X89982401Y-110552011D02*
X90332401Y-110552011D01*
G75*
G02*
X90507401Y-110727011I0J-175000D01*
G01*
X90507401Y-112427011D01*
G75*
G02*
X90332401Y-112602011I-175000J0D01*
G01*
X89982401Y-112602011D01*
G75*
G02*
X89807401Y-112427011I0J175000D01*
G01*
X89807401Y-110727011D01*
G75*
G02*
X89982401Y-110552011I175000J0D01*
G01*
G37*
D16*
X54826001Y-120786011D03*
D17*
X57366001Y-120786011D03*
X59906001Y-120786011D03*
X62446001Y-120786011D03*
X64986001Y-120786011D03*
X67526001Y-120786011D03*
X70066001Y-120786011D03*
X72606001Y-120786011D03*
X75146001Y-120786011D03*
X77686001Y-120786011D03*
X80226001Y-120786011D03*
X82766001Y-120786011D03*
X85306001Y-120786011D03*
X87846001Y-120786011D03*
X90386001Y-120786011D03*
X92926001Y-120786011D03*
X95466001Y-120786011D03*
X98006001Y-120786011D03*
X100546001Y-120786011D03*
X103086001Y-120786011D03*
D16*
X98768001Y-102244011D03*
D17*
X101308001Y-102244011D03*
X103848001Y-102244011D03*
D12*
X51778001Y-88230006D03*
X51778001Y-78730006D03*
G36*
G01*
X73093401Y-88754706D02*
X73093401Y-89279706D01*
G75*
G02*
X72830901Y-89542206I-262500J0D01*
G01*
X72205901Y-89542206D01*
G75*
G02*
X71943401Y-89279706I0J262500D01*
G01*
X71943401Y-88754706D01*
G75*
G02*
X72205901Y-88492206I262500J0D01*
G01*
X72830901Y-88492206D01*
G75*
G02*
X73093401Y-88754706I0J-262500D01*
G01*
G37*
G36*
G01*
X74843401Y-88754706D02*
X74843401Y-89279706D01*
G75*
G02*
X74580901Y-89542206I-262500J0D01*
G01*
X73955901Y-89542206D01*
G75*
G02*
X73693401Y-89279706I0J262500D01*
G01*
X73693401Y-88754706D01*
G75*
G02*
X73955901Y-88492206I262500J0D01*
G01*
X74580901Y-88492206D01*
G75*
G02*
X74843401Y-88754706I0J-262500D01*
G01*
G37*
G36*
G01*
X93645701Y-86860406D02*
X93120701Y-86860406D01*
G75*
G02*
X92858201Y-86597906I0J262500D01*
G01*
X92858201Y-85972906D01*
G75*
G02*
X93120701Y-85710406I262500J0D01*
G01*
X93645701Y-85710406D01*
G75*
G02*
X93908201Y-85972906I0J-262500D01*
G01*
X93908201Y-86597906D01*
G75*
G02*
X93645701Y-86860406I-262500J0D01*
G01*
G37*
G36*
G01*
X93645701Y-85110406D02*
X93120701Y-85110406D01*
G75*
G02*
X92858201Y-84847906I0J262500D01*
G01*
X92858201Y-84222906D01*
G75*
G02*
X93120701Y-83960406I262500J0D01*
G01*
X93645701Y-83960406D01*
G75*
G02*
X93908201Y-84222906I0J-262500D01*
G01*
X93908201Y-84847906D01*
G75*
G02*
X93645701Y-85110406I-262500J0D01*
G01*
G37*
G36*
G01*
X86929401Y-78941906D02*
X86929401Y-78416906D01*
G75*
G02*
X87191901Y-78154406I262500J0D01*
G01*
X87816901Y-78154406D01*
G75*
G02*
X88079401Y-78416906I0J-262500D01*
G01*
X88079401Y-78941906D01*
G75*
G02*
X87816901Y-79204406I-262500J0D01*
G01*
X87191901Y-79204406D01*
G75*
G02*
X86929401Y-78941906I0J262500D01*
G01*
G37*
G36*
G01*
X88679401Y-78941906D02*
X88679401Y-78416906D01*
G75*
G02*
X88941901Y-78154406I262500J0D01*
G01*
X89566901Y-78154406D01*
G75*
G02*
X89829401Y-78416906I0J-262500D01*
G01*
X89829401Y-78941906D01*
G75*
G02*
X89566901Y-79204406I-262500J0D01*
G01*
X88941901Y-79204406D01*
G75*
G02*
X88679401Y-78941906I0J262500D01*
G01*
G37*
G36*
G01*
X96934863Y-83453606D02*
X95978339Y-83453606D01*
G75*
G02*
X95706601Y-83181868I0J271738D01*
G01*
X95706601Y-82475344D01*
G75*
G02*
X95978339Y-82203606I271738J0D01*
G01*
X96934863Y-82203606D01*
G75*
G02*
X97206601Y-82475344I0J-271738D01*
G01*
X97206601Y-83181868D01*
G75*
G02*
X96934863Y-83453606I-271738J0D01*
G01*
G37*
G36*
G01*
X96934863Y-81403606D02*
X95978339Y-81403606D01*
G75*
G02*
X95706601Y-81131868I0J271738D01*
G01*
X95706601Y-80425344D01*
G75*
G02*
X95978339Y-80153606I271738J0D01*
G01*
X96934863Y-80153606D01*
G75*
G02*
X97206601Y-80425344I0J-271738D01*
G01*
X97206601Y-81131868D01*
G75*
G02*
X96934863Y-81403606I-271738J0D01*
G01*
G37*
G36*
G01*
X91809401Y-80376868D02*
X91809401Y-79420344D01*
G75*
G02*
X92081139Y-79148606I271738J0D01*
G01*
X92787663Y-79148606D01*
G75*
G02*
X93059401Y-79420344I0J-271738D01*
G01*
X93059401Y-80376868D01*
G75*
G02*
X92787663Y-80648606I-271738J0D01*
G01*
X92081139Y-80648606D01*
G75*
G02*
X91809401Y-80376868I0J271738D01*
G01*
G37*
G36*
G01*
X93859401Y-80376868D02*
X93859401Y-79420344D01*
G75*
G02*
X94131139Y-79148606I271738J0D01*
G01*
X94837663Y-79148606D01*
G75*
G02*
X95109401Y-79420344I0J-271738D01*
G01*
X95109401Y-80376868D01*
G75*
G02*
X94837663Y-80648606I-271738J0D01*
G01*
X94131139Y-80648606D01*
G75*
G02*
X93859401Y-80376868I0J271738D01*
G01*
G37*
G36*
G01*
X94792001Y-91997506D02*
X94792001Y-91472506D01*
G75*
G02*
X95054501Y-91210006I262500J0D01*
G01*
X95679501Y-91210006D01*
G75*
G02*
X95942001Y-91472506I0J-262500D01*
G01*
X95942001Y-91997506D01*
G75*
G02*
X95679501Y-92260006I-262500J0D01*
G01*
X95054501Y-92260006D01*
G75*
G02*
X94792001Y-91997506I0J262500D01*
G01*
G37*
G36*
G01*
X96542001Y-91997506D02*
X96542001Y-91472506D01*
G75*
G02*
X96804501Y-91210006I262500J0D01*
G01*
X97429501Y-91210006D01*
G75*
G02*
X97692001Y-91472506I0J-262500D01*
G01*
X97692001Y-91997506D01*
G75*
G02*
X97429501Y-92260006I-262500J0D01*
G01*
X96804501Y-92260006D01*
G75*
G02*
X96542001Y-91997506I0J262500D01*
G01*
G37*
G36*
G01*
X101450401Y-91663144D02*
X101450401Y-92619668D01*
G75*
G02*
X101178663Y-92891406I-271738J0D01*
G01*
X100472139Y-92891406D01*
G75*
G02*
X100200401Y-92619668I0J271738D01*
G01*
X100200401Y-91663144D01*
G75*
G02*
X100472139Y-91391406I271738J0D01*
G01*
X101178663Y-91391406D01*
G75*
G02*
X101450401Y-91663144I0J-271738D01*
G01*
G37*
G36*
G01*
X99400401Y-91663144D02*
X99400401Y-92619668D01*
G75*
G02*
X99128663Y-92891406I-271738J0D01*
G01*
X98422139Y-92891406D01*
G75*
G02*
X98150401Y-92619668I0J271738D01*
G01*
X98150401Y-91663144D01*
G75*
G02*
X98422139Y-91391406I271738J0D01*
G01*
X99128663Y-91391406D01*
G75*
G02*
X99400401Y-91663144I0J-271738D01*
G01*
G37*
D13*
X104364601Y-89197006D03*
D14*
X100714601Y-87767006D03*
D13*
X104364601Y-80557006D03*
D14*
X100714601Y-81987006D03*
D15*
X100184601Y-80557006D03*
X100184601Y-89197006D03*
D16*
X60414001Y-78654006D03*
D17*
X62954001Y-78654006D03*
X65494001Y-78654006D03*
X68034001Y-78654006D03*
X70574001Y-78654006D03*
X73114001Y-78654006D03*
X75654001Y-78654006D03*
X78194001Y-78654006D03*
X80734001Y-78654006D03*
X83274001Y-78654006D03*
G36*
G01*
X94905001Y-88847906D02*
X94905001Y-88322906D01*
G75*
G02*
X95167501Y-88060406I262500J0D01*
G01*
X95792501Y-88060406D01*
G75*
G02*
X96055001Y-88322906I0J-262500D01*
G01*
X96055001Y-88847906D01*
G75*
G02*
X95792501Y-89110406I-262500J0D01*
G01*
X95167501Y-89110406D01*
G75*
G02*
X94905001Y-88847906I0J262500D01*
G01*
G37*
G36*
G01*
X96655001Y-88847906D02*
X96655001Y-88322906D01*
G75*
G02*
X96917501Y-88060406I262500J0D01*
G01*
X97542501Y-88060406D01*
G75*
G02*
X97805001Y-88322906I0J-262500D01*
G01*
X97805001Y-88847906D01*
G75*
G02*
X97542501Y-89110406I-262500J0D01*
G01*
X96917501Y-89110406D01*
G75*
G02*
X96655001Y-88847906I0J262500D01*
G01*
G37*
G36*
G01*
X104002601Y-83446106D02*
X104002601Y-83971106D01*
G75*
G02*
X103740101Y-84233606I-262500J0D01*
G01*
X103115101Y-84233606D01*
G75*
G02*
X102852601Y-83971106I0J262500D01*
G01*
X102852601Y-83446106D01*
G75*
G02*
X103115101Y-83183606I262500J0D01*
G01*
X103740101Y-83183606D01*
G75*
G02*
X104002601Y-83446106I0J-262500D01*
G01*
G37*
G36*
G01*
X102252601Y-83446106D02*
X102252601Y-83971106D01*
G75*
G02*
X101990101Y-84233606I-262500J0D01*
G01*
X101365101Y-84233606D01*
G75*
G02*
X101102601Y-83971106I0J262500D01*
G01*
X101102601Y-83446106D01*
G75*
G02*
X101365101Y-83183606I262500J0D01*
G01*
X101990101Y-83183606D01*
G75*
G02*
X102252601Y-83446106I0J-262500D01*
G01*
G37*
G36*
G01*
X104002601Y-86316306D02*
X104002601Y-86841306D01*
G75*
G02*
X103740101Y-87103806I-262500J0D01*
G01*
X103115101Y-87103806D01*
G75*
G02*
X102852601Y-86841306I0J262500D01*
G01*
X102852601Y-86316306D01*
G75*
G02*
X103115101Y-86053806I262500J0D01*
G01*
X103740101Y-86053806D01*
G75*
G02*
X104002601Y-86316306I0J-262500D01*
G01*
G37*
G36*
G01*
X102252601Y-86316306D02*
X102252601Y-86841306D01*
G75*
G02*
X101990101Y-87103806I-262500J0D01*
G01*
X101365101Y-87103806D01*
G75*
G02*
X101102601Y-86841306I0J262500D01*
G01*
X101102601Y-86316306D01*
G75*
G02*
X101365101Y-86053806I262500J0D01*
G01*
X101990101Y-86053806D01*
G75*
G02*
X102252601Y-86316306I0J-262500D01*
G01*
G37*
G36*
G01*
X59246994Y-89015813D02*
X59123250Y-88892069D01*
G75*
G02*
X59123250Y-88768325I61872J61872D01*
G01*
X59635902Y-88255673D01*
G75*
G02*
X59759646Y-88255673I61872J-61872D01*
G01*
X59883390Y-88379417D01*
G75*
G02*
X59883390Y-88503161I-61872J-61872D01*
G01*
X59370738Y-89015813D01*
G75*
G02*
X59246994Y-89015813I-61872J61872D01*
G01*
G37*
G36*
G01*
X59600547Y-89369366D02*
X59476803Y-89245622D01*
G75*
G02*
X59476803Y-89121878I61872J61872D01*
G01*
X59989455Y-88609226D01*
G75*
G02*
X60113199Y-88609226I61872J-61872D01*
G01*
X60236943Y-88732970D01*
G75*
G02*
X60236943Y-88856714I-61872J-61872D01*
G01*
X59724291Y-89369366D01*
G75*
G02*
X59600547Y-89369366I-61872J61872D01*
G01*
G37*
G36*
G01*
X59954101Y-89722920D02*
X59830357Y-89599176D01*
G75*
G02*
X59830357Y-89475432I61872J61872D01*
G01*
X60343009Y-88962780D01*
G75*
G02*
X60466753Y-88962780I61872J-61872D01*
G01*
X60590497Y-89086524D01*
G75*
G02*
X60590497Y-89210268I-61872J-61872D01*
G01*
X60077845Y-89722920D01*
G75*
G02*
X59954101Y-89722920I-61872J61872D01*
G01*
G37*
G36*
G01*
X60307654Y-90076473D02*
X60183910Y-89952729D01*
G75*
G02*
X60183910Y-89828985I61872J61872D01*
G01*
X60696562Y-89316333D01*
G75*
G02*
X60820306Y-89316333I61872J-61872D01*
G01*
X60944050Y-89440077D01*
G75*
G02*
X60944050Y-89563821I-61872J-61872D01*
G01*
X60431398Y-90076473D01*
G75*
G02*
X60307654Y-90076473I-61872J61872D01*
G01*
G37*
G36*
G01*
X60661208Y-90430026D02*
X60537464Y-90306282D01*
G75*
G02*
X60537464Y-90182538I61872J61872D01*
G01*
X61050116Y-89669886D01*
G75*
G02*
X61173860Y-89669886I61872J-61872D01*
G01*
X61297604Y-89793630D01*
G75*
G02*
X61297604Y-89917374I-61872J-61872D01*
G01*
X60784952Y-90430026D01*
G75*
G02*
X60661208Y-90430026I-61872J61872D01*
G01*
G37*
G36*
G01*
X61014761Y-90783580D02*
X60891017Y-90659836D01*
G75*
G02*
X60891017Y-90536092I61872J61872D01*
G01*
X61403669Y-90023440D01*
G75*
G02*
X61527413Y-90023440I61872J-61872D01*
G01*
X61651157Y-90147184D01*
G75*
G02*
X61651157Y-90270928I-61872J-61872D01*
G01*
X61138505Y-90783580D01*
G75*
G02*
X61014761Y-90783580I-61872J61872D01*
G01*
G37*
G36*
G01*
X61368314Y-91137133D02*
X61244570Y-91013389D01*
G75*
G02*
X61244570Y-90889645I61872J61872D01*
G01*
X61757222Y-90376993D01*
G75*
G02*
X61880966Y-90376993I61872J-61872D01*
G01*
X62004710Y-90500737D01*
G75*
G02*
X62004710Y-90624481I-61872J-61872D01*
G01*
X61492058Y-91137133D01*
G75*
G02*
X61368314Y-91137133I-61872J61872D01*
G01*
G37*
G36*
G01*
X61721868Y-91490686D02*
X61598124Y-91366942D01*
G75*
G02*
X61598124Y-91243198I61872J61872D01*
G01*
X62110776Y-90730546D01*
G75*
G02*
X62234520Y-90730546I61872J-61872D01*
G01*
X62358264Y-90854290D01*
G75*
G02*
X62358264Y-90978034I-61872J-61872D01*
G01*
X61845612Y-91490686D01*
G75*
G02*
X61721868Y-91490686I-61872J61872D01*
G01*
G37*
G36*
G01*
X62075421Y-91844240D02*
X61951677Y-91720496D01*
G75*
G02*
X61951677Y-91596752I61872J61872D01*
G01*
X62464329Y-91084100D01*
G75*
G02*
X62588073Y-91084100I61872J-61872D01*
G01*
X62711817Y-91207844D01*
G75*
G02*
X62711817Y-91331588I-61872J-61872D01*
G01*
X62199165Y-91844240D01*
G75*
G02*
X62075421Y-91844240I-61872J61872D01*
G01*
G37*
G36*
G01*
X62428974Y-92197793D02*
X62305230Y-92074049D01*
G75*
G02*
X62305230Y-91950305I61872J61872D01*
G01*
X62817882Y-91437653D01*
G75*
G02*
X62941626Y-91437653I61872J-61872D01*
G01*
X63065370Y-91561397D01*
G75*
G02*
X63065370Y-91685141I-61872J-61872D01*
G01*
X62552718Y-92197793D01*
G75*
G02*
X62428974Y-92197793I-61872J61872D01*
G01*
G37*
G36*
G01*
X62782528Y-92551347D02*
X62658784Y-92427603D01*
G75*
G02*
X62658784Y-92303859I61872J61872D01*
G01*
X63171436Y-91791207D01*
G75*
G02*
X63295180Y-91791207I61872J-61872D01*
G01*
X63418924Y-91914951D01*
G75*
G02*
X63418924Y-92038695I-61872J-61872D01*
G01*
X62906272Y-92551347D01*
G75*
G02*
X62782528Y-92551347I-61872J61872D01*
G01*
G37*
G36*
G01*
X63136081Y-92904900D02*
X63012337Y-92781156D01*
G75*
G02*
X63012337Y-92657412I61872J61872D01*
G01*
X63524989Y-92144760D01*
G75*
G02*
X63648733Y-92144760I61872J-61872D01*
G01*
X63772477Y-92268504D01*
G75*
G02*
X63772477Y-92392248I-61872J-61872D01*
G01*
X63259825Y-92904900D01*
G75*
G02*
X63136081Y-92904900I-61872J61872D01*
G01*
G37*
G36*
G01*
X64514940Y-92904900D02*
X64002287Y-92392248D01*
G75*
G02*
X64002287Y-92268504I61872J61872D01*
G01*
X64126031Y-92144760D01*
G75*
G02*
X64249775Y-92144760I61872J-61872D01*
G01*
X64762427Y-92657412D01*
G75*
G02*
X64762427Y-92781156I-61872J-61872D01*
G01*
X64638683Y-92904900D01*
G75*
G02*
X64514939Y-92904900I-61872J61872D01*
G01*
G37*
G36*
G01*
X64868493Y-92551347D02*
X64355840Y-92038695D01*
G75*
G02*
X64355840Y-91914951I61872J61872D01*
G01*
X64479584Y-91791207D01*
G75*
G02*
X64603328Y-91791207I61872J-61872D01*
G01*
X65115980Y-92303859D01*
G75*
G02*
X65115980Y-92427603I-61872J-61872D01*
G01*
X64992236Y-92551347D01*
G75*
G02*
X64868492Y-92551347I-61872J61872D01*
G01*
G37*
G36*
G01*
X65222047Y-92197793D02*
X64709394Y-91685141D01*
G75*
G02*
X64709394Y-91561397I61872J61872D01*
G01*
X64833138Y-91437653D01*
G75*
G02*
X64956882Y-91437653I61872J-61872D01*
G01*
X65469534Y-91950305D01*
G75*
G02*
X65469534Y-92074049I-61872J-61872D01*
G01*
X65345790Y-92197793D01*
G75*
G02*
X65222046Y-92197793I-61872J61872D01*
G01*
G37*
G36*
G01*
X65575600Y-91844240D02*
X65062947Y-91331588D01*
G75*
G02*
X65062947Y-91207844I61872J61872D01*
G01*
X65186691Y-91084100D01*
G75*
G02*
X65310435Y-91084100I61872J-61872D01*
G01*
X65823087Y-91596752D01*
G75*
G02*
X65823087Y-91720496I-61872J-61872D01*
G01*
X65699343Y-91844240D01*
G75*
G02*
X65575599Y-91844240I-61872J61872D01*
G01*
G37*
G36*
G01*
X65929153Y-91490686D02*
X65416500Y-90978034D01*
G75*
G02*
X65416500Y-90854290I61872J61872D01*
G01*
X65540244Y-90730546D01*
G75*
G02*
X65663988Y-90730546I61872J-61872D01*
G01*
X66176640Y-91243198D01*
G75*
G02*
X66176640Y-91366942I-61872J-61872D01*
G01*
X66052896Y-91490686D01*
G75*
G02*
X65929152Y-91490686I-61872J61872D01*
G01*
G37*
G36*
G01*
X66282707Y-91137133D02*
X65770054Y-90624481D01*
G75*
G02*
X65770054Y-90500737I61872J61872D01*
G01*
X65893798Y-90376993D01*
G75*
G02*
X66017542Y-90376993I61872J-61872D01*
G01*
X66530194Y-90889645D01*
G75*
G02*
X66530194Y-91013389I-61872J-61872D01*
G01*
X66406450Y-91137133D01*
G75*
G02*
X66282706Y-91137133I-61872J61872D01*
G01*
G37*
G36*
G01*
X66636260Y-90783580D02*
X66123607Y-90270928D01*
G75*
G02*
X66123607Y-90147184I61872J61872D01*
G01*
X66247351Y-90023440D01*
G75*
G02*
X66371095Y-90023440I61872J-61872D01*
G01*
X66883747Y-90536092D01*
G75*
G02*
X66883747Y-90659836I-61872J-61872D01*
G01*
X66760003Y-90783580D01*
G75*
G02*
X66636259Y-90783580I-61872J61872D01*
G01*
G37*
G36*
G01*
X66989813Y-90430026D02*
X66477160Y-89917374D01*
G75*
G02*
X66477160Y-89793630I61872J61872D01*
G01*
X66600904Y-89669886D01*
G75*
G02*
X66724648Y-89669886I61872J-61872D01*
G01*
X67237300Y-90182538D01*
G75*
G02*
X67237300Y-90306282I-61872J-61872D01*
G01*
X67113556Y-90430026D01*
G75*
G02*
X66989812Y-90430026I-61872J61872D01*
G01*
G37*
G36*
G01*
X67343367Y-90076473D02*
X66830714Y-89563821D01*
G75*
G02*
X66830714Y-89440077I61872J61872D01*
G01*
X66954458Y-89316333D01*
G75*
G02*
X67078202Y-89316333I61872J-61872D01*
G01*
X67590854Y-89828985D01*
G75*
G02*
X67590854Y-89952729I-61872J-61872D01*
G01*
X67467110Y-90076473D01*
G75*
G02*
X67343366Y-90076473I-61872J61872D01*
G01*
G37*
G36*
G01*
X67696920Y-89722920D02*
X67184267Y-89210268D01*
G75*
G02*
X67184267Y-89086524I61872J61872D01*
G01*
X67308011Y-88962780D01*
G75*
G02*
X67431755Y-88962780I61872J-61872D01*
G01*
X67944407Y-89475432D01*
G75*
G02*
X67944407Y-89599176I-61872J-61872D01*
G01*
X67820663Y-89722920D01*
G75*
G02*
X67696919Y-89722920I-61872J61872D01*
G01*
G37*
G36*
G01*
X68050474Y-89369366D02*
X67537821Y-88856714D01*
G75*
G02*
X67537821Y-88732970I61872J61872D01*
G01*
X67661565Y-88609226D01*
G75*
G02*
X67785309Y-88609226I61872J-61872D01*
G01*
X68297961Y-89121878D01*
G75*
G02*
X68297961Y-89245622I-61872J-61872D01*
G01*
X68174217Y-89369366D01*
G75*
G02*
X68050473Y-89369366I-61872J61872D01*
G01*
G37*
G36*
G01*
X68404027Y-89015813D02*
X67891374Y-88503161D01*
G75*
G02*
X67891374Y-88379417I61872J61872D01*
G01*
X68015118Y-88255673D01*
G75*
G02*
X68138862Y-88255673I61872J-61872D01*
G01*
X68651514Y-88768325D01*
G75*
G02*
X68651514Y-88892069I-61872J-61872D01*
G01*
X68527770Y-89015813D01*
G75*
G02*
X68404026Y-89015813I-61872J61872D01*
G01*
G37*
G36*
G01*
X68015118Y-88025863D02*
X67891374Y-87902119D01*
G75*
G02*
X67891374Y-87778375I61872J61872D01*
G01*
X68404026Y-87265723D01*
G75*
G02*
X68527770Y-87265723I61872J-61872D01*
G01*
X68651514Y-87389467D01*
G75*
G02*
X68651514Y-87513211I-61872J-61872D01*
G01*
X68138862Y-88025863D01*
G75*
G02*
X68015118Y-88025863I-61872J61872D01*
G01*
G37*
G36*
G01*
X67661565Y-87672310D02*
X67537821Y-87548566D01*
G75*
G02*
X67537821Y-87424822I61872J61872D01*
G01*
X68050473Y-86912170D01*
G75*
G02*
X68174217Y-86912170I61872J-61872D01*
G01*
X68297961Y-87035914D01*
G75*
G02*
X68297961Y-87159658I-61872J-61872D01*
G01*
X67785309Y-87672310D01*
G75*
G02*
X67661565Y-87672310I-61872J61872D01*
G01*
G37*
G36*
G01*
X67308011Y-87318756D02*
X67184267Y-87195012D01*
G75*
G02*
X67184267Y-87071268I61872J61872D01*
G01*
X67696919Y-86558616D01*
G75*
G02*
X67820663Y-86558616I61872J-61872D01*
G01*
X67944407Y-86682360D01*
G75*
G02*
X67944407Y-86806104I-61872J-61872D01*
G01*
X67431755Y-87318756D01*
G75*
G02*
X67308011Y-87318756I-61872J61872D01*
G01*
G37*
G36*
G01*
X66954458Y-86965203D02*
X66830714Y-86841459D01*
G75*
G02*
X66830714Y-86717715I61872J61872D01*
G01*
X67343366Y-86205063D01*
G75*
G02*
X67467110Y-86205063I61872J-61872D01*
G01*
X67590854Y-86328807D01*
G75*
G02*
X67590854Y-86452551I-61872J-61872D01*
G01*
X67078202Y-86965203D01*
G75*
G02*
X66954458Y-86965203I-61872J61872D01*
G01*
G37*
G36*
G01*
X66600904Y-86611650D02*
X66477160Y-86487906D01*
G75*
G02*
X66477160Y-86364162I61872J61872D01*
G01*
X66989812Y-85851510D01*
G75*
G02*
X67113556Y-85851510I61872J-61872D01*
G01*
X67237300Y-85975254D01*
G75*
G02*
X67237300Y-86098998I-61872J-61872D01*
G01*
X66724648Y-86611650D01*
G75*
G02*
X66600904Y-86611650I-61872J61872D01*
G01*
G37*
G36*
G01*
X66247351Y-86258096D02*
X66123607Y-86134352D01*
G75*
G02*
X66123607Y-86010608I61872J61872D01*
G01*
X66636259Y-85497956D01*
G75*
G02*
X66760003Y-85497956I61872J-61872D01*
G01*
X66883747Y-85621700D01*
G75*
G02*
X66883747Y-85745444I-61872J-61872D01*
G01*
X66371095Y-86258096D01*
G75*
G02*
X66247351Y-86258096I-61872J61872D01*
G01*
G37*
G36*
G01*
X65893798Y-85904543D02*
X65770054Y-85780799D01*
G75*
G02*
X65770054Y-85657055I61872J61872D01*
G01*
X66282706Y-85144403D01*
G75*
G02*
X66406450Y-85144403I61872J-61872D01*
G01*
X66530194Y-85268147D01*
G75*
G02*
X66530194Y-85391891I-61872J-61872D01*
G01*
X66017542Y-85904543D01*
G75*
G02*
X65893798Y-85904543I-61872J61872D01*
G01*
G37*
G36*
G01*
X65540244Y-85550990D02*
X65416500Y-85427246D01*
G75*
G02*
X65416500Y-85303502I61872J61872D01*
G01*
X65929152Y-84790850D01*
G75*
G02*
X66052896Y-84790850I61872J-61872D01*
G01*
X66176640Y-84914594D01*
G75*
G02*
X66176640Y-85038338I-61872J-61872D01*
G01*
X65663988Y-85550990D01*
G75*
G02*
X65540244Y-85550990I-61872J61872D01*
G01*
G37*
G36*
G01*
X65186691Y-85197436D02*
X65062947Y-85073692D01*
G75*
G02*
X65062947Y-84949948I61872J61872D01*
G01*
X65575599Y-84437296D01*
G75*
G02*
X65699343Y-84437296I61872J-61872D01*
G01*
X65823087Y-84561040D01*
G75*
G02*
X65823087Y-84684784I-61872J-61872D01*
G01*
X65310435Y-85197436D01*
G75*
G02*
X65186691Y-85197436I-61872J61872D01*
G01*
G37*
G36*
G01*
X64833138Y-84843883D02*
X64709394Y-84720139D01*
G75*
G02*
X64709394Y-84596395I61872J61872D01*
G01*
X65222046Y-84083743D01*
G75*
G02*
X65345790Y-84083743I61872J-61872D01*
G01*
X65469534Y-84207487D01*
G75*
G02*
X65469534Y-84331231I-61872J-61872D01*
G01*
X64956882Y-84843883D01*
G75*
G02*
X64833138Y-84843883I-61872J61872D01*
G01*
G37*
G36*
G01*
X64479584Y-84490329D02*
X64355840Y-84366585D01*
G75*
G02*
X64355840Y-84242841I61872J61872D01*
G01*
X64868492Y-83730189D01*
G75*
G02*
X64992236Y-83730189I61872J-61872D01*
G01*
X65115980Y-83853933D01*
G75*
G02*
X65115980Y-83977677I-61872J-61872D01*
G01*
X64603328Y-84490329D01*
G75*
G02*
X64479584Y-84490329I-61872J61872D01*
G01*
G37*
G36*
G01*
X64126031Y-84136776D02*
X64002287Y-84013032D01*
G75*
G02*
X64002287Y-83889288I61872J61872D01*
G01*
X64514939Y-83376636D01*
G75*
G02*
X64638683Y-83376636I61872J-61872D01*
G01*
X64762427Y-83500380D01*
G75*
G02*
X64762427Y-83624124I-61872J-61872D01*
G01*
X64249775Y-84136776D01*
G75*
G02*
X64126031Y-84136776I-61872J61872D01*
G01*
G37*
G36*
G01*
X63524990Y-84136776D02*
X63012337Y-83624124D01*
G75*
G02*
X63012337Y-83500380I61872J61872D01*
G01*
X63136081Y-83376636D01*
G75*
G02*
X63259825Y-83376636I61872J-61872D01*
G01*
X63772477Y-83889288D01*
G75*
G02*
X63772477Y-84013032I-61872J-61872D01*
G01*
X63648733Y-84136776D01*
G75*
G02*
X63524989Y-84136776I-61872J61872D01*
G01*
G37*
G36*
G01*
X63171437Y-84490329D02*
X62658784Y-83977677D01*
G75*
G02*
X62658784Y-83853933I61872J61872D01*
G01*
X62782528Y-83730189D01*
G75*
G02*
X62906272Y-83730189I61872J-61872D01*
G01*
X63418924Y-84242841D01*
G75*
G02*
X63418924Y-84366585I-61872J-61872D01*
G01*
X63295180Y-84490329D01*
G75*
G02*
X63171436Y-84490329I-61872J61872D01*
G01*
G37*
G36*
G01*
X62817883Y-84843883D02*
X62305230Y-84331231D01*
G75*
G02*
X62305230Y-84207487I61872J61872D01*
G01*
X62428974Y-84083743D01*
G75*
G02*
X62552718Y-84083743I61872J-61872D01*
G01*
X63065370Y-84596395D01*
G75*
G02*
X63065370Y-84720139I-61872J-61872D01*
G01*
X62941626Y-84843883D01*
G75*
G02*
X62817882Y-84843883I-61872J61872D01*
G01*
G37*
G36*
G01*
X62464330Y-85197436D02*
X61951677Y-84684784D01*
G75*
G02*
X61951677Y-84561040I61872J61872D01*
G01*
X62075421Y-84437296D01*
G75*
G02*
X62199165Y-84437296I61872J-61872D01*
G01*
X62711817Y-84949948D01*
G75*
G02*
X62711817Y-85073692I-61872J-61872D01*
G01*
X62588073Y-85197436D01*
G75*
G02*
X62464329Y-85197436I-61872J61872D01*
G01*
G37*
G36*
G01*
X62110777Y-85550990D02*
X61598124Y-85038338D01*
G75*
G02*
X61598124Y-84914594I61872J61872D01*
G01*
X61721868Y-84790850D01*
G75*
G02*
X61845612Y-84790850I61872J-61872D01*
G01*
X62358264Y-85303502D01*
G75*
G02*
X62358264Y-85427246I-61872J-61872D01*
G01*
X62234520Y-85550990D01*
G75*
G02*
X62110776Y-85550990I-61872J61872D01*
G01*
G37*
G36*
G01*
X61757223Y-85904543D02*
X61244570Y-85391891D01*
G75*
G02*
X61244570Y-85268147I61872J61872D01*
G01*
X61368314Y-85144403D01*
G75*
G02*
X61492058Y-85144403I61872J-61872D01*
G01*
X62004710Y-85657055D01*
G75*
G02*
X62004710Y-85780799I-61872J-61872D01*
G01*
X61880966Y-85904543D01*
G75*
G02*
X61757222Y-85904543I-61872J61872D01*
G01*
G37*
G36*
G01*
X61403670Y-86258096D02*
X60891017Y-85745444D01*
G75*
G02*
X60891017Y-85621700I61872J61872D01*
G01*
X61014761Y-85497956D01*
G75*
G02*
X61138505Y-85497956I61872J-61872D01*
G01*
X61651157Y-86010608D01*
G75*
G02*
X61651157Y-86134352I-61872J-61872D01*
G01*
X61527413Y-86258096D01*
G75*
G02*
X61403669Y-86258096I-61872J61872D01*
G01*
G37*
G36*
G01*
X61050117Y-86611650D02*
X60537464Y-86098998D01*
G75*
G02*
X60537464Y-85975254I61872J61872D01*
G01*
X60661208Y-85851510D01*
G75*
G02*
X60784952Y-85851510I61872J-61872D01*
G01*
X61297604Y-86364162D01*
G75*
G02*
X61297604Y-86487906I-61872J-61872D01*
G01*
X61173860Y-86611650D01*
G75*
G02*
X61050116Y-86611650I-61872J61872D01*
G01*
G37*
G36*
G01*
X60696563Y-86965203D02*
X60183910Y-86452551D01*
G75*
G02*
X60183910Y-86328807I61872J61872D01*
G01*
X60307654Y-86205063D01*
G75*
G02*
X60431398Y-86205063I61872J-61872D01*
G01*
X60944050Y-86717715D01*
G75*
G02*
X60944050Y-86841459I-61872J-61872D01*
G01*
X60820306Y-86965203D01*
G75*
G02*
X60696562Y-86965203I-61872J61872D01*
G01*
G37*
G36*
G01*
X60343010Y-87318756D02*
X59830357Y-86806104D01*
G75*
G02*
X59830357Y-86682360I61872J61872D01*
G01*
X59954101Y-86558616D01*
G75*
G02*
X60077845Y-86558616I61872J-61872D01*
G01*
X60590497Y-87071268D01*
G75*
G02*
X60590497Y-87195012I-61872J-61872D01*
G01*
X60466753Y-87318756D01*
G75*
G02*
X60343009Y-87318756I-61872J61872D01*
G01*
G37*
G36*
G01*
X59989456Y-87672310D02*
X59476803Y-87159658D01*
G75*
G02*
X59476803Y-87035914I61872J61872D01*
G01*
X59600547Y-86912170D01*
G75*
G02*
X59724291Y-86912170I61872J-61872D01*
G01*
X60236943Y-87424822D01*
G75*
G02*
X60236943Y-87548566I-61872J-61872D01*
G01*
X60113199Y-87672310D01*
G75*
G02*
X59989455Y-87672310I-61872J61872D01*
G01*
G37*
G36*
G01*
X59635903Y-88025863D02*
X59123250Y-87513211D01*
G75*
G02*
X59123250Y-87389467I61872J61872D01*
G01*
X59246994Y-87265723D01*
G75*
G02*
X59370738Y-87265723I61872J-61872D01*
G01*
X59883390Y-87778375D01*
G75*
G02*
X59883390Y-87902119I-61872J-61872D01*
G01*
X59759646Y-88025863D01*
G75*
G02*
X59635902Y-88025863I-61872J61872D01*
G01*
G37*
D18*
G36*
X63887382Y-91959145D02*
G01*
X60069005Y-88140768D01*
X63887382Y-84322391D01*
X67705759Y-88140768D01*
X63887382Y-91959145D01*
G37*
G36*
G01*
X77122001Y-87216606D02*
X77122001Y-87566606D01*
G75*
G02*
X76947001Y-87741606I-175000J0D01*
G01*
X75247001Y-87741606D01*
G75*
G02*
X75072001Y-87566606I0J175000D01*
G01*
X75072001Y-87216606D01*
G75*
G02*
X75247001Y-87041606I175000J0D01*
G01*
X76947001Y-87041606D01*
G75*
G02*
X77122001Y-87216606I0J-175000D01*
G01*
G37*
G36*
G01*
X77122001Y-85946606D02*
X77122001Y-86296606D01*
G75*
G02*
X76947001Y-86471606I-175000J0D01*
G01*
X75247001Y-86471606D01*
G75*
G02*
X75072001Y-86296606I0J175000D01*
G01*
X75072001Y-85946606D01*
G75*
G02*
X75247001Y-85771606I175000J0D01*
G01*
X76947001Y-85771606D01*
G75*
G02*
X77122001Y-85946606I0J-175000D01*
G01*
G37*
G36*
G01*
X77122001Y-84676606D02*
X77122001Y-85026606D01*
G75*
G02*
X76947001Y-85201606I-175000J0D01*
G01*
X75247001Y-85201606D01*
G75*
G02*
X75072001Y-85026606I0J175000D01*
G01*
X75072001Y-84676606D01*
G75*
G02*
X75247001Y-84501606I175000J0D01*
G01*
X76947001Y-84501606D01*
G75*
G02*
X77122001Y-84676606I0J-175000D01*
G01*
G37*
G36*
G01*
X77122001Y-83406606D02*
X77122001Y-83756606D01*
G75*
G02*
X76947001Y-83931606I-175000J0D01*
G01*
X75247001Y-83931606D01*
G75*
G02*
X75072001Y-83756606I0J175000D01*
G01*
X75072001Y-83406606D01*
G75*
G02*
X75247001Y-83231606I175000J0D01*
G01*
X76947001Y-83231606D01*
G75*
G02*
X77122001Y-83406606I0J-175000D01*
G01*
G37*
G36*
G01*
X72172001Y-83406606D02*
X72172001Y-83756606D01*
G75*
G02*
X71997001Y-83931606I-175000J0D01*
G01*
X70297001Y-83931606D01*
G75*
G02*
X70122001Y-83756606I0J175000D01*
G01*
X70122001Y-83406606D01*
G75*
G02*
X70297001Y-83231606I175000J0D01*
G01*
X71997001Y-83231606D01*
G75*
G02*
X72172001Y-83406606I0J-175000D01*
G01*
G37*
G36*
G01*
X72172001Y-84676606D02*
X72172001Y-85026606D01*
G75*
G02*
X71997001Y-85201606I-175000J0D01*
G01*
X70297001Y-85201606D01*
G75*
G02*
X70122001Y-85026606I0J175000D01*
G01*
X70122001Y-84676606D01*
G75*
G02*
X70297001Y-84501606I175000J0D01*
G01*
X71997001Y-84501606D01*
G75*
G02*
X72172001Y-84676606I0J-175000D01*
G01*
G37*
G36*
G01*
X72172001Y-85946606D02*
X72172001Y-86296606D01*
G75*
G02*
X71997001Y-86471606I-175000J0D01*
G01*
X70297001Y-86471606D01*
G75*
G02*
X70122001Y-86296606I0J175000D01*
G01*
X70122001Y-85946606D01*
G75*
G02*
X70297001Y-85771606I175000J0D01*
G01*
X71997001Y-85771606D01*
G75*
G02*
X72172001Y-85946606I0J-175000D01*
G01*
G37*
G36*
G01*
X72172001Y-87216606D02*
X72172001Y-87566606D01*
G75*
G02*
X71997001Y-87741606I-175000J0D01*
G01*
X70297001Y-87741606D01*
G75*
G02*
X70122001Y-87566606I0J175000D01*
G01*
X70122001Y-87216606D01*
G75*
G02*
X70297001Y-87041606I175000J0D01*
G01*
X71997001Y-87041606D01*
G75*
G02*
X72172001Y-87216606I0J-175000D01*
G01*
G37*
G36*
G01*
X89982401Y-80996006D02*
X90332401Y-80996006D01*
G75*
G02*
X90507401Y-81171006I0J-175000D01*
G01*
X90507401Y-82871006D01*
G75*
G02*
X90332401Y-83046006I-175000J0D01*
G01*
X89982401Y-83046006D01*
G75*
G02*
X89807401Y-82871006I0J175000D01*
G01*
X89807401Y-81171006D01*
G75*
G02*
X89982401Y-80996006I175000J0D01*
G01*
G37*
G36*
G01*
X88712401Y-80996006D02*
X89062401Y-80996006D01*
G75*
G02*
X89237401Y-81171006I0J-175000D01*
G01*
X89237401Y-82871006D01*
G75*
G02*
X89062401Y-83046006I-175000J0D01*
G01*
X88712401Y-83046006D01*
G75*
G02*
X88537401Y-82871006I0J175000D01*
G01*
X88537401Y-81171006D01*
G75*
G02*
X88712401Y-80996006I175000J0D01*
G01*
G37*
G36*
G01*
X87442401Y-80996006D02*
X87792401Y-80996006D01*
G75*
G02*
X87967401Y-81171006I0J-175000D01*
G01*
X87967401Y-82871006D01*
G75*
G02*
X87792401Y-83046006I-175000J0D01*
G01*
X87442401Y-83046006D01*
G75*
G02*
X87267401Y-82871006I0J175000D01*
G01*
X87267401Y-81171006D01*
G75*
G02*
X87442401Y-80996006I175000J0D01*
G01*
G37*
G36*
G01*
X86172401Y-80996006D02*
X86522401Y-80996006D01*
G75*
G02*
X86697401Y-81171006I0J-175000D01*
G01*
X86697401Y-82871006D01*
G75*
G02*
X86522401Y-83046006I-175000J0D01*
G01*
X86172401Y-83046006D01*
G75*
G02*
X85997401Y-82871006I0J175000D01*
G01*
X85997401Y-81171006D01*
G75*
G02*
X86172401Y-80996006I175000J0D01*
G01*
G37*
G36*
G01*
X84902401Y-80996006D02*
X85252401Y-80996006D01*
G75*
G02*
X85427401Y-81171006I0J-175000D01*
G01*
X85427401Y-82871006D01*
G75*
G02*
X85252401Y-83046006I-175000J0D01*
G01*
X84902401Y-83046006D01*
G75*
G02*
X84727401Y-82871006I0J175000D01*
G01*
X84727401Y-81171006D01*
G75*
G02*
X84902401Y-80996006I175000J0D01*
G01*
G37*
G36*
G01*
X83632401Y-80996006D02*
X83982401Y-80996006D01*
G75*
G02*
X84157401Y-81171006I0J-175000D01*
G01*
X84157401Y-82871006D01*
G75*
G02*
X83982401Y-83046006I-175000J0D01*
G01*
X83632401Y-83046006D01*
G75*
G02*
X83457401Y-82871006I0J175000D01*
G01*
X83457401Y-81171006D01*
G75*
G02*
X83632401Y-80996006I175000J0D01*
G01*
G37*
G36*
G01*
X82362401Y-80996006D02*
X82712401Y-80996006D01*
G75*
G02*
X82887401Y-81171006I0J-175000D01*
G01*
X82887401Y-82871006D01*
G75*
G02*
X82712401Y-83046006I-175000J0D01*
G01*
X82362401Y-83046006D01*
G75*
G02*
X82187401Y-82871006I0J175000D01*
G01*
X82187401Y-81171006D01*
G75*
G02*
X82362401Y-80996006I175000J0D01*
G01*
G37*
G36*
G01*
X81092401Y-80996006D02*
X81442401Y-80996006D01*
G75*
G02*
X81617401Y-81171006I0J-175000D01*
G01*
X81617401Y-82871006D01*
G75*
G02*
X81442401Y-83046006I-175000J0D01*
G01*
X81092401Y-83046006D01*
G75*
G02*
X80917401Y-82871006I0J175000D01*
G01*
X80917401Y-81171006D01*
G75*
G02*
X81092401Y-80996006I175000J0D01*
G01*
G37*
G36*
G01*
X81092401Y-85946006D02*
X81442401Y-85946006D01*
G75*
G02*
X81617401Y-86121006I0J-175000D01*
G01*
X81617401Y-87821006D01*
G75*
G02*
X81442401Y-87996006I-175000J0D01*
G01*
X81092401Y-87996006D01*
G75*
G02*
X80917401Y-87821006I0J175000D01*
G01*
X80917401Y-86121006D01*
G75*
G02*
X81092401Y-85946006I175000J0D01*
G01*
G37*
G36*
G01*
X82362401Y-85946006D02*
X82712401Y-85946006D01*
G75*
G02*
X82887401Y-86121006I0J-175000D01*
G01*
X82887401Y-87821006D01*
G75*
G02*
X82712401Y-87996006I-175000J0D01*
G01*
X82362401Y-87996006D01*
G75*
G02*
X82187401Y-87821006I0J175000D01*
G01*
X82187401Y-86121006D01*
G75*
G02*
X82362401Y-85946006I175000J0D01*
G01*
G37*
G36*
G01*
X83632401Y-85946006D02*
X83982401Y-85946006D01*
G75*
G02*
X84157401Y-86121006I0J-175000D01*
G01*
X84157401Y-87821006D01*
G75*
G02*
X83982401Y-87996006I-175000J0D01*
G01*
X83632401Y-87996006D01*
G75*
G02*
X83457401Y-87821006I0J175000D01*
G01*
X83457401Y-86121006D01*
G75*
G02*
X83632401Y-85946006I175000J0D01*
G01*
G37*
G36*
G01*
X84902401Y-85946006D02*
X85252401Y-85946006D01*
G75*
G02*
X85427401Y-86121006I0J-175000D01*
G01*
X85427401Y-87821006D01*
G75*
G02*
X85252401Y-87996006I-175000J0D01*
G01*
X84902401Y-87996006D01*
G75*
G02*
X84727401Y-87821006I0J175000D01*
G01*
X84727401Y-86121006D01*
G75*
G02*
X84902401Y-85946006I175000J0D01*
G01*
G37*
G36*
G01*
X86172401Y-85946006D02*
X86522401Y-85946006D01*
G75*
G02*
X86697401Y-86121006I0J-175000D01*
G01*
X86697401Y-87821006D01*
G75*
G02*
X86522401Y-87996006I-175000J0D01*
G01*
X86172401Y-87996006D01*
G75*
G02*
X85997401Y-87821006I0J175000D01*
G01*
X85997401Y-86121006D01*
G75*
G02*
X86172401Y-85946006I175000J0D01*
G01*
G37*
G36*
G01*
X87442401Y-85946006D02*
X87792401Y-85946006D01*
G75*
G02*
X87967401Y-86121006I0J-175000D01*
G01*
X87967401Y-87821006D01*
G75*
G02*
X87792401Y-87996006I-175000J0D01*
G01*
X87442401Y-87996006D01*
G75*
G02*
X87267401Y-87821006I0J175000D01*
G01*
X87267401Y-86121006D01*
G75*
G02*
X87442401Y-85946006I175000J0D01*
G01*
G37*
G36*
G01*
X88712401Y-85946006D02*
X89062401Y-85946006D01*
G75*
G02*
X89237401Y-86121006I0J-175000D01*
G01*
X89237401Y-87821006D01*
G75*
G02*
X89062401Y-87996006I-175000J0D01*
G01*
X88712401Y-87996006D01*
G75*
G02*
X88537401Y-87821006I0J175000D01*
G01*
X88537401Y-86121006D01*
G75*
G02*
X88712401Y-85946006I175000J0D01*
G01*
G37*
G36*
G01*
X89982401Y-85946006D02*
X90332401Y-85946006D01*
G75*
G02*
X90507401Y-86121006I0J-175000D01*
G01*
X90507401Y-87821006D01*
G75*
G02*
X90332401Y-87996006I-175000J0D01*
G01*
X89982401Y-87996006D01*
G75*
G02*
X89807401Y-87821006I0J175000D01*
G01*
X89807401Y-86121006D01*
G75*
G02*
X89982401Y-85946006I175000J0D01*
G01*
G37*
D16*
X54826001Y-96180006D03*
D17*
X57366001Y-96180006D03*
X59906001Y-96180006D03*
X62446001Y-96180006D03*
X64986001Y-96180006D03*
X67526001Y-96180006D03*
X70066001Y-96180006D03*
X72606001Y-96180006D03*
X75146001Y-96180006D03*
X77686001Y-96180006D03*
X80226001Y-96180006D03*
X82766001Y-96180006D03*
X85306001Y-96180006D03*
X87846001Y-96180006D03*
X90386001Y-96180006D03*
X92926001Y-96180006D03*
X95466001Y-96180006D03*
X98006001Y-96180006D03*
X100546001Y-96180006D03*
X103086001Y-96180006D03*
D16*
X98768001Y-77638006D03*
D17*
X101308001Y-77638006D03*
X103848001Y-77638006D03*
D12*
X51778001Y-63624001D03*
X51778001Y-54124001D03*
G36*
G01*
X73093401Y-64148701D02*
X73093401Y-64673701D01*
G75*
G02*
X72830901Y-64936201I-262500J0D01*
G01*
X72205901Y-64936201D01*
G75*
G02*
X71943401Y-64673701I0J262500D01*
G01*
X71943401Y-64148701D01*
G75*
G02*
X72205901Y-63886201I262500J0D01*
G01*
X72830901Y-63886201D01*
G75*
G02*
X73093401Y-64148701I0J-262500D01*
G01*
G37*
G36*
G01*
X74843401Y-64148701D02*
X74843401Y-64673701D01*
G75*
G02*
X74580901Y-64936201I-262500J0D01*
G01*
X73955901Y-64936201D01*
G75*
G02*
X73693401Y-64673701I0J262500D01*
G01*
X73693401Y-64148701D01*
G75*
G02*
X73955901Y-63886201I262500J0D01*
G01*
X74580901Y-63886201D01*
G75*
G02*
X74843401Y-64148701I0J-262500D01*
G01*
G37*
G36*
G01*
X93645701Y-62254401D02*
X93120701Y-62254401D01*
G75*
G02*
X92858201Y-61991901I0J262500D01*
G01*
X92858201Y-61366901D01*
G75*
G02*
X93120701Y-61104401I262500J0D01*
G01*
X93645701Y-61104401D01*
G75*
G02*
X93908201Y-61366901I0J-262500D01*
G01*
X93908201Y-61991901D01*
G75*
G02*
X93645701Y-62254401I-262500J0D01*
G01*
G37*
G36*
G01*
X93645701Y-60504401D02*
X93120701Y-60504401D01*
G75*
G02*
X92858201Y-60241901I0J262500D01*
G01*
X92858201Y-59616901D01*
G75*
G02*
X93120701Y-59354401I262500J0D01*
G01*
X93645701Y-59354401D01*
G75*
G02*
X93908201Y-59616901I0J-262500D01*
G01*
X93908201Y-60241901D01*
G75*
G02*
X93645701Y-60504401I-262500J0D01*
G01*
G37*
G36*
G01*
X86929401Y-54335901D02*
X86929401Y-53810901D01*
G75*
G02*
X87191901Y-53548401I262500J0D01*
G01*
X87816901Y-53548401D01*
G75*
G02*
X88079401Y-53810901I0J-262500D01*
G01*
X88079401Y-54335901D01*
G75*
G02*
X87816901Y-54598401I-262500J0D01*
G01*
X87191901Y-54598401D01*
G75*
G02*
X86929401Y-54335901I0J262500D01*
G01*
G37*
G36*
G01*
X88679401Y-54335901D02*
X88679401Y-53810901D01*
G75*
G02*
X88941901Y-53548401I262500J0D01*
G01*
X89566901Y-53548401D01*
G75*
G02*
X89829401Y-53810901I0J-262500D01*
G01*
X89829401Y-54335901D01*
G75*
G02*
X89566901Y-54598401I-262500J0D01*
G01*
X88941901Y-54598401D01*
G75*
G02*
X88679401Y-54335901I0J262500D01*
G01*
G37*
G36*
G01*
X96934863Y-58847601D02*
X95978339Y-58847601D01*
G75*
G02*
X95706601Y-58575863I0J271738D01*
G01*
X95706601Y-57869339D01*
G75*
G02*
X95978339Y-57597601I271738J0D01*
G01*
X96934863Y-57597601D01*
G75*
G02*
X97206601Y-57869339I0J-271738D01*
G01*
X97206601Y-58575863D01*
G75*
G02*
X96934863Y-58847601I-271738J0D01*
G01*
G37*
G36*
G01*
X96934863Y-56797601D02*
X95978339Y-56797601D01*
G75*
G02*
X95706601Y-56525863I0J271738D01*
G01*
X95706601Y-55819339D01*
G75*
G02*
X95978339Y-55547601I271738J0D01*
G01*
X96934863Y-55547601D01*
G75*
G02*
X97206601Y-55819339I0J-271738D01*
G01*
X97206601Y-56525863D01*
G75*
G02*
X96934863Y-56797601I-271738J0D01*
G01*
G37*
G36*
G01*
X91809401Y-55770863D02*
X91809401Y-54814339D01*
G75*
G02*
X92081139Y-54542601I271738J0D01*
G01*
X92787663Y-54542601D01*
G75*
G02*
X93059401Y-54814339I0J-271738D01*
G01*
X93059401Y-55770863D01*
G75*
G02*
X92787663Y-56042601I-271738J0D01*
G01*
X92081139Y-56042601D01*
G75*
G02*
X91809401Y-55770863I0J271738D01*
G01*
G37*
G36*
G01*
X93859401Y-55770863D02*
X93859401Y-54814339D01*
G75*
G02*
X94131139Y-54542601I271738J0D01*
G01*
X94837663Y-54542601D01*
G75*
G02*
X95109401Y-54814339I0J-271738D01*
G01*
X95109401Y-55770863D01*
G75*
G02*
X94837663Y-56042601I-271738J0D01*
G01*
X94131139Y-56042601D01*
G75*
G02*
X93859401Y-55770863I0J271738D01*
G01*
G37*
G36*
G01*
X94792001Y-67391501D02*
X94792001Y-66866501D01*
G75*
G02*
X95054501Y-66604001I262500J0D01*
G01*
X95679501Y-66604001D01*
G75*
G02*
X95942001Y-66866501I0J-262500D01*
G01*
X95942001Y-67391501D01*
G75*
G02*
X95679501Y-67654001I-262500J0D01*
G01*
X95054501Y-67654001D01*
G75*
G02*
X94792001Y-67391501I0J262500D01*
G01*
G37*
G36*
G01*
X96542001Y-67391501D02*
X96542001Y-66866501D01*
G75*
G02*
X96804501Y-66604001I262500J0D01*
G01*
X97429501Y-66604001D01*
G75*
G02*
X97692001Y-66866501I0J-262500D01*
G01*
X97692001Y-67391501D01*
G75*
G02*
X97429501Y-67654001I-262500J0D01*
G01*
X96804501Y-67654001D01*
G75*
G02*
X96542001Y-67391501I0J262500D01*
G01*
G37*
G36*
G01*
X101450401Y-67057139D02*
X101450401Y-68013663D01*
G75*
G02*
X101178663Y-68285401I-271738J0D01*
G01*
X100472139Y-68285401D01*
G75*
G02*
X100200401Y-68013663I0J271738D01*
G01*
X100200401Y-67057139D01*
G75*
G02*
X100472139Y-66785401I271738J0D01*
G01*
X101178663Y-66785401D01*
G75*
G02*
X101450401Y-67057139I0J-271738D01*
G01*
G37*
G36*
G01*
X99400401Y-67057139D02*
X99400401Y-68013663D01*
G75*
G02*
X99128663Y-68285401I-271738J0D01*
G01*
X98422139Y-68285401D01*
G75*
G02*
X98150401Y-68013663I0J271738D01*
G01*
X98150401Y-67057139D01*
G75*
G02*
X98422139Y-66785401I271738J0D01*
G01*
X99128663Y-66785401D01*
G75*
G02*
X99400401Y-67057139I0J-271738D01*
G01*
G37*
D13*
X104364601Y-64591001D03*
D14*
X100714601Y-63161001D03*
D13*
X104364601Y-55951001D03*
D14*
X100714601Y-57381001D03*
D15*
X100184601Y-55951001D03*
X100184601Y-64591001D03*
D16*
X60414001Y-54048001D03*
D17*
X62954001Y-54048001D03*
X65494001Y-54048001D03*
X68034001Y-54048001D03*
X70574001Y-54048001D03*
X73114001Y-54048001D03*
X75654001Y-54048001D03*
X78194001Y-54048001D03*
X80734001Y-54048001D03*
X83274001Y-54048001D03*
G36*
G01*
X94905001Y-64241901D02*
X94905001Y-63716901D01*
G75*
G02*
X95167501Y-63454401I262500J0D01*
G01*
X95792501Y-63454401D01*
G75*
G02*
X96055001Y-63716901I0J-262500D01*
G01*
X96055001Y-64241901D01*
G75*
G02*
X95792501Y-64504401I-262500J0D01*
G01*
X95167501Y-64504401D01*
G75*
G02*
X94905001Y-64241901I0J262500D01*
G01*
G37*
G36*
G01*
X96655001Y-64241901D02*
X96655001Y-63716901D01*
G75*
G02*
X96917501Y-63454401I262500J0D01*
G01*
X97542501Y-63454401D01*
G75*
G02*
X97805001Y-63716901I0J-262500D01*
G01*
X97805001Y-64241901D01*
G75*
G02*
X97542501Y-64504401I-262500J0D01*
G01*
X96917501Y-64504401D01*
G75*
G02*
X96655001Y-64241901I0J262500D01*
G01*
G37*
G36*
G01*
X104002601Y-58840101D02*
X104002601Y-59365101D01*
G75*
G02*
X103740101Y-59627601I-262500J0D01*
G01*
X103115101Y-59627601D01*
G75*
G02*
X102852601Y-59365101I0J262500D01*
G01*
X102852601Y-58840101D01*
G75*
G02*
X103115101Y-58577601I262500J0D01*
G01*
X103740101Y-58577601D01*
G75*
G02*
X104002601Y-58840101I0J-262500D01*
G01*
G37*
G36*
G01*
X102252601Y-58840101D02*
X102252601Y-59365101D01*
G75*
G02*
X101990101Y-59627601I-262500J0D01*
G01*
X101365101Y-59627601D01*
G75*
G02*
X101102601Y-59365101I0J262500D01*
G01*
X101102601Y-58840101D01*
G75*
G02*
X101365101Y-58577601I262500J0D01*
G01*
X101990101Y-58577601D01*
G75*
G02*
X102252601Y-58840101I0J-262500D01*
G01*
G37*
G36*
G01*
X104002601Y-61710301D02*
X104002601Y-62235301D01*
G75*
G02*
X103740101Y-62497801I-262500J0D01*
G01*
X103115101Y-62497801D01*
G75*
G02*
X102852601Y-62235301I0J262500D01*
G01*
X102852601Y-61710301D01*
G75*
G02*
X103115101Y-61447801I262500J0D01*
G01*
X103740101Y-61447801D01*
G75*
G02*
X104002601Y-61710301I0J-262500D01*
G01*
G37*
G36*
G01*
X102252601Y-61710301D02*
X102252601Y-62235301D01*
G75*
G02*
X101990101Y-62497801I-262500J0D01*
G01*
X101365101Y-62497801D01*
G75*
G02*
X101102601Y-62235301I0J262500D01*
G01*
X101102601Y-61710301D01*
G75*
G02*
X101365101Y-61447801I262500J0D01*
G01*
X101990101Y-61447801D01*
G75*
G02*
X102252601Y-61710301I0J-262500D01*
G01*
G37*
G36*
G01*
X59246994Y-64409808D02*
X59123250Y-64286064D01*
G75*
G02*
X59123250Y-64162320I61872J61872D01*
G01*
X59635902Y-63649668D01*
G75*
G02*
X59759646Y-63649668I61872J-61872D01*
G01*
X59883390Y-63773412D01*
G75*
G02*
X59883390Y-63897156I-61872J-61872D01*
G01*
X59370738Y-64409808D01*
G75*
G02*
X59246994Y-64409808I-61872J61872D01*
G01*
G37*
G36*
G01*
X59600547Y-64763361D02*
X59476803Y-64639617D01*
G75*
G02*
X59476803Y-64515873I61872J61872D01*
G01*
X59989455Y-64003221D01*
G75*
G02*
X60113199Y-64003221I61872J-61872D01*
G01*
X60236943Y-64126965D01*
G75*
G02*
X60236943Y-64250709I-61872J-61872D01*
G01*
X59724291Y-64763361D01*
G75*
G02*
X59600547Y-64763361I-61872J61872D01*
G01*
G37*
G36*
G01*
X59954101Y-65116915D02*
X59830357Y-64993171D01*
G75*
G02*
X59830357Y-64869427I61872J61872D01*
G01*
X60343009Y-64356775D01*
G75*
G02*
X60466753Y-64356775I61872J-61872D01*
G01*
X60590497Y-64480519D01*
G75*
G02*
X60590497Y-64604263I-61872J-61872D01*
G01*
X60077845Y-65116915D01*
G75*
G02*
X59954101Y-65116915I-61872J61872D01*
G01*
G37*
G36*
G01*
X60307654Y-65470468D02*
X60183910Y-65346724D01*
G75*
G02*
X60183910Y-65222980I61872J61872D01*
G01*
X60696562Y-64710328D01*
G75*
G02*
X60820306Y-64710328I61872J-61872D01*
G01*
X60944050Y-64834072D01*
G75*
G02*
X60944050Y-64957816I-61872J-61872D01*
G01*
X60431398Y-65470468D01*
G75*
G02*
X60307654Y-65470468I-61872J61872D01*
G01*
G37*
G36*
G01*
X60661208Y-65824021D02*
X60537464Y-65700277D01*
G75*
G02*
X60537464Y-65576533I61872J61872D01*
G01*
X61050116Y-65063881D01*
G75*
G02*
X61173860Y-65063881I61872J-61872D01*
G01*
X61297604Y-65187625D01*
G75*
G02*
X61297604Y-65311369I-61872J-61872D01*
G01*
X60784952Y-65824021D01*
G75*
G02*
X60661208Y-65824021I-61872J61872D01*
G01*
G37*
G36*
G01*
X61014761Y-66177575D02*
X60891017Y-66053831D01*
G75*
G02*
X60891017Y-65930087I61872J61872D01*
G01*
X61403669Y-65417435D01*
G75*
G02*
X61527413Y-65417435I61872J-61872D01*
G01*
X61651157Y-65541179D01*
G75*
G02*
X61651157Y-65664923I-61872J-61872D01*
G01*
X61138505Y-66177575D01*
G75*
G02*
X61014761Y-66177575I-61872J61872D01*
G01*
G37*
G36*
G01*
X61368314Y-66531128D02*
X61244570Y-66407384D01*
G75*
G02*
X61244570Y-66283640I61872J61872D01*
G01*
X61757222Y-65770988D01*
G75*
G02*
X61880966Y-65770988I61872J-61872D01*
G01*
X62004710Y-65894732D01*
G75*
G02*
X62004710Y-66018476I-61872J-61872D01*
G01*
X61492058Y-66531128D01*
G75*
G02*
X61368314Y-66531128I-61872J61872D01*
G01*
G37*
G36*
G01*
X61721868Y-66884681D02*
X61598124Y-66760937D01*
G75*
G02*
X61598124Y-66637193I61872J61872D01*
G01*
X62110776Y-66124541D01*
G75*
G02*
X62234520Y-66124541I61872J-61872D01*
G01*
X62358264Y-66248285D01*
G75*
G02*
X62358264Y-66372029I-61872J-61872D01*
G01*
X61845612Y-66884681D01*
G75*
G02*
X61721868Y-66884681I-61872J61872D01*
G01*
G37*
G36*
G01*
X62075421Y-67238235D02*
X61951677Y-67114491D01*
G75*
G02*
X61951677Y-66990747I61872J61872D01*
G01*
X62464329Y-66478095D01*
G75*
G02*
X62588073Y-66478095I61872J-61872D01*
G01*
X62711817Y-66601839D01*
G75*
G02*
X62711817Y-66725583I-61872J-61872D01*
G01*
X62199165Y-67238235D01*
G75*
G02*
X62075421Y-67238235I-61872J61872D01*
G01*
G37*
G36*
G01*
X62428974Y-67591788D02*
X62305230Y-67468044D01*
G75*
G02*
X62305230Y-67344300I61872J61872D01*
G01*
X62817882Y-66831648D01*
G75*
G02*
X62941626Y-66831648I61872J-61872D01*
G01*
X63065370Y-66955392D01*
G75*
G02*
X63065370Y-67079136I-61872J-61872D01*
G01*
X62552718Y-67591788D01*
G75*
G02*
X62428974Y-67591788I-61872J61872D01*
G01*
G37*
G36*
G01*
X62782528Y-67945342D02*
X62658784Y-67821598D01*
G75*
G02*
X62658784Y-67697854I61872J61872D01*
G01*
X63171436Y-67185202D01*
G75*
G02*
X63295180Y-67185202I61872J-61872D01*
G01*
X63418924Y-67308946D01*
G75*
G02*
X63418924Y-67432690I-61872J-61872D01*
G01*
X62906272Y-67945342D01*
G75*
G02*
X62782528Y-67945342I-61872J61872D01*
G01*
G37*
G36*
G01*
X63136081Y-68298895D02*
X63012337Y-68175151D01*
G75*
G02*
X63012337Y-68051407I61872J61872D01*
G01*
X63524989Y-67538755D01*
G75*
G02*
X63648733Y-67538755I61872J-61872D01*
G01*
X63772477Y-67662499D01*
G75*
G02*
X63772477Y-67786243I-61872J-61872D01*
G01*
X63259825Y-68298895D01*
G75*
G02*
X63136081Y-68298895I-61872J61872D01*
G01*
G37*
G36*
G01*
X64514940Y-68298895D02*
X64002287Y-67786243D01*
G75*
G02*
X64002287Y-67662499I61872J61872D01*
G01*
X64126031Y-67538755D01*
G75*
G02*
X64249775Y-67538755I61872J-61872D01*
G01*
X64762427Y-68051407D01*
G75*
G02*
X64762427Y-68175151I-61872J-61872D01*
G01*
X64638683Y-68298895D01*
G75*
G02*
X64514939Y-68298895I-61872J61872D01*
G01*
G37*
G36*
G01*
X64868493Y-67945342D02*
X64355840Y-67432690D01*
G75*
G02*
X64355840Y-67308946I61872J61872D01*
G01*
X64479584Y-67185202D01*
G75*
G02*
X64603328Y-67185202I61872J-61872D01*
G01*
X65115980Y-67697854D01*
G75*
G02*
X65115980Y-67821598I-61872J-61872D01*
G01*
X64992236Y-67945342D01*
G75*
G02*
X64868492Y-67945342I-61872J61872D01*
G01*
G37*
G36*
G01*
X65222047Y-67591788D02*
X64709394Y-67079136D01*
G75*
G02*
X64709394Y-66955392I61872J61872D01*
G01*
X64833138Y-66831648D01*
G75*
G02*
X64956882Y-66831648I61872J-61872D01*
G01*
X65469534Y-67344300D01*
G75*
G02*
X65469534Y-67468044I-61872J-61872D01*
G01*
X65345790Y-67591788D01*
G75*
G02*
X65222046Y-67591788I-61872J61872D01*
G01*
G37*
G36*
G01*
X65575600Y-67238235D02*
X65062947Y-66725583D01*
G75*
G02*
X65062947Y-66601839I61872J61872D01*
G01*
X65186691Y-66478095D01*
G75*
G02*
X65310435Y-66478095I61872J-61872D01*
G01*
X65823087Y-66990747D01*
G75*
G02*
X65823087Y-67114491I-61872J-61872D01*
G01*
X65699343Y-67238235D01*
G75*
G02*
X65575599Y-67238235I-61872J61872D01*
G01*
G37*
G36*
G01*
X65929153Y-66884681D02*
X65416500Y-66372029D01*
G75*
G02*
X65416500Y-66248285I61872J61872D01*
G01*
X65540244Y-66124541D01*
G75*
G02*
X65663988Y-66124541I61872J-61872D01*
G01*
X66176640Y-66637193D01*
G75*
G02*
X66176640Y-66760937I-61872J-61872D01*
G01*
X66052896Y-66884681D01*
G75*
G02*
X65929152Y-66884681I-61872J61872D01*
G01*
G37*
G36*
G01*
X66282707Y-66531128D02*
X65770054Y-66018476D01*
G75*
G02*
X65770054Y-65894732I61872J61872D01*
G01*
X65893798Y-65770988D01*
G75*
G02*
X66017542Y-65770988I61872J-61872D01*
G01*
X66530194Y-66283640D01*
G75*
G02*
X66530194Y-66407384I-61872J-61872D01*
G01*
X66406450Y-66531128D01*
G75*
G02*
X66282706Y-66531128I-61872J61872D01*
G01*
G37*
G36*
G01*
X66636260Y-66177575D02*
X66123607Y-65664923D01*
G75*
G02*
X66123607Y-65541179I61872J61872D01*
G01*
X66247351Y-65417435D01*
G75*
G02*
X66371095Y-65417435I61872J-61872D01*
G01*
X66883747Y-65930087D01*
G75*
G02*
X66883747Y-66053831I-61872J-61872D01*
G01*
X66760003Y-66177575D01*
G75*
G02*
X66636259Y-66177575I-61872J61872D01*
G01*
G37*
G36*
G01*
X66989813Y-65824021D02*
X66477160Y-65311369D01*
G75*
G02*
X66477160Y-65187625I61872J61872D01*
G01*
X66600904Y-65063881D01*
G75*
G02*
X66724648Y-65063881I61872J-61872D01*
G01*
X67237300Y-65576533D01*
G75*
G02*
X67237300Y-65700277I-61872J-61872D01*
G01*
X67113556Y-65824021D01*
G75*
G02*
X66989812Y-65824021I-61872J61872D01*
G01*
G37*
G36*
G01*
X67343367Y-65470468D02*
X66830714Y-64957816D01*
G75*
G02*
X66830714Y-64834072I61872J61872D01*
G01*
X66954458Y-64710328D01*
G75*
G02*
X67078202Y-64710328I61872J-61872D01*
G01*
X67590854Y-65222980D01*
G75*
G02*
X67590854Y-65346724I-61872J-61872D01*
G01*
X67467110Y-65470468D01*
G75*
G02*
X67343366Y-65470468I-61872J61872D01*
G01*
G37*
G36*
G01*
X67696920Y-65116915D02*
X67184267Y-64604263D01*
G75*
G02*
X67184267Y-64480519I61872J61872D01*
G01*
X67308011Y-64356775D01*
G75*
G02*
X67431755Y-64356775I61872J-61872D01*
G01*
X67944407Y-64869427D01*
G75*
G02*
X67944407Y-64993171I-61872J-61872D01*
G01*
X67820663Y-65116915D01*
G75*
G02*
X67696919Y-65116915I-61872J61872D01*
G01*
G37*
G36*
G01*
X68050474Y-64763361D02*
X67537821Y-64250709D01*
G75*
G02*
X67537821Y-64126965I61872J61872D01*
G01*
X67661565Y-64003221D01*
G75*
G02*
X67785309Y-64003221I61872J-61872D01*
G01*
X68297961Y-64515873D01*
G75*
G02*
X68297961Y-64639617I-61872J-61872D01*
G01*
X68174217Y-64763361D01*
G75*
G02*
X68050473Y-64763361I-61872J61872D01*
G01*
G37*
G36*
G01*
X68404027Y-64409808D02*
X67891374Y-63897156D01*
G75*
G02*
X67891374Y-63773412I61872J61872D01*
G01*
X68015118Y-63649668D01*
G75*
G02*
X68138862Y-63649668I61872J-61872D01*
G01*
X68651514Y-64162320D01*
G75*
G02*
X68651514Y-64286064I-61872J-61872D01*
G01*
X68527770Y-64409808D01*
G75*
G02*
X68404026Y-64409808I-61872J61872D01*
G01*
G37*
G36*
G01*
X68015118Y-63419858D02*
X67891374Y-63296114D01*
G75*
G02*
X67891374Y-63172370I61872J61872D01*
G01*
X68404026Y-62659718D01*
G75*
G02*
X68527770Y-62659718I61872J-61872D01*
G01*
X68651514Y-62783462D01*
G75*
G02*
X68651514Y-62907206I-61872J-61872D01*
G01*
X68138862Y-63419858D01*
G75*
G02*
X68015118Y-63419858I-61872J61872D01*
G01*
G37*
G36*
G01*
X67661565Y-63066305D02*
X67537821Y-62942561D01*
G75*
G02*
X67537821Y-62818817I61872J61872D01*
G01*
X68050473Y-62306165D01*
G75*
G02*
X68174217Y-62306165I61872J-61872D01*
G01*
X68297961Y-62429909D01*
G75*
G02*
X68297961Y-62553653I-61872J-61872D01*
G01*
X67785309Y-63066305D01*
G75*
G02*
X67661565Y-63066305I-61872J61872D01*
G01*
G37*
G36*
G01*
X67308011Y-62712751D02*
X67184267Y-62589007D01*
G75*
G02*
X67184267Y-62465263I61872J61872D01*
G01*
X67696919Y-61952611D01*
G75*
G02*
X67820663Y-61952611I61872J-61872D01*
G01*
X67944407Y-62076355D01*
G75*
G02*
X67944407Y-62200099I-61872J-61872D01*
G01*
X67431755Y-62712751D01*
G75*
G02*
X67308011Y-62712751I-61872J61872D01*
G01*
G37*
G36*
G01*
X66954458Y-62359198D02*
X66830714Y-62235454D01*
G75*
G02*
X66830714Y-62111710I61872J61872D01*
G01*
X67343366Y-61599058D01*
G75*
G02*
X67467110Y-61599058I61872J-61872D01*
G01*
X67590854Y-61722802D01*
G75*
G02*
X67590854Y-61846546I-61872J-61872D01*
G01*
X67078202Y-62359198D01*
G75*
G02*
X66954458Y-62359198I-61872J61872D01*
G01*
G37*
G36*
G01*
X66600904Y-62005645D02*
X66477160Y-61881901D01*
G75*
G02*
X66477160Y-61758157I61872J61872D01*
G01*
X66989812Y-61245505D01*
G75*
G02*
X67113556Y-61245505I61872J-61872D01*
G01*
X67237300Y-61369249D01*
G75*
G02*
X67237300Y-61492993I-61872J-61872D01*
G01*
X66724648Y-62005645D01*
G75*
G02*
X66600904Y-62005645I-61872J61872D01*
G01*
G37*
G36*
G01*
X66247351Y-61652091D02*
X66123607Y-61528347D01*
G75*
G02*
X66123607Y-61404603I61872J61872D01*
G01*
X66636259Y-60891951D01*
G75*
G02*
X66760003Y-60891951I61872J-61872D01*
G01*
X66883747Y-61015695D01*
G75*
G02*
X66883747Y-61139439I-61872J-61872D01*
G01*
X66371095Y-61652091D01*
G75*
G02*
X66247351Y-61652091I-61872J61872D01*
G01*
G37*
G36*
G01*
X65893798Y-61298538D02*
X65770054Y-61174794D01*
G75*
G02*
X65770054Y-61051050I61872J61872D01*
G01*
X66282706Y-60538398D01*
G75*
G02*
X66406450Y-60538398I61872J-61872D01*
G01*
X66530194Y-60662142D01*
G75*
G02*
X66530194Y-60785886I-61872J-61872D01*
G01*
X66017542Y-61298538D01*
G75*
G02*
X65893798Y-61298538I-61872J61872D01*
G01*
G37*
G36*
G01*
X65540244Y-60944985D02*
X65416500Y-60821241D01*
G75*
G02*
X65416500Y-60697497I61872J61872D01*
G01*
X65929152Y-60184845D01*
G75*
G02*
X66052896Y-60184845I61872J-61872D01*
G01*
X66176640Y-60308589D01*
G75*
G02*
X66176640Y-60432333I-61872J-61872D01*
G01*
X65663988Y-60944985D01*
G75*
G02*
X65540244Y-60944985I-61872J61872D01*
G01*
G37*
G36*
G01*
X65186691Y-60591431D02*
X65062947Y-60467687D01*
G75*
G02*
X65062947Y-60343943I61872J61872D01*
G01*
X65575599Y-59831291D01*
G75*
G02*
X65699343Y-59831291I61872J-61872D01*
G01*
X65823087Y-59955035D01*
G75*
G02*
X65823087Y-60078779I-61872J-61872D01*
G01*
X65310435Y-60591431D01*
G75*
G02*
X65186691Y-60591431I-61872J61872D01*
G01*
G37*
G36*
G01*
X64833138Y-60237878D02*
X64709394Y-60114134D01*
G75*
G02*
X64709394Y-59990390I61872J61872D01*
G01*
X65222046Y-59477738D01*
G75*
G02*
X65345790Y-59477738I61872J-61872D01*
G01*
X65469534Y-59601482D01*
G75*
G02*
X65469534Y-59725226I-61872J-61872D01*
G01*
X64956882Y-60237878D01*
G75*
G02*
X64833138Y-60237878I-61872J61872D01*
G01*
G37*
G36*
G01*
X64479584Y-59884324D02*
X64355840Y-59760580D01*
G75*
G02*
X64355840Y-59636836I61872J61872D01*
G01*
X64868492Y-59124184D01*
G75*
G02*
X64992236Y-59124184I61872J-61872D01*
G01*
X65115980Y-59247928D01*
G75*
G02*
X65115980Y-59371672I-61872J-61872D01*
G01*
X64603328Y-59884324D01*
G75*
G02*
X64479584Y-59884324I-61872J61872D01*
G01*
G37*
G36*
G01*
X64126031Y-59530771D02*
X64002287Y-59407027D01*
G75*
G02*
X64002287Y-59283283I61872J61872D01*
G01*
X64514939Y-58770631D01*
G75*
G02*
X64638683Y-58770631I61872J-61872D01*
G01*
X64762427Y-58894375D01*
G75*
G02*
X64762427Y-59018119I-61872J-61872D01*
G01*
X64249775Y-59530771D01*
G75*
G02*
X64126031Y-59530771I-61872J61872D01*
G01*
G37*
G36*
G01*
X63524990Y-59530771D02*
X63012337Y-59018119D01*
G75*
G02*
X63012337Y-58894375I61872J61872D01*
G01*
X63136081Y-58770631D01*
G75*
G02*
X63259825Y-58770631I61872J-61872D01*
G01*
X63772477Y-59283283D01*
G75*
G02*
X63772477Y-59407027I-61872J-61872D01*
G01*
X63648733Y-59530771D01*
G75*
G02*
X63524989Y-59530771I-61872J61872D01*
G01*
G37*
G36*
G01*
X63171437Y-59884324D02*
X62658784Y-59371672D01*
G75*
G02*
X62658784Y-59247928I61872J61872D01*
G01*
X62782528Y-59124184D01*
G75*
G02*
X62906272Y-59124184I61872J-61872D01*
G01*
X63418924Y-59636836D01*
G75*
G02*
X63418924Y-59760580I-61872J-61872D01*
G01*
X63295180Y-59884324D01*
G75*
G02*
X63171436Y-59884324I-61872J61872D01*
G01*
G37*
G36*
G01*
X62817883Y-60237878D02*
X62305230Y-59725226D01*
G75*
G02*
X62305230Y-59601482I61872J61872D01*
G01*
X62428974Y-59477738D01*
G75*
G02*
X62552718Y-59477738I61872J-61872D01*
G01*
X63065370Y-59990390D01*
G75*
G02*
X63065370Y-60114134I-61872J-61872D01*
G01*
X62941626Y-60237878D01*
G75*
G02*
X62817882Y-60237878I-61872J61872D01*
G01*
G37*
G36*
G01*
X62464330Y-60591431D02*
X61951677Y-60078779D01*
G75*
G02*
X61951677Y-59955035I61872J61872D01*
G01*
X62075421Y-59831291D01*
G75*
G02*
X62199165Y-59831291I61872J-61872D01*
G01*
X62711817Y-60343943D01*
G75*
G02*
X62711817Y-60467687I-61872J-61872D01*
G01*
X62588073Y-60591431D01*
G75*
G02*
X62464329Y-60591431I-61872J61872D01*
G01*
G37*
G36*
G01*
X62110777Y-60944985D02*
X61598124Y-60432333D01*
G75*
G02*
X61598124Y-60308589I61872J61872D01*
G01*
X61721868Y-60184845D01*
G75*
G02*
X61845612Y-60184845I61872J-61872D01*
G01*
X62358264Y-60697497D01*
G75*
G02*
X62358264Y-60821241I-61872J-61872D01*
G01*
X62234520Y-60944985D01*
G75*
G02*
X62110776Y-60944985I-61872J61872D01*
G01*
G37*
G36*
G01*
X61757223Y-61298538D02*
X61244570Y-60785886D01*
G75*
G02*
X61244570Y-60662142I61872J61872D01*
G01*
X61368314Y-60538398D01*
G75*
G02*
X61492058Y-60538398I61872J-61872D01*
G01*
X62004710Y-61051050D01*
G75*
G02*
X62004710Y-61174794I-61872J-61872D01*
G01*
X61880966Y-61298538D01*
G75*
G02*
X61757222Y-61298538I-61872J61872D01*
G01*
G37*
G36*
G01*
X61403670Y-61652091D02*
X60891017Y-61139439D01*
G75*
G02*
X60891017Y-61015695I61872J61872D01*
G01*
X61014761Y-60891951D01*
G75*
G02*
X61138505Y-60891951I61872J-61872D01*
G01*
X61651157Y-61404603D01*
G75*
G02*
X61651157Y-61528347I-61872J-61872D01*
G01*
X61527413Y-61652091D01*
G75*
G02*
X61403669Y-61652091I-61872J61872D01*
G01*
G37*
G36*
G01*
X61050117Y-62005645D02*
X60537464Y-61492993D01*
G75*
G02*
X60537464Y-61369249I61872J61872D01*
G01*
X60661208Y-61245505D01*
G75*
G02*
X60784952Y-61245505I61872J-61872D01*
G01*
X61297604Y-61758157D01*
G75*
G02*
X61297604Y-61881901I-61872J-61872D01*
G01*
X61173860Y-62005645D01*
G75*
G02*
X61050116Y-62005645I-61872J61872D01*
G01*
G37*
G36*
G01*
X60696563Y-62359198D02*
X60183910Y-61846546D01*
G75*
G02*
X60183910Y-61722802I61872J61872D01*
G01*
X60307654Y-61599058D01*
G75*
G02*
X60431398Y-61599058I61872J-61872D01*
G01*
X60944050Y-62111710D01*
G75*
G02*
X60944050Y-62235454I-61872J-61872D01*
G01*
X60820306Y-62359198D01*
G75*
G02*
X60696562Y-62359198I-61872J61872D01*
G01*
G37*
G36*
G01*
X60343010Y-62712751D02*
X59830357Y-62200099D01*
G75*
G02*
X59830357Y-62076355I61872J61872D01*
G01*
X59954101Y-61952611D01*
G75*
G02*
X60077845Y-61952611I61872J-61872D01*
G01*
X60590497Y-62465263D01*
G75*
G02*
X60590497Y-62589007I-61872J-61872D01*
G01*
X60466753Y-62712751D01*
G75*
G02*
X60343009Y-62712751I-61872J61872D01*
G01*
G37*
G36*
G01*
X59989456Y-63066305D02*
X59476803Y-62553653D01*
G75*
G02*
X59476803Y-62429909I61872J61872D01*
G01*
X59600547Y-62306165D01*
G75*
G02*
X59724291Y-62306165I61872J-61872D01*
G01*
X60236943Y-62818817D01*
G75*
G02*
X60236943Y-62942561I-61872J-61872D01*
G01*
X60113199Y-63066305D01*
G75*
G02*
X59989455Y-63066305I-61872J61872D01*
G01*
G37*
G36*
G01*
X59635903Y-63419858D02*
X59123250Y-62907206D01*
G75*
G02*
X59123250Y-62783462I61872J61872D01*
G01*
X59246994Y-62659718D01*
G75*
G02*
X59370738Y-62659718I61872J-61872D01*
G01*
X59883390Y-63172370D01*
G75*
G02*
X59883390Y-63296114I-61872J-61872D01*
G01*
X59759646Y-63419858D01*
G75*
G02*
X59635902Y-63419858I-61872J61872D01*
G01*
G37*
D18*
G36*
X63887382Y-67353140D02*
G01*
X60069005Y-63534763D01*
X63887382Y-59716386D01*
X67705759Y-63534763D01*
X63887382Y-67353140D01*
G37*
G36*
G01*
X77122001Y-62610601D02*
X77122001Y-62960601D01*
G75*
G02*
X76947001Y-63135601I-175000J0D01*
G01*
X75247001Y-63135601D01*
G75*
G02*
X75072001Y-62960601I0J175000D01*
G01*
X75072001Y-62610601D01*
G75*
G02*
X75247001Y-62435601I175000J0D01*
G01*
X76947001Y-62435601D01*
G75*
G02*
X77122001Y-62610601I0J-175000D01*
G01*
G37*
G36*
G01*
X77122001Y-61340601D02*
X77122001Y-61690601D01*
G75*
G02*
X76947001Y-61865601I-175000J0D01*
G01*
X75247001Y-61865601D01*
G75*
G02*
X75072001Y-61690601I0J175000D01*
G01*
X75072001Y-61340601D01*
G75*
G02*
X75247001Y-61165601I175000J0D01*
G01*
X76947001Y-61165601D01*
G75*
G02*
X77122001Y-61340601I0J-175000D01*
G01*
G37*
G36*
G01*
X77122001Y-60070601D02*
X77122001Y-60420601D01*
G75*
G02*
X76947001Y-60595601I-175000J0D01*
G01*
X75247001Y-60595601D01*
G75*
G02*
X75072001Y-60420601I0J175000D01*
G01*
X75072001Y-60070601D01*
G75*
G02*
X75247001Y-59895601I175000J0D01*
G01*
X76947001Y-59895601D01*
G75*
G02*
X77122001Y-60070601I0J-175000D01*
G01*
G37*
G36*
G01*
X77122001Y-58800601D02*
X77122001Y-59150601D01*
G75*
G02*
X76947001Y-59325601I-175000J0D01*
G01*
X75247001Y-59325601D01*
G75*
G02*
X75072001Y-59150601I0J175000D01*
G01*
X75072001Y-58800601D01*
G75*
G02*
X75247001Y-58625601I175000J0D01*
G01*
X76947001Y-58625601D01*
G75*
G02*
X77122001Y-58800601I0J-175000D01*
G01*
G37*
G36*
G01*
X72172001Y-58800601D02*
X72172001Y-59150601D01*
G75*
G02*
X71997001Y-59325601I-175000J0D01*
G01*
X70297001Y-59325601D01*
G75*
G02*
X70122001Y-59150601I0J175000D01*
G01*
X70122001Y-58800601D01*
G75*
G02*
X70297001Y-58625601I175000J0D01*
G01*
X71997001Y-58625601D01*
G75*
G02*
X72172001Y-58800601I0J-175000D01*
G01*
G37*
G36*
G01*
X72172001Y-60070601D02*
X72172001Y-60420601D01*
G75*
G02*
X71997001Y-60595601I-175000J0D01*
G01*
X70297001Y-60595601D01*
G75*
G02*
X70122001Y-60420601I0J175000D01*
G01*
X70122001Y-60070601D01*
G75*
G02*
X70297001Y-59895601I175000J0D01*
G01*
X71997001Y-59895601D01*
G75*
G02*
X72172001Y-60070601I0J-175000D01*
G01*
G37*
G36*
G01*
X72172001Y-61340601D02*
X72172001Y-61690601D01*
G75*
G02*
X71997001Y-61865601I-175000J0D01*
G01*
X70297001Y-61865601D01*
G75*
G02*
X70122001Y-61690601I0J175000D01*
G01*
X70122001Y-61340601D01*
G75*
G02*
X70297001Y-61165601I175000J0D01*
G01*
X71997001Y-61165601D01*
G75*
G02*
X72172001Y-61340601I0J-175000D01*
G01*
G37*
G36*
G01*
X72172001Y-62610601D02*
X72172001Y-62960601D01*
G75*
G02*
X71997001Y-63135601I-175000J0D01*
G01*
X70297001Y-63135601D01*
G75*
G02*
X70122001Y-62960601I0J175000D01*
G01*
X70122001Y-62610601D01*
G75*
G02*
X70297001Y-62435601I175000J0D01*
G01*
X71997001Y-62435601D01*
G75*
G02*
X72172001Y-62610601I0J-175000D01*
G01*
G37*
G36*
G01*
X89982401Y-56390001D02*
X90332401Y-56390001D01*
G75*
G02*
X90507401Y-56565001I0J-175000D01*
G01*
X90507401Y-58265001D01*
G75*
G02*
X90332401Y-58440001I-175000J0D01*
G01*
X89982401Y-58440001D01*
G75*
G02*
X89807401Y-58265001I0J175000D01*
G01*
X89807401Y-56565001D01*
G75*
G02*
X89982401Y-56390001I175000J0D01*
G01*
G37*
G36*
G01*
X88712401Y-56390001D02*
X89062401Y-56390001D01*
G75*
G02*
X89237401Y-56565001I0J-175000D01*
G01*
X89237401Y-58265001D01*
G75*
G02*
X89062401Y-58440001I-175000J0D01*
G01*
X88712401Y-58440001D01*
G75*
G02*
X88537401Y-58265001I0J175000D01*
G01*
X88537401Y-56565001D01*
G75*
G02*
X88712401Y-56390001I175000J0D01*
G01*
G37*
G36*
G01*
X87442401Y-56390001D02*
X87792401Y-56390001D01*
G75*
G02*
X87967401Y-56565001I0J-175000D01*
G01*
X87967401Y-58265001D01*
G75*
G02*
X87792401Y-58440001I-175000J0D01*
G01*
X87442401Y-58440001D01*
G75*
G02*
X87267401Y-58265001I0J175000D01*
G01*
X87267401Y-56565001D01*
G75*
G02*
X87442401Y-56390001I175000J0D01*
G01*
G37*
G36*
G01*
X86172401Y-56390001D02*
X86522401Y-56390001D01*
G75*
G02*
X86697401Y-56565001I0J-175000D01*
G01*
X86697401Y-58265001D01*
G75*
G02*
X86522401Y-58440001I-175000J0D01*
G01*
X86172401Y-58440001D01*
G75*
G02*
X85997401Y-58265001I0J175000D01*
G01*
X85997401Y-56565001D01*
G75*
G02*
X86172401Y-56390001I175000J0D01*
G01*
G37*
G36*
G01*
X84902401Y-56390001D02*
X85252401Y-56390001D01*
G75*
G02*
X85427401Y-56565001I0J-175000D01*
G01*
X85427401Y-58265001D01*
G75*
G02*
X85252401Y-58440001I-175000J0D01*
G01*
X84902401Y-58440001D01*
G75*
G02*
X84727401Y-58265001I0J175000D01*
G01*
X84727401Y-56565001D01*
G75*
G02*
X84902401Y-56390001I175000J0D01*
G01*
G37*
G36*
G01*
X83632401Y-56390001D02*
X83982401Y-56390001D01*
G75*
G02*
X84157401Y-56565001I0J-175000D01*
G01*
X84157401Y-58265001D01*
G75*
G02*
X83982401Y-58440001I-175000J0D01*
G01*
X83632401Y-58440001D01*
G75*
G02*
X83457401Y-58265001I0J175000D01*
G01*
X83457401Y-56565001D01*
G75*
G02*
X83632401Y-56390001I175000J0D01*
G01*
G37*
G36*
G01*
X82362401Y-56390001D02*
X82712401Y-56390001D01*
G75*
G02*
X82887401Y-56565001I0J-175000D01*
G01*
X82887401Y-58265001D01*
G75*
G02*
X82712401Y-58440001I-175000J0D01*
G01*
X82362401Y-58440001D01*
G75*
G02*
X82187401Y-58265001I0J175000D01*
G01*
X82187401Y-56565001D01*
G75*
G02*
X82362401Y-56390001I175000J0D01*
G01*
G37*
G36*
G01*
X81092401Y-56390001D02*
X81442401Y-56390001D01*
G75*
G02*
X81617401Y-56565001I0J-175000D01*
G01*
X81617401Y-58265001D01*
G75*
G02*
X81442401Y-58440001I-175000J0D01*
G01*
X81092401Y-58440001D01*
G75*
G02*
X80917401Y-58265001I0J175000D01*
G01*
X80917401Y-56565001D01*
G75*
G02*
X81092401Y-56390001I175000J0D01*
G01*
G37*
G36*
G01*
X81092401Y-61340001D02*
X81442401Y-61340001D01*
G75*
G02*
X81617401Y-61515001I0J-175000D01*
G01*
X81617401Y-63215001D01*
G75*
G02*
X81442401Y-63390001I-175000J0D01*
G01*
X81092401Y-63390001D01*
G75*
G02*
X80917401Y-63215001I0J175000D01*
G01*
X80917401Y-61515001D01*
G75*
G02*
X81092401Y-61340001I175000J0D01*
G01*
G37*
G36*
G01*
X82362401Y-61340001D02*
X82712401Y-61340001D01*
G75*
G02*
X82887401Y-61515001I0J-175000D01*
G01*
X82887401Y-63215001D01*
G75*
G02*
X82712401Y-63390001I-175000J0D01*
G01*
X82362401Y-63390001D01*
G75*
G02*
X82187401Y-63215001I0J175000D01*
G01*
X82187401Y-61515001D01*
G75*
G02*
X82362401Y-61340001I175000J0D01*
G01*
G37*
G36*
G01*
X83632401Y-61340001D02*
X83982401Y-61340001D01*
G75*
G02*
X84157401Y-61515001I0J-175000D01*
G01*
X84157401Y-63215001D01*
G75*
G02*
X83982401Y-63390001I-175000J0D01*
G01*
X83632401Y-63390001D01*
G75*
G02*
X83457401Y-63215001I0J175000D01*
G01*
X83457401Y-61515001D01*
G75*
G02*
X83632401Y-61340001I175000J0D01*
G01*
G37*
G36*
G01*
X84902401Y-61340001D02*
X85252401Y-61340001D01*
G75*
G02*
X85427401Y-61515001I0J-175000D01*
G01*
X85427401Y-63215001D01*
G75*
G02*
X85252401Y-63390001I-175000J0D01*
G01*
X84902401Y-63390001D01*
G75*
G02*
X84727401Y-63215001I0J175000D01*
G01*
X84727401Y-61515001D01*
G75*
G02*
X84902401Y-61340001I175000J0D01*
G01*
G37*
G36*
G01*
X86172401Y-61340001D02*
X86522401Y-61340001D01*
G75*
G02*
X86697401Y-61515001I0J-175000D01*
G01*
X86697401Y-63215001D01*
G75*
G02*
X86522401Y-63390001I-175000J0D01*
G01*
X86172401Y-63390001D01*
G75*
G02*
X85997401Y-63215001I0J175000D01*
G01*
X85997401Y-61515001D01*
G75*
G02*
X86172401Y-61340001I175000J0D01*
G01*
G37*
G36*
G01*
X87442401Y-61340001D02*
X87792401Y-61340001D01*
G75*
G02*
X87967401Y-61515001I0J-175000D01*
G01*
X87967401Y-63215001D01*
G75*
G02*
X87792401Y-63390001I-175000J0D01*
G01*
X87442401Y-63390001D01*
G75*
G02*
X87267401Y-63215001I0J175000D01*
G01*
X87267401Y-61515001D01*
G75*
G02*
X87442401Y-61340001I175000J0D01*
G01*
G37*
G36*
G01*
X88712401Y-61340001D02*
X89062401Y-61340001D01*
G75*
G02*
X89237401Y-61515001I0J-175000D01*
G01*
X89237401Y-63215001D01*
G75*
G02*
X89062401Y-63390001I-175000J0D01*
G01*
X88712401Y-63390001D01*
G75*
G02*
X88537401Y-63215001I0J175000D01*
G01*
X88537401Y-61515001D01*
G75*
G02*
X88712401Y-61340001I175000J0D01*
G01*
G37*
G36*
G01*
X89982401Y-61340001D02*
X90332401Y-61340001D01*
G75*
G02*
X90507401Y-61515001I0J-175000D01*
G01*
X90507401Y-63215001D01*
G75*
G02*
X90332401Y-63390001I-175000J0D01*
G01*
X89982401Y-63390001D01*
G75*
G02*
X89807401Y-63215001I0J175000D01*
G01*
X89807401Y-61515001D01*
G75*
G02*
X89982401Y-61340001I175000J0D01*
G01*
G37*
D16*
X54826001Y-71574001D03*
D17*
X57366001Y-71574001D03*
X59906001Y-71574001D03*
X62446001Y-71574001D03*
X64986001Y-71574001D03*
X67526001Y-71574001D03*
X70066001Y-71574001D03*
X72606001Y-71574001D03*
X75146001Y-71574001D03*
X77686001Y-71574001D03*
X80226001Y-71574001D03*
X82766001Y-71574001D03*
X85306001Y-71574001D03*
X87846001Y-71574001D03*
X90386001Y-71574001D03*
X92926001Y-71574001D03*
X95466001Y-71574001D03*
X98006001Y-71574001D03*
X100546001Y-71574001D03*
X103086001Y-71574001D03*
D16*
X98768001Y-53032001D03*
D17*
X101308001Y-53032001D03*
X103848001Y-53032001D03*
M02*
