G04 #@! TF.GenerationSoftware,KiCad,Pcbnew,5.1.6-c6e7f7d~87~ubuntu20.04.1*
G04 #@! TF.CreationDate,2020-08-20T22:35:19+10:00*
G04 #@! TF.ProjectId,jackco-esp32-pico-panel-v2,6a61636b-636f-42d6-9573-7033322d7069,rev?*
G04 #@! TF.SameCoordinates,Original*
G04 #@! TF.FileFunction,Profile,NP*
%FSLAX46Y46*%
G04 Gerber Fmt 4.6, Leading zero omitted, Abs format (unit mm)*
G04 Created by KiCad (PCBNEW 5.1.6-c6e7f7d~87~ubuntu20.04.1) date 2020-08-20 22:35:19*
%MOMM*%
%LPD*%
G01*
G04 APERTURE LIST*
G04 #@! TA.AperFunction,Profile*
%ADD10C,0.400000*%
G04 #@! TD*
G04 #@! TA.AperFunction,Profile*
%ADD11C,0.100000*%
G04 #@! TD*
G04 APERTURE END LIST*
D10*
X107150000Y-46712010D02*
X107150000Y-151712010D01*
X50000000Y-46712010D02*
X50000000Y-151712010D01*
X26075003Y-99210000D02*
X131075002Y-99210000D01*
X26075003Y-74610000D02*
X131075002Y-74610000D01*
X26075003Y-123820000D02*
X131075002Y-123820000D01*
D11*
X29075800Y-49721200D02*
X29075000Y-49736100D01*
X29079000Y-49715300D02*
X29075800Y-49721200D01*
X29084200Y-49712800D02*
X29079000Y-49715300D01*
X29099600Y-49712000D02*
X29084200Y-49712800D01*
X128050500Y-49712000D02*
X29099600Y-49712000D01*
X128065800Y-49712800D02*
X128050500Y-49712000D01*
X128071000Y-49715300D02*
X128065800Y-49712800D01*
X128074200Y-49721200D02*
X128071000Y-49715300D01*
X128075000Y-49736600D02*
X128074200Y-49721200D01*
X128075000Y-148687500D02*
X128075000Y-49736600D01*
X128074200Y-148702800D02*
X128075000Y-148687500D01*
X128071700Y-148708000D02*
X128074200Y-148702800D01*
X128065800Y-148711200D02*
X128071700Y-148708000D01*
X128050500Y-148712000D02*
X128065800Y-148711200D01*
X29099600Y-148712000D02*
X128050500Y-148712000D01*
X29084200Y-148711200D02*
X29099600Y-148712000D01*
X29079000Y-148708700D02*
X29084200Y-148711200D01*
X29075800Y-148702800D02*
X29079000Y-148708700D01*
X29075000Y-148687500D02*
X29075800Y-148702800D01*
X29075000Y-49736100D02*
X29075000Y-148687500D01*
M02*
