G04 #@! TF.GenerationSoftware,KiCad,Pcbnew,5.1.7-a382d34a8~87~ubuntu20.04.1*
G04 #@! TF.CreationDate,2020-11-13T11:14:20+11:00*
G04 #@! TF.ProjectId,jackco-esp32-pico-panel-v2,6a61636b-636f-42d6-9573-7033322d7069,rev?*
G04 #@! TF.SameCoordinates,Original*
G04 #@! TF.FileFunction,Soldermask,Top*
G04 #@! TF.FilePolarity,Negative*
%FSLAX46Y46*%
G04 Gerber Fmt 4.6, Leading zero omitted, Abs format (unit mm)*
G04 Created by KiCad (PCBNEW 5.1.7-a382d34a8~87~ubuntu20.04.1) date 2020-11-13 11:14:20*
%MOMM*%
%LPD*%
G01*
G04 APERTURE LIST*
%ADD10C,1.500000*%
%ADD11C,2.000000*%
%ADD12R,2.500000X2.000000*%
%ADD13O,1.600000X1.000000*%
%ADD14C,0.650000*%
%ADD15O,2.100000X1.000000*%
%ADD16R,1.700000X1.700000*%
%ADD17O,1.700000X1.700000*%
%ADD18C,0.100000*%
G04 APERTURE END LIST*
D10*
X31575003Y-145712010D03*
X125575002Y-52712010D03*
X31575003Y-52712010D03*
D11*
X31575003Y-142712010D03*
X125575002Y-55712010D03*
X31575003Y-55712010D03*
D12*
X51778001Y-137442016D03*
X51778001Y-127942016D03*
G36*
G01*
X73069001Y-137953516D02*
X73069001Y-138428516D01*
G75*
G02*
X72831501Y-138666016I-237500J0D01*
G01*
X72256501Y-138666016D01*
G75*
G02*
X72019001Y-138428516I0J237500D01*
G01*
X72019001Y-137953516D01*
G75*
G02*
X72256501Y-137716016I237500J0D01*
G01*
X72831501Y-137716016D01*
G75*
G02*
X73069001Y-137953516I0J-237500D01*
G01*
G37*
G36*
G01*
X74819001Y-137953516D02*
X74819001Y-138428516D01*
G75*
G02*
X74581501Y-138666016I-237500J0D01*
G01*
X74006501Y-138666016D01*
G75*
G02*
X73769001Y-138428516I0J237500D01*
G01*
X73769001Y-137953516D01*
G75*
G02*
X74006501Y-137716016I237500J0D01*
G01*
X74581501Y-137716016D01*
G75*
G02*
X74819001Y-137953516I0J-237500D01*
G01*
G37*
G36*
G01*
X93620701Y-136022416D02*
X93145701Y-136022416D01*
G75*
G02*
X92908201Y-135784916I0J237500D01*
G01*
X92908201Y-135209916D01*
G75*
G02*
X93145701Y-134972416I237500J0D01*
G01*
X93620701Y-134972416D01*
G75*
G02*
X93858201Y-135209916I0J-237500D01*
G01*
X93858201Y-135784916D01*
G75*
G02*
X93620701Y-136022416I-237500J0D01*
G01*
G37*
G36*
G01*
X93620701Y-134272416D02*
X93145701Y-134272416D01*
G75*
G02*
X92908201Y-134034916I0J237500D01*
G01*
X92908201Y-133459916D01*
G75*
G02*
X93145701Y-133222416I237500J0D01*
G01*
X93620701Y-133222416D01*
G75*
G02*
X93858201Y-133459916I0J-237500D01*
G01*
X93858201Y-134034916D01*
G75*
G02*
X93620701Y-134272416I-237500J0D01*
G01*
G37*
G36*
G01*
X85594001Y-127828516D02*
X85594001Y-127353516D01*
G75*
G02*
X85831501Y-127116016I237500J0D01*
G01*
X86406501Y-127116016D01*
G75*
G02*
X86644001Y-127353516I0J-237500D01*
G01*
X86644001Y-127828516D01*
G75*
G02*
X86406501Y-128066016I-237500J0D01*
G01*
X85831501Y-128066016D01*
G75*
G02*
X85594001Y-127828516I0J237500D01*
G01*
G37*
G36*
G01*
X87344001Y-127828516D02*
X87344001Y-127353516D01*
G75*
G02*
X87581501Y-127116016I237500J0D01*
G01*
X88156501Y-127116016D01*
G75*
G02*
X88394001Y-127353516I0J-237500D01*
G01*
X88394001Y-127828516D01*
G75*
G02*
X88156501Y-128066016I-237500J0D01*
G01*
X87581501Y-128066016D01*
G75*
G02*
X87344001Y-127828516I0J237500D01*
G01*
G37*
G36*
G01*
X96906602Y-132615616D02*
X96006600Y-132615616D01*
G75*
G02*
X95756601Y-132365617I0J249999D01*
G01*
X95756601Y-131715615D01*
G75*
G02*
X96006600Y-131465616I249999J0D01*
G01*
X96906602Y-131465616D01*
G75*
G02*
X97156601Y-131715615I0J-249999D01*
G01*
X97156601Y-132365617D01*
G75*
G02*
X96906602Y-132615616I-249999J0D01*
G01*
G37*
G36*
G01*
X96906602Y-130565616D02*
X96006600Y-130565616D01*
G75*
G02*
X95756601Y-130315617I0J249999D01*
G01*
X95756601Y-129665615D01*
G75*
G02*
X96006600Y-129415616I249999J0D01*
G01*
X96906602Y-129415616D01*
G75*
G02*
X97156601Y-129665615I0J-249999D01*
G01*
X97156601Y-130315617D01*
G75*
G02*
X96906602Y-130565616I-249999J0D01*
G01*
G37*
G36*
G01*
X91859401Y-129560617D02*
X91859401Y-128660615D01*
G75*
G02*
X92109400Y-128410616I249999J0D01*
G01*
X92759402Y-128410616D01*
G75*
G02*
X93009401Y-128660615I0J-249999D01*
G01*
X93009401Y-129560617D01*
G75*
G02*
X92759402Y-129810616I-249999J0D01*
G01*
X92109400Y-129810616D01*
G75*
G02*
X91859401Y-129560617I0J249999D01*
G01*
G37*
G36*
G01*
X93909401Y-129560617D02*
X93909401Y-128660615D01*
G75*
G02*
X94159400Y-128410616I249999J0D01*
G01*
X94809402Y-128410616D01*
G75*
G02*
X95059401Y-128660615I0J-249999D01*
G01*
X95059401Y-129560617D01*
G75*
G02*
X94809402Y-129810616I-249999J0D01*
G01*
X94159400Y-129810616D01*
G75*
G02*
X93909401Y-129560617I0J249999D01*
G01*
G37*
G36*
G01*
X101400401Y-140903415D02*
X101400401Y-141803417D01*
G75*
G02*
X101150402Y-142053416I-249999J0D01*
G01*
X100500400Y-142053416D01*
G75*
G02*
X100250401Y-141803417I0J249999D01*
G01*
X100250401Y-140903415D01*
G75*
G02*
X100500400Y-140653416I249999J0D01*
G01*
X101150402Y-140653416D01*
G75*
G02*
X101400401Y-140903415I0J-249999D01*
G01*
G37*
G36*
G01*
X99350401Y-140903415D02*
X99350401Y-141803417D01*
G75*
G02*
X99100402Y-142053416I-249999J0D01*
G01*
X98450400Y-142053416D01*
G75*
G02*
X98200401Y-141803417I0J249999D01*
G01*
X98200401Y-140903415D01*
G75*
G02*
X98450400Y-140653416I249999J0D01*
G01*
X99100402Y-140653416D01*
G75*
G02*
X99350401Y-140903415I0J-249999D01*
G01*
G37*
D13*
X104364601Y-138409016D03*
D14*
X100714601Y-136979016D03*
D13*
X104364601Y-129769016D03*
D14*
X100714601Y-131199016D03*
D15*
X100184601Y-129769016D03*
X100184601Y-138409016D03*
D16*
X60414001Y-127866016D03*
D17*
X62954001Y-127866016D03*
X65494001Y-127866016D03*
X68034001Y-127866016D03*
X70574001Y-127866016D03*
X73114001Y-127866016D03*
X75654001Y-127866016D03*
X78194001Y-127866016D03*
X80734001Y-127866016D03*
X83274001Y-127866016D03*
G36*
G01*
X105169001Y-132553516D02*
X105169001Y-133028516D01*
G75*
G02*
X104931501Y-133266016I-237500J0D01*
G01*
X104356501Y-133266016D01*
G75*
G02*
X104119001Y-133028516I0J237500D01*
G01*
X104119001Y-132553516D01*
G75*
G02*
X104356501Y-132316016I237500J0D01*
G01*
X104931501Y-132316016D01*
G75*
G02*
X105169001Y-132553516I0J-237500D01*
G01*
G37*
G36*
G01*
X103419001Y-132553516D02*
X103419001Y-133028516D01*
G75*
G02*
X103181501Y-133266016I-237500J0D01*
G01*
X102606501Y-133266016D01*
G75*
G02*
X102369001Y-133028516I0J237500D01*
G01*
X102369001Y-132553516D01*
G75*
G02*
X102606501Y-132316016I237500J0D01*
G01*
X103181501Y-132316016D01*
G75*
G02*
X103419001Y-132553516I0J-237500D01*
G01*
G37*
G36*
G01*
X105144001Y-135503516D02*
X105144001Y-135978516D01*
G75*
G02*
X104906501Y-136216016I-237500J0D01*
G01*
X104331501Y-136216016D01*
G75*
G02*
X104094001Y-135978516I0J237500D01*
G01*
X104094001Y-135503516D01*
G75*
G02*
X104331501Y-135266016I237500J0D01*
G01*
X104906501Y-135266016D01*
G75*
G02*
X105144001Y-135503516I0J-237500D01*
G01*
G37*
G36*
G01*
X103394001Y-135503516D02*
X103394001Y-135978516D01*
G75*
G02*
X103156501Y-136216016I-237500J0D01*
G01*
X102581501Y-136216016D01*
G75*
G02*
X102344001Y-135978516I0J237500D01*
G01*
X102344001Y-135503516D01*
G75*
G02*
X102581501Y-135266016I237500J0D01*
G01*
X103156501Y-135266016D01*
G75*
G02*
X103394001Y-135503516I0J-237500D01*
G01*
G37*
G36*
G01*
X59264672Y-138174790D02*
X59176283Y-138086401D01*
G75*
G02*
X59176283Y-137998013I44194J44194D01*
G01*
X59653580Y-137520716D01*
G75*
G02*
X59741968Y-137520716I44194J-44194D01*
G01*
X59830357Y-137609105D01*
G75*
G02*
X59830357Y-137697493I-44194J-44194D01*
G01*
X59353060Y-138174790D01*
G75*
G02*
X59264672Y-138174790I-44194J44194D01*
G01*
G37*
G36*
G01*
X59618225Y-138528343D02*
X59529836Y-138439954D01*
G75*
G02*
X59529836Y-138351566I44194J44194D01*
G01*
X60007133Y-137874269D01*
G75*
G02*
X60095521Y-137874269I44194J-44194D01*
G01*
X60183910Y-137962658D01*
G75*
G02*
X60183910Y-138051046I-44194J-44194D01*
G01*
X59706613Y-138528343D01*
G75*
G02*
X59618225Y-138528343I-44194J44194D01*
G01*
G37*
G36*
G01*
X59971779Y-138881897D02*
X59883390Y-138793508D01*
G75*
G02*
X59883390Y-138705120I44194J44194D01*
G01*
X60360687Y-138227823D01*
G75*
G02*
X60449075Y-138227823I44194J-44194D01*
G01*
X60537464Y-138316212D01*
G75*
G02*
X60537464Y-138404600I-44194J-44194D01*
G01*
X60060167Y-138881897D01*
G75*
G02*
X59971779Y-138881897I-44194J44194D01*
G01*
G37*
G36*
G01*
X60325332Y-139235450D02*
X60236943Y-139147061D01*
G75*
G02*
X60236943Y-139058673I44194J44194D01*
G01*
X60714240Y-138581376D01*
G75*
G02*
X60802628Y-138581376I44194J-44194D01*
G01*
X60891017Y-138669765D01*
G75*
G02*
X60891017Y-138758153I-44194J-44194D01*
G01*
X60413720Y-139235450D01*
G75*
G02*
X60325332Y-139235450I-44194J44194D01*
G01*
G37*
G36*
G01*
X60678886Y-139589003D02*
X60590497Y-139500614D01*
G75*
G02*
X60590497Y-139412226I44194J44194D01*
G01*
X61067794Y-138934929D01*
G75*
G02*
X61156182Y-138934929I44194J-44194D01*
G01*
X61244571Y-139023318D01*
G75*
G02*
X61244571Y-139111706I-44194J-44194D01*
G01*
X60767274Y-139589003D01*
G75*
G02*
X60678886Y-139589003I-44194J44194D01*
G01*
G37*
G36*
G01*
X61032439Y-139942557D02*
X60944050Y-139854168D01*
G75*
G02*
X60944050Y-139765780I44194J44194D01*
G01*
X61421347Y-139288483D01*
G75*
G02*
X61509735Y-139288483I44194J-44194D01*
G01*
X61598124Y-139376872D01*
G75*
G02*
X61598124Y-139465260I-44194J-44194D01*
G01*
X61120827Y-139942557D01*
G75*
G02*
X61032439Y-139942557I-44194J44194D01*
G01*
G37*
G36*
G01*
X61385992Y-140296110D02*
X61297603Y-140207721D01*
G75*
G02*
X61297603Y-140119333I44194J44194D01*
G01*
X61774900Y-139642036D01*
G75*
G02*
X61863288Y-139642036I44194J-44194D01*
G01*
X61951677Y-139730425D01*
G75*
G02*
X61951677Y-139818813I-44194J-44194D01*
G01*
X61474380Y-140296110D01*
G75*
G02*
X61385992Y-140296110I-44194J44194D01*
G01*
G37*
G36*
G01*
X61739546Y-140649663D02*
X61651157Y-140561274D01*
G75*
G02*
X61651157Y-140472886I44194J44194D01*
G01*
X62128454Y-139995589D01*
G75*
G02*
X62216842Y-139995589I44194J-44194D01*
G01*
X62305231Y-140083978D01*
G75*
G02*
X62305231Y-140172366I-44194J-44194D01*
G01*
X61827934Y-140649663D01*
G75*
G02*
X61739546Y-140649663I-44194J44194D01*
G01*
G37*
G36*
G01*
X62093099Y-141003217D02*
X62004710Y-140914828D01*
G75*
G02*
X62004710Y-140826440I44194J44194D01*
G01*
X62482007Y-140349143D01*
G75*
G02*
X62570395Y-140349143I44194J-44194D01*
G01*
X62658784Y-140437532D01*
G75*
G02*
X62658784Y-140525920I-44194J-44194D01*
G01*
X62181487Y-141003217D01*
G75*
G02*
X62093099Y-141003217I-44194J44194D01*
G01*
G37*
G36*
G01*
X62446652Y-141356770D02*
X62358263Y-141268381D01*
G75*
G02*
X62358263Y-141179993I44194J44194D01*
G01*
X62835560Y-140702696D01*
G75*
G02*
X62923948Y-140702696I44194J-44194D01*
G01*
X63012337Y-140791085D01*
G75*
G02*
X63012337Y-140879473I-44194J-44194D01*
G01*
X62535040Y-141356770D01*
G75*
G02*
X62446652Y-141356770I-44194J44194D01*
G01*
G37*
G36*
G01*
X62800206Y-141710324D02*
X62711817Y-141621935D01*
G75*
G02*
X62711817Y-141533547I44194J44194D01*
G01*
X63189114Y-141056250D01*
G75*
G02*
X63277502Y-141056250I44194J-44194D01*
G01*
X63365891Y-141144639D01*
G75*
G02*
X63365891Y-141233027I-44194J-44194D01*
G01*
X62888594Y-141710324D01*
G75*
G02*
X62800206Y-141710324I-44194J44194D01*
G01*
G37*
G36*
G01*
X63153759Y-142063877D02*
X63065370Y-141975488D01*
G75*
G02*
X63065370Y-141887100I44194J44194D01*
G01*
X63542667Y-141409803D01*
G75*
G02*
X63631055Y-141409803I44194J-44194D01*
G01*
X63719444Y-141498192D01*
G75*
G02*
X63719444Y-141586580I-44194J-44194D01*
G01*
X63242147Y-142063877D01*
G75*
G02*
X63153759Y-142063877I-44194J44194D01*
G01*
G37*
G36*
G01*
X64532617Y-142063877D02*
X64055320Y-141586580D01*
G75*
G02*
X64055320Y-141498192I44194J44194D01*
G01*
X64143709Y-141409803D01*
G75*
G02*
X64232097Y-141409803I44194J-44194D01*
G01*
X64709394Y-141887100D01*
G75*
G02*
X64709394Y-141975488I-44194J-44194D01*
G01*
X64621005Y-142063877D01*
G75*
G02*
X64532617Y-142063877I-44194J44194D01*
G01*
G37*
G36*
G01*
X64886170Y-141710324D02*
X64408873Y-141233027D01*
G75*
G02*
X64408873Y-141144639I44194J44194D01*
G01*
X64497262Y-141056250D01*
G75*
G02*
X64585650Y-141056250I44194J-44194D01*
G01*
X65062947Y-141533547D01*
G75*
G02*
X65062947Y-141621935I-44194J-44194D01*
G01*
X64974558Y-141710324D01*
G75*
G02*
X64886170Y-141710324I-44194J44194D01*
G01*
G37*
G36*
G01*
X65239724Y-141356770D02*
X64762427Y-140879473D01*
G75*
G02*
X64762427Y-140791085I44194J44194D01*
G01*
X64850816Y-140702696D01*
G75*
G02*
X64939204Y-140702696I44194J-44194D01*
G01*
X65416501Y-141179993D01*
G75*
G02*
X65416501Y-141268381I-44194J-44194D01*
G01*
X65328112Y-141356770D01*
G75*
G02*
X65239724Y-141356770I-44194J44194D01*
G01*
G37*
G36*
G01*
X65593277Y-141003217D02*
X65115980Y-140525920D01*
G75*
G02*
X65115980Y-140437532I44194J44194D01*
G01*
X65204369Y-140349143D01*
G75*
G02*
X65292757Y-140349143I44194J-44194D01*
G01*
X65770054Y-140826440D01*
G75*
G02*
X65770054Y-140914828I-44194J-44194D01*
G01*
X65681665Y-141003217D01*
G75*
G02*
X65593277Y-141003217I-44194J44194D01*
G01*
G37*
G36*
G01*
X65946830Y-140649663D02*
X65469533Y-140172366D01*
G75*
G02*
X65469533Y-140083978I44194J44194D01*
G01*
X65557922Y-139995589D01*
G75*
G02*
X65646310Y-139995589I44194J-44194D01*
G01*
X66123607Y-140472886D01*
G75*
G02*
X66123607Y-140561274I-44194J-44194D01*
G01*
X66035218Y-140649663D01*
G75*
G02*
X65946830Y-140649663I-44194J44194D01*
G01*
G37*
G36*
G01*
X66300384Y-140296110D02*
X65823087Y-139818813D01*
G75*
G02*
X65823087Y-139730425I44194J44194D01*
G01*
X65911476Y-139642036D01*
G75*
G02*
X65999864Y-139642036I44194J-44194D01*
G01*
X66477161Y-140119333D01*
G75*
G02*
X66477161Y-140207721I-44194J-44194D01*
G01*
X66388772Y-140296110D01*
G75*
G02*
X66300384Y-140296110I-44194J44194D01*
G01*
G37*
G36*
G01*
X66653937Y-139942557D02*
X66176640Y-139465260D01*
G75*
G02*
X66176640Y-139376872I44194J44194D01*
G01*
X66265029Y-139288483D01*
G75*
G02*
X66353417Y-139288483I44194J-44194D01*
G01*
X66830714Y-139765780D01*
G75*
G02*
X66830714Y-139854168I-44194J-44194D01*
G01*
X66742325Y-139942557D01*
G75*
G02*
X66653937Y-139942557I-44194J44194D01*
G01*
G37*
G36*
G01*
X67007490Y-139589003D02*
X66530193Y-139111706D01*
G75*
G02*
X66530193Y-139023318I44194J44194D01*
G01*
X66618582Y-138934929D01*
G75*
G02*
X66706970Y-138934929I44194J-44194D01*
G01*
X67184267Y-139412226D01*
G75*
G02*
X67184267Y-139500614I-44194J-44194D01*
G01*
X67095878Y-139589003D01*
G75*
G02*
X67007490Y-139589003I-44194J44194D01*
G01*
G37*
G36*
G01*
X67361044Y-139235450D02*
X66883747Y-138758153D01*
G75*
G02*
X66883747Y-138669765I44194J44194D01*
G01*
X66972136Y-138581376D01*
G75*
G02*
X67060524Y-138581376I44194J-44194D01*
G01*
X67537821Y-139058673D01*
G75*
G02*
X67537821Y-139147061I-44194J-44194D01*
G01*
X67449432Y-139235450D01*
G75*
G02*
X67361044Y-139235450I-44194J44194D01*
G01*
G37*
G36*
G01*
X67714597Y-138881897D02*
X67237300Y-138404600D01*
G75*
G02*
X67237300Y-138316212I44194J44194D01*
G01*
X67325689Y-138227823D01*
G75*
G02*
X67414077Y-138227823I44194J-44194D01*
G01*
X67891374Y-138705120D01*
G75*
G02*
X67891374Y-138793508I-44194J-44194D01*
G01*
X67802985Y-138881897D01*
G75*
G02*
X67714597Y-138881897I-44194J44194D01*
G01*
G37*
G36*
G01*
X68068151Y-138528343D02*
X67590854Y-138051046D01*
G75*
G02*
X67590854Y-137962658I44194J44194D01*
G01*
X67679243Y-137874269D01*
G75*
G02*
X67767631Y-137874269I44194J-44194D01*
G01*
X68244928Y-138351566D01*
G75*
G02*
X68244928Y-138439954I-44194J-44194D01*
G01*
X68156539Y-138528343D01*
G75*
G02*
X68068151Y-138528343I-44194J44194D01*
G01*
G37*
G36*
G01*
X68421704Y-138174790D02*
X67944407Y-137697493D01*
G75*
G02*
X67944407Y-137609105I44194J44194D01*
G01*
X68032796Y-137520716D01*
G75*
G02*
X68121184Y-137520716I44194J-44194D01*
G01*
X68598481Y-137998013D01*
G75*
G02*
X68598481Y-138086401I-44194J-44194D01*
G01*
X68510092Y-138174790D01*
G75*
G02*
X68421704Y-138174790I-44194J44194D01*
G01*
G37*
G36*
G01*
X68032796Y-137184840D02*
X67944407Y-137096451D01*
G75*
G02*
X67944407Y-137008063I44194J44194D01*
G01*
X68421704Y-136530766D01*
G75*
G02*
X68510092Y-136530766I44194J-44194D01*
G01*
X68598481Y-136619155D01*
G75*
G02*
X68598481Y-136707543I-44194J-44194D01*
G01*
X68121184Y-137184840D01*
G75*
G02*
X68032796Y-137184840I-44194J44194D01*
G01*
G37*
G36*
G01*
X67679243Y-136831287D02*
X67590854Y-136742898D01*
G75*
G02*
X67590854Y-136654510I44194J44194D01*
G01*
X68068151Y-136177213D01*
G75*
G02*
X68156539Y-136177213I44194J-44194D01*
G01*
X68244928Y-136265602D01*
G75*
G02*
X68244928Y-136353990I-44194J-44194D01*
G01*
X67767631Y-136831287D01*
G75*
G02*
X67679243Y-136831287I-44194J44194D01*
G01*
G37*
G36*
G01*
X67325689Y-136477733D02*
X67237300Y-136389344D01*
G75*
G02*
X67237300Y-136300956I44194J44194D01*
G01*
X67714597Y-135823659D01*
G75*
G02*
X67802985Y-135823659I44194J-44194D01*
G01*
X67891374Y-135912048D01*
G75*
G02*
X67891374Y-136000436I-44194J-44194D01*
G01*
X67414077Y-136477733D01*
G75*
G02*
X67325689Y-136477733I-44194J44194D01*
G01*
G37*
G36*
G01*
X66972136Y-136124180D02*
X66883747Y-136035791D01*
G75*
G02*
X66883747Y-135947403I44194J44194D01*
G01*
X67361044Y-135470106D01*
G75*
G02*
X67449432Y-135470106I44194J-44194D01*
G01*
X67537821Y-135558495D01*
G75*
G02*
X67537821Y-135646883I-44194J-44194D01*
G01*
X67060524Y-136124180D01*
G75*
G02*
X66972136Y-136124180I-44194J44194D01*
G01*
G37*
G36*
G01*
X66618582Y-135770627D02*
X66530193Y-135682238D01*
G75*
G02*
X66530193Y-135593850I44194J44194D01*
G01*
X67007490Y-135116553D01*
G75*
G02*
X67095878Y-135116553I44194J-44194D01*
G01*
X67184267Y-135204942D01*
G75*
G02*
X67184267Y-135293330I-44194J-44194D01*
G01*
X66706970Y-135770627D01*
G75*
G02*
X66618582Y-135770627I-44194J44194D01*
G01*
G37*
G36*
G01*
X66265029Y-135417073D02*
X66176640Y-135328684D01*
G75*
G02*
X66176640Y-135240296I44194J44194D01*
G01*
X66653937Y-134762999D01*
G75*
G02*
X66742325Y-134762999I44194J-44194D01*
G01*
X66830714Y-134851388D01*
G75*
G02*
X66830714Y-134939776I-44194J-44194D01*
G01*
X66353417Y-135417073D01*
G75*
G02*
X66265029Y-135417073I-44194J44194D01*
G01*
G37*
G36*
G01*
X65911476Y-135063520D02*
X65823087Y-134975131D01*
G75*
G02*
X65823087Y-134886743I44194J44194D01*
G01*
X66300384Y-134409446D01*
G75*
G02*
X66388772Y-134409446I44194J-44194D01*
G01*
X66477161Y-134497835D01*
G75*
G02*
X66477161Y-134586223I-44194J-44194D01*
G01*
X65999864Y-135063520D01*
G75*
G02*
X65911476Y-135063520I-44194J44194D01*
G01*
G37*
G36*
G01*
X65557922Y-134709967D02*
X65469533Y-134621578D01*
G75*
G02*
X65469533Y-134533190I44194J44194D01*
G01*
X65946830Y-134055893D01*
G75*
G02*
X66035218Y-134055893I44194J-44194D01*
G01*
X66123607Y-134144282D01*
G75*
G02*
X66123607Y-134232670I-44194J-44194D01*
G01*
X65646310Y-134709967D01*
G75*
G02*
X65557922Y-134709967I-44194J44194D01*
G01*
G37*
G36*
G01*
X65204369Y-134356413D02*
X65115980Y-134268024D01*
G75*
G02*
X65115980Y-134179636I44194J44194D01*
G01*
X65593277Y-133702339D01*
G75*
G02*
X65681665Y-133702339I44194J-44194D01*
G01*
X65770054Y-133790728D01*
G75*
G02*
X65770054Y-133879116I-44194J-44194D01*
G01*
X65292757Y-134356413D01*
G75*
G02*
X65204369Y-134356413I-44194J44194D01*
G01*
G37*
G36*
G01*
X64850816Y-134002860D02*
X64762427Y-133914471D01*
G75*
G02*
X64762427Y-133826083I44194J44194D01*
G01*
X65239724Y-133348786D01*
G75*
G02*
X65328112Y-133348786I44194J-44194D01*
G01*
X65416501Y-133437175D01*
G75*
G02*
X65416501Y-133525563I-44194J-44194D01*
G01*
X64939204Y-134002860D01*
G75*
G02*
X64850816Y-134002860I-44194J44194D01*
G01*
G37*
G36*
G01*
X64497262Y-133649306D02*
X64408873Y-133560917D01*
G75*
G02*
X64408873Y-133472529I44194J44194D01*
G01*
X64886170Y-132995232D01*
G75*
G02*
X64974558Y-132995232I44194J-44194D01*
G01*
X65062947Y-133083621D01*
G75*
G02*
X65062947Y-133172009I-44194J-44194D01*
G01*
X64585650Y-133649306D01*
G75*
G02*
X64497262Y-133649306I-44194J44194D01*
G01*
G37*
G36*
G01*
X64143709Y-133295753D02*
X64055320Y-133207364D01*
G75*
G02*
X64055320Y-133118976I44194J44194D01*
G01*
X64532617Y-132641679D01*
G75*
G02*
X64621005Y-132641679I44194J-44194D01*
G01*
X64709394Y-132730068D01*
G75*
G02*
X64709394Y-132818456I-44194J-44194D01*
G01*
X64232097Y-133295753D01*
G75*
G02*
X64143709Y-133295753I-44194J44194D01*
G01*
G37*
G36*
G01*
X63542667Y-133295753D02*
X63065370Y-132818456D01*
G75*
G02*
X63065370Y-132730068I44194J44194D01*
G01*
X63153759Y-132641679D01*
G75*
G02*
X63242147Y-132641679I44194J-44194D01*
G01*
X63719444Y-133118976D01*
G75*
G02*
X63719444Y-133207364I-44194J-44194D01*
G01*
X63631055Y-133295753D01*
G75*
G02*
X63542667Y-133295753I-44194J44194D01*
G01*
G37*
G36*
G01*
X63189114Y-133649306D02*
X62711817Y-133172009D01*
G75*
G02*
X62711817Y-133083621I44194J44194D01*
G01*
X62800206Y-132995232D01*
G75*
G02*
X62888594Y-132995232I44194J-44194D01*
G01*
X63365891Y-133472529D01*
G75*
G02*
X63365891Y-133560917I-44194J-44194D01*
G01*
X63277502Y-133649306D01*
G75*
G02*
X63189114Y-133649306I-44194J44194D01*
G01*
G37*
G36*
G01*
X62835560Y-134002860D02*
X62358263Y-133525563D01*
G75*
G02*
X62358263Y-133437175I44194J44194D01*
G01*
X62446652Y-133348786D01*
G75*
G02*
X62535040Y-133348786I44194J-44194D01*
G01*
X63012337Y-133826083D01*
G75*
G02*
X63012337Y-133914471I-44194J-44194D01*
G01*
X62923948Y-134002860D01*
G75*
G02*
X62835560Y-134002860I-44194J44194D01*
G01*
G37*
G36*
G01*
X62482007Y-134356413D02*
X62004710Y-133879116D01*
G75*
G02*
X62004710Y-133790728I44194J44194D01*
G01*
X62093099Y-133702339D01*
G75*
G02*
X62181487Y-133702339I44194J-44194D01*
G01*
X62658784Y-134179636D01*
G75*
G02*
X62658784Y-134268024I-44194J-44194D01*
G01*
X62570395Y-134356413D01*
G75*
G02*
X62482007Y-134356413I-44194J44194D01*
G01*
G37*
G36*
G01*
X62128454Y-134709967D02*
X61651157Y-134232670D01*
G75*
G02*
X61651157Y-134144282I44194J44194D01*
G01*
X61739546Y-134055893D01*
G75*
G02*
X61827934Y-134055893I44194J-44194D01*
G01*
X62305231Y-134533190D01*
G75*
G02*
X62305231Y-134621578I-44194J-44194D01*
G01*
X62216842Y-134709967D01*
G75*
G02*
X62128454Y-134709967I-44194J44194D01*
G01*
G37*
G36*
G01*
X61774900Y-135063520D02*
X61297603Y-134586223D01*
G75*
G02*
X61297603Y-134497835I44194J44194D01*
G01*
X61385992Y-134409446D01*
G75*
G02*
X61474380Y-134409446I44194J-44194D01*
G01*
X61951677Y-134886743D01*
G75*
G02*
X61951677Y-134975131I-44194J-44194D01*
G01*
X61863288Y-135063520D01*
G75*
G02*
X61774900Y-135063520I-44194J44194D01*
G01*
G37*
G36*
G01*
X61421347Y-135417073D02*
X60944050Y-134939776D01*
G75*
G02*
X60944050Y-134851388I44194J44194D01*
G01*
X61032439Y-134762999D01*
G75*
G02*
X61120827Y-134762999I44194J-44194D01*
G01*
X61598124Y-135240296D01*
G75*
G02*
X61598124Y-135328684I-44194J-44194D01*
G01*
X61509735Y-135417073D01*
G75*
G02*
X61421347Y-135417073I-44194J44194D01*
G01*
G37*
G36*
G01*
X61067794Y-135770627D02*
X60590497Y-135293330D01*
G75*
G02*
X60590497Y-135204942I44194J44194D01*
G01*
X60678886Y-135116553D01*
G75*
G02*
X60767274Y-135116553I44194J-44194D01*
G01*
X61244571Y-135593850D01*
G75*
G02*
X61244571Y-135682238I-44194J-44194D01*
G01*
X61156182Y-135770627D01*
G75*
G02*
X61067794Y-135770627I-44194J44194D01*
G01*
G37*
G36*
G01*
X60714240Y-136124180D02*
X60236943Y-135646883D01*
G75*
G02*
X60236943Y-135558495I44194J44194D01*
G01*
X60325332Y-135470106D01*
G75*
G02*
X60413720Y-135470106I44194J-44194D01*
G01*
X60891017Y-135947403D01*
G75*
G02*
X60891017Y-136035791I-44194J-44194D01*
G01*
X60802628Y-136124180D01*
G75*
G02*
X60714240Y-136124180I-44194J44194D01*
G01*
G37*
G36*
G01*
X60360687Y-136477733D02*
X59883390Y-136000436D01*
G75*
G02*
X59883390Y-135912048I44194J44194D01*
G01*
X59971779Y-135823659D01*
G75*
G02*
X60060167Y-135823659I44194J-44194D01*
G01*
X60537464Y-136300956D01*
G75*
G02*
X60537464Y-136389344I-44194J-44194D01*
G01*
X60449075Y-136477733D01*
G75*
G02*
X60360687Y-136477733I-44194J44194D01*
G01*
G37*
G36*
G01*
X60007133Y-136831287D02*
X59529836Y-136353990D01*
G75*
G02*
X59529836Y-136265602I44194J44194D01*
G01*
X59618225Y-136177213D01*
G75*
G02*
X59706613Y-136177213I44194J-44194D01*
G01*
X60183910Y-136654510D01*
G75*
G02*
X60183910Y-136742898I-44194J-44194D01*
G01*
X60095521Y-136831287D01*
G75*
G02*
X60007133Y-136831287I-44194J44194D01*
G01*
G37*
G36*
G01*
X59653580Y-137184840D02*
X59176283Y-136707543D01*
G75*
G02*
X59176283Y-136619155I44194J44194D01*
G01*
X59264672Y-136530766D01*
G75*
G02*
X59353060Y-136530766I44194J-44194D01*
G01*
X59830357Y-137008063D01*
G75*
G02*
X59830357Y-137096451I-44194J-44194D01*
G01*
X59741968Y-137184840D01*
G75*
G02*
X59653580Y-137184840I-44194J44194D01*
G01*
G37*
D18*
G36*
X63887382Y-141100444D02*
G01*
X60139716Y-137352778D01*
X63887382Y-133605112D01*
X67635048Y-137352778D01*
X63887382Y-141100444D01*
G37*
G36*
G01*
X77044001Y-136396016D02*
X77044001Y-136696016D01*
G75*
G02*
X76894001Y-136846016I-150000J0D01*
G01*
X75244001Y-136846016D01*
G75*
G02*
X75094001Y-136696016I0J150000D01*
G01*
X75094001Y-136396016D01*
G75*
G02*
X75244001Y-136246016I150000J0D01*
G01*
X76894001Y-136246016D01*
G75*
G02*
X77044001Y-136396016I0J-150000D01*
G01*
G37*
G36*
G01*
X77044001Y-135126016D02*
X77044001Y-135426016D01*
G75*
G02*
X76894001Y-135576016I-150000J0D01*
G01*
X75244001Y-135576016D01*
G75*
G02*
X75094001Y-135426016I0J150000D01*
G01*
X75094001Y-135126016D01*
G75*
G02*
X75244001Y-134976016I150000J0D01*
G01*
X76894001Y-134976016D01*
G75*
G02*
X77044001Y-135126016I0J-150000D01*
G01*
G37*
G36*
G01*
X77044001Y-133856016D02*
X77044001Y-134156016D01*
G75*
G02*
X76894001Y-134306016I-150000J0D01*
G01*
X75244001Y-134306016D01*
G75*
G02*
X75094001Y-134156016I0J150000D01*
G01*
X75094001Y-133856016D01*
G75*
G02*
X75244001Y-133706016I150000J0D01*
G01*
X76894001Y-133706016D01*
G75*
G02*
X77044001Y-133856016I0J-150000D01*
G01*
G37*
G36*
G01*
X77044001Y-132586016D02*
X77044001Y-132886016D01*
G75*
G02*
X76894001Y-133036016I-150000J0D01*
G01*
X75244001Y-133036016D01*
G75*
G02*
X75094001Y-132886016I0J150000D01*
G01*
X75094001Y-132586016D01*
G75*
G02*
X75244001Y-132436016I150000J0D01*
G01*
X76894001Y-132436016D01*
G75*
G02*
X77044001Y-132586016I0J-150000D01*
G01*
G37*
G36*
G01*
X72094001Y-132586016D02*
X72094001Y-132886016D01*
G75*
G02*
X71944001Y-133036016I-150000J0D01*
G01*
X70294001Y-133036016D01*
G75*
G02*
X70144001Y-132886016I0J150000D01*
G01*
X70144001Y-132586016D01*
G75*
G02*
X70294001Y-132436016I150000J0D01*
G01*
X71944001Y-132436016D01*
G75*
G02*
X72094001Y-132586016I0J-150000D01*
G01*
G37*
G36*
G01*
X72094001Y-133856016D02*
X72094001Y-134156016D01*
G75*
G02*
X71944001Y-134306016I-150000J0D01*
G01*
X70294001Y-134306016D01*
G75*
G02*
X70144001Y-134156016I0J150000D01*
G01*
X70144001Y-133856016D01*
G75*
G02*
X70294001Y-133706016I150000J0D01*
G01*
X71944001Y-133706016D01*
G75*
G02*
X72094001Y-133856016I0J-150000D01*
G01*
G37*
G36*
G01*
X72094001Y-135126016D02*
X72094001Y-135426016D01*
G75*
G02*
X71944001Y-135576016I-150000J0D01*
G01*
X70294001Y-135576016D01*
G75*
G02*
X70144001Y-135426016I0J150000D01*
G01*
X70144001Y-135126016D01*
G75*
G02*
X70294001Y-134976016I150000J0D01*
G01*
X71944001Y-134976016D01*
G75*
G02*
X72094001Y-135126016I0J-150000D01*
G01*
G37*
G36*
G01*
X72094001Y-136396016D02*
X72094001Y-136696016D01*
G75*
G02*
X71944001Y-136846016I-150000J0D01*
G01*
X70294001Y-136846016D01*
G75*
G02*
X70144001Y-136696016I0J150000D01*
G01*
X70144001Y-136396016D01*
G75*
G02*
X70294001Y-136246016I150000J0D01*
G01*
X71944001Y-136246016D01*
G75*
G02*
X72094001Y-136396016I0J-150000D01*
G01*
G37*
G36*
G01*
X90007401Y-130258016D02*
X90307401Y-130258016D01*
G75*
G02*
X90457401Y-130408016I0J-150000D01*
G01*
X90457401Y-132058016D01*
G75*
G02*
X90307401Y-132208016I-150000J0D01*
G01*
X90007401Y-132208016D01*
G75*
G02*
X89857401Y-132058016I0J150000D01*
G01*
X89857401Y-130408016D01*
G75*
G02*
X90007401Y-130258016I150000J0D01*
G01*
G37*
G36*
G01*
X88737401Y-130258016D02*
X89037401Y-130258016D01*
G75*
G02*
X89187401Y-130408016I0J-150000D01*
G01*
X89187401Y-132058016D01*
G75*
G02*
X89037401Y-132208016I-150000J0D01*
G01*
X88737401Y-132208016D01*
G75*
G02*
X88587401Y-132058016I0J150000D01*
G01*
X88587401Y-130408016D01*
G75*
G02*
X88737401Y-130258016I150000J0D01*
G01*
G37*
G36*
G01*
X87467401Y-130258016D02*
X87767401Y-130258016D01*
G75*
G02*
X87917401Y-130408016I0J-150000D01*
G01*
X87917401Y-132058016D01*
G75*
G02*
X87767401Y-132208016I-150000J0D01*
G01*
X87467401Y-132208016D01*
G75*
G02*
X87317401Y-132058016I0J150000D01*
G01*
X87317401Y-130408016D01*
G75*
G02*
X87467401Y-130258016I150000J0D01*
G01*
G37*
G36*
G01*
X86197401Y-130258016D02*
X86497401Y-130258016D01*
G75*
G02*
X86647401Y-130408016I0J-150000D01*
G01*
X86647401Y-132058016D01*
G75*
G02*
X86497401Y-132208016I-150000J0D01*
G01*
X86197401Y-132208016D01*
G75*
G02*
X86047401Y-132058016I0J150000D01*
G01*
X86047401Y-130408016D01*
G75*
G02*
X86197401Y-130258016I150000J0D01*
G01*
G37*
G36*
G01*
X84927401Y-130258016D02*
X85227401Y-130258016D01*
G75*
G02*
X85377401Y-130408016I0J-150000D01*
G01*
X85377401Y-132058016D01*
G75*
G02*
X85227401Y-132208016I-150000J0D01*
G01*
X84927401Y-132208016D01*
G75*
G02*
X84777401Y-132058016I0J150000D01*
G01*
X84777401Y-130408016D01*
G75*
G02*
X84927401Y-130258016I150000J0D01*
G01*
G37*
G36*
G01*
X83657401Y-130258016D02*
X83957401Y-130258016D01*
G75*
G02*
X84107401Y-130408016I0J-150000D01*
G01*
X84107401Y-132058016D01*
G75*
G02*
X83957401Y-132208016I-150000J0D01*
G01*
X83657401Y-132208016D01*
G75*
G02*
X83507401Y-132058016I0J150000D01*
G01*
X83507401Y-130408016D01*
G75*
G02*
X83657401Y-130258016I150000J0D01*
G01*
G37*
G36*
G01*
X82387401Y-130258016D02*
X82687401Y-130258016D01*
G75*
G02*
X82837401Y-130408016I0J-150000D01*
G01*
X82837401Y-132058016D01*
G75*
G02*
X82687401Y-132208016I-150000J0D01*
G01*
X82387401Y-132208016D01*
G75*
G02*
X82237401Y-132058016I0J150000D01*
G01*
X82237401Y-130408016D01*
G75*
G02*
X82387401Y-130258016I150000J0D01*
G01*
G37*
G36*
G01*
X81117401Y-130258016D02*
X81417401Y-130258016D01*
G75*
G02*
X81567401Y-130408016I0J-150000D01*
G01*
X81567401Y-132058016D01*
G75*
G02*
X81417401Y-132208016I-150000J0D01*
G01*
X81117401Y-132208016D01*
G75*
G02*
X80967401Y-132058016I0J150000D01*
G01*
X80967401Y-130408016D01*
G75*
G02*
X81117401Y-130258016I150000J0D01*
G01*
G37*
G36*
G01*
X81117401Y-135208016D02*
X81417401Y-135208016D01*
G75*
G02*
X81567401Y-135358016I0J-150000D01*
G01*
X81567401Y-137008016D01*
G75*
G02*
X81417401Y-137158016I-150000J0D01*
G01*
X81117401Y-137158016D01*
G75*
G02*
X80967401Y-137008016I0J150000D01*
G01*
X80967401Y-135358016D01*
G75*
G02*
X81117401Y-135208016I150000J0D01*
G01*
G37*
G36*
G01*
X82387401Y-135208016D02*
X82687401Y-135208016D01*
G75*
G02*
X82837401Y-135358016I0J-150000D01*
G01*
X82837401Y-137008016D01*
G75*
G02*
X82687401Y-137158016I-150000J0D01*
G01*
X82387401Y-137158016D01*
G75*
G02*
X82237401Y-137008016I0J150000D01*
G01*
X82237401Y-135358016D01*
G75*
G02*
X82387401Y-135208016I150000J0D01*
G01*
G37*
G36*
G01*
X83657401Y-135208016D02*
X83957401Y-135208016D01*
G75*
G02*
X84107401Y-135358016I0J-150000D01*
G01*
X84107401Y-137008016D01*
G75*
G02*
X83957401Y-137158016I-150000J0D01*
G01*
X83657401Y-137158016D01*
G75*
G02*
X83507401Y-137008016I0J150000D01*
G01*
X83507401Y-135358016D01*
G75*
G02*
X83657401Y-135208016I150000J0D01*
G01*
G37*
G36*
G01*
X84927401Y-135208016D02*
X85227401Y-135208016D01*
G75*
G02*
X85377401Y-135358016I0J-150000D01*
G01*
X85377401Y-137008016D01*
G75*
G02*
X85227401Y-137158016I-150000J0D01*
G01*
X84927401Y-137158016D01*
G75*
G02*
X84777401Y-137008016I0J150000D01*
G01*
X84777401Y-135358016D01*
G75*
G02*
X84927401Y-135208016I150000J0D01*
G01*
G37*
G36*
G01*
X86197401Y-135208016D02*
X86497401Y-135208016D01*
G75*
G02*
X86647401Y-135358016I0J-150000D01*
G01*
X86647401Y-137008016D01*
G75*
G02*
X86497401Y-137158016I-150000J0D01*
G01*
X86197401Y-137158016D01*
G75*
G02*
X86047401Y-137008016I0J150000D01*
G01*
X86047401Y-135358016D01*
G75*
G02*
X86197401Y-135208016I150000J0D01*
G01*
G37*
G36*
G01*
X87467401Y-135208016D02*
X87767401Y-135208016D01*
G75*
G02*
X87917401Y-135358016I0J-150000D01*
G01*
X87917401Y-137008016D01*
G75*
G02*
X87767401Y-137158016I-150000J0D01*
G01*
X87467401Y-137158016D01*
G75*
G02*
X87317401Y-137008016I0J150000D01*
G01*
X87317401Y-135358016D01*
G75*
G02*
X87467401Y-135208016I150000J0D01*
G01*
G37*
G36*
G01*
X88737401Y-135208016D02*
X89037401Y-135208016D01*
G75*
G02*
X89187401Y-135358016I0J-150000D01*
G01*
X89187401Y-137008016D01*
G75*
G02*
X89037401Y-137158016I-150000J0D01*
G01*
X88737401Y-137158016D01*
G75*
G02*
X88587401Y-137008016I0J150000D01*
G01*
X88587401Y-135358016D01*
G75*
G02*
X88737401Y-135208016I150000J0D01*
G01*
G37*
G36*
G01*
X90007401Y-135208016D02*
X90307401Y-135208016D01*
G75*
G02*
X90457401Y-135358016I0J-150000D01*
G01*
X90457401Y-137008016D01*
G75*
G02*
X90307401Y-137158016I-150000J0D01*
G01*
X90007401Y-137158016D01*
G75*
G02*
X89857401Y-137008016I0J150000D01*
G01*
X89857401Y-135358016D01*
G75*
G02*
X90007401Y-135208016I150000J0D01*
G01*
G37*
D16*
X54826001Y-145392016D03*
D17*
X57366001Y-145392016D03*
X59906001Y-145392016D03*
X62446001Y-145392016D03*
X64986001Y-145392016D03*
X67526001Y-145392016D03*
X70066001Y-145392016D03*
X72606001Y-145392016D03*
X75146001Y-145392016D03*
X77686001Y-145392016D03*
X80226001Y-145392016D03*
X82766001Y-145392016D03*
X85306001Y-145392016D03*
X87846001Y-145392016D03*
X90386001Y-145392016D03*
X92926001Y-145392016D03*
X95466001Y-145392016D03*
X98006001Y-145392016D03*
X100546001Y-145392016D03*
X103086001Y-145392016D03*
D16*
X98768001Y-126850016D03*
D17*
X101308001Y-126850016D03*
X103848001Y-126850016D03*
D12*
X51778001Y-112836011D03*
X51778001Y-103336011D03*
G36*
G01*
X73069001Y-113347511D02*
X73069001Y-113822511D01*
G75*
G02*
X72831501Y-114060011I-237500J0D01*
G01*
X72256501Y-114060011D01*
G75*
G02*
X72019001Y-113822511I0J237500D01*
G01*
X72019001Y-113347511D01*
G75*
G02*
X72256501Y-113110011I237500J0D01*
G01*
X72831501Y-113110011D01*
G75*
G02*
X73069001Y-113347511I0J-237500D01*
G01*
G37*
G36*
G01*
X74819001Y-113347511D02*
X74819001Y-113822511D01*
G75*
G02*
X74581501Y-114060011I-237500J0D01*
G01*
X74006501Y-114060011D01*
G75*
G02*
X73769001Y-113822511I0J237500D01*
G01*
X73769001Y-113347511D01*
G75*
G02*
X74006501Y-113110011I237500J0D01*
G01*
X74581501Y-113110011D01*
G75*
G02*
X74819001Y-113347511I0J-237500D01*
G01*
G37*
G36*
G01*
X93620701Y-111416411D02*
X93145701Y-111416411D01*
G75*
G02*
X92908201Y-111178911I0J237500D01*
G01*
X92908201Y-110603911D01*
G75*
G02*
X93145701Y-110366411I237500J0D01*
G01*
X93620701Y-110366411D01*
G75*
G02*
X93858201Y-110603911I0J-237500D01*
G01*
X93858201Y-111178911D01*
G75*
G02*
X93620701Y-111416411I-237500J0D01*
G01*
G37*
G36*
G01*
X93620701Y-109666411D02*
X93145701Y-109666411D01*
G75*
G02*
X92908201Y-109428911I0J237500D01*
G01*
X92908201Y-108853911D01*
G75*
G02*
X93145701Y-108616411I237500J0D01*
G01*
X93620701Y-108616411D01*
G75*
G02*
X93858201Y-108853911I0J-237500D01*
G01*
X93858201Y-109428911D01*
G75*
G02*
X93620701Y-109666411I-237500J0D01*
G01*
G37*
G36*
G01*
X85594001Y-103222511D02*
X85594001Y-102747511D01*
G75*
G02*
X85831501Y-102510011I237500J0D01*
G01*
X86406501Y-102510011D01*
G75*
G02*
X86644001Y-102747511I0J-237500D01*
G01*
X86644001Y-103222511D01*
G75*
G02*
X86406501Y-103460011I-237500J0D01*
G01*
X85831501Y-103460011D01*
G75*
G02*
X85594001Y-103222511I0J237500D01*
G01*
G37*
G36*
G01*
X87344001Y-103222511D02*
X87344001Y-102747511D01*
G75*
G02*
X87581501Y-102510011I237500J0D01*
G01*
X88156501Y-102510011D01*
G75*
G02*
X88394001Y-102747511I0J-237500D01*
G01*
X88394001Y-103222511D01*
G75*
G02*
X88156501Y-103460011I-237500J0D01*
G01*
X87581501Y-103460011D01*
G75*
G02*
X87344001Y-103222511I0J237500D01*
G01*
G37*
G36*
G01*
X96906602Y-108009611D02*
X96006600Y-108009611D01*
G75*
G02*
X95756601Y-107759612I0J249999D01*
G01*
X95756601Y-107109610D01*
G75*
G02*
X96006600Y-106859611I249999J0D01*
G01*
X96906602Y-106859611D01*
G75*
G02*
X97156601Y-107109610I0J-249999D01*
G01*
X97156601Y-107759612D01*
G75*
G02*
X96906602Y-108009611I-249999J0D01*
G01*
G37*
G36*
G01*
X96906602Y-105959611D02*
X96006600Y-105959611D01*
G75*
G02*
X95756601Y-105709612I0J249999D01*
G01*
X95756601Y-105059610D01*
G75*
G02*
X96006600Y-104809611I249999J0D01*
G01*
X96906602Y-104809611D01*
G75*
G02*
X97156601Y-105059610I0J-249999D01*
G01*
X97156601Y-105709612D01*
G75*
G02*
X96906602Y-105959611I-249999J0D01*
G01*
G37*
G36*
G01*
X91859401Y-104954612D02*
X91859401Y-104054610D01*
G75*
G02*
X92109400Y-103804611I249999J0D01*
G01*
X92759402Y-103804611D01*
G75*
G02*
X93009401Y-104054610I0J-249999D01*
G01*
X93009401Y-104954612D01*
G75*
G02*
X92759402Y-105204611I-249999J0D01*
G01*
X92109400Y-105204611D01*
G75*
G02*
X91859401Y-104954612I0J249999D01*
G01*
G37*
G36*
G01*
X93909401Y-104954612D02*
X93909401Y-104054610D01*
G75*
G02*
X94159400Y-103804611I249999J0D01*
G01*
X94809402Y-103804611D01*
G75*
G02*
X95059401Y-104054610I0J-249999D01*
G01*
X95059401Y-104954612D01*
G75*
G02*
X94809402Y-105204611I-249999J0D01*
G01*
X94159400Y-105204611D01*
G75*
G02*
X93909401Y-104954612I0J249999D01*
G01*
G37*
G36*
G01*
X101400401Y-116297410D02*
X101400401Y-117197412D01*
G75*
G02*
X101150402Y-117447411I-249999J0D01*
G01*
X100500400Y-117447411D01*
G75*
G02*
X100250401Y-117197412I0J249999D01*
G01*
X100250401Y-116297410D01*
G75*
G02*
X100500400Y-116047411I249999J0D01*
G01*
X101150402Y-116047411D01*
G75*
G02*
X101400401Y-116297410I0J-249999D01*
G01*
G37*
G36*
G01*
X99350401Y-116297410D02*
X99350401Y-117197412D01*
G75*
G02*
X99100402Y-117447411I-249999J0D01*
G01*
X98450400Y-117447411D01*
G75*
G02*
X98200401Y-117197412I0J249999D01*
G01*
X98200401Y-116297410D01*
G75*
G02*
X98450400Y-116047411I249999J0D01*
G01*
X99100402Y-116047411D01*
G75*
G02*
X99350401Y-116297410I0J-249999D01*
G01*
G37*
D13*
X104364601Y-113803011D03*
D14*
X100714601Y-112373011D03*
D13*
X104364601Y-105163011D03*
D14*
X100714601Y-106593011D03*
D15*
X100184601Y-105163011D03*
X100184601Y-113803011D03*
D16*
X60414001Y-103260011D03*
D17*
X62954001Y-103260011D03*
X65494001Y-103260011D03*
X68034001Y-103260011D03*
X70574001Y-103260011D03*
X73114001Y-103260011D03*
X75654001Y-103260011D03*
X78194001Y-103260011D03*
X80734001Y-103260011D03*
X83274001Y-103260011D03*
G36*
G01*
X105169001Y-107947511D02*
X105169001Y-108422511D01*
G75*
G02*
X104931501Y-108660011I-237500J0D01*
G01*
X104356501Y-108660011D01*
G75*
G02*
X104119001Y-108422511I0J237500D01*
G01*
X104119001Y-107947511D01*
G75*
G02*
X104356501Y-107710011I237500J0D01*
G01*
X104931501Y-107710011D01*
G75*
G02*
X105169001Y-107947511I0J-237500D01*
G01*
G37*
G36*
G01*
X103419001Y-107947511D02*
X103419001Y-108422511D01*
G75*
G02*
X103181501Y-108660011I-237500J0D01*
G01*
X102606501Y-108660011D01*
G75*
G02*
X102369001Y-108422511I0J237500D01*
G01*
X102369001Y-107947511D01*
G75*
G02*
X102606501Y-107710011I237500J0D01*
G01*
X103181501Y-107710011D01*
G75*
G02*
X103419001Y-107947511I0J-237500D01*
G01*
G37*
G36*
G01*
X105144001Y-110897511D02*
X105144001Y-111372511D01*
G75*
G02*
X104906501Y-111610011I-237500J0D01*
G01*
X104331501Y-111610011D01*
G75*
G02*
X104094001Y-111372511I0J237500D01*
G01*
X104094001Y-110897511D01*
G75*
G02*
X104331501Y-110660011I237500J0D01*
G01*
X104906501Y-110660011D01*
G75*
G02*
X105144001Y-110897511I0J-237500D01*
G01*
G37*
G36*
G01*
X103394001Y-110897511D02*
X103394001Y-111372511D01*
G75*
G02*
X103156501Y-111610011I-237500J0D01*
G01*
X102581501Y-111610011D01*
G75*
G02*
X102344001Y-111372511I0J237500D01*
G01*
X102344001Y-110897511D01*
G75*
G02*
X102581501Y-110660011I237500J0D01*
G01*
X103156501Y-110660011D01*
G75*
G02*
X103394001Y-110897511I0J-237500D01*
G01*
G37*
G36*
G01*
X59264672Y-113568785D02*
X59176283Y-113480396D01*
G75*
G02*
X59176283Y-113392008I44194J44194D01*
G01*
X59653580Y-112914711D01*
G75*
G02*
X59741968Y-112914711I44194J-44194D01*
G01*
X59830357Y-113003100D01*
G75*
G02*
X59830357Y-113091488I-44194J-44194D01*
G01*
X59353060Y-113568785D01*
G75*
G02*
X59264672Y-113568785I-44194J44194D01*
G01*
G37*
G36*
G01*
X59618225Y-113922338D02*
X59529836Y-113833949D01*
G75*
G02*
X59529836Y-113745561I44194J44194D01*
G01*
X60007133Y-113268264D01*
G75*
G02*
X60095521Y-113268264I44194J-44194D01*
G01*
X60183910Y-113356653D01*
G75*
G02*
X60183910Y-113445041I-44194J-44194D01*
G01*
X59706613Y-113922338D01*
G75*
G02*
X59618225Y-113922338I-44194J44194D01*
G01*
G37*
G36*
G01*
X59971779Y-114275892D02*
X59883390Y-114187503D01*
G75*
G02*
X59883390Y-114099115I44194J44194D01*
G01*
X60360687Y-113621818D01*
G75*
G02*
X60449075Y-113621818I44194J-44194D01*
G01*
X60537464Y-113710207D01*
G75*
G02*
X60537464Y-113798595I-44194J-44194D01*
G01*
X60060167Y-114275892D01*
G75*
G02*
X59971779Y-114275892I-44194J44194D01*
G01*
G37*
G36*
G01*
X60325332Y-114629445D02*
X60236943Y-114541056D01*
G75*
G02*
X60236943Y-114452668I44194J44194D01*
G01*
X60714240Y-113975371D01*
G75*
G02*
X60802628Y-113975371I44194J-44194D01*
G01*
X60891017Y-114063760D01*
G75*
G02*
X60891017Y-114152148I-44194J-44194D01*
G01*
X60413720Y-114629445D01*
G75*
G02*
X60325332Y-114629445I-44194J44194D01*
G01*
G37*
G36*
G01*
X60678886Y-114982998D02*
X60590497Y-114894609D01*
G75*
G02*
X60590497Y-114806221I44194J44194D01*
G01*
X61067794Y-114328924D01*
G75*
G02*
X61156182Y-114328924I44194J-44194D01*
G01*
X61244571Y-114417313D01*
G75*
G02*
X61244571Y-114505701I-44194J-44194D01*
G01*
X60767274Y-114982998D01*
G75*
G02*
X60678886Y-114982998I-44194J44194D01*
G01*
G37*
G36*
G01*
X61032439Y-115336552D02*
X60944050Y-115248163D01*
G75*
G02*
X60944050Y-115159775I44194J44194D01*
G01*
X61421347Y-114682478D01*
G75*
G02*
X61509735Y-114682478I44194J-44194D01*
G01*
X61598124Y-114770867D01*
G75*
G02*
X61598124Y-114859255I-44194J-44194D01*
G01*
X61120827Y-115336552D01*
G75*
G02*
X61032439Y-115336552I-44194J44194D01*
G01*
G37*
G36*
G01*
X61385992Y-115690105D02*
X61297603Y-115601716D01*
G75*
G02*
X61297603Y-115513328I44194J44194D01*
G01*
X61774900Y-115036031D01*
G75*
G02*
X61863288Y-115036031I44194J-44194D01*
G01*
X61951677Y-115124420D01*
G75*
G02*
X61951677Y-115212808I-44194J-44194D01*
G01*
X61474380Y-115690105D01*
G75*
G02*
X61385992Y-115690105I-44194J44194D01*
G01*
G37*
G36*
G01*
X61739546Y-116043658D02*
X61651157Y-115955269D01*
G75*
G02*
X61651157Y-115866881I44194J44194D01*
G01*
X62128454Y-115389584D01*
G75*
G02*
X62216842Y-115389584I44194J-44194D01*
G01*
X62305231Y-115477973D01*
G75*
G02*
X62305231Y-115566361I-44194J-44194D01*
G01*
X61827934Y-116043658D01*
G75*
G02*
X61739546Y-116043658I-44194J44194D01*
G01*
G37*
G36*
G01*
X62093099Y-116397212D02*
X62004710Y-116308823D01*
G75*
G02*
X62004710Y-116220435I44194J44194D01*
G01*
X62482007Y-115743138D01*
G75*
G02*
X62570395Y-115743138I44194J-44194D01*
G01*
X62658784Y-115831527D01*
G75*
G02*
X62658784Y-115919915I-44194J-44194D01*
G01*
X62181487Y-116397212D01*
G75*
G02*
X62093099Y-116397212I-44194J44194D01*
G01*
G37*
G36*
G01*
X62446652Y-116750765D02*
X62358263Y-116662376D01*
G75*
G02*
X62358263Y-116573988I44194J44194D01*
G01*
X62835560Y-116096691D01*
G75*
G02*
X62923948Y-116096691I44194J-44194D01*
G01*
X63012337Y-116185080D01*
G75*
G02*
X63012337Y-116273468I-44194J-44194D01*
G01*
X62535040Y-116750765D01*
G75*
G02*
X62446652Y-116750765I-44194J44194D01*
G01*
G37*
G36*
G01*
X62800206Y-117104319D02*
X62711817Y-117015930D01*
G75*
G02*
X62711817Y-116927542I44194J44194D01*
G01*
X63189114Y-116450245D01*
G75*
G02*
X63277502Y-116450245I44194J-44194D01*
G01*
X63365891Y-116538634D01*
G75*
G02*
X63365891Y-116627022I-44194J-44194D01*
G01*
X62888594Y-117104319D01*
G75*
G02*
X62800206Y-117104319I-44194J44194D01*
G01*
G37*
G36*
G01*
X63153759Y-117457872D02*
X63065370Y-117369483D01*
G75*
G02*
X63065370Y-117281095I44194J44194D01*
G01*
X63542667Y-116803798D01*
G75*
G02*
X63631055Y-116803798I44194J-44194D01*
G01*
X63719444Y-116892187D01*
G75*
G02*
X63719444Y-116980575I-44194J-44194D01*
G01*
X63242147Y-117457872D01*
G75*
G02*
X63153759Y-117457872I-44194J44194D01*
G01*
G37*
G36*
G01*
X64532617Y-117457872D02*
X64055320Y-116980575D01*
G75*
G02*
X64055320Y-116892187I44194J44194D01*
G01*
X64143709Y-116803798D01*
G75*
G02*
X64232097Y-116803798I44194J-44194D01*
G01*
X64709394Y-117281095D01*
G75*
G02*
X64709394Y-117369483I-44194J-44194D01*
G01*
X64621005Y-117457872D01*
G75*
G02*
X64532617Y-117457872I-44194J44194D01*
G01*
G37*
G36*
G01*
X64886170Y-117104319D02*
X64408873Y-116627022D01*
G75*
G02*
X64408873Y-116538634I44194J44194D01*
G01*
X64497262Y-116450245D01*
G75*
G02*
X64585650Y-116450245I44194J-44194D01*
G01*
X65062947Y-116927542D01*
G75*
G02*
X65062947Y-117015930I-44194J-44194D01*
G01*
X64974558Y-117104319D01*
G75*
G02*
X64886170Y-117104319I-44194J44194D01*
G01*
G37*
G36*
G01*
X65239724Y-116750765D02*
X64762427Y-116273468D01*
G75*
G02*
X64762427Y-116185080I44194J44194D01*
G01*
X64850816Y-116096691D01*
G75*
G02*
X64939204Y-116096691I44194J-44194D01*
G01*
X65416501Y-116573988D01*
G75*
G02*
X65416501Y-116662376I-44194J-44194D01*
G01*
X65328112Y-116750765D01*
G75*
G02*
X65239724Y-116750765I-44194J44194D01*
G01*
G37*
G36*
G01*
X65593277Y-116397212D02*
X65115980Y-115919915D01*
G75*
G02*
X65115980Y-115831527I44194J44194D01*
G01*
X65204369Y-115743138D01*
G75*
G02*
X65292757Y-115743138I44194J-44194D01*
G01*
X65770054Y-116220435D01*
G75*
G02*
X65770054Y-116308823I-44194J-44194D01*
G01*
X65681665Y-116397212D01*
G75*
G02*
X65593277Y-116397212I-44194J44194D01*
G01*
G37*
G36*
G01*
X65946830Y-116043658D02*
X65469533Y-115566361D01*
G75*
G02*
X65469533Y-115477973I44194J44194D01*
G01*
X65557922Y-115389584D01*
G75*
G02*
X65646310Y-115389584I44194J-44194D01*
G01*
X66123607Y-115866881D01*
G75*
G02*
X66123607Y-115955269I-44194J-44194D01*
G01*
X66035218Y-116043658D01*
G75*
G02*
X65946830Y-116043658I-44194J44194D01*
G01*
G37*
G36*
G01*
X66300384Y-115690105D02*
X65823087Y-115212808D01*
G75*
G02*
X65823087Y-115124420I44194J44194D01*
G01*
X65911476Y-115036031D01*
G75*
G02*
X65999864Y-115036031I44194J-44194D01*
G01*
X66477161Y-115513328D01*
G75*
G02*
X66477161Y-115601716I-44194J-44194D01*
G01*
X66388772Y-115690105D01*
G75*
G02*
X66300384Y-115690105I-44194J44194D01*
G01*
G37*
G36*
G01*
X66653937Y-115336552D02*
X66176640Y-114859255D01*
G75*
G02*
X66176640Y-114770867I44194J44194D01*
G01*
X66265029Y-114682478D01*
G75*
G02*
X66353417Y-114682478I44194J-44194D01*
G01*
X66830714Y-115159775D01*
G75*
G02*
X66830714Y-115248163I-44194J-44194D01*
G01*
X66742325Y-115336552D01*
G75*
G02*
X66653937Y-115336552I-44194J44194D01*
G01*
G37*
G36*
G01*
X67007490Y-114982998D02*
X66530193Y-114505701D01*
G75*
G02*
X66530193Y-114417313I44194J44194D01*
G01*
X66618582Y-114328924D01*
G75*
G02*
X66706970Y-114328924I44194J-44194D01*
G01*
X67184267Y-114806221D01*
G75*
G02*
X67184267Y-114894609I-44194J-44194D01*
G01*
X67095878Y-114982998D01*
G75*
G02*
X67007490Y-114982998I-44194J44194D01*
G01*
G37*
G36*
G01*
X67361044Y-114629445D02*
X66883747Y-114152148D01*
G75*
G02*
X66883747Y-114063760I44194J44194D01*
G01*
X66972136Y-113975371D01*
G75*
G02*
X67060524Y-113975371I44194J-44194D01*
G01*
X67537821Y-114452668D01*
G75*
G02*
X67537821Y-114541056I-44194J-44194D01*
G01*
X67449432Y-114629445D01*
G75*
G02*
X67361044Y-114629445I-44194J44194D01*
G01*
G37*
G36*
G01*
X67714597Y-114275892D02*
X67237300Y-113798595D01*
G75*
G02*
X67237300Y-113710207I44194J44194D01*
G01*
X67325689Y-113621818D01*
G75*
G02*
X67414077Y-113621818I44194J-44194D01*
G01*
X67891374Y-114099115D01*
G75*
G02*
X67891374Y-114187503I-44194J-44194D01*
G01*
X67802985Y-114275892D01*
G75*
G02*
X67714597Y-114275892I-44194J44194D01*
G01*
G37*
G36*
G01*
X68068151Y-113922338D02*
X67590854Y-113445041D01*
G75*
G02*
X67590854Y-113356653I44194J44194D01*
G01*
X67679243Y-113268264D01*
G75*
G02*
X67767631Y-113268264I44194J-44194D01*
G01*
X68244928Y-113745561D01*
G75*
G02*
X68244928Y-113833949I-44194J-44194D01*
G01*
X68156539Y-113922338D01*
G75*
G02*
X68068151Y-113922338I-44194J44194D01*
G01*
G37*
G36*
G01*
X68421704Y-113568785D02*
X67944407Y-113091488D01*
G75*
G02*
X67944407Y-113003100I44194J44194D01*
G01*
X68032796Y-112914711D01*
G75*
G02*
X68121184Y-112914711I44194J-44194D01*
G01*
X68598481Y-113392008D01*
G75*
G02*
X68598481Y-113480396I-44194J-44194D01*
G01*
X68510092Y-113568785D01*
G75*
G02*
X68421704Y-113568785I-44194J44194D01*
G01*
G37*
G36*
G01*
X68032796Y-112578835D02*
X67944407Y-112490446D01*
G75*
G02*
X67944407Y-112402058I44194J44194D01*
G01*
X68421704Y-111924761D01*
G75*
G02*
X68510092Y-111924761I44194J-44194D01*
G01*
X68598481Y-112013150D01*
G75*
G02*
X68598481Y-112101538I-44194J-44194D01*
G01*
X68121184Y-112578835D01*
G75*
G02*
X68032796Y-112578835I-44194J44194D01*
G01*
G37*
G36*
G01*
X67679243Y-112225282D02*
X67590854Y-112136893D01*
G75*
G02*
X67590854Y-112048505I44194J44194D01*
G01*
X68068151Y-111571208D01*
G75*
G02*
X68156539Y-111571208I44194J-44194D01*
G01*
X68244928Y-111659597D01*
G75*
G02*
X68244928Y-111747985I-44194J-44194D01*
G01*
X67767631Y-112225282D01*
G75*
G02*
X67679243Y-112225282I-44194J44194D01*
G01*
G37*
G36*
G01*
X67325689Y-111871728D02*
X67237300Y-111783339D01*
G75*
G02*
X67237300Y-111694951I44194J44194D01*
G01*
X67714597Y-111217654D01*
G75*
G02*
X67802985Y-111217654I44194J-44194D01*
G01*
X67891374Y-111306043D01*
G75*
G02*
X67891374Y-111394431I-44194J-44194D01*
G01*
X67414077Y-111871728D01*
G75*
G02*
X67325689Y-111871728I-44194J44194D01*
G01*
G37*
G36*
G01*
X66972136Y-111518175D02*
X66883747Y-111429786D01*
G75*
G02*
X66883747Y-111341398I44194J44194D01*
G01*
X67361044Y-110864101D01*
G75*
G02*
X67449432Y-110864101I44194J-44194D01*
G01*
X67537821Y-110952490D01*
G75*
G02*
X67537821Y-111040878I-44194J-44194D01*
G01*
X67060524Y-111518175D01*
G75*
G02*
X66972136Y-111518175I-44194J44194D01*
G01*
G37*
G36*
G01*
X66618582Y-111164622D02*
X66530193Y-111076233D01*
G75*
G02*
X66530193Y-110987845I44194J44194D01*
G01*
X67007490Y-110510548D01*
G75*
G02*
X67095878Y-110510548I44194J-44194D01*
G01*
X67184267Y-110598937D01*
G75*
G02*
X67184267Y-110687325I-44194J-44194D01*
G01*
X66706970Y-111164622D01*
G75*
G02*
X66618582Y-111164622I-44194J44194D01*
G01*
G37*
G36*
G01*
X66265029Y-110811068D02*
X66176640Y-110722679D01*
G75*
G02*
X66176640Y-110634291I44194J44194D01*
G01*
X66653937Y-110156994D01*
G75*
G02*
X66742325Y-110156994I44194J-44194D01*
G01*
X66830714Y-110245383D01*
G75*
G02*
X66830714Y-110333771I-44194J-44194D01*
G01*
X66353417Y-110811068D01*
G75*
G02*
X66265029Y-110811068I-44194J44194D01*
G01*
G37*
G36*
G01*
X65911476Y-110457515D02*
X65823087Y-110369126D01*
G75*
G02*
X65823087Y-110280738I44194J44194D01*
G01*
X66300384Y-109803441D01*
G75*
G02*
X66388772Y-109803441I44194J-44194D01*
G01*
X66477161Y-109891830D01*
G75*
G02*
X66477161Y-109980218I-44194J-44194D01*
G01*
X65999864Y-110457515D01*
G75*
G02*
X65911476Y-110457515I-44194J44194D01*
G01*
G37*
G36*
G01*
X65557922Y-110103962D02*
X65469533Y-110015573D01*
G75*
G02*
X65469533Y-109927185I44194J44194D01*
G01*
X65946830Y-109449888D01*
G75*
G02*
X66035218Y-109449888I44194J-44194D01*
G01*
X66123607Y-109538277D01*
G75*
G02*
X66123607Y-109626665I-44194J-44194D01*
G01*
X65646310Y-110103962D01*
G75*
G02*
X65557922Y-110103962I-44194J44194D01*
G01*
G37*
G36*
G01*
X65204369Y-109750408D02*
X65115980Y-109662019D01*
G75*
G02*
X65115980Y-109573631I44194J44194D01*
G01*
X65593277Y-109096334D01*
G75*
G02*
X65681665Y-109096334I44194J-44194D01*
G01*
X65770054Y-109184723D01*
G75*
G02*
X65770054Y-109273111I-44194J-44194D01*
G01*
X65292757Y-109750408D01*
G75*
G02*
X65204369Y-109750408I-44194J44194D01*
G01*
G37*
G36*
G01*
X64850816Y-109396855D02*
X64762427Y-109308466D01*
G75*
G02*
X64762427Y-109220078I44194J44194D01*
G01*
X65239724Y-108742781D01*
G75*
G02*
X65328112Y-108742781I44194J-44194D01*
G01*
X65416501Y-108831170D01*
G75*
G02*
X65416501Y-108919558I-44194J-44194D01*
G01*
X64939204Y-109396855D01*
G75*
G02*
X64850816Y-109396855I-44194J44194D01*
G01*
G37*
G36*
G01*
X64497262Y-109043301D02*
X64408873Y-108954912D01*
G75*
G02*
X64408873Y-108866524I44194J44194D01*
G01*
X64886170Y-108389227D01*
G75*
G02*
X64974558Y-108389227I44194J-44194D01*
G01*
X65062947Y-108477616D01*
G75*
G02*
X65062947Y-108566004I-44194J-44194D01*
G01*
X64585650Y-109043301D01*
G75*
G02*
X64497262Y-109043301I-44194J44194D01*
G01*
G37*
G36*
G01*
X64143709Y-108689748D02*
X64055320Y-108601359D01*
G75*
G02*
X64055320Y-108512971I44194J44194D01*
G01*
X64532617Y-108035674D01*
G75*
G02*
X64621005Y-108035674I44194J-44194D01*
G01*
X64709394Y-108124063D01*
G75*
G02*
X64709394Y-108212451I-44194J-44194D01*
G01*
X64232097Y-108689748D01*
G75*
G02*
X64143709Y-108689748I-44194J44194D01*
G01*
G37*
G36*
G01*
X63542667Y-108689748D02*
X63065370Y-108212451D01*
G75*
G02*
X63065370Y-108124063I44194J44194D01*
G01*
X63153759Y-108035674D01*
G75*
G02*
X63242147Y-108035674I44194J-44194D01*
G01*
X63719444Y-108512971D01*
G75*
G02*
X63719444Y-108601359I-44194J-44194D01*
G01*
X63631055Y-108689748D01*
G75*
G02*
X63542667Y-108689748I-44194J44194D01*
G01*
G37*
G36*
G01*
X63189114Y-109043301D02*
X62711817Y-108566004D01*
G75*
G02*
X62711817Y-108477616I44194J44194D01*
G01*
X62800206Y-108389227D01*
G75*
G02*
X62888594Y-108389227I44194J-44194D01*
G01*
X63365891Y-108866524D01*
G75*
G02*
X63365891Y-108954912I-44194J-44194D01*
G01*
X63277502Y-109043301D01*
G75*
G02*
X63189114Y-109043301I-44194J44194D01*
G01*
G37*
G36*
G01*
X62835560Y-109396855D02*
X62358263Y-108919558D01*
G75*
G02*
X62358263Y-108831170I44194J44194D01*
G01*
X62446652Y-108742781D01*
G75*
G02*
X62535040Y-108742781I44194J-44194D01*
G01*
X63012337Y-109220078D01*
G75*
G02*
X63012337Y-109308466I-44194J-44194D01*
G01*
X62923948Y-109396855D01*
G75*
G02*
X62835560Y-109396855I-44194J44194D01*
G01*
G37*
G36*
G01*
X62482007Y-109750408D02*
X62004710Y-109273111D01*
G75*
G02*
X62004710Y-109184723I44194J44194D01*
G01*
X62093099Y-109096334D01*
G75*
G02*
X62181487Y-109096334I44194J-44194D01*
G01*
X62658784Y-109573631D01*
G75*
G02*
X62658784Y-109662019I-44194J-44194D01*
G01*
X62570395Y-109750408D01*
G75*
G02*
X62482007Y-109750408I-44194J44194D01*
G01*
G37*
G36*
G01*
X62128454Y-110103962D02*
X61651157Y-109626665D01*
G75*
G02*
X61651157Y-109538277I44194J44194D01*
G01*
X61739546Y-109449888D01*
G75*
G02*
X61827934Y-109449888I44194J-44194D01*
G01*
X62305231Y-109927185D01*
G75*
G02*
X62305231Y-110015573I-44194J-44194D01*
G01*
X62216842Y-110103962D01*
G75*
G02*
X62128454Y-110103962I-44194J44194D01*
G01*
G37*
G36*
G01*
X61774900Y-110457515D02*
X61297603Y-109980218D01*
G75*
G02*
X61297603Y-109891830I44194J44194D01*
G01*
X61385992Y-109803441D01*
G75*
G02*
X61474380Y-109803441I44194J-44194D01*
G01*
X61951677Y-110280738D01*
G75*
G02*
X61951677Y-110369126I-44194J-44194D01*
G01*
X61863288Y-110457515D01*
G75*
G02*
X61774900Y-110457515I-44194J44194D01*
G01*
G37*
G36*
G01*
X61421347Y-110811068D02*
X60944050Y-110333771D01*
G75*
G02*
X60944050Y-110245383I44194J44194D01*
G01*
X61032439Y-110156994D01*
G75*
G02*
X61120827Y-110156994I44194J-44194D01*
G01*
X61598124Y-110634291D01*
G75*
G02*
X61598124Y-110722679I-44194J-44194D01*
G01*
X61509735Y-110811068D01*
G75*
G02*
X61421347Y-110811068I-44194J44194D01*
G01*
G37*
G36*
G01*
X61067794Y-111164622D02*
X60590497Y-110687325D01*
G75*
G02*
X60590497Y-110598937I44194J44194D01*
G01*
X60678886Y-110510548D01*
G75*
G02*
X60767274Y-110510548I44194J-44194D01*
G01*
X61244571Y-110987845D01*
G75*
G02*
X61244571Y-111076233I-44194J-44194D01*
G01*
X61156182Y-111164622D01*
G75*
G02*
X61067794Y-111164622I-44194J44194D01*
G01*
G37*
G36*
G01*
X60714240Y-111518175D02*
X60236943Y-111040878D01*
G75*
G02*
X60236943Y-110952490I44194J44194D01*
G01*
X60325332Y-110864101D01*
G75*
G02*
X60413720Y-110864101I44194J-44194D01*
G01*
X60891017Y-111341398D01*
G75*
G02*
X60891017Y-111429786I-44194J-44194D01*
G01*
X60802628Y-111518175D01*
G75*
G02*
X60714240Y-111518175I-44194J44194D01*
G01*
G37*
G36*
G01*
X60360687Y-111871728D02*
X59883390Y-111394431D01*
G75*
G02*
X59883390Y-111306043I44194J44194D01*
G01*
X59971779Y-111217654D01*
G75*
G02*
X60060167Y-111217654I44194J-44194D01*
G01*
X60537464Y-111694951D01*
G75*
G02*
X60537464Y-111783339I-44194J-44194D01*
G01*
X60449075Y-111871728D01*
G75*
G02*
X60360687Y-111871728I-44194J44194D01*
G01*
G37*
G36*
G01*
X60007133Y-112225282D02*
X59529836Y-111747985D01*
G75*
G02*
X59529836Y-111659597I44194J44194D01*
G01*
X59618225Y-111571208D01*
G75*
G02*
X59706613Y-111571208I44194J-44194D01*
G01*
X60183910Y-112048505D01*
G75*
G02*
X60183910Y-112136893I-44194J-44194D01*
G01*
X60095521Y-112225282D01*
G75*
G02*
X60007133Y-112225282I-44194J44194D01*
G01*
G37*
G36*
G01*
X59653580Y-112578835D02*
X59176283Y-112101538D01*
G75*
G02*
X59176283Y-112013150I44194J44194D01*
G01*
X59264672Y-111924761D01*
G75*
G02*
X59353060Y-111924761I44194J-44194D01*
G01*
X59830357Y-112402058D01*
G75*
G02*
X59830357Y-112490446I-44194J-44194D01*
G01*
X59741968Y-112578835D01*
G75*
G02*
X59653580Y-112578835I-44194J44194D01*
G01*
G37*
D18*
G36*
X63887382Y-116494439D02*
G01*
X60139716Y-112746773D01*
X63887382Y-108999107D01*
X67635048Y-112746773D01*
X63887382Y-116494439D01*
G37*
G36*
G01*
X77044001Y-111790011D02*
X77044001Y-112090011D01*
G75*
G02*
X76894001Y-112240011I-150000J0D01*
G01*
X75244001Y-112240011D01*
G75*
G02*
X75094001Y-112090011I0J150000D01*
G01*
X75094001Y-111790011D01*
G75*
G02*
X75244001Y-111640011I150000J0D01*
G01*
X76894001Y-111640011D01*
G75*
G02*
X77044001Y-111790011I0J-150000D01*
G01*
G37*
G36*
G01*
X77044001Y-110520011D02*
X77044001Y-110820011D01*
G75*
G02*
X76894001Y-110970011I-150000J0D01*
G01*
X75244001Y-110970011D01*
G75*
G02*
X75094001Y-110820011I0J150000D01*
G01*
X75094001Y-110520011D01*
G75*
G02*
X75244001Y-110370011I150000J0D01*
G01*
X76894001Y-110370011D01*
G75*
G02*
X77044001Y-110520011I0J-150000D01*
G01*
G37*
G36*
G01*
X77044001Y-109250011D02*
X77044001Y-109550011D01*
G75*
G02*
X76894001Y-109700011I-150000J0D01*
G01*
X75244001Y-109700011D01*
G75*
G02*
X75094001Y-109550011I0J150000D01*
G01*
X75094001Y-109250011D01*
G75*
G02*
X75244001Y-109100011I150000J0D01*
G01*
X76894001Y-109100011D01*
G75*
G02*
X77044001Y-109250011I0J-150000D01*
G01*
G37*
G36*
G01*
X77044001Y-107980011D02*
X77044001Y-108280011D01*
G75*
G02*
X76894001Y-108430011I-150000J0D01*
G01*
X75244001Y-108430011D01*
G75*
G02*
X75094001Y-108280011I0J150000D01*
G01*
X75094001Y-107980011D01*
G75*
G02*
X75244001Y-107830011I150000J0D01*
G01*
X76894001Y-107830011D01*
G75*
G02*
X77044001Y-107980011I0J-150000D01*
G01*
G37*
G36*
G01*
X72094001Y-107980011D02*
X72094001Y-108280011D01*
G75*
G02*
X71944001Y-108430011I-150000J0D01*
G01*
X70294001Y-108430011D01*
G75*
G02*
X70144001Y-108280011I0J150000D01*
G01*
X70144001Y-107980011D01*
G75*
G02*
X70294001Y-107830011I150000J0D01*
G01*
X71944001Y-107830011D01*
G75*
G02*
X72094001Y-107980011I0J-150000D01*
G01*
G37*
G36*
G01*
X72094001Y-109250011D02*
X72094001Y-109550011D01*
G75*
G02*
X71944001Y-109700011I-150000J0D01*
G01*
X70294001Y-109700011D01*
G75*
G02*
X70144001Y-109550011I0J150000D01*
G01*
X70144001Y-109250011D01*
G75*
G02*
X70294001Y-109100011I150000J0D01*
G01*
X71944001Y-109100011D01*
G75*
G02*
X72094001Y-109250011I0J-150000D01*
G01*
G37*
G36*
G01*
X72094001Y-110520011D02*
X72094001Y-110820011D01*
G75*
G02*
X71944001Y-110970011I-150000J0D01*
G01*
X70294001Y-110970011D01*
G75*
G02*
X70144001Y-110820011I0J150000D01*
G01*
X70144001Y-110520011D01*
G75*
G02*
X70294001Y-110370011I150000J0D01*
G01*
X71944001Y-110370011D01*
G75*
G02*
X72094001Y-110520011I0J-150000D01*
G01*
G37*
G36*
G01*
X72094001Y-111790011D02*
X72094001Y-112090011D01*
G75*
G02*
X71944001Y-112240011I-150000J0D01*
G01*
X70294001Y-112240011D01*
G75*
G02*
X70144001Y-112090011I0J150000D01*
G01*
X70144001Y-111790011D01*
G75*
G02*
X70294001Y-111640011I150000J0D01*
G01*
X71944001Y-111640011D01*
G75*
G02*
X72094001Y-111790011I0J-150000D01*
G01*
G37*
G36*
G01*
X90007401Y-105652011D02*
X90307401Y-105652011D01*
G75*
G02*
X90457401Y-105802011I0J-150000D01*
G01*
X90457401Y-107452011D01*
G75*
G02*
X90307401Y-107602011I-150000J0D01*
G01*
X90007401Y-107602011D01*
G75*
G02*
X89857401Y-107452011I0J150000D01*
G01*
X89857401Y-105802011D01*
G75*
G02*
X90007401Y-105652011I150000J0D01*
G01*
G37*
G36*
G01*
X88737401Y-105652011D02*
X89037401Y-105652011D01*
G75*
G02*
X89187401Y-105802011I0J-150000D01*
G01*
X89187401Y-107452011D01*
G75*
G02*
X89037401Y-107602011I-150000J0D01*
G01*
X88737401Y-107602011D01*
G75*
G02*
X88587401Y-107452011I0J150000D01*
G01*
X88587401Y-105802011D01*
G75*
G02*
X88737401Y-105652011I150000J0D01*
G01*
G37*
G36*
G01*
X87467401Y-105652011D02*
X87767401Y-105652011D01*
G75*
G02*
X87917401Y-105802011I0J-150000D01*
G01*
X87917401Y-107452011D01*
G75*
G02*
X87767401Y-107602011I-150000J0D01*
G01*
X87467401Y-107602011D01*
G75*
G02*
X87317401Y-107452011I0J150000D01*
G01*
X87317401Y-105802011D01*
G75*
G02*
X87467401Y-105652011I150000J0D01*
G01*
G37*
G36*
G01*
X86197401Y-105652011D02*
X86497401Y-105652011D01*
G75*
G02*
X86647401Y-105802011I0J-150000D01*
G01*
X86647401Y-107452011D01*
G75*
G02*
X86497401Y-107602011I-150000J0D01*
G01*
X86197401Y-107602011D01*
G75*
G02*
X86047401Y-107452011I0J150000D01*
G01*
X86047401Y-105802011D01*
G75*
G02*
X86197401Y-105652011I150000J0D01*
G01*
G37*
G36*
G01*
X84927401Y-105652011D02*
X85227401Y-105652011D01*
G75*
G02*
X85377401Y-105802011I0J-150000D01*
G01*
X85377401Y-107452011D01*
G75*
G02*
X85227401Y-107602011I-150000J0D01*
G01*
X84927401Y-107602011D01*
G75*
G02*
X84777401Y-107452011I0J150000D01*
G01*
X84777401Y-105802011D01*
G75*
G02*
X84927401Y-105652011I150000J0D01*
G01*
G37*
G36*
G01*
X83657401Y-105652011D02*
X83957401Y-105652011D01*
G75*
G02*
X84107401Y-105802011I0J-150000D01*
G01*
X84107401Y-107452011D01*
G75*
G02*
X83957401Y-107602011I-150000J0D01*
G01*
X83657401Y-107602011D01*
G75*
G02*
X83507401Y-107452011I0J150000D01*
G01*
X83507401Y-105802011D01*
G75*
G02*
X83657401Y-105652011I150000J0D01*
G01*
G37*
G36*
G01*
X82387401Y-105652011D02*
X82687401Y-105652011D01*
G75*
G02*
X82837401Y-105802011I0J-150000D01*
G01*
X82837401Y-107452011D01*
G75*
G02*
X82687401Y-107602011I-150000J0D01*
G01*
X82387401Y-107602011D01*
G75*
G02*
X82237401Y-107452011I0J150000D01*
G01*
X82237401Y-105802011D01*
G75*
G02*
X82387401Y-105652011I150000J0D01*
G01*
G37*
G36*
G01*
X81117401Y-105652011D02*
X81417401Y-105652011D01*
G75*
G02*
X81567401Y-105802011I0J-150000D01*
G01*
X81567401Y-107452011D01*
G75*
G02*
X81417401Y-107602011I-150000J0D01*
G01*
X81117401Y-107602011D01*
G75*
G02*
X80967401Y-107452011I0J150000D01*
G01*
X80967401Y-105802011D01*
G75*
G02*
X81117401Y-105652011I150000J0D01*
G01*
G37*
G36*
G01*
X81117401Y-110602011D02*
X81417401Y-110602011D01*
G75*
G02*
X81567401Y-110752011I0J-150000D01*
G01*
X81567401Y-112402011D01*
G75*
G02*
X81417401Y-112552011I-150000J0D01*
G01*
X81117401Y-112552011D01*
G75*
G02*
X80967401Y-112402011I0J150000D01*
G01*
X80967401Y-110752011D01*
G75*
G02*
X81117401Y-110602011I150000J0D01*
G01*
G37*
G36*
G01*
X82387401Y-110602011D02*
X82687401Y-110602011D01*
G75*
G02*
X82837401Y-110752011I0J-150000D01*
G01*
X82837401Y-112402011D01*
G75*
G02*
X82687401Y-112552011I-150000J0D01*
G01*
X82387401Y-112552011D01*
G75*
G02*
X82237401Y-112402011I0J150000D01*
G01*
X82237401Y-110752011D01*
G75*
G02*
X82387401Y-110602011I150000J0D01*
G01*
G37*
G36*
G01*
X83657401Y-110602011D02*
X83957401Y-110602011D01*
G75*
G02*
X84107401Y-110752011I0J-150000D01*
G01*
X84107401Y-112402011D01*
G75*
G02*
X83957401Y-112552011I-150000J0D01*
G01*
X83657401Y-112552011D01*
G75*
G02*
X83507401Y-112402011I0J150000D01*
G01*
X83507401Y-110752011D01*
G75*
G02*
X83657401Y-110602011I150000J0D01*
G01*
G37*
G36*
G01*
X84927401Y-110602011D02*
X85227401Y-110602011D01*
G75*
G02*
X85377401Y-110752011I0J-150000D01*
G01*
X85377401Y-112402011D01*
G75*
G02*
X85227401Y-112552011I-150000J0D01*
G01*
X84927401Y-112552011D01*
G75*
G02*
X84777401Y-112402011I0J150000D01*
G01*
X84777401Y-110752011D01*
G75*
G02*
X84927401Y-110602011I150000J0D01*
G01*
G37*
G36*
G01*
X86197401Y-110602011D02*
X86497401Y-110602011D01*
G75*
G02*
X86647401Y-110752011I0J-150000D01*
G01*
X86647401Y-112402011D01*
G75*
G02*
X86497401Y-112552011I-150000J0D01*
G01*
X86197401Y-112552011D01*
G75*
G02*
X86047401Y-112402011I0J150000D01*
G01*
X86047401Y-110752011D01*
G75*
G02*
X86197401Y-110602011I150000J0D01*
G01*
G37*
G36*
G01*
X87467401Y-110602011D02*
X87767401Y-110602011D01*
G75*
G02*
X87917401Y-110752011I0J-150000D01*
G01*
X87917401Y-112402011D01*
G75*
G02*
X87767401Y-112552011I-150000J0D01*
G01*
X87467401Y-112552011D01*
G75*
G02*
X87317401Y-112402011I0J150000D01*
G01*
X87317401Y-110752011D01*
G75*
G02*
X87467401Y-110602011I150000J0D01*
G01*
G37*
G36*
G01*
X88737401Y-110602011D02*
X89037401Y-110602011D01*
G75*
G02*
X89187401Y-110752011I0J-150000D01*
G01*
X89187401Y-112402011D01*
G75*
G02*
X89037401Y-112552011I-150000J0D01*
G01*
X88737401Y-112552011D01*
G75*
G02*
X88587401Y-112402011I0J150000D01*
G01*
X88587401Y-110752011D01*
G75*
G02*
X88737401Y-110602011I150000J0D01*
G01*
G37*
G36*
G01*
X90007401Y-110602011D02*
X90307401Y-110602011D01*
G75*
G02*
X90457401Y-110752011I0J-150000D01*
G01*
X90457401Y-112402011D01*
G75*
G02*
X90307401Y-112552011I-150000J0D01*
G01*
X90007401Y-112552011D01*
G75*
G02*
X89857401Y-112402011I0J150000D01*
G01*
X89857401Y-110752011D01*
G75*
G02*
X90007401Y-110602011I150000J0D01*
G01*
G37*
D16*
X54826001Y-120786011D03*
D17*
X57366001Y-120786011D03*
X59906001Y-120786011D03*
X62446001Y-120786011D03*
X64986001Y-120786011D03*
X67526001Y-120786011D03*
X70066001Y-120786011D03*
X72606001Y-120786011D03*
X75146001Y-120786011D03*
X77686001Y-120786011D03*
X80226001Y-120786011D03*
X82766001Y-120786011D03*
X85306001Y-120786011D03*
X87846001Y-120786011D03*
X90386001Y-120786011D03*
X92926001Y-120786011D03*
X95466001Y-120786011D03*
X98006001Y-120786011D03*
X100546001Y-120786011D03*
X103086001Y-120786011D03*
D16*
X98768001Y-102244011D03*
D17*
X101308001Y-102244011D03*
X103848001Y-102244011D03*
D12*
X51778001Y-88230006D03*
X51778001Y-78730006D03*
G36*
G01*
X73069001Y-88741506D02*
X73069001Y-89216506D01*
G75*
G02*
X72831501Y-89454006I-237500J0D01*
G01*
X72256501Y-89454006D01*
G75*
G02*
X72019001Y-89216506I0J237500D01*
G01*
X72019001Y-88741506D01*
G75*
G02*
X72256501Y-88504006I237500J0D01*
G01*
X72831501Y-88504006D01*
G75*
G02*
X73069001Y-88741506I0J-237500D01*
G01*
G37*
G36*
G01*
X74819001Y-88741506D02*
X74819001Y-89216506D01*
G75*
G02*
X74581501Y-89454006I-237500J0D01*
G01*
X74006501Y-89454006D01*
G75*
G02*
X73769001Y-89216506I0J237500D01*
G01*
X73769001Y-88741506D01*
G75*
G02*
X74006501Y-88504006I237500J0D01*
G01*
X74581501Y-88504006D01*
G75*
G02*
X74819001Y-88741506I0J-237500D01*
G01*
G37*
G36*
G01*
X93620701Y-86810406D02*
X93145701Y-86810406D01*
G75*
G02*
X92908201Y-86572906I0J237500D01*
G01*
X92908201Y-85997906D01*
G75*
G02*
X93145701Y-85760406I237500J0D01*
G01*
X93620701Y-85760406D01*
G75*
G02*
X93858201Y-85997906I0J-237500D01*
G01*
X93858201Y-86572906D01*
G75*
G02*
X93620701Y-86810406I-237500J0D01*
G01*
G37*
G36*
G01*
X93620701Y-85060406D02*
X93145701Y-85060406D01*
G75*
G02*
X92908201Y-84822906I0J237500D01*
G01*
X92908201Y-84247906D01*
G75*
G02*
X93145701Y-84010406I237500J0D01*
G01*
X93620701Y-84010406D01*
G75*
G02*
X93858201Y-84247906I0J-237500D01*
G01*
X93858201Y-84822906D01*
G75*
G02*
X93620701Y-85060406I-237500J0D01*
G01*
G37*
G36*
G01*
X85594001Y-78616506D02*
X85594001Y-78141506D01*
G75*
G02*
X85831501Y-77904006I237500J0D01*
G01*
X86406501Y-77904006D01*
G75*
G02*
X86644001Y-78141506I0J-237500D01*
G01*
X86644001Y-78616506D01*
G75*
G02*
X86406501Y-78854006I-237500J0D01*
G01*
X85831501Y-78854006D01*
G75*
G02*
X85594001Y-78616506I0J237500D01*
G01*
G37*
G36*
G01*
X87344001Y-78616506D02*
X87344001Y-78141506D01*
G75*
G02*
X87581501Y-77904006I237500J0D01*
G01*
X88156501Y-77904006D01*
G75*
G02*
X88394001Y-78141506I0J-237500D01*
G01*
X88394001Y-78616506D01*
G75*
G02*
X88156501Y-78854006I-237500J0D01*
G01*
X87581501Y-78854006D01*
G75*
G02*
X87344001Y-78616506I0J237500D01*
G01*
G37*
G36*
G01*
X96906602Y-83403606D02*
X96006600Y-83403606D01*
G75*
G02*
X95756601Y-83153607I0J249999D01*
G01*
X95756601Y-82503605D01*
G75*
G02*
X96006600Y-82253606I249999J0D01*
G01*
X96906602Y-82253606D01*
G75*
G02*
X97156601Y-82503605I0J-249999D01*
G01*
X97156601Y-83153607D01*
G75*
G02*
X96906602Y-83403606I-249999J0D01*
G01*
G37*
G36*
G01*
X96906602Y-81353606D02*
X96006600Y-81353606D01*
G75*
G02*
X95756601Y-81103607I0J249999D01*
G01*
X95756601Y-80453605D01*
G75*
G02*
X96006600Y-80203606I249999J0D01*
G01*
X96906602Y-80203606D01*
G75*
G02*
X97156601Y-80453605I0J-249999D01*
G01*
X97156601Y-81103607D01*
G75*
G02*
X96906602Y-81353606I-249999J0D01*
G01*
G37*
G36*
G01*
X91859401Y-80348607D02*
X91859401Y-79448605D01*
G75*
G02*
X92109400Y-79198606I249999J0D01*
G01*
X92759402Y-79198606D01*
G75*
G02*
X93009401Y-79448605I0J-249999D01*
G01*
X93009401Y-80348607D01*
G75*
G02*
X92759402Y-80598606I-249999J0D01*
G01*
X92109400Y-80598606D01*
G75*
G02*
X91859401Y-80348607I0J249999D01*
G01*
G37*
G36*
G01*
X93909401Y-80348607D02*
X93909401Y-79448605D01*
G75*
G02*
X94159400Y-79198606I249999J0D01*
G01*
X94809402Y-79198606D01*
G75*
G02*
X95059401Y-79448605I0J-249999D01*
G01*
X95059401Y-80348607D01*
G75*
G02*
X94809402Y-80598606I-249999J0D01*
G01*
X94159400Y-80598606D01*
G75*
G02*
X93909401Y-80348607I0J249999D01*
G01*
G37*
G36*
G01*
X101400401Y-91691405D02*
X101400401Y-92591407D01*
G75*
G02*
X101150402Y-92841406I-249999J0D01*
G01*
X100500400Y-92841406D01*
G75*
G02*
X100250401Y-92591407I0J249999D01*
G01*
X100250401Y-91691405D01*
G75*
G02*
X100500400Y-91441406I249999J0D01*
G01*
X101150402Y-91441406D01*
G75*
G02*
X101400401Y-91691405I0J-249999D01*
G01*
G37*
G36*
G01*
X99350401Y-91691405D02*
X99350401Y-92591407D01*
G75*
G02*
X99100402Y-92841406I-249999J0D01*
G01*
X98450400Y-92841406D01*
G75*
G02*
X98200401Y-92591407I0J249999D01*
G01*
X98200401Y-91691405D01*
G75*
G02*
X98450400Y-91441406I249999J0D01*
G01*
X99100402Y-91441406D01*
G75*
G02*
X99350401Y-91691405I0J-249999D01*
G01*
G37*
D13*
X104364601Y-89197006D03*
D14*
X100714601Y-87767006D03*
D13*
X104364601Y-80557006D03*
D14*
X100714601Y-81987006D03*
D15*
X100184601Y-80557006D03*
X100184601Y-89197006D03*
D16*
X60414001Y-78654006D03*
D17*
X62954001Y-78654006D03*
X65494001Y-78654006D03*
X68034001Y-78654006D03*
X70574001Y-78654006D03*
X73114001Y-78654006D03*
X75654001Y-78654006D03*
X78194001Y-78654006D03*
X80734001Y-78654006D03*
X83274001Y-78654006D03*
G36*
G01*
X105169001Y-83341506D02*
X105169001Y-83816506D01*
G75*
G02*
X104931501Y-84054006I-237500J0D01*
G01*
X104356501Y-84054006D01*
G75*
G02*
X104119001Y-83816506I0J237500D01*
G01*
X104119001Y-83341506D01*
G75*
G02*
X104356501Y-83104006I237500J0D01*
G01*
X104931501Y-83104006D01*
G75*
G02*
X105169001Y-83341506I0J-237500D01*
G01*
G37*
G36*
G01*
X103419001Y-83341506D02*
X103419001Y-83816506D01*
G75*
G02*
X103181501Y-84054006I-237500J0D01*
G01*
X102606501Y-84054006D01*
G75*
G02*
X102369001Y-83816506I0J237500D01*
G01*
X102369001Y-83341506D01*
G75*
G02*
X102606501Y-83104006I237500J0D01*
G01*
X103181501Y-83104006D01*
G75*
G02*
X103419001Y-83341506I0J-237500D01*
G01*
G37*
G36*
G01*
X105144001Y-86291506D02*
X105144001Y-86766506D01*
G75*
G02*
X104906501Y-87004006I-237500J0D01*
G01*
X104331501Y-87004006D01*
G75*
G02*
X104094001Y-86766506I0J237500D01*
G01*
X104094001Y-86291506D01*
G75*
G02*
X104331501Y-86054006I237500J0D01*
G01*
X104906501Y-86054006D01*
G75*
G02*
X105144001Y-86291506I0J-237500D01*
G01*
G37*
G36*
G01*
X103394001Y-86291506D02*
X103394001Y-86766506D01*
G75*
G02*
X103156501Y-87004006I-237500J0D01*
G01*
X102581501Y-87004006D01*
G75*
G02*
X102344001Y-86766506I0J237500D01*
G01*
X102344001Y-86291506D01*
G75*
G02*
X102581501Y-86054006I237500J0D01*
G01*
X103156501Y-86054006D01*
G75*
G02*
X103394001Y-86291506I0J-237500D01*
G01*
G37*
G36*
G01*
X59264672Y-88962780D02*
X59176283Y-88874391D01*
G75*
G02*
X59176283Y-88786003I44194J44194D01*
G01*
X59653580Y-88308706D01*
G75*
G02*
X59741968Y-88308706I44194J-44194D01*
G01*
X59830357Y-88397095D01*
G75*
G02*
X59830357Y-88485483I-44194J-44194D01*
G01*
X59353060Y-88962780D01*
G75*
G02*
X59264672Y-88962780I-44194J44194D01*
G01*
G37*
G36*
G01*
X59618225Y-89316333D02*
X59529836Y-89227944D01*
G75*
G02*
X59529836Y-89139556I44194J44194D01*
G01*
X60007133Y-88662259D01*
G75*
G02*
X60095521Y-88662259I44194J-44194D01*
G01*
X60183910Y-88750648D01*
G75*
G02*
X60183910Y-88839036I-44194J-44194D01*
G01*
X59706613Y-89316333D01*
G75*
G02*
X59618225Y-89316333I-44194J44194D01*
G01*
G37*
G36*
G01*
X59971779Y-89669887D02*
X59883390Y-89581498D01*
G75*
G02*
X59883390Y-89493110I44194J44194D01*
G01*
X60360687Y-89015813D01*
G75*
G02*
X60449075Y-89015813I44194J-44194D01*
G01*
X60537464Y-89104202D01*
G75*
G02*
X60537464Y-89192590I-44194J-44194D01*
G01*
X60060167Y-89669887D01*
G75*
G02*
X59971779Y-89669887I-44194J44194D01*
G01*
G37*
G36*
G01*
X60325332Y-90023440D02*
X60236943Y-89935051D01*
G75*
G02*
X60236943Y-89846663I44194J44194D01*
G01*
X60714240Y-89369366D01*
G75*
G02*
X60802628Y-89369366I44194J-44194D01*
G01*
X60891017Y-89457755D01*
G75*
G02*
X60891017Y-89546143I-44194J-44194D01*
G01*
X60413720Y-90023440D01*
G75*
G02*
X60325332Y-90023440I-44194J44194D01*
G01*
G37*
G36*
G01*
X60678886Y-90376993D02*
X60590497Y-90288604D01*
G75*
G02*
X60590497Y-90200216I44194J44194D01*
G01*
X61067794Y-89722919D01*
G75*
G02*
X61156182Y-89722919I44194J-44194D01*
G01*
X61244571Y-89811308D01*
G75*
G02*
X61244571Y-89899696I-44194J-44194D01*
G01*
X60767274Y-90376993D01*
G75*
G02*
X60678886Y-90376993I-44194J44194D01*
G01*
G37*
G36*
G01*
X61032439Y-90730547D02*
X60944050Y-90642158D01*
G75*
G02*
X60944050Y-90553770I44194J44194D01*
G01*
X61421347Y-90076473D01*
G75*
G02*
X61509735Y-90076473I44194J-44194D01*
G01*
X61598124Y-90164862D01*
G75*
G02*
X61598124Y-90253250I-44194J-44194D01*
G01*
X61120827Y-90730547D01*
G75*
G02*
X61032439Y-90730547I-44194J44194D01*
G01*
G37*
G36*
G01*
X61385992Y-91084100D02*
X61297603Y-90995711D01*
G75*
G02*
X61297603Y-90907323I44194J44194D01*
G01*
X61774900Y-90430026D01*
G75*
G02*
X61863288Y-90430026I44194J-44194D01*
G01*
X61951677Y-90518415D01*
G75*
G02*
X61951677Y-90606803I-44194J-44194D01*
G01*
X61474380Y-91084100D01*
G75*
G02*
X61385992Y-91084100I-44194J44194D01*
G01*
G37*
G36*
G01*
X61739546Y-91437653D02*
X61651157Y-91349264D01*
G75*
G02*
X61651157Y-91260876I44194J44194D01*
G01*
X62128454Y-90783579D01*
G75*
G02*
X62216842Y-90783579I44194J-44194D01*
G01*
X62305231Y-90871968D01*
G75*
G02*
X62305231Y-90960356I-44194J-44194D01*
G01*
X61827934Y-91437653D01*
G75*
G02*
X61739546Y-91437653I-44194J44194D01*
G01*
G37*
G36*
G01*
X62093099Y-91791207D02*
X62004710Y-91702818D01*
G75*
G02*
X62004710Y-91614430I44194J44194D01*
G01*
X62482007Y-91137133D01*
G75*
G02*
X62570395Y-91137133I44194J-44194D01*
G01*
X62658784Y-91225522D01*
G75*
G02*
X62658784Y-91313910I-44194J-44194D01*
G01*
X62181487Y-91791207D01*
G75*
G02*
X62093099Y-91791207I-44194J44194D01*
G01*
G37*
G36*
G01*
X62446652Y-92144760D02*
X62358263Y-92056371D01*
G75*
G02*
X62358263Y-91967983I44194J44194D01*
G01*
X62835560Y-91490686D01*
G75*
G02*
X62923948Y-91490686I44194J-44194D01*
G01*
X63012337Y-91579075D01*
G75*
G02*
X63012337Y-91667463I-44194J-44194D01*
G01*
X62535040Y-92144760D01*
G75*
G02*
X62446652Y-92144760I-44194J44194D01*
G01*
G37*
G36*
G01*
X62800206Y-92498314D02*
X62711817Y-92409925D01*
G75*
G02*
X62711817Y-92321537I44194J44194D01*
G01*
X63189114Y-91844240D01*
G75*
G02*
X63277502Y-91844240I44194J-44194D01*
G01*
X63365891Y-91932629D01*
G75*
G02*
X63365891Y-92021017I-44194J-44194D01*
G01*
X62888594Y-92498314D01*
G75*
G02*
X62800206Y-92498314I-44194J44194D01*
G01*
G37*
G36*
G01*
X63153759Y-92851867D02*
X63065370Y-92763478D01*
G75*
G02*
X63065370Y-92675090I44194J44194D01*
G01*
X63542667Y-92197793D01*
G75*
G02*
X63631055Y-92197793I44194J-44194D01*
G01*
X63719444Y-92286182D01*
G75*
G02*
X63719444Y-92374570I-44194J-44194D01*
G01*
X63242147Y-92851867D01*
G75*
G02*
X63153759Y-92851867I-44194J44194D01*
G01*
G37*
G36*
G01*
X64532617Y-92851867D02*
X64055320Y-92374570D01*
G75*
G02*
X64055320Y-92286182I44194J44194D01*
G01*
X64143709Y-92197793D01*
G75*
G02*
X64232097Y-92197793I44194J-44194D01*
G01*
X64709394Y-92675090D01*
G75*
G02*
X64709394Y-92763478I-44194J-44194D01*
G01*
X64621005Y-92851867D01*
G75*
G02*
X64532617Y-92851867I-44194J44194D01*
G01*
G37*
G36*
G01*
X64886170Y-92498314D02*
X64408873Y-92021017D01*
G75*
G02*
X64408873Y-91932629I44194J44194D01*
G01*
X64497262Y-91844240D01*
G75*
G02*
X64585650Y-91844240I44194J-44194D01*
G01*
X65062947Y-92321537D01*
G75*
G02*
X65062947Y-92409925I-44194J-44194D01*
G01*
X64974558Y-92498314D01*
G75*
G02*
X64886170Y-92498314I-44194J44194D01*
G01*
G37*
G36*
G01*
X65239724Y-92144760D02*
X64762427Y-91667463D01*
G75*
G02*
X64762427Y-91579075I44194J44194D01*
G01*
X64850816Y-91490686D01*
G75*
G02*
X64939204Y-91490686I44194J-44194D01*
G01*
X65416501Y-91967983D01*
G75*
G02*
X65416501Y-92056371I-44194J-44194D01*
G01*
X65328112Y-92144760D01*
G75*
G02*
X65239724Y-92144760I-44194J44194D01*
G01*
G37*
G36*
G01*
X65593277Y-91791207D02*
X65115980Y-91313910D01*
G75*
G02*
X65115980Y-91225522I44194J44194D01*
G01*
X65204369Y-91137133D01*
G75*
G02*
X65292757Y-91137133I44194J-44194D01*
G01*
X65770054Y-91614430D01*
G75*
G02*
X65770054Y-91702818I-44194J-44194D01*
G01*
X65681665Y-91791207D01*
G75*
G02*
X65593277Y-91791207I-44194J44194D01*
G01*
G37*
G36*
G01*
X65946830Y-91437653D02*
X65469533Y-90960356D01*
G75*
G02*
X65469533Y-90871968I44194J44194D01*
G01*
X65557922Y-90783579D01*
G75*
G02*
X65646310Y-90783579I44194J-44194D01*
G01*
X66123607Y-91260876D01*
G75*
G02*
X66123607Y-91349264I-44194J-44194D01*
G01*
X66035218Y-91437653D01*
G75*
G02*
X65946830Y-91437653I-44194J44194D01*
G01*
G37*
G36*
G01*
X66300384Y-91084100D02*
X65823087Y-90606803D01*
G75*
G02*
X65823087Y-90518415I44194J44194D01*
G01*
X65911476Y-90430026D01*
G75*
G02*
X65999864Y-90430026I44194J-44194D01*
G01*
X66477161Y-90907323D01*
G75*
G02*
X66477161Y-90995711I-44194J-44194D01*
G01*
X66388772Y-91084100D01*
G75*
G02*
X66300384Y-91084100I-44194J44194D01*
G01*
G37*
G36*
G01*
X66653937Y-90730547D02*
X66176640Y-90253250D01*
G75*
G02*
X66176640Y-90164862I44194J44194D01*
G01*
X66265029Y-90076473D01*
G75*
G02*
X66353417Y-90076473I44194J-44194D01*
G01*
X66830714Y-90553770D01*
G75*
G02*
X66830714Y-90642158I-44194J-44194D01*
G01*
X66742325Y-90730547D01*
G75*
G02*
X66653937Y-90730547I-44194J44194D01*
G01*
G37*
G36*
G01*
X67007490Y-90376993D02*
X66530193Y-89899696D01*
G75*
G02*
X66530193Y-89811308I44194J44194D01*
G01*
X66618582Y-89722919D01*
G75*
G02*
X66706970Y-89722919I44194J-44194D01*
G01*
X67184267Y-90200216D01*
G75*
G02*
X67184267Y-90288604I-44194J-44194D01*
G01*
X67095878Y-90376993D01*
G75*
G02*
X67007490Y-90376993I-44194J44194D01*
G01*
G37*
G36*
G01*
X67361044Y-90023440D02*
X66883747Y-89546143D01*
G75*
G02*
X66883747Y-89457755I44194J44194D01*
G01*
X66972136Y-89369366D01*
G75*
G02*
X67060524Y-89369366I44194J-44194D01*
G01*
X67537821Y-89846663D01*
G75*
G02*
X67537821Y-89935051I-44194J-44194D01*
G01*
X67449432Y-90023440D01*
G75*
G02*
X67361044Y-90023440I-44194J44194D01*
G01*
G37*
G36*
G01*
X67714597Y-89669887D02*
X67237300Y-89192590D01*
G75*
G02*
X67237300Y-89104202I44194J44194D01*
G01*
X67325689Y-89015813D01*
G75*
G02*
X67414077Y-89015813I44194J-44194D01*
G01*
X67891374Y-89493110D01*
G75*
G02*
X67891374Y-89581498I-44194J-44194D01*
G01*
X67802985Y-89669887D01*
G75*
G02*
X67714597Y-89669887I-44194J44194D01*
G01*
G37*
G36*
G01*
X68068151Y-89316333D02*
X67590854Y-88839036D01*
G75*
G02*
X67590854Y-88750648I44194J44194D01*
G01*
X67679243Y-88662259D01*
G75*
G02*
X67767631Y-88662259I44194J-44194D01*
G01*
X68244928Y-89139556D01*
G75*
G02*
X68244928Y-89227944I-44194J-44194D01*
G01*
X68156539Y-89316333D01*
G75*
G02*
X68068151Y-89316333I-44194J44194D01*
G01*
G37*
G36*
G01*
X68421704Y-88962780D02*
X67944407Y-88485483D01*
G75*
G02*
X67944407Y-88397095I44194J44194D01*
G01*
X68032796Y-88308706D01*
G75*
G02*
X68121184Y-88308706I44194J-44194D01*
G01*
X68598481Y-88786003D01*
G75*
G02*
X68598481Y-88874391I-44194J-44194D01*
G01*
X68510092Y-88962780D01*
G75*
G02*
X68421704Y-88962780I-44194J44194D01*
G01*
G37*
G36*
G01*
X68032796Y-87972830D02*
X67944407Y-87884441D01*
G75*
G02*
X67944407Y-87796053I44194J44194D01*
G01*
X68421704Y-87318756D01*
G75*
G02*
X68510092Y-87318756I44194J-44194D01*
G01*
X68598481Y-87407145D01*
G75*
G02*
X68598481Y-87495533I-44194J-44194D01*
G01*
X68121184Y-87972830D01*
G75*
G02*
X68032796Y-87972830I-44194J44194D01*
G01*
G37*
G36*
G01*
X67679243Y-87619277D02*
X67590854Y-87530888D01*
G75*
G02*
X67590854Y-87442500I44194J44194D01*
G01*
X68068151Y-86965203D01*
G75*
G02*
X68156539Y-86965203I44194J-44194D01*
G01*
X68244928Y-87053592D01*
G75*
G02*
X68244928Y-87141980I-44194J-44194D01*
G01*
X67767631Y-87619277D01*
G75*
G02*
X67679243Y-87619277I-44194J44194D01*
G01*
G37*
G36*
G01*
X67325689Y-87265723D02*
X67237300Y-87177334D01*
G75*
G02*
X67237300Y-87088946I44194J44194D01*
G01*
X67714597Y-86611649D01*
G75*
G02*
X67802985Y-86611649I44194J-44194D01*
G01*
X67891374Y-86700038D01*
G75*
G02*
X67891374Y-86788426I-44194J-44194D01*
G01*
X67414077Y-87265723D01*
G75*
G02*
X67325689Y-87265723I-44194J44194D01*
G01*
G37*
G36*
G01*
X66972136Y-86912170D02*
X66883747Y-86823781D01*
G75*
G02*
X66883747Y-86735393I44194J44194D01*
G01*
X67361044Y-86258096D01*
G75*
G02*
X67449432Y-86258096I44194J-44194D01*
G01*
X67537821Y-86346485D01*
G75*
G02*
X67537821Y-86434873I-44194J-44194D01*
G01*
X67060524Y-86912170D01*
G75*
G02*
X66972136Y-86912170I-44194J44194D01*
G01*
G37*
G36*
G01*
X66618582Y-86558617D02*
X66530193Y-86470228D01*
G75*
G02*
X66530193Y-86381840I44194J44194D01*
G01*
X67007490Y-85904543D01*
G75*
G02*
X67095878Y-85904543I44194J-44194D01*
G01*
X67184267Y-85992932D01*
G75*
G02*
X67184267Y-86081320I-44194J-44194D01*
G01*
X66706970Y-86558617D01*
G75*
G02*
X66618582Y-86558617I-44194J44194D01*
G01*
G37*
G36*
G01*
X66265029Y-86205063D02*
X66176640Y-86116674D01*
G75*
G02*
X66176640Y-86028286I44194J44194D01*
G01*
X66653937Y-85550989D01*
G75*
G02*
X66742325Y-85550989I44194J-44194D01*
G01*
X66830714Y-85639378D01*
G75*
G02*
X66830714Y-85727766I-44194J-44194D01*
G01*
X66353417Y-86205063D01*
G75*
G02*
X66265029Y-86205063I-44194J44194D01*
G01*
G37*
G36*
G01*
X65911476Y-85851510D02*
X65823087Y-85763121D01*
G75*
G02*
X65823087Y-85674733I44194J44194D01*
G01*
X66300384Y-85197436D01*
G75*
G02*
X66388772Y-85197436I44194J-44194D01*
G01*
X66477161Y-85285825D01*
G75*
G02*
X66477161Y-85374213I-44194J-44194D01*
G01*
X65999864Y-85851510D01*
G75*
G02*
X65911476Y-85851510I-44194J44194D01*
G01*
G37*
G36*
G01*
X65557922Y-85497957D02*
X65469533Y-85409568D01*
G75*
G02*
X65469533Y-85321180I44194J44194D01*
G01*
X65946830Y-84843883D01*
G75*
G02*
X66035218Y-84843883I44194J-44194D01*
G01*
X66123607Y-84932272D01*
G75*
G02*
X66123607Y-85020660I-44194J-44194D01*
G01*
X65646310Y-85497957D01*
G75*
G02*
X65557922Y-85497957I-44194J44194D01*
G01*
G37*
G36*
G01*
X65204369Y-85144403D02*
X65115980Y-85056014D01*
G75*
G02*
X65115980Y-84967626I44194J44194D01*
G01*
X65593277Y-84490329D01*
G75*
G02*
X65681665Y-84490329I44194J-44194D01*
G01*
X65770054Y-84578718D01*
G75*
G02*
X65770054Y-84667106I-44194J-44194D01*
G01*
X65292757Y-85144403D01*
G75*
G02*
X65204369Y-85144403I-44194J44194D01*
G01*
G37*
G36*
G01*
X64850816Y-84790850D02*
X64762427Y-84702461D01*
G75*
G02*
X64762427Y-84614073I44194J44194D01*
G01*
X65239724Y-84136776D01*
G75*
G02*
X65328112Y-84136776I44194J-44194D01*
G01*
X65416501Y-84225165D01*
G75*
G02*
X65416501Y-84313553I-44194J-44194D01*
G01*
X64939204Y-84790850D01*
G75*
G02*
X64850816Y-84790850I-44194J44194D01*
G01*
G37*
G36*
G01*
X64497262Y-84437296D02*
X64408873Y-84348907D01*
G75*
G02*
X64408873Y-84260519I44194J44194D01*
G01*
X64886170Y-83783222D01*
G75*
G02*
X64974558Y-83783222I44194J-44194D01*
G01*
X65062947Y-83871611D01*
G75*
G02*
X65062947Y-83959999I-44194J-44194D01*
G01*
X64585650Y-84437296D01*
G75*
G02*
X64497262Y-84437296I-44194J44194D01*
G01*
G37*
G36*
G01*
X64143709Y-84083743D02*
X64055320Y-83995354D01*
G75*
G02*
X64055320Y-83906966I44194J44194D01*
G01*
X64532617Y-83429669D01*
G75*
G02*
X64621005Y-83429669I44194J-44194D01*
G01*
X64709394Y-83518058D01*
G75*
G02*
X64709394Y-83606446I-44194J-44194D01*
G01*
X64232097Y-84083743D01*
G75*
G02*
X64143709Y-84083743I-44194J44194D01*
G01*
G37*
G36*
G01*
X63542667Y-84083743D02*
X63065370Y-83606446D01*
G75*
G02*
X63065370Y-83518058I44194J44194D01*
G01*
X63153759Y-83429669D01*
G75*
G02*
X63242147Y-83429669I44194J-44194D01*
G01*
X63719444Y-83906966D01*
G75*
G02*
X63719444Y-83995354I-44194J-44194D01*
G01*
X63631055Y-84083743D01*
G75*
G02*
X63542667Y-84083743I-44194J44194D01*
G01*
G37*
G36*
G01*
X63189114Y-84437296D02*
X62711817Y-83959999D01*
G75*
G02*
X62711817Y-83871611I44194J44194D01*
G01*
X62800206Y-83783222D01*
G75*
G02*
X62888594Y-83783222I44194J-44194D01*
G01*
X63365891Y-84260519D01*
G75*
G02*
X63365891Y-84348907I-44194J-44194D01*
G01*
X63277502Y-84437296D01*
G75*
G02*
X63189114Y-84437296I-44194J44194D01*
G01*
G37*
G36*
G01*
X62835560Y-84790850D02*
X62358263Y-84313553D01*
G75*
G02*
X62358263Y-84225165I44194J44194D01*
G01*
X62446652Y-84136776D01*
G75*
G02*
X62535040Y-84136776I44194J-44194D01*
G01*
X63012337Y-84614073D01*
G75*
G02*
X63012337Y-84702461I-44194J-44194D01*
G01*
X62923948Y-84790850D01*
G75*
G02*
X62835560Y-84790850I-44194J44194D01*
G01*
G37*
G36*
G01*
X62482007Y-85144403D02*
X62004710Y-84667106D01*
G75*
G02*
X62004710Y-84578718I44194J44194D01*
G01*
X62093099Y-84490329D01*
G75*
G02*
X62181487Y-84490329I44194J-44194D01*
G01*
X62658784Y-84967626D01*
G75*
G02*
X62658784Y-85056014I-44194J-44194D01*
G01*
X62570395Y-85144403D01*
G75*
G02*
X62482007Y-85144403I-44194J44194D01*
G01*
G37*
G36*
G01*
X62128454Y-85497957D02*
X61651157Y-85020660D01*
G75*
G02*
X61651157Y-84932272I44194J44194D01*
G01*
X61739546Y-84843883D01*
G75*
G02*
X61827934Y-84843883I44194J-44194D01*
G01*
X62305231Y-85321180D01*
G75*
G02*
X62305231Y-85409568I-44194J-44194D01*
G01*
X62216842Y-85497957D01*
G75*
G02*
X62128454Y-85497957I-44194J44194D01*
G01*
G37*
G36*
G01*
X61774900Y-85851510D02*
X61297603Y-85374213D01*
G75*
G02*
X61297603Y-85285825I44194J44194D01*
G01*
X61385992Y-85197436D01*
G75*
G02*
X61474380Y-85197436I44194J-44194D01*
G01*
X61951677Y-85674733D01*
G75*
G02*
X61951677Y-85763121I-44194J-44194D01*
G01*
X61863288Y-85851510D01*
G75*
G02*
X61774900Y-85851510I-44194J44194D01*
G01*
G37*
G36*
G01*
X61421347Y-86205063D02*
X60944050Y-85727766D01*
G75*
G02*
X60944050Y-85639378I44194J44194D01*
G01*
X61032439Y-85550989D01*
G75*
G02*
X61120827Y-85550989I44194J-44194D01*
G01*
X61598124Y-86028286D01*
G75*
G02*
X61598124Y-86116674I-44194J-44194D01*
G01*
X61509735Y-86205063D01*
G75*
G02*
X61421347Y-86205063I-44194J44194D01*
G01*
G37*
G36*
G01*
X61067794Y-86558617D02*
X60590497Y-86081320D01*
G75*
G02*
X60590497Y-85992932I44194J44194D01*
G01*
X60678886Y-85904543D01*
G75*
G02*
X60767274Y-85904543I44194J-44194D01*
G01*
X61244571Y-86381840D01*
G75*
G02*
X61244571Y-86470228I-44194J-44194D01*
G01*
X61156182Y-86558617D01*
G75*
G02*
X61067794Y-86558617I-44194J44194D01*
G01*
G37*
G36*
G01*
X60714240Y-86912170D02*
X60236943Y-86434873D01*
G75*
G02*
X60236943Y-86346485I44194J44194D01*
G01*
X60325332Y-86258096D01*
G75*
G02*
X60413720Y-86258096I44194J-44194D01*
G01*
X60891017Y-86735393D01*
G75*
G02*
X60891017Y-86823781I-44194J-44194D01*
G01*
X60802628Y-86912170D01*
G75*
G02*
X60714240Y-86912170I-44194J44194D01*
G01*
G37*
G36*
G01*
X60360687Y-87265723D02*
X59883390Y-86788426D01*
G75*
G02*
X59883390Y-86700038I44194J44194D01*
G01*
X59971779Y-86611649D01*
G75*
G02*
X60060167Y-86611649I44194J-44194D01*
G01*
X60537464Y-87088946D01*
G75*
G02*
X60537464Y-87177334I-44194J-44194D01*
G01*
X60449075Y-87265723D01*
G75*
G02*
X60360687Y-87265723I-44194J44194D01*
G01*
G37*
G36*
G01*
X60007133Y-87619277D02*
X59529836Y-87141980D01*
G75*
G02*
X59529836Y-87053592I44194J44194D01*
G01*
X59618225Y-86965203D01*
G75*
G02*
X59706613Y-86965203I44194J-44194D01*
G01*
X60183910Y-87442500D01*
G75*
G02*
X60183910Y-87530888I-44194J-44194D01*
G01*
X60095521Y-87619277D01*
G75*
G02*
X60007133Y-87619277I-44194J44194D01*
G01*
G37*
G36*
G01*
X59653580Y-87972830D02*
X59176283Y-87495533D01*
G75*
G02*
X59176283Y-87407145I44194J44194D01*
G01*
X59264672Y-87318756D01*
G75*
G02*
X59353060Y-87318756I44194J-44194D01*
G01*
X59830357Y-87796053D01*
G75*
G02*
X59830357Y-87884441I-44194J-44194D01*
G01*
X59741968Y-87972830D01*
G75*
G02*
X59653580Y-87972830I-44194J44194D01*
G01*
G37*
D18*
G36*
X63887382Y-91888434D02*
G01*
X60139716Y-88140768D01*
X63887382Y-84393102D01*
X67635048Y-88140768D01*
X63887382Y-91888434D01*
G37*
G36*
G01*
X77044001Y-87184006D02*
X77044001Y-87484006D01*
G75*
G02*
X76894001Y-87634006I-150000J0D01*
G01*
X75244001Y-87634006D01*
G75*
G02*
X75094001Y-87484006I0J150000D01*
G01*
X75094001Y-87184006D01*
G75*
G02*
X75244001Y-87034006I150000J0D01*
G01*
X76894001Y-87034006D01*
G75*
G02*
X77044001Y-87184006I0J-150000D01*
G01*
G37*
G36*
G01*
X77044001Y-85914006D02*
X77044001Y-86214006D01*
G75*
G02*
X76894001Y-86364006I-150000J0D01*
G01*
X75244001Y-86364006D01*
G75*
G02*
X75094001Y-86214006I0J150000D01*
G01*
X75094001Y-85914006D01*
G75*
G02*
X75244001Y-85764006I150000J0D01*
G01*
X76894001Y-85764006D01*
G75*
G02*
X77044001Y-85914006I0J-150000D01*
G01*
G37*
G36*
G01*
X77044001Y-84644006D02*
X77044001Y-84944006D01*
G75*
G02*
X76894001Y-85094006I-150000J0D01*
G01*
X75244001Y-85094006D01*
G75*
G02*
X75094001Y-84944006I0J150000D01*
G01*
X75094001Y-84644006D01*
G75*
G02*
X75244001Y-84494006I150000J0D01*
G01*
X76894001Y-84494006D01*
G75*
G02*
X77044001Y-84644006I0J-150000D01*
G01*
G37*
G36*
G01*
X77044001Y-83374006D02*
X77044001Y-83674006D01*
G75*
G02*
X76894001Y-83824006I-150000J0D01*
G01*
X75244001Y-83824006D01*
G75*
G02*
X75094001Y-83674006I0J150000D01*
G01*
X75094001Y-83374006D01*
G75*
G02*
X75244001Y-83224006I150000J0D01*
G01*
X76894001Y-83224006D01*
G75*
G02*
X77044001Y-83374006I0J-150000D01*
G01*
G37*
G36*
G01*
X72094001Y-83374006D02*
X72094001Y-83674006D01*
G75*
G02*
X71944001Y-83824006I-150000J0D01*
G01*
X70294001Y-83824006D01*
G75*
G02*
X70144001Y-83674006I0J150000D01*
G01*
X70144001Y-83374006D01*
G75*
G02*
X70294001Y-83224006I150000J0D01*
G01*
X71944001Y-83224006D01*
G75*
G02*
X72094001Y-83374006I0J-150000D01*
G01*
G37*
G36*
G01*
X72094001Y-84644006D02*
X72094001Y-84944006D01*
G75*
G02*
X71944001Y-85094006I-150000J0D01*
G01*
X70294001Y-85094006D01*
G75*
G02*
X70144001Y-84944006I0J150000D01*
G01*
X70144001Y-84644006D01*
G75*
G02*
X70294001Y-84494006I150000J0D01*
G01*
X71944001Y-84494006D01*
G75*
G02*
X72094001Y-84644006I0J-150000D01*
G01*
G37*
G36*
G01*
X72094001Y-85914006D02*
X72094001Y-86214006D01*
G75*
G02*
X71944001Y-86364006I-150000J0D01*
G01*
X70294001Y-86364006D01*
G75*
G02*
X70144001Y-86214006I0J150000D01*
G01*
X70144001Y-85914006D01*
G75*
G02*
X70294001Y-85764006I150000J0D01*
G01*
X71944001Y-85764006D01*
G75*
G02*
X72094001Y-85914006I0J-150000D01*
G01*
G37*
G36*
G01*
X72094001Y-87184006D02*
X72094001Y-87484006D01*
G75*
G02*
X71944001Y-87634006I-150000J0D01*
G01*
X70294001Y-87634006D01*
G75*
G02*
X70144001Y-87484006I0J150000D01*
G01*
X70144001Y-87184006D01*
G75*
G02*
X70294001Y-87034006I150000J0D01*
G01*
X71944001Y-87034006D01*
G75*
G02*
X72094001Y-87184006I0J-150000D01*
G01*
G37*
G36*
G01*
X90007401Y-81046006D02*
X90307401Y-81046006D01*
G75*
G02*
X90457401Y-81196006I0J-150000D01*
G01*
X90457401Y-82846006D01*
G75*
G02*
X90307401Y-82996006I-150000J0D01*
G01*
X90007401Y-82996006D01*
G75*
G02*
X89857401Y-82846006I0J150000D01*
G01*
X89857401Y-81196006D01*
G75*
G02*
X90007401Y-81046006I150000J0D01*
G01*
G37*
G36*
G01*
X88737401Y-81046006D02*
X89037401Y-81046006D01*
G75*
G02*
X89187401Y-81196006I0J-150000D01*
G01*
X89187401Y-82846006D01*
G75*
G02*
X89037401Y-82996006I-150000J0D01*
G01*
X88737401Y-82996006D01*
G75*
G02*
X88587401Y-82846006I0J150000D01*
G01*
X88587401Y-81196006D01*
G75*
G02*
X88737401Y-81046006I150000J0D01*
G01*
G37*
G36*
G01*
X87467401Y-81046006D02*
X87767401Y-81046006D01*
G75*
G02*
X87917401Y-81196006I0J-150000D01*
G01*
X87917401Y-82846006D01*
G75*
G02*
X87767401Y-82996006I-150000J0D01*
G01*
X87467401Y-82996006D01*
G75*
G02*
X87317401Y-82846006I0J150000D01*
G01*
X87317401Y-81196006D01*
G75*
G02*
X87467401Y-81046006I150000J0D01*
G01*
G37*
G36*
G01*
X86197401Y-81046006D02*
X86497401Y-81046006D01*
G75*
G02*
X86647401Y-81196006I0J-150000D01*
G01*
X86647401Y-82846006D01*
G75*
G02*
X86497401Y-82996006I-150000J0D01*
G01*
X86197401Y-82996006D01*
G75*
G02*
X86047401Y-82846006I0J150000D01*
G01*
X86047401Y-81196006D01*
G75*
G02*
X86197401Y-81046006I150000J0D01*
G01*
G37*
G36*
G01*
X84927401Y-81046006D02*
X85227401Y-81046006D01*
G75*
G02*
X85377401Y-81196006I0J-150000D01*
G01*
X85377401Y-82846006D01*
G75*
G02*
X85227401Y-82996006I-150000J0D01*
G01*
X84927401Y-82996006D01*
G75*
G02*
X84777401Y-82846006I0J150000D01*
G01*
X84777401Y-81196006D01*
G75*
G02*
X84927401Y-81046006I150000J0D01*
G01*
G37*
G36*
G01*
X83657401Y-81046006D02*
X83957401Y-81046006D01*
G75*
G02*
X84107401Y-81196006I0J-150000D01*
G01*
X84107401Y-82846006D01*
G75*
G02*
X83957401Y-82996006I-150000J0D01*
G01*
X83657401Y-82996006D01*
G75*
G02*
X83507401Y-82846006I0J150000D01*
G01*
X83507401Y-81196006D01*
G75*
G02*
X83657401Y-81046006I150000J0D01*
G01*
G37*
G36*
G01*
X82387401Y-81046006D02*
X82687401Y-81046006D01*
G75*
G02*
X82837401Y-81196006I0J-150000D01*
G01*
X82837401Y-82846006D01*
G75*
G02*
X82687401Y-82996006I-150000J0D01*
G01*
X82387401Y-82996006D01*
G75*
G02*
X82237401Y-82846006I0J150000D01*
G01*
X82237401Y-81196006D01*
G75*
G02*
X82387401Y-81046006I150000J0D01*
G01*
G37*
G36*
G01*
X81117401Y-81046006D02*
X81417401Y-81046006D01*
G75*
G02*
X81567401Y-81196006I0J-150000D01*
G01*
X81567401Y-82846006D01*
G75*
G02*
X81417401Y-82996006I-150000J0D01*
G01*
X81117401Y-82996006D01*
G75*
G02*
X80967401Y-82846006I0J150000D01*
G01*
X80967401Y-81196006D01*
G75*
G02*
X81117401Y-81046006I150000J0D01*
G01*
G37*
G36*
G01*
X81117401Y-85996006D02*
X81417401Y-85996006D01*
G75*
G02*
X81567401Y-86146006I0J-150000D01*
G01*
X81567401Y-87796006D01*
G75*
G02*
X81417401Y-87946006I-150000J0D01*
G01*
X81117401Y-87946006D01*
G75*
G02*
X80967401Y-87796006I0J150000D01*
G01*
X80967401Y-86146006D01*
G75*
G02*
X81117401Y-85996006I150000J0D01*
G01*
G37*
G36*
G01*
X82387401Y-85996006D02*
X82687401Y-85996006D01*
G75*
G02*
X82837401Y-86146006I0J-150000D01*
G01*
X82837401Y-87796006D01*
G75*
G02*
X82687401Y-87946006I-150000J0D01*
G01*
X82387401Y-87946006D01*
G75*
G02*
X82237401Y-87796006I0J150000D01*
G01*
X82237401Y-86146006D01*
G75*
G02*
X82387401Y-85996006I150000J0D01*
G01*
G37*
G36*
G01*
X83657401Y-85996006D02*
X83957401Y-85996006D01*
G75*
G02*
X84107401Y-86146006I0J-150000D01*
G01*
X84107401Y-87796006D01*
G75*
G02*
X83957401Y-87946006I-150000J0D01*
G01*
X83657401Y-87946006D01*
G75*
G02*
X83507401Y-87796006I0J150000D01*
G01*
X83507401Y-86146006D01*
G75*
G02*
X83657401Y-85996006I150000J0D01*
G01*
G37*
G36*
G01*
X84927401Y-85996006D02*
X85227401Y-85996006D01*
G75*
G02*
X85377401Y-86146006I0J-150000D01*
G01*
X85377401Y-87796006D01*
G75*
G02*
X85227401Y-87946006I-150000J0D01*
G01*
X84927401Y-87946006D01*
G75*
G02*
X84777401Y-87796006I0J150000D01*
G01*
X84777401Y-86146006D01*
G75*
G02*
X84927401Y-85996006I150000J0D01*
G01*
G37*
G36*
G01*
X86197401Y-85996006D02*
X86497401Y-85996006D01*
G75*
G02*
X86647401Y-86146006I0J-150000D01*
G01*
X86647401Y-87796006D01*
G75*
G02*
X86497401Y-87946006I-150000J0D01*
G01*
X86197401Y-87946006D01*
G75*
G02*
X86047401Y-87796006I0J150000D01*
G01*
X86047401Y-86146006D01*
G75*
G02*
X86197401Y-85996006I150000J0D01*
G01*
G37*
G36*
G01*
X87467401Y-85996006D02*
X87767401Y-85996006D01*
G75*
G02*
X87917401Y-86146006I0J-150000D01*
G01*
X87917401Y-87796006D01*
G75*
G02*
X87767401Y-87946006I-150000J0D01*
G01*
X87467401Y-87946006D01*
G75*
G02*
X87317401Y-87796006I0J150000D01*
G01*
X87317401Y-86146006D01*
G75*
G02*
X87467401Y-85996006I150000J0D01*
G01*
G37*
G36*
G01*
X88737401Y-85996006D02*
X89037401Y-85996006D01*
G75*
G02*
X89187401Y-86146006I0J-150000D01*
G01*
X89187401Y-87796006D01*
G75*
G02*
X89037401Y-87946006I-150000J0D01*
G01*
X88737401Y-87946006D01*
G75*
G02*
X88587401Y-87796006I0J150000D01*
G01*
X88587401Y-86146006D01*
G75*
G02*
X88737401Y-85996006I150000J0D01*
G01*
G37*
G36*
G01*
X90007401Y-85996006D02*
X90307401Y-85996006D01*
G75*
G02*
X90457401Y-86146006I0J-150000D01*
G01*
X90457401Y-87796006D01*
G75*
G02*
X90307401Y-87946006I-150000J0D01*
G01*
X90007401Y-87946006D01*
G75*
G02*
X89857401Y-87796006I0J150000D01*
G01*
X89857401Y-86146006D01*
G75*
G02*
X90007401Y-85996006I150000J0D01*
G01*
G37*
D16*
X54826001Y-96180006D03*
D17*
X57366001Y-96180006D03*
X59906001Y-96180006D03*
X62446001Y-96180006D03*
X64986001Y-96180006D03*
X67526001Y-96180006D03*
X70066001Y-96180006D03*
X72606001Y-96180006D03*
X75146001Y-96180006D03*
X77686001Y-96180006D03*
X80226001Y-96180006D03*
X82766001Y-96180006D03*
X85306001Y-96180006D03*
X87846001Y-96180006D03*
X90386001Y-96180006D03*
X92926001Y-96180006D03*
X95466001Y-96180006D03*
X98006001Y-96180006D03*
X100546001Y-96180006D03*
X103086001Y-96180006D03*
D16*
X98768001Y-77638006D03*
D17*
X101308001Y-77638006D03*
X103848001Y-77638006D03*
D12*
X51778001Y-63624001D03*
X51778001Y-54124001D03*
G36*
G01*
X73069001Y-64135501D02*
X73069001Y-64610501D01*
G75*
G02*
X72831501Y-64848001I-237500J0D01*
G01*
X72256501Y-64848001D01*
G75*
G02*
X72019001Y-64610501I0J237500D01*
G01*
X72019001Y-64135501D01*
G75*
G02*
X72256501Y-63898001I237500J0D01*
G01*
X72831501Y-63898001D01*
G75*
G02*
X73069001Y-64135501I0J-237500D01*
G01*
G37*
G36*
G01*
X74819001Y-64135501D02*
X74819001Y-64610501D01*
G75*
G02*
X74581501Y-64848001I-237500J0D01*
G01*
X74006501Y-64848001D01*
G75*
G02*
X73769001Y-64610501I0J237500D01*
G01*
X73769001Y-64135501D01*
G75*
G02*
X74006501Y-63898001I237500J0D01*
G01*
X74581501Y-63898001D01*
G75*
G02*
X74819001Y-64135501I0J-237500D01*
G01*
G37*
G36*
G01*
X93620701Y-62204401D02*
X93145701Y-62204401D01*
G75*
G02*
X92908201Y-61966901I0J237500D01*
G01*
X92908201Y-61391901D01*
G75*
G02*
X93145701Y-61154401I237500J0D01*
G01*
X93620701Y-61154401D01*
G75*
G02*
X93858201Y-61391901I0J-237500D01*
G01*
X93858201Y-61966901D01*
G75*
G02*
X93620701Y-62204401I-237500J0D01*
G01*
G37*
G36*
G01*
X93620701Y-60454401D02*
X93145701Y-60454401D01*
G75*
G02*
X92908201Y-60216901I0J237500D01*
G01*
X92908201Y-59641901D01*
G75*
G02*
X93145701Y-59404401I237500J0D01*
G01*
X93620701Y-59404401D01*
G75*
G02*
X93858201Y-59641901I0J-237500D01*
G01*
X93858201Y-60216901D01*
G75*
G02*
X93620701Y-60454401I-237500J0D01*
G01*
G37*
G36*
G01*
X85594001Y-54010501D02*
X85594001Y-53535501D01*
G75*
G02*
X85831501Y-53298001I237500J0D01*
G01*
X86406501Y-53298001D01*
G75*
G02*
X86644001Y-53535501I0J-237500D01*
G01*
X86644001Y-54010501D01*
G75*
G02*
X86406501Y-54248001I-237500J0D01*
G01*
X85831501Y-54248001D01*
G75*
G02*
X85594001Y-54010501I0J237500D01*
G01*
G37*
G36*
G01*
X87344001Y-54010501D02*
X87344001Y-53535501D01*
G75*
G02*
X87581501Y-53298001I237500J0D01*
G01*
X88156501Y-53298001D01*
G75*
G02*
X88394001Y-53535501I0J-237500D01*
G01*
X88394001Y-54010501D01*
G75*
G02*
X88156501Y-54248001I-237500J0D01*
G01*
X87581501Y-54248001D01*
G75*
G02*
X87344001Y-54010501I0J237500D01*
G01*
G37*
G36*
G01*
X96906602Y-58797601D02*
X96006600Y-58797601D01*
G75*
G02*
X95756601Y-58547602I0J249999D01*
G01*
X95756601Y-57897600D01*
G75*
G02*
X96006600Y-57647601I249999J0D01*
G01*
X96906602Y-57647601D01*
G75*
G02*
X97156601Y-57897600I0J-249999D01*
G01*
X97156601Y-58547602D01*
G75*
G02*
X96906602Y-58797601I-249999J0D01*
G01*
G37*
G36*
G01*
X96906602Y-56747601D02*
X96006600Y-56747601D01*
G75*
G02*
X95756601Y-56497602I0J249999D01*
G01*
X95756601Y-55847600D01*
G75*
G02*
X96006600Y-55597601I249999J0D01*
G01*
X96906602Y-55597601D01*
G75*
G02*
X97156601Y-55847600I0J-249999D01*
G01*
X97156601Y-56497602D01*
G75*
G02*
X96906602Y-56747601I-249999J0D01*
G01*
G37*
G36*
G01*
X91859401Y-55742602D02*
X91859401Y-54842600D01*
G75*
G02*
X92109400Y-54592601I249999J0D01*
G01*
X92759402Y-54592601D01*
G75*
G02*
X93009401Y-54842600I0J-249999D01*
G01*
X93009401Y-55742602D01*
G75*
G02*
X92759402Y-55992601I-249999J0D01*
G01*
X92109400Y-55992601D01*
G75*
G02*
X91859401Y-55742602I0J249999D01*
G01*
G37*
G36*
G01*
X93909401Y-55742602D02*
X93909401Y-54842600D01*
G75*
G02*
X94159400Y-54592601I249999J0D01*
G01*
X94809402Y-54592601D01*
G75*
G02*
X95059401Y-54842600I0J-249999D01*
G01*
X95059401Y-55742602D01*
G75*
G02*
X94809402Y-55992601I-249999J0D01*
G01*
X94159400Y-55992601D01*
G75*
G02*
X93909401Y-55742602I0J249999D01*
G01*
G37*
G36*
G01*
X101400401Y-67085400D02*
X101400401Y-67985402D01*
G75*
G02*
X101150402Y-68235401I-249999J0D01*
G01*
X100500400Y-68235401D01*
G75*
G02*
X100250401Y-67985402I0J249999D01*
G01*
X100250401Y-67085400D01*
G75*
G02*
X100500400Y-66835401I249999J0D01*
G01*
X101150402Y-66835401D01*
G75*
G02*
X101400401Y-67085400I0J-249999D01*
G01*
G37*
G36*
G01*
X99350401Y-67085400D02*
X99350401Y-67985402D01*
G75*
G02*
X99100402Y-68235401I-249999J0D01*
G01*
X98450400Y-68235401D01*
G75*
G02*
X98200401Y-67985402I0J249999D01*
G01*
X98200401Y-67085400D01*
G75*
G02*
X98450400Y-66835401I249999J0D01*
G01*
X99100402Y-66835401D01*
G75*
G02*
X99350401Y-67085400I0J-249999D01*
G01*
G37*
D13*
X104364601Y-64591001D03*
D14*
X100714601Y-63161001D03*
D13*
X104364601Y-55951001D03*
D14*
X100714601Y-57381001D03*
D15*
X100184601Y-55951001D03*
X100184601Y-64591001D03*
D16*
X60414001Y-54048001D03*
D17*
X62954001Y-54048001D03*
X65494001Y-54048001D03*
X68034001Y-54048001D03*
X70574001Y-54048001D03*
X73114001Y-54048001D03*
X75654001Y-54048001D03*
X78194001Y-54048001D03*
X80734001Y-54048001D03*
X83274001Y-54048001D03*
G36*
G01*
X105169001Y-58735501D02*
X105169001Y-59210501D01*
G75*
G02*
X104931501Y-59448001I-237500J0D01*
G01*
X104356501Y-59448001D01*
G75*
G02*
X104119001Y-59210501I0J237500D01*
G01*
X104119001Y-58735501D01*
G75*
G02*
X104356501Y-58498001I237500J0D01*
G01*
X104931501Y-58498001D01*
G75*
G02*
X105169001Y-58735501I0J-237500D01*
G01*
G37*
G36*
G01*
X103419001Y-58735501D02*
X103419001Y-59210501D01*
G75*
G02*
X103181501Y-59448001I-237500J0D01*
G01*
X102606501Y-59448001D01*
G75*
G02*
X102369001Y-59210501I0J237500D01*
G01*
X102369001Y-58735501D01*
G75*
G02*
X102606501Y-58498001I237500J0D01*
G01*
X103181501Y-58498001D01*
G75*
G02*
X103419001Y-58735501I0J-237500D01*
G01*
G37*
G36*
G01*
X105144001Y-61685501D02*
X105144001Y-62160501D01*
G75*
G02*
X104906501Y-62398001I-237500J0D01*
G01*
X104331501Y-62398001D01*
G75*
G02*
X104094001Y-62160501I0J237500D01*
G01*
X104094001Y-61685501D01*
G75*
G02*
X104331501Y-61448001I237500J0D01*
G01*
X104906501Y-61448001D01*
G75*
G02*
X105144001Y-61685501I0J-237500D01*
G01*
G37*
G36*
G01*
X103394001Y-61685501D02*
X103394001Y-62160501D01*
G75*
G02*
X103156501Y-62398001I-237500J0D01*
G01*
X102581501Y-62398001D01*
G75*
G02*
X102344001Y-62160501I0J237500D01*
G01*
X102344001Y-61685501D01*
G75*
G02*
X102581501Y-61448001I237500J0D01*
G01*
X103156501Y-61448001D01*
G75*
G02*
X103394001Y-61685501I0J-237500D01*
G01*
G37*
G36*
G01*
X59264672Y-64356775D02*
X59176283Y-64268386D01*
G75*
G02*
X59176283Y-64179998I44194J44194D01*
G01*
X59653580Y-63702701D01*
G75*
G02*
X59741968Y-63702701I44194J-44194D01*
G01*
X59830357Y-63791090D01*
G75*
G02*
X59830357Y-63879478I-44194J-44194D01*
G01*
X59353060Y-64356775D01*
G75*
G02*
X59264672Y-64356775I-44194J44194D01*
G01*
G37*
G36*
G01*
X59618225Y-64710328D02*
X59529836Y-64621939D01*
G75*
G02*
X59529836Y-64533551I44194J44194D01*
G01*
X60007133Y-64056254D01*
G75*
G02*
X60095521Y-64056254I44194J-44194D01*
G01*
X60183910Y-64144643D01*
G75*
G02*
X60183910Y-64233031I-44194J-44194D01*
G01*
X59706613Y-64710328D01*
G75*
G02*
X59618225Y-64710328I-44194J44194D01*
G01*
G37*
G36*
G01*
X59971779Y-65063882D02*
X59883390Y-64975493D01*
G75*
G02*
X59883390Y-64887105I44194J44194D01*
G01*
X60360687Y-64409808D01*
G75*
G02*
X60449075Y-64409808I44194J-44194D01*
G01*
X60537464Y-64498197D01*
G75*
G02*
X60537464Y-64586585I-44194J-44194D01*
G01*
X60060167Y-65063882D01*
G75*
G02*
X59971779Y-65063882I-44194J44194D01*
G01*
G37*
G36*
G01*
X60325332Y-65417435D02*
X60236943Y-65329046D01*
G75*
G02*
X60236943Y-65240658I44194J44194D01*
G01*
X60714240Y-64763361D01*
G75*
G02*
X60802628Y-64763361I44194J-44194D01*
G01*
X60891017Y-64851750D01*
G75*
G02*
X60891017Y-64940138I-44194J-44194D01*
G01*
X60413720Y-65417435D01*
G75*
G02*
X60325332Y-65417435I-44194J44194D01*
G01*
G37*
G36*
G01*
X60678886Y-65770988D02*
X60590497Y-65682599D01*
G75*
G02*
X60590497Y-65594211I44194J44194D01*
G01*
X61067794Y-65116914D01*
G75*
G02*
X61156182Y-65116914I44194J-44194D01*
G01*
X61244571Y-65205303D01*
G75*
G02*
X61244571Y-65293691I-44194J-44194D01*
G01*
X60767274Y-65770988D01*
G75*
G02*
X60678886Y-65770988I-44194J44194D01*
G01*
G37*
G36*
G01*
X61032439Y-66124542D02*
X60944050Y-66036153D01*
G75*
G02*
X60944050Y-65947765I44194J44194D01*
G01*
X61421347Y-65470468D01*
G75*
G02*
X61509735Y-65470468I44194J-44194D01*
G01*
X61598124Y-65558857D01*
G75*
G02*
X61598124Y-65647245I-44194J-44194D01*
G01*
X61120827Y-66124542D01*
G75*
G02*
X61032439Y-66124542I-44194J44194D01*
G01*
G37*
G36*
G01*
X61385992Y-66478095D02*
X61297603Y-66389706D01*
G75*
G02*
X61297603Y-66301318I44194J44194D01*
G01*
X61774900Y-65824021D01*
G75*
G02*
X61863288Y-65824021I44194J-44194D01*
G01*
X61951677Y-65912410D01*
G75*
G02*
X61951677Y-66000798I-44194J-44194D01*
G01*
X61474380Y-66478095D01*
G75*
G02*
X61385992Y-66478095I-44194J44194D01*
G01*
G37*
G36*
G01*
X61739546Y-66831648D02*
X61651157Y-66743259D01*
G75*
G02*
X61651157Y-66654871I44194J44194D01*
G01*
X62128454Y-66177574D01*
G75*
G02*
X62216842Y-66177574I44194J-44194D01*
G01*
X62305231Y-66265963D01*
G75*
G02*
X62305231Y-66354351I-44194J-44194D01*
G01*
X61827934Y-66831648D01*
G75*
G02*
X61739546Y-66831648I-44194J44194D01*
G01*
G37*
G36*
G01*
X62093099Y-67185202D02*
X62004710Y-67096813D01*
G75*
G02*
X62004710Y-67008425I44194J44194D01*
G01*
X62482007Y-66531128D01*
G75*
G02*
X62570395Y-66531128I44194J-44194D01*
G01*
X62658784Y-66619517D01*
G75*
G02*
X62658784Y-66707905I-44194J-44194D01*
G01*
X62181487Y-67185202D01*
G75*
G02*
X62093099Y-67185202I-44194J44194D01*
G01*
G37*
G36*
G01*
X62446652Y-67538755D02*
X62358263Y-67450366D01*
G75*
G02*
X62358263Y-67361978I44194J44194D01*
G01*
X62835560Y-66884681D01*
G75*
G02*
X62923948Y-66884681I44194J-44194D01*
G01*
X63012337Y-66973070D01*
G75*
G02*
X63012337Y-67061458I-44194J-44194D01*
G01*
X62535040Y-67538755D01*
G75*
G02*
X62446652Y-67538755I-44194J44194D01*
G01*
G37*
G36*
G01*
X62800206Y-67892309D02*
X62711817Y-67803920D01*
G75*
G02*
X62711817Y-67715532I44194J44194D01*
G01*
X63189114Y-67238235D01*
G75*
G02*
X63277502Y-67238235I44194J-44194D01*
G01*
X63365891Y-67326624D01*
G75*
G02*
X63365891Y-67415012I-44194J-44194D01*
G01*
X62888594Y-67892309D01*
G75*
G02*
X62800206Y-67892309I-44194J44194D01*
G01*
G37*
G36*
G01*
X63153759Y-68245862D02*
X63065370Y-68157473D01*
G75*
G02*
X63065370Y-68069085I44194J44194D01*
G01*
X63542667Y-67591788D01*
G75*
G02*
X63631055Y-67591788I44194J-44194D01*
G01*
X63719444Y-67680177D01*
G75*
G02*
X63719444Y-67768565I-44194J-44194D01*
G01*
X63242147Y-68245862D01*
G75*
G02*
X63153759Y-68245862I-44194J44194D01*
G01*
G37*
G36*
G01*
X64532617Y-68245862D02*
X64055320Y-67768565D01*
G75*
G02*
X64055320Y-67680177I44194J44194D01*
G01*
X64143709Y-67591788D01*
G75*
G02*
X64232097Y-67591788I44194J-44194D01*
G01*
X64709394Y-68069085D01*
G75*
G02*
X64709394Y-68157473I-44194J-44194D01*
G01*
X64621005Y-68245862D01*
G75*
G02*
X64532617Y-68245862I-44194J44194D01*
G01*
G37*
G36*
G01*
X64886170Y-67892309D02*
X64408873Y-67415012D01*
G75*
G02*
X64408873Y-67326624I44194J44194D01*
G01*
X64497262Y-67238235D01*
G75*
G02*
X64585650Y-67238235I44194J-44194D01*
G01*
X65062947Y-67715532D01*
G75*
G02*
X65062947Y-67803920I-44194J-44194D01*
G01*
X64974558Y-67892309D01*
G75*
G02*
X64886170Y-67892309I-44194J44194D01*
G01*
G37*
G36*
G01*
X65239724Y-67538755D02*
X64762427Y-67061458D01*
G75*
G02*
X64762427Y-66973070I44194J44194D01*
G01*
X64850816Y-66884681D01*
G75*
G02*
X64939204Y-66884681I44194J-44194D01*
G01*
X65416501Y-67361978D01*
G75*
G02*
X65416501Y-67450366I-44194J-44194D01*
G01*
X65328112Y-67538755D01*
G75*
G02*
X65239724Y-67538755I-44194J44194D01*
G01*
G37*
G36*
G01*
X65593277Y-67185202D02*
X65115980Y-66707905D01*
G75*
G02*
X65115980Y-66619517I44194J44194D01*
G01*
X65204369Y-66531128D01*
G75*
G02*
X65292757Y-66531128I44194J-44194D01*
G01*
X65770054Y-67008425D01*
G75*
G02*
X65770054Y-67096813I-44194J-44194D01*
G01*
X65681665Y-67185202D01*
G75*
G02*
X65593277Y-67185202I-44194J44194D01*
G01*
G37*
G36*
G01*
X65946830Y-66831648D02*
X65469533Y-66354351D01*
G75*
G02*
X65469533Y-66265963I44194J44194D01*
G01*
X65557922Y-66177574D01*
G75*
G02*
X65646310Y-66177574I44194J-44194D01*
G01*
X66123607Y-66654871D01*
G75*
G02*
X66123607Y-66743259I-44194J-44194D01*
G01*
X66035218Y-66831648D01*
G75*
G02*
X65946830Y-66831648I-44194J44194D01*
G01*
G37*
G36*
G01*
X66300384Y-66478095D02*
X65823087Y-66000798D01*
G75*
G02*
X65823087Y-65912410I44194J44194D01*
G01*
X65911476Y-65824021D01*
G75*
G02*
X65999864Y-65824021I44194J-44194D01*
G01*
X66477161Y-66301318D01*
G75*
G02*
X66477161Y-66389706I-44194J-44194D01*
G01*
X66388772Y-66478095D01*
G75*
G02*
X66300384Y-66478095I-44194J44194D01*
G01*
G37*
G36*
G01*
X66653937Y-66124542D02*
X66176640Y-65647245D01*
G75*
G02*
X66176640Y-65558857I44194J44194D01*
G01*
X66265029Y-65470468D01*
G75*
G02*
X66353417Y-65470468I44194J-44194D01*
G01*
X66830714Y-65947765D01*
G75*
G02*
X66830714Y-66036153I-44194J-44194D01*
G01*
X66742325Y-66124542D01*
G75*
G02*
X66653937Y-66124542I-44194J44194D01*
G01*
G37*
G36*
G01*
X67007490Y-65770988D02*
X66530193Y-65293691D01*
G75*
G02*
X66530193Y-65205303I44194J44194D01*
G01*
X66618582Y-65116914D01*
G75*
G02*
X66706970Y-65116914I44194J-44194D01*
G01*
X67184267Y-65594211D01*
G75*
G02*
X67184267Y-65682599I-44194J-44194D01*
G01*
X67095878Y-65770988D01*
G75*
G02*
X67007490Y-65770988I-44194J44194D01*
G01*
G37*
G36*
G01*
X67361044Y-65417435D02*
X66883747Y-64940138D01*
G75*
G02*
X66883747Y-64851750I44194J44194D01*
G01*
X66972136Y-64763361D01*
G75*
G02*
X67060524Y-64763361I44194J-44194D01*
G01*
X67537821Y-65240658D01*
G75*
G02*
X67537821Y-65329046I-44194J-44194D01*
G01*
X67449432Y-65417435D01*
G75*
G02*
X67361044Y-65417435I-44194J44194D01*
G01*
G37*
G36*
G01*
X67714597Y-65063882D02*
X67237300Y-64586585D01*
G75*
G02*
X67237300Y-64498197I44194J44194D01*
G01*
X67325689Y-64409808D01*
G75*
G02*
X67414077Y-64409808I44194J-44194D01*
G01*
X67891374Y-64887105D01*
G75*
G02*
X67891374Y-64975493I-44194J-44194D01*
G01*
X67802985Y-65063882D01*
G75*
G02*
X67714597Y-65063882I-44194J44194D01*
G01*
G37*
G36*
G01*
X68068151Y-64710328D02*
X67590854Y-64233031D01*
G75*
G02*
X67590854Y-64144643I44194J44194D01*
G01*
X67679243Y-64056254D01*
G75*
G02*
X67767631Y-64056254I44194J-44194D01*
G01*
X68244928Y-64533551D01*
G75*
G02*
X68244928Y-64621939I-44194J-44194D01*
G01*
X68156539Y-64710328D01*
G75*
G02*
X68068151Y-64710328I-44194J44194D01*
G01*
G37*
G36*
G01*
X68421704Y-64356775D02*
X67944407Y-63879478D01*
G75*
G02*
X67944407Y-63791090I44194J44194D01*
G01*
X68032796Y-63702701D01*
G75*
G02*
X68121184Y-63702701I44194J-44194D01*
G01*
X68598481Y-64179998D01*
G75*
G02*
X68598481Y-64268386I-44194J-44194D01*
G01*
X68510092Y-64356775D01*
G75*
G02*
X68421704Y-64356775I-44194J44194D01*
G01*
G37*
G36*
G01*
X68032796Y-63366825D02*
X67944407Y-63278436D01*
G75*
G02*
X67944407Y-63190048I44194J44194D01*
G01*
X68421704Y-62712751D01*
G75*
G02*
X68510092Y-62712751I44194J-44194D01*
G01*
X68598481Y-62801140D01*
G75*
G02*
X68598481Y-62889528I-44194J-44194D01*
G01*
X68121184Y-63366825D01*
G75*
G02*
X68032796Y-63366825I-44194J44194D01*
G01*
G37*
G36*
G01*
X67679243Y-63013272D02*
X67590854Y-62924883D01*
G75*
G02*
X67590854Y-62836495I44194J44194D01*
G01*
X68068151Y-62359198D01*
G75*
G02*
X68156539Y-62359198I44194J-44194D01*
G01*
X68244928Y-62447587D01*
G75*
G02*
X68244928Y-62535975I-44194J-44194D01*
G01*
X67767631Y-63013272D01*
G75*
G02*
X67679243Y-63013272I-44194J44194D01*
G01*
G37*
G36*
G01*
X67325689Y-62659718D02*
X67237300Y-62571329D01*
G75*
G02*
X67237300Y-62482941I44194J44194D01*
G01*
X67714597Y-62005644D01*
G75*
G02*
X67802985Y-62005644I44194J-44194D01*
G01*
X67891374Y-62094033D01*
G75*
G02*
X67891374Y-62182421I-44194J-44194D01*
G01*
X67414077Y-62659718D01*
G75*
G02*
X67325689Y-62659718I-44194J44194D01*
G01*
G37*
G36*
G01*
X66972136Y-62306165D02*
X66883747Y-62217776D01*
G75*
G02*
X66883747Y-62129388I44194J44194D01*
G01*
X67361044Y-61652091D01*
G75*
G02*
X67449432Y-61652091I44194J-44194D01*
G01*
X67537821Y-61740480D01*
G75*
G02*
X67537821Y-61828868I-44194J-44194D01*
G01*
X67060524Y-62306165D01*
G75*
G02*
X66972136Y-62306165I-44194J44194D01*
G01*
G37*
G36*
G01*
X66618582Y-61952612D02*
X66530193Y-61864223D01*
G75*
G02*
X66530193Y-61775835I44194J44194D01*
G01*
X67007490Y-61298538D01*
G75*
G02*
X67095878Y-61298538I44194J-44194D01*
G01*
X67184267Y-61386927D01*
G75*
G02*
X67184267Y-61475315I-44194J-44194D01*
G01*
X66706970Y-61952612D01*
G75*
G02*
X66618582Y-61952612I-44194J44194D01*
G01*
G37*
G36*
G01*
X66265029Y-61599058D02*
X66176640Y-61510669D01*
G75*
G02*
X66176640Y-61422281I44194J44194D01*
G01*
X66653937Y-60944984D01*
G75*
G02*
X66742325Y-60944984I44194J-44194D01*
G01*
X66830714Y-61033373D01*
G75*
G02*
X66830714Y-61121761I-44194J-44194D01*
G01*
X66353417Y-61599058D01*
G75*
G02*
X66265029Y-61599058I-44194J44194D01*
G01*
G37*
G36*
G01*
X65911476Y-61245505D02*
X65823087Y-61157116D01*
G75*
G02*
X65823087Y-61068728I44194J44194D01*
G01*
X66300384Y-60591431D01*
G75*
G02*
X66388772Y-60591431I44194J-44194D01*
G01*
X66477161Y-60679820D01*
G75*
G02*
X66477161Y-60768208I-44194J-44194D01*
G01*
X65999864Y-61245505D01*
G75*
G02*
X65911476Y-61245505I-44194J44194D01*
G01*
G37*
G36*
G01*
X65557922Y-60891952D02*
X65469533Y-60803563D01*
G75*
G02*
X65469533Y-60715175I44194J44194D01*
G01*
X65946830Y-60237878D01*
G75*
G02*
X66035218Y-60237878I44194J-44194D01*
G01*
X66123607Y-60326267D01*
G75*
G02*
X66123607Y-60414655I-44194J-44194D01*
G01*
X65646310Y-60891952D01*
G75*
G02*
X65557922Y-60891952I-44194J44194D01*
G01*
G37*
G36*
G01*
X65204369Y-60538398D02*
X65115980Y-60450009D01*
G75*
G02*
X65115980Y-60361621I44194J44194D01*
G01*
X65593277Y-59884324D01*
G75*
G02*
X65681665Y-59884324I44194J-44194D01*
G01*
X65770054Y-59972713D01*
G75*
G02*
X65770054Y-60061101I-44194J-44194D01*
G01*
X65292757Y-60538398D01*
G75*
G02*
X65204369Y-60538398I-44194J44194D01*
G01*
G37*
G36*
G01*
X64850816Y-60184845D02*
X64762427Y-60096456D01*
G75*
G02*
X64762427Y-60008068I44194J44194D01*
G01*
X65239724Y-59530771D01*
G75*
G02*
X65328112Y-59530771I44194J-44194D01*
G01*
X65416501Y-59619160D01*
G75*
G02*
X65416501Y-59707548I-44194J-44194D01*
G01*
X64939204Y-60184845D01*
G75*
G02*
X64850816Y-60184845I-44194J44194D01*
G01*
G37*
G36*
G01*
X64497262Y-59831291D02*
X64408873Y-59742902D01*
G75*
G02*
X64408873Y-59654514I44194J44194D01*
G01*
X64886170Y-59177217D01*
G75*
G02*
X64974558Y-59177217I44194J-44194D01*
G01*
X65062947Y-59265606D01*
G75*
G02*
X65062947Y-59353994I-44194J-44194D01*
G01*
X64585650Y-59831291D01*
G75*
G02*
X64497262Y-59831291I-44194J44194D01*
G01*
G37*
G36*
G01*
X64143709Y-59477738D02*
X64055320Y-59389349D01*
G75*
G02*
X64055320Y-59300961I44194J44194D01*
G01*
X64532617Y-58823664D01*
G75*
G02*
X64621005Y-58823664I44194J-44194D01*
G01*
X64709394Y-58912053D01*
G75*
G02*
X64709394Y-59000441I-44194J-44194D01*
G01*
X64232097Y-59477738D01*
G75*
G02*
X64143709Y-59477738I-44194J44194D01*
G01*
G37*
G36*
G01*
X63542667Y-59477738D02*
X63065370Y-59000441D01*
G75*
G02*
X63065370Y-58912053I44194J44194D01*
G01*
X63153759Y-58823664D01*
G75*
G02*
X63242147Y-58823664I44194J-44194D01*
G01*
X63719444Y-59300961D01*
G75*
G02*
X63719444Y-59389349I-44194J-44194D01*
G01*
X63631055Y-59477738D01*
G75*
G02*
X63542667Y-59477738I-44194J44194D01*
G01*
G37*
G36*
G01*
X63189114Y-59831291D02*
X62711817Y-59353994D01*
G75*
G02*
X62711817Y-59265606I44194J44194D01*
G01*
X62800206Y-59177217D01*
G75*
G02*
X62888594Y-59177217I44194J-44194D01*
G01*
X63365891Y-59654514D01*
G75*
G02*
X63365891Y-59742902I-44194J-44194D01*
G01*
X63277502Y-59831291D01*
G75*
G02*
X63189114Y-59831291I-44194J44194D01*
G01*
G37*
G36*
G01*
X62835560Y-60184845D02*
X62358263Y-59707548D01*
G75*
G02*
X62358263Y-59619160I44194J44194D01*
G01*
X62446652Y-59530771D01*
G75*
G02*
X62535040Y-59530771I44194J-44194D01*
G01*
X63012337Y-60008068D01*
G75*
G02*
X63012337Y-60096456I-44194J-44194D01*
G01*
X62923948Y-60184845D01*
G75*
G02*
X62835560Y-60184845I-44194J44194D01*
G01*
G37*
G36*
G01*
X62482007Y-60538398D02*
X62004710Y-60061101D01*
G75*
G02*
X62004710Y-59972713I44194J44194D01*
G01*
X62093099Y-59884324D01*
G75*
G02*
X62181487Y-59884324I44194J-44194D01*
G01*
X62658784Y-60361621D01*
G75*
G02*
X62658784Y-60450009I-44194J-44194D01*
G01*
X62570395Y-60538398D01*
G75*
G02*
X62482007Y-60538398I-44194J44194D01*
G01*
G37*
G36*
G01*
X62128454Y-60891952D02*
X61651157Y-60414655D01*
G75*
G02*
X61651157Y-60326267I44194J44194D01*
G01*
X61739546Y-60237878D01*
G75*
G02*
X61827934Y-60237878I44194J-44194D01*
G01*
X62305231Y-60715175D01*
G75*
G02*
X62305231Y-60803563I-44194J-44194D01*
G01*
X62216842Y-60891952D01*
G75*
G02*
X62128454Y-60891952I-44194J44194D01*
G01*
G37*
G36*
G01*
X61774900Y-61245505D02*
X61297603Y-60768208D01*
G75*
G02*
X61297603Y-60679820I44194J44194D01*
G01*
X61385992Y-60591431D01*
G75*
G02*
X61474380Y-60591431I44194J-44194D01*
G01*
X61951677Y-61068728D01*
G75*
G02*
X61951677Y-61157116I-44194J-44194D01*
G01*
X61863288Y-61245505D01*
G75*
G02*
X61774900Y-61245505I-44194J44194D01*
G01*
G37*
G36*
G01*
X61421347Y-61599058D02*
X60944050Y-61121761D01*
G75*
G02*
X60944050Y-61033373I44194J44194D01*
G01*
X61032439Y-60944984D01*
G75*
G02*
X61120827Y-60944984I44194J-44194D01*
G01*
X61598124Y-61422281D01*
G75*
G02*
X61598124Y-61510669I-44194J-44194D01*
G01*
X61509735Y-61599058D01*
G75*
G02*
X61421347Y-61599058I-44194J44194D01*
G01*
G37*
G36*
G01*
X61067794Y-61952612D02*
X60590497Y-61475315D01*
G75*
G02*
X60590497Y-61386927I44194J44194D01*
G01*
X60678886Y-61298538D01*
G75*
G02*
X60767274Y-61298538I44194J-44194D01*
G01*
X61244571Y-61775835D01*
G75*
G02*
X61244571Y-61864223I-44194J-44194D01*
G01*
X61156182Y-61952612D01*
G75*
G02*
X61067794Y-61952612I-44194J44194D01*
G01*
G37*
G36*
G01*
X60714240Y-62306165D02*
X60236943Y-61828868D01*
G75*
G02*
X60236943Y-61740480I44194J44194D01*
G01*
X60325332Y-61652091D01*
G75*
G02*
X60413720Y-61652091I44194J-44194D01*
G01*
X60891017Y-62129388D01*
G75*
G02*
X60891017Y-62217776I-44194J-44194D01*
G01*
X60802628Y-62306165D01*
G75*
G02*
X60714240Y-62306165I-44194J44194D01*
G01*
G37*
G36*
G01*
X60360687Y-62659718D02*
X59883390Y-62182421D01*
G75*
G02*
X59883390Y-62094033I44194J44194D01*
G01*
X59971779Y-62005644D01*
G75*
G02*
X60060167Y-62005644I44194J-44194D01*
G01*
X60537464Y-62482941D01*
G75*
G02*
X60537464Y-62571329I-44194J-44194D01*
G01*
X60449075Y-62659718D01*
G75*
G02*
X60360687Y-62659718I-44194J44194D01*
G01*
G37*
G36*
G01*
X60007133Y-63013272D02*
X59529836Y-62535975D01*
G75*
G02*
X59529836Y-62447587I44194J44194D01*
G01*
X59618225Y-62359198D01*
G75*
G02*
X59706613Y-62359198I44194J-44194D01*
G01*
X60183910Y-62836495D01*
G75*
G02*
X60183910Y-62924883I-44194J-44194D01*
G01*
X60095521Y-63013272D01*
G75*
G02*
X60007133Y-63013272I-44194J44194D01*
G01*
G37*
G36*
G01*
X59653580Y-63366825D02*
X59176283Y-62889528D01*
G75*
G02*
X59176283Y-62801140I44194J44194D01*
G01*
X59264672Y-62712751D01*
G75*
G02*
X59353060Y-62712751I44194J-44194D01*
G01*
X59830357Y-63190048D01*
G75*
G02*
X59830357Y-63278436I-44194J-44194D01*
G01*
X59741968Y-63366825D01*
G75*
G02*
X59653580Y-63366825I-44194J44194D01*
G01*
G37*
D18*
G36*
X63887382Y-67282429D02*
G01*
X60139716Y-63534763D01*
X63887382Y-59787097D01*
X67635048Y-63534763D01*
X63887382Y-67282429D01*
G37*
G36*
G01*
X77044001Y-62578001D02*
X77044001Y-62878001D01*
G75*
G02*
X76894001Y-63028001I-150000J0D01*
G01*
X75244001Y-63028001D01*
G75*
G02*
X75094001Y-62878001I0J150000D01*
G01*
X75094001Y-62578001D01*
G75*
G02*
X75244001Y-62428001I150000J0D01*
G01*
X76894001Y-62428001D01*
G75*
G02*
X77044001Y-62578001I0J-150000D01*
G01*
G37*
G36*
G01*
X77044001Y-61308001D02*
X77044001Y-61608001D01*
G75*
G02*
X76894001Y-61758001I-150000J0D01*
G01*
X75244001Y-61758001D01*
G75*
G02*
X75094001Y-61608001I0J150000D01*
G01*
X75094001Y-61308001D01*
G75*
G02*
X75244001Y-61158001I150000J0D01*
G01*
X76894001Y-61158001D01*
G75*
G02*
X77044001Y-61308001I0J-150000D01*
G01*
G37*
G36*
G01*
X77044001Y-60038001D02*
X77044001Y-60338001D01*
G75*
G02*
X76894001Y-60488001I-150000J0D01*
G01*
X75244001Y-60488001D01*
G75*
G02*
X75094001Y-60338001I0J150000D01*
G01*
X75094001Y-60038001D01*
G75*
G02*
X75244001Y-59888001I150000J0D01*
G01*
X76894001Y-59888001D01*
G75*
G02*
X77044001Y-60038001I0J-150000D01*
G01*
G37*
G36*
G01*
X77044001Y-58768001D02*
X77044001Y-59068001D01*
G75*
G02*
X76894001Y-59218001I-150000J0D01*
G01*
X75244001Y-59218001D01*
G75*
G02*
X75094001Y-59068001I0J150000D01*
G01*
X75094001Y-58768001D01*
G75*
G02*
X75244001Y-58618001I150000J0D01*
G01*
X76894001Y-58618001D01*
G75*
G02*
X77044001Y-58768001I0J-150000D01*
G01*
G37*
G36*
G01*
X72094001Y-58768001D02*
X72094001Y-59068001D01*
G75*
G02*
X71944001Y-59218001I-150000J0D01*
G01*
X70294001Y-59218001D01*
G75*
G02*
X70144001Y-59068001I0J150000D01*
G01*
X70144001Y-58768001D01*
G75*
G02*
X70294001Y-58618001I150000J0D01*
G01*
X71944001Y-58618001D01*
G75*
G02*
X72094001Y-58768001I0J-150000D01*
G01*
G37*
G36*
G01*
X72094001Y-60038001D02*
X72094001Y-60338001D01*
G75*
G02*
X71944001Y-60488001I-150000J0D01*
G01*
X70294001Y-60488001D01*
G75*
G02*
X70144001Y-60338001I0J150000D01*
G01*
X70144001Y-60038001D01*
G75*
G02*
X70294001Y-59888001I150000J0D01*
G01*
X71944001Y-59888001D01*
G75*
G02*
X72094001Y-60038001I0J-150000D01*
G01*
G37*
G36*
G01*
X72094001Y-61308001D02*
X72094001Y-61608001D01*
G75*
G02*
X71944001Y-61758001I-150000J0D01*
G01*
X70294001Y-61758001D01*
G75*
G02*
X70144001Y-61608001I0J150000D01*
G01*
X70144001Y-61308001D01*
G75*
G02*
X70294001Y-61158001I150000J0D01*
G01*
X71944001Y-61158001D01*
G75*
G02*
X72094001Y-61308001I0J-150000D01*
G01*
G37*
G36*
G01*
X72094001Y-62578001D02*
X72094001Y-62878001D01*
G75*
G02*
X71944001Y-63028001I-150000J0D01*
G01*
X70294001Y-63028001D01*
G75*
G02*
X70144001Y-62878001I0J150000D01*
G01*
X70144001Y-62578001D01*
G75*
G02*
X70294001Y-62428001I150000J0D01*
G01*
X71944001Y-62428001D01*
G75*
G02*
X72094001Y-62578001I0J-150000D01*
G01*
G37*
G36*
G01*
X90007401Y-56440001D02*
X90307401Y-56440001D01*
G75*
G02*
X90457401Y-56590001I0J-150000D01*
G01*
X90457401Y-58240001D01*
G75*
G02*
X90307401Y-58390001I-150000J0D01*
G01*
X90007401Y-58390001D01*
G75*
G02*
X89857401Y-58240001I0J150000D01*
G01*
X89857401Y-56590001D01*
G75*
G02*
X90007401Y-56440001I150000J0D01*
G01*
G37*
G36*
G01*
X88737401Y-56440001D02*
X89037401Y-56440001D01*
G75*
G02*
X89187401Y-56590001I0J-150000D01*
G01*
X89187401Y-58240001D01*
G75*
G02*
X89037401Y-58390001I-150000J0D01*
G01*
X88737401Y-58390001D01*
G75*
G02*
X88587401Y-58240001I0J150000D01*
G01*
X88587401Y-56590001D01*
G75*
G02*
X88737401Y-56440001I150000J0D01*
G01*
G37*
G36*
G01*
X87467401Y-56440001D02*
X87767401Y-56440001D01*
G75*
G02*
X87917401Y-56590001I0J-150000D01*
G01*
X87917401Y-58240001D01*
G75*
G02*
X87767401Y-58390001I-150000J0D01*
G01*
X87467401Y-58390001D01*
G75*
G02*
X87317401Y-58240001I0J150000D01*
G01*
X87317401Y-56590001D01*
G75*
G02*
X87467401Y-56440001I150000J0D01*
G01*
G37*
G36*
G01*
X86197401Y-56440001D02*
X86497401Y-56440001D01*
G75*
G02*
X86647401Y-56590001I0J-150000D01*
G01*
X86647401Y-58240001D01*
G75*
G02*
X86497401Y-58390001I-150000J0D01*
G01*
X86197401Y-58390001D01*
G75*
G02*
X86047401Y-58240001I0J150000D01*
G01*
X86047401Y-56590001D01*
G75*
G02*
X86197401Y-56440001I150000J0D01*
G01*
G37*
G36*
G01*
X84927401Y-56440001D02*
X85227401Y-56440001D01*
G75*
G02*
X85377401Y-56590001I0J-150000D01*
G01*
X85377401Y-58240001D01*
G75*
G02*
X85227401Y-58390001I-150000J0D01*
G01*
X84927401Y-58390001D01*
G75*
G02*
X84777401Y-58240001I0J150000D01*
G01*
X84777401Y-56590001D01*
G75*
G02*
X84927401Y-56440001I150000J0D01*
G01*
G37*
G36*
G01*
X83657401Y-56440001D02*
X83957401Y-56440001D01*
G75*
G02*
X84107401Y-56590001I0J-150000D01*
G01*
X84107401Y-58240001D01*
G75*
G02*
X83957401Y-58390001I-150000J0D01*
G01*
X83657401Y-58390001D01*
G75*
G02*
X83507401Y-58240001I0J150000D01*
G01*
X83507401Y-56590001D01*
G75*
G02*
X83657401Y-56440001I150000J0D01*
G01*
G37*
G36*
G01*
X82387401Y-56440001D02*
X82687401Y-56440001D01*
G75*
G02*
X82837401Y-56590001I0J-150000D01*
G01*
X82837401Y-58240001D01*
G75*
G02*
X82687401Y-58390001I-150000J0D01*
G01*
X82387401Y-58390001D01*
G75*
G02*
X82237401Y-58240001I0J150000D01*
G01*
X82237401Y-56590001D01*
G75*
G02*
X82387401Y-56440001I150000J0D01*
G01*
G37*
G36*
G01*
X81117401Y-56440001D02*
X81417401Y-56440001D01*
G75*
G02*
X81567401Y-56590001I0J-150000D01*
G01*
X81567401Y-58240001D01*
G75*
G02*
X81417401Y-58390001I-150000J0D01*
G01*
X81117401Y-58390001D01*
G75*
G02*
X80967401Y-58240001I0J150000D01*
G01*
X80967401Y-56590001D01*
G75*
G02*
X81117401Y-56440001I150000J0D01*
G01*
G37*
G36*
G01*
X81117401Y-61390001D02*
X81417401Y-61390001D01*
G75*
G02*
X81567401Y-61540001I0J-150000D01*
G01*
X81567401Y-63190001D01*
G75*
G02*
X81417401Y-63340001I-150000J0D01*
G01*
X81117401Y-63340001D01*
G75*
G02*
X80967401Y-63190001I0J150000D01*
G01*
X80967401Y-61540001D01*
G75*
G02*
X81117401Y-61390001I150000J0D01*
G01*
G37*
G36*
G01*
X82387401Y-61390001D02*
X82687401Y-61390001D01*
G75*
G02*
X82837401Y-61540001I0J-150000D01*
G01*
X82837401Y-63190001D01*
G75*
G02*
X82687401Y-63340001I-150000J0D01*
G01*
X82387401Y-63340001D01*
G75*
G02*
X82237401Y-63190001I0J150000D01*
G01*
X82237401Y-61540001D01*
G75*
G02*
X82387401Y-61390001I150000J0D01*
G01*
G37*
G36*
G01*
X83657401Y-61390001D02*
X83957401Y-61390001D01*
G75*
G02*
X84107401Y-61540001I0J-150000D01*
G01*
X84107401Y-63190001D01*
G75*
G02*
X83957401Y-63340001I-150000J0D01*
G01*
X83657401Y-63340001D01*
G75*
G02*
X83507401Y-63190001I0J150000D01*
G01*
X83507401Y-61540001D01*
G75*
G02*
X83657401Y-61390001I150000J0D01*
G01*
G37*
G36*
G01*
X84927401Y-61390001D02*
X85227401Y-61390001D01*
G75*
G02*
X85377401Y-61540001I0J-150000D01*
G01*
X85377401Y-63190001D01*
G75*
G02*
X85227401Y-63340001I-150000J0D01*
G01*
X84927401Y-63340001D01*
G75*
G02*
X84777401Y-63190001I0J150000D01*
G01*
X84777401Y-61540001D01*
G75*
G02*
X84927401Y-61390001I150000J0D01*
G01*
G37*
G36*
G01*
X86197401Y-61390001D02*
X86497401Y-61390001D01*
G75*
G02*
X86647401Y-61540001I0J-150000D01*
G01*
X86647401Y-63190001D01*
G75*
G02*
X86497401Y-63340001I-150000J0D01*
G01*
X86197401Y-63340001D01*
G75*
G02*
X86047401Y-63190001I0J150000D01*
G01*
X86047401Y-61540001D01*
G75*
G02*
X86197401Y-61390001I150000J0D01*
G01*
G37*
G36*
G01*
X87467401Y-61390001D02*
X87767401Y-61390001D01*
G75*
G02*
X87917401Y-61540001I0J-150000D01*
G01*
X87917401Y-63190001D01*
G75*
G02*
X87767401Y-63340001I-150000J0D01*
G01*
X87467401Y-63340001D01*
G75*
G02*
X87317401Y-63190001I0J150000D01*
G01*
X87317401Y-61540001D01*
G75*
G02*
X87467401Y-61390001I150000J0D01*
G01*
G37*
G36*
G01*
X88737401Y-61390001D02*
X89037401Y-61390001D01*
G75*
G02*
X89187401Y-61540001I0J-150000D01*
G01*
X89187401Y-63190001D01*
G75*
G02*
X89037401Y-63340001I-150000J0D01*
G01*
X88737401Y-63340001D01*
G75*
G02*
X88587401Y-63190001I0J150000D01*
G01*
X88587401Y-61540001D01*
G75*
G02*
X88737401Y-61390001I150000J0D01*
G01*
G37*
G36*
G01*
X90007401Y-61390001D02*
X90307401Y-61390001D01*
G75*
G02*
X90457401Y-61540001I0J-150000D01*
G01*
X90457401Y-63190001D01*
G75*
G02*
X90307401Y-63340001I-150000J0D01*
G01*
X90007401Y-63340001D01*
G75*
G02*
X89857401Y-63190001I0J150000D01*
G01*
X89857401Y-61540001D01*
G75*
G02*
X90007401Y-61390001I150000J0D01*
G01*
G37*
D16*
X54826001Y-71574001D03*
D17*
X57366001Y-71574001D03*
X59906001Y-71574001D03*
X62446001Y-71574001D03*
X64986001Y-71574001D03*
X67526001Y-71574001D03*
X70066001Y-71574001D03*
X72606001Y-71574001D03*
X75146001Y-71574001D03*
X77686001Y-71574001D03*
X80226001Y-71574001D03*
X82766001Y-71574001D03*
X85306001Y-71574001D03*
X87846001Y-71574001D03*
X90386001Y-71574001D03*
X92926001Y-71574001D03*
X95466001Y-71574001D03*
X98006001Y-71574001D03*
X100546001Y-71574001D03*
X103086001Y-71574001D03*
D16*
X98768001Y-53032001D03*
D17*
X101308001Y-53032001D03*
X103848001Y-53032001D03*
M02*
